<?xml version="1.0" encoding="UTF-8"?>
<svg id="Layer_2" data-name="Layer 2" xmlns="http://www.w3.org/2000/svg" viewBox="0 0 449.16 319.79">
  <g id="Layer_1-2" data-name="Layer 1">
    <path d="M161.96,166.67c.38-2.5,1.78-3.67,3.86-3.94" style="fill: none; stroke: #a7a9ac; stroke-miterlimit: 10; stroke-width: 2px;"/>
    <g>
      <path d="M21.96.27h2.77l3.6,9.9h.04L31.95.27h2.77v12.87h-2.09V3.38h-.04l-3.4,9.76h-1.71l-3.4-9.76h-.04v9.76h-2.09V.27h.01Z" style="fill: #231f20;"/>
      <path d="M40.66,5.19c-1.51,0-2.07.47-2.16,1.66h-1.84c.09-1.76,1.22-3.15,4-3.15,2.03,0,3.55.77,3.55,3.22v4.38c0,.65.14.99.88.92v.9c-.43.16-.74.2-1.1.2-1.01,0-1.48-.36-1.66-1.26h-.04c-.58.81-1.62,1.37-3.04,1.37-1.87,0-3.02-1.08-3.02-2.63,0-2.02,1.49-2.65,3.8-3.1,1.42-.27,2.29-.45,2.29-1.33,0-.67-.4-1.17-1.66-1.17h0ZM42.32,9.66v-1.39c-.31.22-1.04.43-1.93.61-1.57.34-2.25.79-2.25,1.73,0,.85.5,1.31,1.53,1.31,1.57,0,2.65-.77,2.65-2.27h0Z" style="fill: #231f20;"/>
      <path d="M48.08.27v7.36l3.75-3.69h2.32l-3.49,3.42,3.87,5.78h-2.27l-2.9-4.54-1.28,1.21v3.33h-1.89V.27h1.89Z" style="fill: #231f20;"/>
      <path d="M61.23,10.34h1.89c-.47,1.75-1.84,3.08-4.2,3.08-2.86,0-4.61-1.98-4.61-4.86s1.75-4.86,4.52-4.86c2.97,0,4.43,2.07,4.43,5.35h-7.06c0,1.55.99,2.83,2.67,2.83,1.57,0,2.2-.97,2.36-1.53h0ZM56.21,7.64h5.17c0-1.42-1.01-2.45-2.54-2.45s-2.63,1.03-2.63,2.45Z" style="fill: #231f20;"/>
      <path d="M64.76.27h2.4l5.8,9.67h.04V.27h2.14v12.87h-2.38l-5.82-9.63h-.04v9.63h-2.14s0-12.87,0-12.87Z" style="fill: #231f20;"/>
      <path d="M81.45,13.42c-2.88,0-4.63-2-4.63-4.86s1.75-4.86,4.63-4.86,4.63,2,4.63,4.86-1.75,4.86-4.63,4.86ZM81.45,11.87c1.8,0,2.74-1.42,2.74-3.31s-.94-3.31-2.74-3.31-2.74,1.4-2.74,3.31.94,3.31,2.74,3.31Z" style="fill: #231f20;"/>
      <path d="M87.39,1.39c0-.65.54-.99,1.06-.99.56,0,1.08.34,1.08.99s-.52,1.01-1.08,1.01c-.52,0-1.06-.36-1.06-1.01ZM89.4,3.95v9.2h-1.89V3.95h1.89Z" style="fill: #231f20;"/>
      <path d="M98.84,10.56c0,1.76-1.51,2.86-3.75,2.86-2.97,0-4.25-1.39-4.34-3.33h1.84c.09.99.52,1.84,2.47,1.84,1.31,0,1.87-.65,1.87-1.22,0-1.15-1.1-1.24-2.45-1.57-1.46-.34-3.44-.63-3.44-2.72,0-1.51,1.33-2.72,3.64-2.72,2.5,0,3.69,1.35,3.82,2.95h-1.84c-.13-.72-.49-1.46-1.96-1.46-1.13,0-1.75.43-1.75,1.08,0,.94,1.03,1.01,2.36,1.31,1.69.4,3.53.77,3.53,2.97h0Z" style="fill: #231f20;"/>
      <path d="M106.67,10.34h1.89c-.47,1.75-1.84,3.08-4.2,3.08-2.86,0-4.61-1.98-4.61-4.86s1.75-4.86,4.52-4.86c2.97,0,4.43,2.07,4.43,5.35h-7.06c0,1.55.99,2.83,2.66,2.83,1.57,0,2.2-.97,2.36-1.53h0ZM101.64,7.64h5.17c0-1.42-1.01-2.45-2.54-2.45s-2.63,1.03-2.63,2.45Z" style="fill: #231f20;"/>
      <path d="M113.2,6.94c0-3.53,1.49-6.5,5.01-6.5s5.01,2.97,5.01,6.5-1.49,6.48-5.01,6.48-5.01-2.95-5.01-6.48ZM121.12,6.94c0-2.59-.72-4.72-2.92-4.72s-2.94,2.12-2.94,4.72.74,4.7,2.94,4.7,2.92-2.11,2.92-4.7Z" style="fill: #231f20;"/>
      <path d="M129.42,7.69v1.76h-4.84v-1.76h4.84Z" style="fill: #231f20;"/>
      <path d="M136.67,1.84c-2.77,0-3.87,2.32-3.87,4.86s1.1,4.88,3.87,4.88c2.39,0,3.31-1.57,3.46-3.13h2.14c-.29,2.9-2.27,4.97-5.55,4.97-3.71,0-6.05-2.83-6.05-6.72s2.34-6.7,6.05-6.7c3.26,0,5.24,2.07,5.55,4.7h-2.14c-.23-1.3-1.08-2.86-3.46-2.86Z" style="fill: #231f20;"/>
      <path d="M147.85,13.42c-2.88,0-4.63-2-4.63-4.86s1.75-4.86,4.63-4.86,4.63,2,4.63,4.86-1.75,4.86-4.63,4.86ZM147.85,11.87c1.8,0,2.74-1.42,2.74-3.31s-.94-3.31-2.74-3.31-2.74,1.4-2.74,3.31.94,3.31,2.74,3.31Z" style="fill: #231f20;"/>
      <path d="M157.69,5.19c-1.51,0-2.07.47-2.16,1.66h-1.84c.09-1.76,1.22-3.15,4-3.15,2.03,0,3.55.77,3.55,3.22v4.38c0,.65.14.99.88.92v.9c-.43.16-.74.2-1.1.2-1.01,0-1.48-.36-1.66-1.26h-.04c-.58.81-1.62,1.37-3.04,1.37-1.87,0-3.02-1.08-3.02-2.63,0-2.02,1.49-2.65,3.8-3.1,1.42-.27,2.29-.45,2.29-1.33,0-.67-.4-1.17-1.66-1.17h0ZM159.35,9.66v-1.39c-.31.22-1.04.43-1.93.61-1.57.34-2.25.79-2.25,1.73,0,.85.5,1.31,1.53,1.31,1.57,0,2.65-.77,2.65-2.27h0Z" style="fill: #231f20;"/>
      <path d="M170.73,10.56c0,1.76-1.51,2.86-3.75,2.86-2.97,0-4.25-1.39-4.34-3.33h1.84c.09.99.52,1.84,2.47,1.84,1.31,0,1.87-.65,1.87-1.22,0-1.15-1.1-1.24-2.45-1.57-1.46-.34-3.44-.63-3.44-2.72,0-1.51,1.33-2.72,3.64-2.72,2.5,0,3.69,1.35,3.82,2.95h-1.84c-.13-.72-.49-1.46-1.96-1.46-1.13,0-1.75.43-1.75,1.08,0,.94,1.03,1.01,2.36,1.31,1.69.4,3.53.77,3.53,2.97h0Z" style="fill: #231f20;"/>
      <path d="M174.43,5.5v4.99c0,1.04.5,1.17,1.73,1.1v1.55c-.38.09-.79.14-1.3.14-1.51,0-2.34-.68-2.34-2.63v-5.15h-1.33v-1.55h1.33V1.05h1.91v2.9h1.73v1.55h-1.73Z" style="fill: #231f20;"/>
      <path d="M21.66,18.97h3.41c1.57,0,2.78.7,2.78,2.49s-1.21,2.49-2.78,2.49h-2.33v3.59h-1.08v-8.58h0ZM22.74,23h2.45c1.07,0,1.58-.49,1.58-1.54s-.52-1.54-1.58-1.54h-2.45v3.07h0Z" style="fill: #231f20;"/>
      <path d="M31.01,22.1c-1.16,0-1.55.34-1.61,1.22h-.96c.06-1.18.79-2.06,2.57-2.06,1.16,0,2.21.46,2.21,1.93v2.97c0,.48.08.74.7.67v.67c-.25.08-.38.1-.56.1-.58,0-.92-.16-1.09-.83h-.02c-.38.58-1.07.94-2.07.94-1.24,0-2.01-.71-2.01-1.74,0-1.39,1.03-1.75,2.61-2.05,1.03-.19,1.5-.32,1.5-.94,0-.48-.26-.89-1.25-.89h-.02ZM32.26,25.19v-1.02c-.18.18-.77.35-1.42.48-1.19.25-1.74.55-1.74,1.28,0,.6.36.95,1.15.95,1.14,0,2-.52,2-1.69h0Z" style="fill: #231f20;"/>
      <path d="M35.98,22.27v3.68c0,.7.38.82,1.2.76v.84c-.22.05-.47.07-.72.07-.82,0-1.44-.32-1.44-1.57v-3.78h-.9v-.84h.9v-2.04h.96v2.04h1.2v.84h-1.2Z" style="fill: #231f20;"/>
      <path d="M40.74,22.1c-1.45,0-2,1.24-2,2.39s.55,2.39,2,2.39c1.24,0,1.68-.85,1.73-1.58h.96c-.08,1.39-1.18,2.42-2.69,2.42-1.79,0-2.96-1.31-2.96-3.23s1.18-3.23,2.96-3.23c1.51,0,2.54,1.01,2.69,2.38h-.96c-.05-.67-.5-1.54-1.73-1.54h0Z" style="fill: #231f20;"/>
      <path d="M49.4,23.28v4.27h-.96v-4.03c0-.79-.37-1.42-1.33-1.42-1.08,0-1.8.68-1.8,1.63v3.81h-.96v-8.58h.96v3.19h.02c.32-.43.97-.9,2.02-.9,1.12,0,2.05.61,2.05,2.02h0Z" style="fill: #231f20;"/>
      <path d="M57.9,25.87c0,1.12-1.02,1.85-2.41,1.85-1.87,0-2.73-.89-2.79-2.21h.96c.06.68.3,1.37,1.83,1.37,1.04,0,1.45-.54,1.45-.95,0-.89-.8-.94-1.68-1.15-.94-.23-2.33-.34-2.33-1.77,0-.96.85-1.74,2.29-1.74,1.52,0,2.34.86,2.43,1.92h-.96c-.1-.47-.32-1.08-1.48-1.08-.86,0-1.33.35-1.33.83,0,.72.83.78,1.68.98,1.09.26,2.33.44,2.33,1.95h.01Z" style="fill: #231f20;"/>
      <path d="M63.89,23.28v4.27h-.96v-4.03c0-.79-.37-1.42-1.33-1.42-1.08,0-1.8.68-1.8,1.63v3.81h-.96v-8.58h.96v3.19h.02c.32-.43.97-.9,2.02-.9,1.12,0,2.05.61,2.05,2.02h0Z" style="fill: #231f20;"/>
      <path d="M69.56,25.67h.96c-.31,1.14-1.19,2.05-2.71,2.05-1.86,0-2.99-1.31-2.99-3.23,0-2.04,1.15-3.23,2.94-3.23,1.92,0,2.85,1.31,2.85,3.48h-4.83c0,1.1.66,2.13,1.99,2.13,1.22,0,1.68-.79,1.79-1.21h0ZM65.79,23.9h3.87c0-.98-.74-1.8-1.9-1.8s-1.98.82-1.98,1.8h.01Z" style="fill: #231f20;"/>
      <path d="M75.96,25.67h.96c-.31,1.14-1.19,2.05-2.71,2.05-1.86,0-2.99-1.31-2.99-3.23,0-2.04,1.15-3.23,2.94-3.23,1.92,0,2.85,1.31,2.85,3.48h-4.83c0,1.1.66,2.13,1.99,2.13,1.22,0,1.68-.79,1.79-1.21h0ZM72.18,23.9h3.87c0-.98-.74-1.8-1.9-1.8s-1.98.82-1.98,1.8h.01Z" style="fill: #231f20;"/>
      <path d="M79.31,22.27v3.68c0,.7.38.82,1.2.76v.84c-.22.05-.47.07-.72.07-.82,0-1.44-.32-1.44-1.57v-3.78h-.9v-.84h.9v-2.04h.96v2.04h1.2v.84h-1.2,0Z" style="fill: #231f20;"/>
    </g>
    <rect x="20.86" y="38.23" width="412.11" height="246.52" style="fill: none; stroke: #231f20; stroke-miterlimit: 10; stroke-width: .5px;"/>
    <circle cx="121.11" cy="249.79" r="4.92" style="fill: none; stroke: #231f20; stroke-miterlimit: 10; stroke-width: .5px;"/>
    <circle cx="388.63" cy="250.03" r="5.17" style="fill: none; stroke: #231f20; stroke-miterlimit: 10; stroke-width: .5px;"/>
    <circle cx="360.43" cy="249.79" r="5.17" style="fill: none; stroke: #231f20; stroke-miterlimit: 10; stroke-width: .5px;"/>
    <circle cx="314.03" cy="250.18" r="5.17" style="fill: none; stroke: #231f20; stroke-miterlimit: 10; stroke-width: .5px;"/>
    <circle cx="202.03" cy="250.18" r="5.17" style="fill: none; stroke: #231f20; stroke-miterlimit: 10; stroke-width: .5px;"/>
    <circle cx="284.33" cy="249.89" r="5.17" style="fill: none; stroke: #231f20; stroke-miterlimit: 10; stroke-width: .5px;"/>
    <circle cx="49.99" cy="142.75" r="5.17" style="fill: none; stroke: #231f20; stroke-miterlimit: 10; stroke-width: .5px;"/>
    <g>
      <path d="M41.12,154.4h.74l1.34,3.56h0l1.34-3.56h.74v4.29h-.54v-3.53h0l-1.3,3.53h-.48l-1.29-3.53h0v3.53h-.54s0-4.29,0-4.29Z" style="fill: #231f20;"/>
      <path d="M46.66,154.4v4.29h-.54v-4.29h.54Z" style="fill: #231f20;"/>
      <path d="M47.47,154.4h1.55c1.18,0,1.91.77,1.91,2.15s-.73,2.14-1.91,2.14h-1.55v-4.29ZM48.01,158.2h1.01c1.09,0,1.37-.82,1.37-1.66s-.28-1.67-1.37-1.67h-1.01v3.33h0Z" style="fill: #231f20;"/>
      <path d="M52.13,154.4v4.29h-.54v-4.29h.54Z" style="fill: #231f20;"/>
      <path d="M54.7,154.4v4.29h-.54v-4.29h.54Z" style="fill: #231f20;"/>
      <path d="M55.51,154.4h.66l2.14,3.53h0v-3.53h.54v4.29h-.66l-2.14-3.52h0v3.52h-.54v-4.29Z" style="fill: #231f20;"/>
    </g>
    <g>
      <path d="M118.27,240.73c0,.62-.46,1.21-1.55,1.21-1.01,0-1.8-.54-1.86-1.52h.54c.06.59.42,1.04,1.32,1.04.74,0,1.01-.34,1.01-.73,0-.59-.32-.7-1.28-.92-.64-.15-1.41-.37-1.41-1.21,0-.68.52-1.13,1.47-1.13s1.55.47,1.62,1.36h-.54c-.08-.58-.4-.88-1.08-.88-.61,0-.93.23-.93.59,0,.57.46.65,1.09.8.97.24,1.6.4,1.6,1.38h0Z" style="fill: #231f20;"/>
      <path d="M120.52,241.94c-1.15,0-1.64-.64-1.64-1.51v-2.86h.54v2.86c0,.7.36,1.03,1.1,1.03s1.1-.33,1.1-1.03v-2.86h.54v2.86c0,.88-.5,1.51-1.64,1.51Z" style="fill: #231f20;"/>
      <path d="M122.9,237.56h.74l1.34,3.56h.01l1.34-3.56h.74v4.29h-.54v-3.53h-.01l-1.3,3.53h-.48l-1.29-3.53h-.01v3.53h-.54v-4.29h0Z" style="fill: #231f20;"/>
    </g>
    <g>
      <path d="M192.42,261.3c0-1.29.84-2.22,2.1-2.22s2.1.94,2.1,2.22-.84,2.23-2.1,2.23-2.1-.94-2.1-2.23ZM196.08,261.3c0-.92-.48-1.75-1.56-1.75s-1.56.82-1.56,1.75.48,1.75,1.56,1.75,1.56-.83,1.56-1.75Z" style="fill: #231f20;"/>
      <path d="M197.28,259.16l1.22,3.75h0l1.22-3.75h.57l-1.5,4.29h-.59l-1.5-4.29h.58Z" style="fill: #231f20;"/>
      <path d="M200.77,259.16h1.74c.85,0,1.42.46,1.42,1.22,0,.62-.29.96-.77,1.08h0c.95.2.61,1.88.83,1.95v.04h-.58c-.19-.18.22-1.73-.86-1.73h-1.23v1.73h-.54v-4.29h-.01ZM201.31,261.24h1.07c.44,0,1-.05,1-.8s-.56-.8-1-.8h-1.07v1.59h0Z" style="fill: #231f20;"/>
      <path d="M205.63,259.64h-1.43v-.48h3.39v.48h-1.43v3.81h-.54v-3.81h0Z" style="fill: #231f20;"/>
      <path d="M208.13,259.16h.66l2.14,3.53h0v-3.53h.54v4.29h-.66l-2.14-3.52h0v3.52h-.54v-4.29Z" style="fill: #231f20;"/>
    </g>
    <g>
      <path d="M278.44,262.33c0,.62-.46,1.21-1.55,1.21-1.01,0-1.8-.54-1.86-1.52h.54c.06.59.42,1.04,1.32,1.04.74,0,1.01-.34,1.01-.73,0-.59-.32-.7-1.28-.92-.64-.15-1.41-.37-1.41-1.21,0-.68.52-1.13,1.47-1.13s1.55.47,1.62,1.36h-.54c-.08-.58-.4-.88-1.08-.88-.61,0-.93.23-.93.59,0,.57.46.65,1.09.8.97.24,1.6.4,1.6,1.38h0Z" style="fill: #231f20;"/>
      <path d="M279.6,259.16v3.81h2.25v.48h-2.79v-4.29h.54Z" style="fill: #231f20;"/>
      <path d="M281.96,261.3c0-1.29.84-2.22,2.1-2.22s2.1.94,2.1,2.22-.84,2.23-2.1,2.23-2.1-.94-2.1-2.23ZM285.61,261.3c0-.92-.48-1.75-1.56-1.75s-1.56.82-1.56,1.75.48,1.75,1.56,1.75,1.56-.83,1.56-1.75Z" style="fill: #231f20;"/>
      <path d="M286.8,259.16h1.7c.79,0,1.39.35,1.39,1.25s-.61,1.25-1.39,1.25h-1.16v1.79h-.54v-4.29ZM287.34,261.18h1.22c.53,0,.79-.25.79-.77s-.26-.77-.79-.77h-1.22v1.54h0Z" style="fill: #231f20;"/>
      <path d="M293.16,260.99v.48h-2.2v1.5h2.56v.48h-3.1v-4.29h3.03v.48h-2.49v1.35h2.2Z" style="fill: #231f20;"/>
    </g>
    <g>
      <path d="M308.67,236.11c-1.02,0-1.45.94-1.45,1.75s.31,1.75,1.39,1.75c.77,0,1.4-.55,1.4-1.35h-1.4v-.48h1.94v2.23h-.36l-.18-.61h-.01c-.32.45-.73.69-1.39.69-1.25,0-1.93-.94-1.93-2.23s.8-2.22,1.99-2.22c1.09,0,1.65.56,1.8,1.38h-.54c-.13-.61-.62-.9-1.27-.9h.01Z" style="fill: #231f20;"/>
      <path d="M311.89,238.93l-.38,1.07h-.56l1.58-4.29h.6l1.58,4.29h-.56l-.38-1.07h-1.89.01ZM313.6,238.45l-.76-2.24h-.01l-.76,2.24h1.54,0Z" style="fill: #231f20;"/>
      <path d="M315.8,236.19h-1.43v-.48h3.39v.48h-1.43v3.81h-.54v-3.81h0Z" style="fill: #231f20;"/>
      <path d="M321.04,237.54v.48h-2.2v1.5h2.56v.48h-3.1v-4.29h3.03v.48h-2.49v1.35h2.2Z" style="fill: #231f20;"/>
    </g>
    <g>
      <path d="M354.79,236.19c-1.02,0-1.44.88-1.44,1.75s.43,1.75,1.44,1.75c.9,0,1.25-.61,1.28-1.15h.54c-.1.95-.77,1.63-1.82,1.63-1.18,0-1.98-.94-1.98-2.23s.81-2.22,1.98-2.22c1.05,0,1.72.68,1.82,1.5h-.54c-.08-.41-.39-1.02-1.28-1.02h0Z" style="fill: #231f20;"/>
      <path d="M357.22,235.8h.66l2.14,3.53h.01v-3.53h.54v4.29h-.66l-2.14-3.52h-.01v3.52h-.54v-4.29Z" style="fill: #231f20;"/>
      <path d="M362.39,236.28h-1.43v-.48h3.39v.48h-1.43v3.81h-.54v-3.81h0Z" style="fill: #231f20;"/>
      <path d="M364.89,235.8h1.74c.85,0,1.42.46,1.42,1.22,0,.62-.29.96-.77,1.08h0c.95.2.61,1.88.83,1.95v.04h-.58c-.19-.18.22-1.73-.86-1.73h-1.23v1.73h-.54v-4.29h-.01ZM365.43,237.87h1.07c.44,0,1-.05,1-.8s-.56-.8-1-.8h-1.07v1.6h0Z" style="fill: #231f20;"/>
    </g>
    <g>
      <path d="M378.56,237.56h1.55c1.18,0,1.91.77,1.91,2.15s-.73,2.14-1.91,2.14h-1.55v-4.29ZM379.1,241.37h1.01c1.09,0,1.37-.82,1.37-1.66s-.28-1.67-1.37-1.67h-1.01v3.33h0Z" style="fill: #231f20;"/>
      <path d="M382.54,237.56l1.24,2.1h.01l1.25-2.1h.58l-1.57,2.53v1.76h-.54v-1.76l-1.56-2.53h.59Z" style="fill: #231f20;"/>
      <path d="M386.09,237.56h.66l2.14,3.53h.01v-3.53h.54v4.29h-.66l-2.14-3.52h-.01v3.52h-.54v-4.29Z" style="fill: #231f20;"/>
      <path d="M390.24,237.56h.74l1.34,3.56h.01l1.34-3.56h.74v4.29h-.54v-3.53h-.01l-1.3,3.53h-.48l-1.29-3.53h-.01v3.53h-.54v-4.29h0Z" style="fill: #231f20;"/>
      <path d="M397.08,237.96c-1.02,0-1.44.88-1.44,1.75s.43,1.75,1.44,1.75c.9,0,1.25-.61,1.28-1.15h.54c-.1.95-.77,1.63-1.82,1.63-1.18,0-1.98-.94-1.98-2.23s.81-2.22,1.98-2.22c1.05,0,1.72.68,1.82,1.5h-.54c-.08-.41-.39-1.02-1.28-1.02h0Z" style="fill: #231f20;"/>
    </g>
    <g>
      <polyline points="121.11 249.72 121.11 319.54 388.63 319.54 388.63 251.52" style="fill: none; stroke: #231f20; stroke-miterlimit: 10; stroke-width: .5px;"/>
      <circle cx="121.11" cy="249.81" r="1.88" style="fill: #231f20;"/>
      <polygon points="391.12 252.25 388.63 247.93 386.14 252.25 391.12 252.25" style="fill: #231f20;"/>
    </g>
    <g>
      <line x1="282.05" y1="249.89" x2="204.54" y2="249.89" style="fill: none; stroke: #231f20; stroke-miterlimit: 10; stroke-width: .5px;"/>
      <circle cx="281.96" cy="249.89" r="1.88" style="fill: #231f20;"/>
      <polygon points="205.27 247.39 200.96 249.89 205.27 252.38 205.27 247.39" style="fill: #231f20;"/>
    </g>
    <g>
      <path d="M372.08,141.63h1.55c1.18,0,1.91.77,1.91,2.15s-.73,2.14-1.91,2.14h-1.55v-4.29ZM372.62,145.44h1.01c1.09,0,1.37-.82,1.37-1.66s-.28-1.67-1.37-1.67h-1.01v3.33h0Z" style="fill: #231f20;"/>
      <path d="M376.06,141.63l1.24,2.1h.01l1.25-2.1h.58l-1.57,2.53v1.76h-.54v-1.76l-1.56-2.53h.59Z" style="fill: #231f20;"/>
      <path d="M379.61,141.63h.66l2.14,3.53h.01v-3.53h.54v4.29h-.66l-2.14-3.52h-.01v3.52h-.54v-4.29Z" style="fill: #231f20;"/>
      <path d="M384.36,144.85l-.38,1.07h-.56l1.58-4.29h.6l1.58,4.29h-.56l-.38-1.07h-1.89.01ZM386.07,144.37l-.76-2.24h-.01l-.76,2.24h1.54,0Z" style="fill: #231f20;"/>
      <path d="M387.65,141.63h.74l1.34,3.56h.01l1.34-3.56h.74v4.29h-.54v-3.53h-.01l-1.3,3.53h-.48l-1.29-3.53h-.01v3.53h-.54v-4.29h0Z" style="fill: #231f20;"/>
      <path d="M393.18,141.63v4.29h-.54v-4.29h.54Z" style="fill: #231f20;"/>
      <path d="M395.85,142.03c-1.02,0-1.44.88-1.44,1.75s.43,1.75,1.44,1.75c.9,0,1.25-.61,1.28-1.15h.54c-.1.95-.77,1.63-1.82,1.63-1.18,0-1.98-.94-1.98-2.23s.81-2.22,1.98-2.22c1.05,0,1.72.68,1.82,1.5h-.54c-.08-.41-.39-1.02-1.28-1.02h0Z" style="fill: #231f20;"/>
      <path d="M401.41,144.8c0,.62-.46,1.21-1.55,1.21-1.01,0-1.8-.54-1.86-1.52h.54c.06.59.42,1.04,1.32,1.04.74,0,1.01-.34,1.01-.73,0-.59-.32-.7-1.28-.92-.64-.15-1.41-.37-1.41-1.21,0-.68.52-1.13,1.47-1.13s1.55.47,1.62,1.36h-.54c-.08-.58-.4-.88-1.08-.88-.61,0-.93.23-.93.59,0,.57.46.65,1.09.8.97.24,1.6.4,1.6,1.38h0Z" style="fill: #231f20;"/>
    </g>
    <path d="M386.79,177.06c-5.04-4.48-4.46-12.07-.35-15.38,3.76-3.03,10.43-2.46,14.12,2.39" style="fill: none; stroke: #a7a9ac; stroke-miterlimit: 10; stroke-width: 2px;"/>
    <circle cx="392.49" cy="169.26" r="8.41" style="fill: none; stroke: #231f20; stroke-miterlimit: 10; stroke-width: .5px;"/>
    <rect x="385.89" y="170.93" width="8.41" height="3.6" rx="1.8" ry="1.8" transform="translate(26.44 395.81) rotate(-55.41)" style="fill: none; stroke: #231f20; stroke-miterlimit: 10; stroke-width: .5px;"/>
    <g>
      <path d="M374.4,150.58c0,.41-.3.79-1.02.79-.67,0-1.18-.35-1.22-1h.35c.04.39.28.69.87.69.49,0,.66-.22.66-.48,0-.39-.21-.46-.84-.6-.42-.1-.93-.24-.93-.79,0-.44.34-.74.96-.74s1.02.31,1.06.89h-.35c-.05-.38-.26-.58-.71-.58-.4,0-.61.15-.61.39,0,.37.3.42.72.53.63.16,1.05.26,1.05.91h0Z" style="fill: #231f20;"/>
      <path d="M375.24,149.59v1.21c0,.23.13.27.39.25v.28c-.07.02-.15.02-.24.02-.27,0-.47-.11-.47-.52v-1.24h-.3v-.28h.3v-.67h.31v.67h.39v.28h-.39,0Z" style="fill: #231f20;"/>
      <path d="M376.78,149.53c-.38,0-.51.11-.53.4h-.31c.02-.39.26-.68.84-.68.38,0,.72.15.72.63v.98c0,.16.03.24.23.22v.22c-.08.03-.13.03-.19.03-.19,0-.3-.05-.36-.27h0c-.13.19-.35.31-.68.31-.41,0-.66-.23-.66-.57,0-.46.34-.57.86-.67.34-.06.49-.11.49-.31,0-.16-.09-.29-.41-.29ZM377.19,150.54v-.33c-.06.06-.25.11-.46.16-.39.08-.57.18-.57.42,0,.2.12.31.38.31.37,0,.66-.17.66-.55h-.01Z" style="fill: #231f20;"/>
      <path d="M379.03,149.27v.31h0c-.44-.07-.74.24-.74.67v1.07h-.31v-2.01h.31v.4h0c.11-.26.27-.45.55-.45.08,0,.13,0,.19.01Z" style="fill: #231f20;"/>
      <path d="M379.8,149.59v1.21c0,.23.13.27.39.25v.28c-.07.02-.15.02-.24.02-.27,0-.47-.11-.47-.52v-1.24h-.3v-.28h.3v-.67h.31v.67h.39v.28h-.39,0Z" style="fill: #231f20;"/>
      <path d="M381.27,149.96c0-.77.3-1.42,1.05-1.42s1.05.65,1.05,1.42-.3,1.41-1.05,1.41-1.05-.64-1.05-1.41ZM383.01,149.96c0-.58-.17-1.1-.69-1.1s-.69.52-.69,1.1.17,1.1.69,1.1.69-.52.69-1.1Z" style="fill: #231f20;"/>
      <path d="M384.42,149.32c0-.42.21-.78.63-.78s.63.36.63.78-.2.78-.63.78-.63-.36-.63-.78ZM385.41,149.32c0-.3-.12-.5-.36-.5s-.36.21-.36.5.12.5.36.5.36-.2.36-.5ZM385.35,151.32h-.28l1.43-2.72h.28l-1.43,2.72ZM386.17,150.59c0-.42.2-.78.63-.78s.63.36.63.78-.2.78-.63.78-.63-.36-.63-.78ZM387.16,150.59c0-.3-.12-.5-.36-.5s-.36.21-.36.5.12.5.36.5.36-.2.36-.5Z" style="fill: #231f20;"/>
      <path d="M372.34,152.5h1.14c.56,0,.93.3.93.8,0,.41-.19.63-.5.71h0c.63.13.4,1.24.54,1.28v.02h-.38c-.12-.12.15-1.14-.57-1.14h-.81v1.14h-.35v-2.81h0ZM372.69,153.87h.7c.29,0,.66-.04.66-.52s-.37-.52-.66-.52h-.7v1.05h0Z" style="fill: #231f20;"/>
      <path d="M375.6,153.53c-.38,0-.51.11-.53.4h-.31c.02-.39.26-.68.84-.68.38,0,.72.15.72.63v.98c0,.16.03.24.23.22v.22c-.08.03-.13.03-.19.03-.19,0-.3-.05-.36-.27h0c-.13.19-.35.31-.68.31-.41,0-.66-.23-.66-.57,0-.46.34-.57.86-.67.34-.06.49-.11.49-.31,0-.16-.09-.29-.41-.29ZM376.01,154.54v-.33c-.06.06-.25.11-.46.16-.39.08-.57.18-.57.42,0,.2.12.31.38.31.37,0,.66-.17.66-.55h-.01Z" style="fill: #231f20;"/>
      <path d="M378.45,153.92v1.4h-.31v-1.32c0-.26-.12-.46-.44-.46-.35,0-.59.22-.59.54v1.25h-.31v-2.01h.31v.24h0c.11-.14.32-.3.66-.3.37,0,.67.2.67.66h0Z" style="fill: #231f20;"/>
      <path d="M380.62,153.31v1.9c0,.54-.34.81-.89.81s-.88-.29-.91-.63h.31c.04.2.2.36.58.36s.59-.16.59-.54v-.3h0c-.12.17-.31.31-.64.31-.5,0-.9-.32-.9-.98s.4-.98.9-.98c.33,0,.52.15.64.3h0v-.25h.32ZM380.3,154.24c0-.47-.23-.7-.61-.7-.41,0-.62.31-.62.7s.21.7.62.7c.37,0,.61-.23.61-.7Z" style="fill: #231f20;"/>
      <path d="M382.49,154.7h.31c-.1.37-.39.67-.89.67-.61,0-.98-.43-.98-1.06,0-.67.38-1.06.96-1.06.63,0,.94.43.94,1.14h-1.59c0,.36.22.7.65.7.4,0,.55-.26.59-.4h.01ZM381.25,154.12h1.27c0-.32-.24-.59-.62-.59s-.65.27-.65.59Z" style="fill: #231f20;"/>
      <path d="M383.89,153.96c0-.77.3-1.42,1.05-1.42s1.05.65,1.05,1.42-.3,1.41-1.05,1.41-1.05-.64-1.05-1.41ZM385.63,153.96c0-.58-.17-1.1-.69-1.1s-.69.52-.69,1.1.17,1.1.69,1.1.69-.52.69-1.1Z" style="fill: #231f20;"/>
      <path d="M388.15,154.16v.31h-1.06v-.31h1.06Z" style="fill: #231f20;"/>
      <path d="M390.15,152.6v2.72h-.35v-2.04c-.17.16-.32.16-.57.16v-.26c.48,0,.61-.23.65-.59h.28,0Z" style="fill: #231f20;"/>
      <path d="M390.63,153.96c0-.77.3-1.42,1.05-1.42s1.05.65,1.05,1.42-.3,1.41-1.05,1.41-1.05-.64-1.05-1.41ZM392.37,153.96c0-.58-.17-1.1-.69-1.1s-.69.52-.69,1.1.17,1.1.69,1.1.69-.52.69-1.1Z" style="fill: #231f20;"/>
      <path d="M393.07,153.96c0-.77.3-1.42,1.05-1.42s1.05.65,1.05,1.42-.3,1.41-1.05,1.41-1.05-.64-1.05-1.41ZM394.81,153.96c0-.58-.17-1.1-.69-1.1s-.69.52-.69,1.1.17,1.1.69,1.1.69-.52.69-1.1Z" style="fill: #231f20;"/>
      <path d="M396.22,153.32c0-.42.2-.78.63-.78s.63.36.63.78-.2.78-.63.78-.63-.36-.63-.78ZM397.21,153.32c0-.3-.12-.5-.36-.5s-.36.21-.36.5.12.5.36.5.36-.2.36-.5ZM397.15,155.32h-.28l1.43-2.72h.28l-1.43,2.72ZM397.96,154.59c0-.42.2-.78.63-.78s.63.36.63.78-.2.78-.63.78-.63-.36-.63-.78ZM398.96,154.59c0-.3-.12-.5-.36-.5s-.36.21-.36.5.12.5.36.5.36-.2.36-.5Z" style="fill: #231f20;"/>
    </g>
    <path d="M331.9,220.68c-2.47-2.14-3.41-5.15-3.34-8.74" style="fill: none; stroke: #a7a9ac; stroke-miterlimit: 10; stroke-width: 2px;"/>
    <circle cx="338.01" cy="213.56" r="8.41" style="fill: none; stroke: #231f20; stroke-miterlimit: 10; stroke-width: .5px;"/>
    <rect x="329.83" y="213.13" width="8.41" height="3.6" rx="1.8" ry="1.8" transform="translate(-51.84 120.73) rotate(-19.04)" style="fill: none; stroke: #231f20; stroke-miterlimit: 10; stroke-width: .5px;"/>
    <g>
      <path d="M355.27,210.43h-.48v-2.2h-1.5v2.56h-.48v-3.1h4.29v3.03h-.48v-2.49h-1.35v2.2h0Z" style="fill: #231f20;"/>
      <path d="M357.09,211.2v.6l-1.71,1.06h0l1.71,1.07v.6l-2.09-1.36-2.2,1.46v-.66l1.81-1.1h0l-1.81-1.1v-.66l2.19,1.46,2.1-1.36h0Z" style="fill: #231f20;"/>
      <path d="M357.09,215.11v1.7c0,.79-.35,1.39-1.25,1.39s-1.25-.61-1.25-1.39v-1.16h-1.79v-.54h4.29ZM355.08,215.65v1.22c0,.53.25.79.77.79s.77-.26.77-.79v-1.22h-1.54,0Z" style="fill: #231f20;"/>
    </g>
    <g>
      <path d="M355.13,199.47c0,.41-.3.79-1.02.79-.67,0-1.18-.35-1.22-1h.35c.04.39.28.69.87.69.49,0,.66-.22.66-.48,0-.39-.21-.46-.84-.6-.42-.1-.93-.24-.93-.79,0-.44.34-.74.96-.74s1.02.31,1.06.89h-.35c-.05-.38-.26-.58-.71-.58-.4,0-.61.15-.61.39,0,.37.3.42.72.53.63.16,1.05.26,1.05.91h0Z" style="fill: #231f20;"/>
      <path d="M355.97,198.47v1.21c0,.23.13.27.39.25v.28c-.07.02-.15.02-.24.02-.27,0-.47-.11-.47-.52v-1.24h-.3v-.28h.3v-.67h.31v.67h.39v.28h-.39,0Z" style="fill: #231f20;"/>
      <path d="M357.51,198.42c-.38,0-.51.11-.53.4h-.31c.02-.39.26-.68.84-.68.38,0,.72.15.72.63v.98c0,.16.03.24.23.22v.22c-.08.03-.13.03-.19.03-.19,0-.3-.05-.36-.27h0c-.13.19-.35.31-.68.31-.41,0-.66-.23-.66-.57,0-.46.34-.57.86-.67.34-.06.49-.11.49-.31,0-.16-.09-.29-.41-.29ZM357.92,199.43v-.33c-.06.06-.25.11-.46.16-.39.08-.57.18-.57.42,0,.2.12.31.38.31.37,0,.66-.17.66-.55h-.01Z" style="fill: #231f20;"/>
      <path d="M359.76,198.15v.31h0c-.44-.07-.74.24-.74.67v1.07h-.31v-2.01h.31v.4h0c.11-.26.27-.45.55-.45.08,0,.13,0,.19.01Z" style="fill: #231f20;"/>
      <path d="M360.53,198.47v1.21c0,.23.13.27.39.25v.28c-.07.02-.15.02-.24.02-.27,0-.47-.11-.47-.52v-1.24h-.3v-.28h.3v-.67h.31v.67h.39v.28h-.39,0Z" style="fill: #231f20;"/>
      <path d="M363.88,199.27c0,.59-.43.98-.98.98-.62,0-.97-.4-.98-.84h.35c.03.26.19.52.61.52.37,0,.64-.23.64-.67,0-.41-.25-.58-.6-.58-.24,0-.46.08-.59.26h-.38l.28-1.46h1.5v.31h-1.21l-.16.82h0c.14-.15.34-.24.65-.24.51,0,.87.39.87.9h0Z" style="fill: #231f20;"/>
      <path d="M364.89,198.21c0-.42.2-.78.63-.78s.63.36.63.78-.2.78-.63.78-.63-.36-.63-.78ZM365.88,198.21c0-.3-.12-.5-.36-.5s-.36.21-.36.5.12.5.36.5.36-.2.36-.5ZM365.82,200.2h-.28l1.43-2.72h.28l-1.43,2.72ZM366.63,199.48c0-.42.2-.78.63-.78s.63.36.63.78-.2.78-.63.78-.63-.36-.63-.78ZM367.62,199.48c0-.3-.12-.5-.36-.5s-.36.21-.36.5.12.5.36.5.36-.2.36-.5Z" style="fill: #231f20;"/>
      <path d="M353.07,201.39h1.14c.56,0,.93.3.93.8,0,.41-.19.63-.5.71h0c.63.13.4,1.24.54,1.28v.02h-.38c-.12-.12.15-1.14-.57-1.14h-.81v1.14h-.35v-2.81h0ZM353.42,202.75h.7c.29,0,.66-.04.66-.52s-.37-.52-.66-.52h-.7v1.05h0Z" style="fill: #231f20;"/>
      <path d="M356.33,202.42c-.38,0-.51.11-.53.4h-.31c.02-.39.26-.68.84-.68.38,0,.72.15.72.63v.98c0,.16.03.24.23.22v.22c-.08.03-.13.03-.19.03-.19,0-.3-.05-.36-.27h0c-.13.19-.35.31-.68.31-.41,0-.66-.23-.66-.57,0-.46.34-.57.86-.67.34-.06.49-.11.49-.31,0-.16-.09-.29-.41-.29ZM356.74,203.43v-.33c-.06.06-.25.11-.46.16-.39.08-.57.18-.57.42,0,.2.12.31.38.31.37,0,.66-.17.66-.55h-.01Z" style="fill: #231f20;"/>
      <path d="M359.18,202.8v1.4h-.31v-1.32c0-.26-.12-.46-.44-.46-.35,0-.59.22-.59.54v1.25h-.31v-2.01h.31v.24h0c.11-.14.32-.3.66-.3.37,0,.67.2.67.66h0Z" style="fill: #231f20;"/>
      <path d="M361.35,202.19v1.9c0,.54-.34.81-.89.81s-.88-.29-.91-.63h.31c.04.2.2.36.58.36s.59-.16.59-.54v-.3h0c-.12.17-.31.31-.64.31-.5,0-.9-.32-.9-.98s.4-.98.9-.98c.33,0,.52.15.64.3h0v-.25h.32ZM361.03,203.12c0-.47-.23-.7-.61-.7-.41,0-.62.31-.62.7s.21.7.62.7c.37,0,.61-.23.61-.7Z" style="fill: #231f20;"/>
      <path d="M363.22,203.58h.31c-.1.37-.39.67-.89.67-.61,0-.98-.43-.98-1.06,0-.67.38-1.06.96-1.06.63,0,.94.43.94,1.14h-1.59c0,.36.22.7.65.7.4,0,.55-.26.59-.4h.01ZM361.98,203.01h1.27c0-.32-.24-.59-.62-.59s-.65.27-.65.59Z" style="fill: #231f20;"/>
      <path d="M364.62,202.84c0-.77.3-1.42,1.05-1.42s1.05.65,1.05,1.42-.3,1.41-1.05,1.41-1.05-.64-1.05-1.41ZM366.36,202.84c0-.58-.17-1.1-.69-1.1s-.69.52-.69,1.1.17,1.1.69,1.1.69-.52.69-1.1Z" style="fill: #231f20;"/>
      <path d="M368.88,203.04v.31h-1.06v-.31h1.06Z" style="fill: #231f20;"/>
      <path d="M370.88,201.48v2.72h-.35v-2.04c-.17.16-.32.16-.57.16v-.26c.48,0,.61-.23.65-.59h.28,0Z" style="fill: #231f20;"/>
      <path d="M371.36,202.84c0-.77.3-1.42,1.05-1.42s1.05.65,1.05,1.42-.3,1.41-1.05,1.41-1.05-.64-1.05-1.41ZM373.1,202.84c0-.58-.17-1.1-.69-1.1s-.69.52-.69,1.1.17,1.1.69,1.1.69-.52.69-1.1Z" style="fill: #231f20;"/>
      <path d="M374.51,202.21c0-.42.2-.78.63-.78s.63.36.63.78-.2.78-.63.78-.63-.36-.63-.78ZM375.5,202.21c0-.3-.12-.5-.36-.5s-.36.21-.36.5.12.5.36.5.36-.2.36-.5ZM375.44,204.2h-.28l1.43-2.72h.28l-1.43,2.72ZM376.25,203.48c0-.42.2-.78.63-.78s.63.36.63.78-.2.78-.63.78-.63-.36-.63-.78ZM377.24,203.48c0-.3-.12-.5-.36-.5s-.36.21-.36.5.12.5.36.5.36-.2.36-.5Z" style="fill: #231f20;"/>
    </g>
    <path d="M332.94,176.38c-2.47-2.14-3.41-5.15-3.34-8.74" style="fill: none; stroke: #a7a9ac; stroke-miterlimit: 10; stroke-width: 2px;"/>
    <circle cx="339.05" cy="169.26" r="8.41" style="fill: none; stroke: #231f20; stroke-miterlimit: 10; stroke-width: .5px;"/>
    <rect x="330.87" y="168.83" width="8.41" height="3.6" rx="1.8" ry="1.8" transform="translate(-37.33 118.65) rotate(-19.04)" style="fill: none; stroke: #231f20; stroke-miterlimit: 10; stroke-width: .5px;"/>
    <g>
      <path d="M306.72,170.87h1.55c1.18,0,1.91.77,1.91,2.15s-.73,2.14-1.91,2.14h-1.55v-4.29ZM307.26,174.68h1.01c1.09,0,1.37-.82,1.37-1.66s-.28-1.67-1.37-1.67h-1.01v3.33h0Z" style="fill: #231f20;"/>
      <path d="M313.56,172.7v.48h-2.2v1.5h2.56v.48h-3.1v-4.29h3.03v.48h-2.49v1.35h2.2Z" style="fill: #231f20;"/>
      <path d="M316.29,171.27c-1.02,0-1.44.88-1.44,1.75s.43,1.75,1.44,1.75c.9,0,1.25-.61,1.28-1.15h.54c-.1.95-.77,1.63-1.82,1.63-1.18,0-1.98-.94-1.98-2.23s.81-2.22,1.98-2.22c1.05,0,1.72.68,1.82,1.5h-.54c-.08-.41-.39-1.02-1.28-1.02h0Z" style="fill: #231f20;"/>
      <path d="M319.22,174.09l-.38,1.07h-.56l1.58-4.29h.6l1.58,4.29h-.56l-.38-1.07h-1.89.01ZM320.94,173.61l-.76-2.24h-.01l-.76,2.24h1.54,0Z" style="fill: #231f20;"/>
      <path d="M322.3,170.87l1.24,2.1h.01l1.25-2.1h.58l-1.57,2.53v1.76h-.54v-1.76l-1.56-2.53h.59Z" style="fill: #231f20;"/>
    </g>
    <g>
      <path d="M309,180.56c0,.41-.3.79-1.02.79-.67,0-1.18-.35-1.22-1h.35c.04.39.28.69.87.69.49,0,.66-.22.66-.48,0-.39-.21-.46-.84-.6-.42-.1-.93-.24-.93-.79,0-.44.34-.74.96-.74s1.02.31,1.06.89h-.35c-.05-.38-.26-.58-.71-.58-.4,0-.61.15-.61.39,0,.37.3.42.72.53.63.16,1.05.26,1.05.91h0Z" style="fill: #231f20;"/>
      <path d="M309.84,179.56v1.21c0,.23.13.27.39.25v.28c-.07.02-.15.02-.24.02-.27,0-.47-.11-.47-.52v-1.24h-.3v-.28h.3v-.67h.31v.67h.39v.28h-.39,0Z" style="fill: #231f20;"/>
      <path d="M311.39,179.51c-.38,0-.51.11-.53.4h-.31c.02-.39.26-.68.84-.68.38,0,.72.15.72.63v.98c0,.16.03.24.23.22v.22c-.08.03-.13.03-.19.03-.19,0-.3-.05-.36-.27h0c-.13.19-.35.31-.68.31-.41,0-.66-.23-.66-.57,0-.46.34-.57.86-.67.34-.06.49-.11.49-.31,0-.16-.09-.29-.41-.29ZM311.8,180.52v-.33c-.06.06-.25.11-.46.16-.39.08-.57.18-.57.42,0,.2.12.31.38.31.37,0,.66-.17.66-.55h-.01Z" style="fill: #231f20;"/>
      <path d="M313.64,179.24v.31h0c-.44-.07-.74.24-.74.67v1.07h-.31v-2.01h.31v.4h0c.11-.26.27-.45.55-.45.08,0,.13,0,.19.01Z" style="fill: #231f20;"/>
      <path d="M314.41,179.56v1.21c0,.23.13.27.39.25v.28c-.07.02-.15.02-.24.02-.27,0-.47-.11-.47-.52v-1.24h-.3v-.28h.3v-.67h.31v.67h.39v.28h-.39,0Z" style="fill: #231f20;"/>
      <path d="M317.75,180.37c0,.59-.43.98-.98.98-.62,0-.97-.4-.98-.84h.35c.03.26.19.52.61.52.37,0,.64-.23.64-.67,0-.41-.25-.58-.6-.58-.24,0-.46.08-.59.26h-.38l.28-1.46h1.5v.31h-1.21l-.16.82h0c.14-.15.34-.24.65-.24.51,0,.87.39.87.9h0Z" style="fill: #231f20;"/>
      <path d="M318.76,179.3c0-.42.2-.78.63-.78s.63.36.63.78-.2.78-.63.78-.63-.36-.63-.78ZM319.75,179.3c0-.3-.12-.5-.36-.5s-.36.21-.36.5.12.5.36.5.36-.2.36-.5ZM319.69,181.29h-.28l1.43-2.72h.28l-1.43,2.72ZM320.51,180.57c0-.42.2-.78.63-.78s.63.36.63.78-.2.78-.63.78-.63-.36-.63-.78ZM321.5,180.57c0-.3-.12-.5-.36-.5s-.36.21-.36.5.12.5.36.5.36-.2.36-.5Z" style="fill: #231f20;"/>
      <path d="M306.95,182.48h1.14c.56,0,.93.3.93.8,0,.41-.19.63-.5.71h0c.63.13.4,1.24.54,1.28v.02h-.38c-.12-.12.15-1.14-.57-1.14h-.81v1.14h-.35v-2.81h0ZM307.3,183.84h.7c.29,0,.66-.04.66-.52s-.37-.52-.66-.52h-.7v1.05h0Z" style="fill: #231f20;"/>
      <path d="M310.21,183.51c-.38,0-.51.11-.53.4h-.31c.02-.39.26-.68.84-.68.38,0,.72.15.72.63v.98c0,.16.03.24.23.22v.22c-.08.03-.13.03-.19.03-.19,0-.3-.05-.36-.27h0c-.13.19-.35.31-.68.31-.41,0-.66-.23-.66-.57,0-.46.34-.57.86-.67.34-.06.49-.11.49-.31,0-.16-.09-.29-.41-.29ZM310.62,184.52v-.33c-.06.06-.25.11-.46.16-.39.08-.57.18-.57.42,0,.2.12.31.38.31.37,0,.66-.17.66-.55h-.01Z" style="fill: #231f20;"/>
      <path d="M313.06,183.89v1.4h-.31v-1.32c0-.26-.12-.46-.44-.46-.35,0-.59.22-.59.54v1.25h-.31v-2.01h.31v.24h0c.11-.14.32-.3.66-.3.37,0,.67.2.67.66h0Z" style="fill: #231f20;"/>
      <path d="M315.22,183.29v1.9c0,.54-.34.81-.89.81s-.88-.29-.91-.63h.31c.04.2.2.36.58.36s.59-.16.59-.54v-.3h0c-.12.17-.31.31-.64.31-.5,0-.9-.32-.9-.98s.4-.98.9-.98c.33,0,.52.15.64.3h0v-.25h.32ZM314.91,184.21c0-.47-.23-.7-.61-.7-.41,0-.62.31-.62.7s.21.7.62.7c.37,0,.61-.23.61-.7Z" style="fill: #231f20;"/>
      <path d="M317.1,184.68h.31c-.1.37-.39.67-.89.67-.61,0-.98-.43-.98-1.06,0-.67.38-1.06.96-1.06.63,0,.94.43.94,1.14h-1.59c0,.36.22.7.65.7.4,0,.55-.26.59-.4h.01ZM315.86,184.1h1.27c0-.32-.24-.59-.62-.59s-.65.27-.65.59Z" style="fill: #231f20;"/>
      <path d="M318.5,183.94c0-.77.3-1.42,1.05-1.42s1.05.65,1.05,1.42-.3,1.41-1.05,1.41-1.05-.64-1.05-1.41ZM320.24,183.94c0-.58-.17-1.1-.69-1.1s-.69.52-.69,1.1.17,1.1.69,1.1.69-.52.69-1.1Z" style="fill: #231f20;"/>
      <path d="M322.76,184.13v.31h-1.06v-.31h1.06Z" style="fill: #231f20;"/>
      <path d="M324.75,182.57v2.72h-.35v-2.04c-.17.16-.32.16-.57.16v-.26c.48,0,.61-.23.65-.59h.28,0Z" style="fill: #231f20;"/>
      <path d="M325.23,183.94c0-.77.3-1.42,1.05-1.42s1.05.65,1.05,1.42-.3,1.41-1.05,1.41-1.05-.64-1.05-1.41ZM326.97,183.94c0-.58-.17-1.1-.69-1.1s-.69.52-.69,1.1.17,1.1.69,1.1.69-.52.69-1.1Z" style="fill: #231f20;"/>
      <path d="M328.38,183.3c0-.42.2-.78.63-.78s.63.36.63.78-.2.78-.63.78-.63-.36-.63-.78ZM329.37,183.3c0-.3-.12-.5-.36-.5s-.36.21-.36.5.12.5.36.5.36-.2.36-.5ZM329.31,185.29h-.28l1.43-2.72h.28l-1.43,2.72ZM330.13,184.57c0-.42.2-.78.63-.78s.63.36.63.78-.2.78-.63.78-.63-.36-.63-.78ZM331.12,184.57c0-.3-.12-.5-.36-.5s-.36.21-.36.5.12.5.36.5.36-.2.36-.5Z" style="fill: #231f20;"/>
    </g>
    <circle cx="338.98" cy="126.6" r="8.41" style="fill: none; stroke: #231f20; stroke-miterlimit: 10; stroke-width: .5px;"/>
    <rect x="332.29" y="128.19" width="8.41" height="3.6" rx="1.8" ry="1.8" transform="translate(32.56 324.28) rotate(-53.71)" style="fill: none; stroke: #231f20; stroke-miterlimit: 10; stroke-width: .5px;"/>
    <g>
      <path d="M315.75,136.06c.62,0,1.21.46,1.21,1.55,0,1.01-.54,1.8-1.52,1.86v-.54c.59-.06,1.04-.42,1.04-1.32,0-.74-.34-1.01-.73-1.01-.59,0-.7.32-.92,1.28-.15.64-.37,1.41-1.21,1.41-.68,0-1.13-.52-1.13-1.47s.47-1.55,1.36-1.62v.54c-.58.08-.88.4-.88,1.08,0,.61.23.93.59.93.57,0,.65-.46.8-1.09.24-.97.4-1.6,1.38-1.6h.01Z" style="fill: #231f20;"/>
      <path d="M316.95,133.81c0,1.15-.64,1.64-1.51,1.64h-2.86v-.54h2.86c.7,0,1.03-.36,1.03-1.1s-.34-1.1-1.03-1.1h-2.86v-.54h2.86c.88,0,1.51.5,1.51,1.64Z" style="fill: #231f20;"/>
      <path d="M315.75,128.24c.62,0,1.21.46,1.21,1.55,0,1.01-.54,1.8-1.52,1.86v-.54c.59-.06,1.04-.42,1.04-1.32,0-.74-.34-1.01-.73-1.01-.59,0-.7.32-.92,1.28-.15.64-.37,1.41-1.21,1.41-.68,0-1.13-.52-1.13-1.47s.47-1.55,1.36-1.62v.54c-.58.08-.88.4-.88,1.08,0,.61.23.93.59.93.57,0,.65-.46.8-1.09.24-.97.4-1.6,1.38-1.6h.01Z" style="fill: #231f20;"/>
      <path d="M313.06,126.67v1.43h-.48v-3.39h.48v1.43h3.81v.54h-3.81Z" style="fill: #231f20;"/>
      <path d="M315.79,124.12l1.07.38v.56l-4.29-1.58v-.6l4.29-1.58v.56l-1.07.38v1.89h0ZM315.31,122.4l-2.24.76h0l2.24.77v-1.54h0Z" style="fill: #231f20;"/>
      <path d="M312.58,120.28h4.29v.54h-4.29v-.54Z" style="fill: #231f20;"/>
      <path d="M312.58,119.46v-.66l3.53-2.14h-3.53v-.55h4.29v.66l-3.52,2.14h3.52v.55h-4.29Z" style="fill: #231f20;"/>
    </g>
    <g>
      <path d="M306.55,90.78c0-1.29.84-2.22,2.1-2.22s2.1.94,2.1,2.22-.84,2.23-2.1,2.23-2.1-.94-2.1-2.23ZM310.21,90.78c0-.92-.48-1.75-1.56-1.75s-1.56.82-1.56,1.75.48,1.75,1.56,1.75,1.56-.83,1.56-1.75Z" style="fill: #231f20;"/>
      <path d="M313.85,90.8v2.13h-.48v-2.02c0-.4-.19-.71-.67-.71-.54,0-.9.34-.9.82v1.91h-.48v-3.06h.48v.37h.01c.16-.22.49-.45,1.01-.45.56,0,1.03.31,1.03,1.01Z" style="fill: #231f20;"/>
      <path d="M316.9,92.09c0,.56-.51.92-1.21.92-.94,0-1.37-.44-1.4-1.1h.48c.03.34.15.68.92.68.52,0,.73-.27.73-.47,0-.44-.4-.47-.84-.58-.47-.11-1.16-.17-1.16-.89,0-.48.43-.87,1.15-.87.76,0,1.17.43,1.22.96h-.48c-.05-.23-.16-.54-.74-.54-.43,0-.67.17-.67.41,0,.36.41.39.84.49.55.13,1.16.22,1.16.98h0Z" style="fill: #231f20;"/>
      <path d="M319.62,91.99h.48c-.16.57-.59,1.03-1.36,1.03-.93,0-1.49-.65-1.49-1.61,0-1.02.58-1.61,1.47-1.61.96,0,1.43.65,1.43,1.74h-2.42c0,.55.33,1.07,1,1.07.61,0,.84-.4.89-.61h0ZM317.73,91.11h1.94c0-.49-.37-.9-.95-.9s-.99.41-.99.9Z" style="fill: #231f20;"/>
      <path d="M321.3,90.29v1.84c0,.35.19.41.6.38v.42c-.11.02-.23.04-.36.04-.41,0-.72-.16-.72-.79v-1.89h-.45v-.42h.45v-1.02h.48v1.02h.6v.42h-.6Z" style="fill: #231f20;"/>
    </g>
    <g>
      <path d="M308.88,98.02c0,.41-.3.79-1.02.79-.67,0-1.18-.35-1.22-1h.35c.04.39.28.69.87.69.49,0,.66-.22.66-.48,0-.39-.21-.46-.84-.6-.42-.1-.93-.24-.93-.79,0-.44.34-.74.96-.74s1.02.31,1.06.89h-.35c-.05-.38-.26-.58-.71-.58-.4,0-.61.15-.61.39,0,.37.3.42.72.53.63.16,1.05.26,1.05.91h0Z" style="fill: #231f20;"/>
      <path d="M309.72,97.02v1.21c0,.23.13.27.39.25v.28c-.07.02-.15.02-.24.02-.27,0-.47-.11-.47-.52v-1.24h-.3v-.28h.3v-.67h.31v.67h.39v.28h-.39,0Z" style="fill: #231f20;"/>
      <path d="M311.26,96.97c-.38,0-.51.11-.53.4h-.31c.02-.39.26-.68.84-.68.38,0,.72.15.72.63v.98c0,.16.03.24.23.22v.22c-.08.03-.13.03-.19.03-.19,0-.3-.05-.36-.27h0c-.13.19-.35.31-.68.31-.41,0-.66-.23-.66-.57,0-.46.34-.57.86-.67.34-.06.49-.11.49-.31,0-.16-.09-.29-.41-.29ZM311.67,97.98v-.33c-.06.06-.25.11-.46.16-.39.08-.57.18-.57.42,0,.2.12.31.38.31.37,0,.66-.17.66-.55h-.01Z" style="fill: #231f20;"/>
      <path d="M313.51,96.7v.31h0c-.44-.07-.74.24-.74.67v1.07h-.31v-2.01h.31v.4h0c.11-.26.27-.45.55-.45.08,0,.13,0,.19,0Z" style="fill: #231f20;"/>
      <path d="M314.28,97.02v1.21c0,.23.13.27.39.25v.28c-.07.02-.15.02-.24.02-.27,0-.47-.11-.47-.52v-1.24h-.3v-.28h.3v-.67h.31v.67h.39v.28h-.39,0Z" style="fill: #231f20;"/>
      <path d="M317.63,97.83c0,.59-.43.98-.98.98-.62,0-.97-.4-.98-.84h.35c.03.26.19.52.61.52.37,0,.64-.23.64-.67,0-.41-.25-.58-.6-.58-.24,0-.46.08-.59.26h-.38l.28-1.46h1.5v.31h-1.21l-.16.82h0c.14-.15.34-.24.65-.24.51,0,.87.39.87.9h0Z" style="fill: #231f20;"/>
      <path d="M318.63,96.76c0-.42.2-.78.63-.78s.63.36.63.78-.2.78-.63.78-.63-.36-.63-.78ZM319.63,96.76c0-.3-.12-.5-.36-.5s-.36.21-.36.5.12.5.36.5.36-.2.36-.5ZM319.56,98.75h-.28l1.43-2.72h.28l-1.43,2.72ZM320.38,98.03c0-.42.2-.78.63-.78s.63.36.63.78-.2.78-.63.78-.63-.36-.63-.78ZM321.37,98.03c0-.3-.12-.5-.36-.5s-.36.21-.36.5.12.5.36.5.36-.2.36-.5Z" style="fill: #231f20;"/>
      <path d="M306.82,99.94h1.14c.56,0,.93.3.93.8,0,.41-.19.63-.5.71h0c.63.13.4,1.24.54,1.28v.02h-.38c-.12-.12.15-1.14-.57-1.14h-.81v1.14h-.35v-2.81h0ZM307.17,101.3h.7c.29,0,.66-.04.66-.52s-.37-.52-.66-.52h-.7v1.05h0Z" style="fill: #231f20;"/>
      <path d="M310.08,100.97c-.38,0-.51.11-.53.4h-.31c.02-.39.26-.68.84-.68.38,0,.72.15.72.63v.98c0,.16.03.24.23.22v.22c-.08.03-.13.03-.19.03-.19,0-.3-.05-.36-.27h0c-.13.19-.35.31-.68.31-.41,0-.66-.23-.66-.57,0-.46.34-.57.86-.67.34-.06.49-.11.49-.31,0-.16-.09-.29-.41-.29ZM310.49,101.98v-.33c-.06.06-.25.11-.46.16-.39.08-.57.18-.57.42,0,.2.12.31.38.31.37,0,.66-.17.66-.55h-.01Z" style="fill: #231f20;"/>
      <path d="M312.93,101.35v1.4h-.31v-1.32c0-.26-.12-.46-.44-.46-.35,0-.59.22-.59.54v1.25h-.31v-2.01h.31v.24h0c.11-.14.32-.3.66-.3.37,0,.67.2.67.66h0Z" style="fill: #231f20;"/>
      <path d="M315.09,100.75v1.9c0,.54-.34.81-.89.81s-.88-.29-.91-.63h.31c.04.2.2.36.58.36s.59-.16.59-.54v-.3h0c-.12.17-.31.31-.64.31-.5,0-.9-.32-.9-.98s.4-.98.9-.98c.33,0,.52.15.64.3h0v-.25h.32ZM314.78,101.67c0-.47-.23-.7-.61-.7-.41,0-.62.31-.62.7s.21.7.62.7c.37,0,.61-.23.61-.7Z" style="fill: #231f20;"/>
      <path d="M316.97,102.14h.31c-.1.37-.39.67-.89.67-.61,0-.98-.43-.98-1.06,0-.67.38-1.06.96-1.06.63,0,.94.43.94,1.14h-1.59c0,.36.22.7.65.7.4,0,.55-.26.59-.4h.01ZM315.73,101.56h1.27c0-.32-.24-.59-.62-.59s-.65.27-.65.59Z" style="fill: #231f20;"/>
      <path d="M318.37,101.4c0-.77.3-1.42,1.05-1.42s1.05.65,1.05,1.42-.3,1.41-1.05,1.41-1.05-.64-1.05-1.41ZM320.11,101.4c0-.58-.17-1.1-.69-1.1s-.69.52-.69,1.1.17,1.1.69,1.1.69-.52.69-1.1Z" style="fill: #231f20;"/>
      <path d="M322.63,101.59v.31h-1.06v-.31h1.06Z" style="fill: #231f20;"/>
      <path d="M325.62,101.83c0,.59-.43.98-.98.98-.62,0-.97-.4-.98-.84h.35c.03.26.19.52.61.52.37,0,.64-.23.64-.67,0-.41-.25-.58-.6-.58-.24,0-.46.08-.59.26h-.38l.28-1.46h1.5v.31h-1.21l-.16.82h0c.14-.15.34-.24.65-.24.51,0,.87.39.87.9h0Z" style="fill: #231f20;"/>
      <path d="M326.63,100.76c0-.42.21-.78.63-.78s.63.36.63.78-.2.78-.63.78-.63-.36-.63-.78ZM327.62,100.76c0-.3-.12-.5-.36-.5s-.36.21-.36.5.12.5.36.5.36-.2.36-.5ZM327.56,102.75h-.28l1.43-2.72h.28l-1.43,2.72ZM328.37,102.03c0-.42.2-.78.63-.78s.63.36.63.78-.2.78-.63.78-.63-.36-.63-.78ZM329.36,102.03c0-.3-.12-.5-.36-.5s-.36.21-.36.5.12.5.36.5.36-.2.36-.5Z" style="fill: #231f20;"/>
    </g>
    <path d="M328.49,87.19c1.49,2.48,3.18,4.13,5.07,4.93" style="fill: none; stroke: #a7a9ac; stroke-miterlimit: 10; stroke-width: 2px;"/>
    <circle cx="337.36" cy="83.52" r="8.41" style="fill: none; stroke: #231f20; stroke-miterlimit: 10; stroke-width: .5px;"/>
    <rect x="329.33" y="83.51" width="8.41" height="3.6" rx="1.8" ry="1.8" transform="translate(-4.43 150.9) rotate(-25.33)" style="fill: none; stroke: #231f20; stroke-miterlimit: 10; stroke-width: .5px;"/>
    <g>
      <path d="M251.73,108.18h1.74c.85,0,1.42.46,1.42,1.22,0,.62-.29.96-.77,1.08h0c.95.2.61,1.88.83,1.95v.04h-.58c-.19-.18.22-1.73-.86-1.73h-1.23v1.73h-.54v-4.29h-.01ZM252.27,110.26h1.07c.44,0,1-.05,1-.8s-.56-.8-1-.8h-1.07v1.6Z" style="fill: #231f20;"/>
      <path d="M256.08,108.18v4.29h-.54v-4.29h.54Z" style="fill: #231f20;"/>
      <path d="M260.03,111.35c0,.62-.46,1.21-1.55,1.21-1.01,0-1.8-.54-1.86-1.52h.54c.06.59.42,1.04,1.32,1.04.74,0,1.01-.34,1.01-.73,0-.59-.32-.7-1.28-.92-.64-.15-1.41-.37-1.41-1.21,0-.68.52-1.13,1.47-1.13s1.55.47,1.62,1.36h-.54c-.08-.58-.4-.88-1.08-.88-.61,0-.93.23-.93.59,0,.57.46.65,1.09.8.97.24,1.6.4,1.6,1.38h0Z" style="fill: #231f20;"/>
      <path d="M263.39,110.01v.48h-2.2v1.5h2.56v.48h-3.1v-4.29h3.03v.48h-2.49v1.35h2.2Z" style="fill: #231f20;"/>
    </g>
    <g>
      <path d="M254.05,117.44c0,.41-.3.79-1.02.79-.67,0-1.18-.35-1.22-1h.35c.04.39.28.69.87.69.49,0,.66-.22.66-.48,0-.39-.21-.46-.84-.6-.42-.1-.93-.24-.93-.79,0-.44.34-.74.96-.74s1.02.31,1.06.89h-.35c-.05-.38-.26-.58-.71-.58-.4,0-.61.15-.61.39,0,.37.3.42.72.53.63.16,1.05.26,1.05.91h0Z" style="fill: #231f20;"/>
      <path d="M254.89,116.44v1.21c0,.23.13.27.39.25v.28c-.07.02-.15.02-.24.02-.27,0-.47-.11-.47-.52v-1.24h-.3v-.28h.3v-.67h.31v.67h.39v.28h-.39.01Z" style="fill: #231f20;"/>
      <path d="M256.43,116.39c-.38,0-.51.11-.53.4h-.31c.02-.39.26-.68.84-.68.38,0,.72.15.72.63v.98c0,.16.03.24.23.22v.22c-.08.03-.13.03-.19.03-.19,0-.3-.05-.36-.27h0c-.13.19-.35.31-.68.31-.41,0-.66-.23-.66-.57,0-.46.34-.57.86-.67.34-.06.49-.11.49-.31,0-.16-.09-.29-.41-.29ZM256.84,117.4v-.33c-.06.06-.25.11-.46.16-.39.08-.57.18-.57.42,0,.2.12.31.38.31.37,0,.66-.17.66-.55h-.01Z" style="fill: #231f20;"/>
      <path d="M258.69,116.13v.31h0c-.44-.07-.74.24-.74.67v1.07h-.31v-2.01h.31v.4h0c.11-.26.27-.45.55-.45.08,0,.13,0,.19,0Z" style="fill: #231f20;"/>
      <path d="M259.45,116.44v1.21c0,.23.13.27.39.25v.28c-.07.02-.15.02-.24.02-.27,0-.47-.11-.47-.52v-1.24h-.3v-.28h.3v-.67h.31v.67h.39v.28h-.39,0Z" style="fill: #231f20;"/>
      <path d="M261.81,115.46v2.72h-.35v-2.04c-.17.16-.32.16-.57.16v-.26c.48,0,.61-.23.65-.59h.28,0Z" style="fill: #231f20;"/>
      <path d="M262.29,116.82c0-.77.3-1.42,1.05-1.42s1.05.65,1.05,1.42-.3,1.41-1.05,1.41-1.05-.64-1.05-1.41ZM264.03,116.82c0-.58-.17-1.1-.69-1.1s-.69.52-.69,1.1.17,1.1.69,1.1.69-.52.69-1.1Z" style="fill: #231f20;"/>
      <path d="M264.73,116.82c0-.77.3-1.42,1.05-1.42s1.05.65,1.05,1.42-.3,1.41-1.05,1.41-1.05-.64-1.05-1.41ZM266.47,116.82c0-.58-.17-1.1-.69-1.1s-.69.52-.69,1.1.17,1.1.69,1.1.69-.52.69-1.1Z" style="fill: #231f20;"/>
      <path d="M267.88,116.18c0-.42.21-.78.63-.78s.63.36.63.78-.2.78-.63.78-.63-.36-.63-.78ZM268.87,116.18c0-.3-.12-.5-.36-.5s-.36.21-.36.5.12.5.36.5.36-.2.36-.5ZM268.81,118.18h-.28l1.43-2.72h.28l-1.43,2.72ZM269.62,117.45c0-.42.2-.78.63-.78s.63.36.63.78-.2.78-.63.78-.63-.36-.63-.78ZM270.61,117.45c0-.3-.12-.5-.36-.5s-.36.21-.36.5.12.5.36.5.36-.2.36-.5Z" style="fill: #231f20;"/>
      <path d="M251.99,119.36h1.14c.56,0,.93.3.93.8,0,.41-.19.63-.5.71h0c.63.13.4,1.24.54,1.28v.02h-.38c-.12-.12.15-1.14-.57-1.14h-.81v1.14h-.35v-2.81h0ZM252.35,120.72h.7c.29,0,.66-.04.66-.52s-.37-.52-.66-.52h-.7v1.05h0Z" style="fill: #231f20;"/>
      <path d="M255.26,120.39c-.38,0-.51.11-.53.4h-.31c.02-.39.26-.68.84-.68.38,0,.72.15.72.63v.98c0,.16.03.24.23.22v.22c-.08.03-.13.03-.19.03-.19,0-.3-.05-.36-.27h0c-.13.19-.35.31-.68.31-.41,0-.66-.23-.66-.57,0-.46.34-.57.86-.67.34-.06.49-.11.49-.31,0-.16-.09-.29-.41-.29ZM255.67,121.4v-.33c-.06.06-.25.11-.46.16-.39.08-.57.18-.57.42,0,.2.12.31.38.31.37,0,.66-.17.66-.55h0Z" style="fill: #231f20;"/>
      <path d="M258.1,120.77v1.4h-.31v-1.32c0-.26-.12-.46-.44-.46-.35,0-.59.22-.59.54v1.25h-.31v-2.01h.31v.24h0c.11-.14.32-.3.66-.3.37,0,.67.2.67.66h0Z" style="fill: #231f20;"/>
      <path d="M260.27,120.17v1.9c0,.54-.34.81-.89.81s-.88-.29-.91-.63h.31c.04.2.2.36.58.36s.59-.16.59-.54v-.3h0c-.12.17-.31.31-.64.31-.5,0-.9-.32-.9-.98s.4-.98.9-.98c.33,0,.52.15.64.3h0v-.25h.32ZM259.95,121.09c0-.47-.23-.7-.61-.7-.41,0-.62.31-.62.7s.21.7.62.7c.37,0,.61-.23.61-.7Z" style="fill: #231f20;"/>
      <path d="M262.14,121.56h.31c-.1.37-.39.67-.89.67-.61,0-.98-.43-.98-1.06,0-.67.38-1.06.96-1.06.63,0,.94.43.94,1.14h-1.59c0,.36.22.7.65.7.4,0,.55-.26.59-.4h.01ZM260.9,120.98h1.27c0-.32-.24-.59-.62-.59s-.65.27-.65.59Z" style="fill: #231f20;"/>
      <path d="M263.55,120.82c0-.77.3-1.42,1.05-1.42s1.05.65,1.05,1.42-.3,1.41-1.05,1.41-1.05-.64-1.05-1.41ZM265.29,120.82c0-.58-.17-1.1-.69-1.1s-.69.52-.69,1.1.17,1.1.69,1.1.69-.52.69-1.1Z" style="fill: #231f20;"/>
      <path d="M267.81,121.02v.31h-1.06v-.31h1.06Z" style="fill: #231f20;"/>
      <path d="M269.8,119.46v2.72h-.35v-2.04c-.17.16-.32.16-.57.16v-.26c.48,0,.61-.23.65-.59h.28,0Z" style="fill: #231f20;"/>
      <path d="M270.28,120.82c0-.77.3-1.42,1.05-1.42s1.05.65,1.05,1.42-.3,1.41-1.05,1.41-1.05-.64-1.05-1.41ZM272.02,120.82c0-.58-.17-1.1-.69-1.1s-.69.52-.69,1.1.17,1.1.69,1.1.69-.52.69-1.1Z" style="fill: #231f20;"/>
      <path d="M272.72,120.82c0-.77.3-1.42,1.05-1.42s1.05.65,1.05,1.42-.3,1.41-1.05,1.41-1.05-.64-1.05-1.41ZM274.46,120.82c0-.58-.17-1.1-.69-1.1s-.69.52-.69,1.1.17,1.1.69,1.1.69-.52.69-1.1Z" style="fill: #231f20;"/>
      <path d="M275.87,120.18c0-.42.2-.78.63-.78s.63.36.63.78-.2.78-.63.78-.63-.36-.63-.78ZM276.86,120.18c0-.3-.12-.5-.36-.5s-.36.21-.36.5.12.5.36.5.36-.2.36-.5ZM276.8,122.18h-.28l1.43-2.72h.28l-1.43,2.72ZM277.62,121.45c0-.42.2-.78.63-.78s.63.36.63.78-.2.78-.63.78-.63-.36-.63-.78ZM278.61,121.45c0-.3-.12-.5-.36-.5s-.36.21-.36.5.12.5.36.5.36-.2.36-.5Z" style="fill: #231f20;"/>
    </g>
    <circle cx="283.02" cy="75.56" r="4.11" style="fill: none; stroke: #231f20; stroke-miterlimit: 10; stroke-width: .5px;"/>
    <circle cx="283.02" cy="75.56" r="5.03" style="fill: none; stroke: #231f20; stroke-miterlimit: 10; stroke-width: .5px;"/>
    <g>
      <path d="M272.25,69.84c0-1.02-.88-1.44-1.75-1.44s-1.75.43-1.75,1.44c0,.9.61,1.25,1.15,1.28v.54c-.95-.1-1.63-.77-1.63-1.82,0-1.18.94-1.98,2.23-1.98s2.22.81,2.22,1.98c0,1.05-.68,1.72-1.5,1.82v-.54c.41-.08,1.02-.39,1.02-1.28h.01Z" style="fill: #231f20;"/>
      <path d="M272.65,72.3l-2.1,1.24h0l2.1,1.26v.58l-2.53-1.57h-1.76v-.54h1.76l2.53-1.56v.58h0Z" style="fill: #231f20;"/>
      <path d="M272.25,77.31c0-1.02-.88-1.44-1.75-1.44s-1.75.43-1.75,1.44c0,.9.61,1.25,1.15,1.28v.54c-.95-.1-1.63-.77-1.63-1.82,0-1.18.94-1.98,2.23-1.98s2.22.81,2.22,1.98c0,1.05-.68,1.72-1.5,1.82v-.54c.41-.08,1.02-.39,1.02-1.28h.01Z" style="fill: #231f20;"/>
      <path d="M272.65,80.28h-3.81v2.25h-.48v-2.79h4.29v.54Z" style="fill: #231f20;"/>
      <path d="M270.82,85.8h-.48v-2.2h-1.5v2.56h-.48v-3.1h4.29v3.03h-.48v-2.49h-1.35v2.2h0Z" style="fill: #231f20;"/>
    </g>
    <path d="M278.01,115.87c-5.16-4.59-4.15-11.14-.23-14.92,6.29-6.05,20.73.34,14.08,12.6" style="fill: none; stroke: #a7a9ac; stroke-miterlimit: 10; stroke-width: 2px;"/>
    <circle cx="284.07" cy="108.35" r="8.41" style="fill: none; stroke: #231f20; stroke-miterlimit: 10; stroke-width: .5px;"/>
    <rect x="285.92" y="106.23" width="3.6" height="8.41" rx="1.8" ry="1.8" transform="translate(48.73 305.01) rotate(-60.15)" style="fill: none; stroke: #231f20; stroke-miterlimit: 10; stroke-width: .5px;"/>
    <path d="M289.51,187.19c-7.1-6.14-19.01.24-14.41,11.62" style="fill: none; stroke: #a7a9ac; stroke-miterlimit: 10; stroke-width: 2px;"/>
    <circle cx="283.48" cy="194.19" r="8.41" style="fill: none; stroke: #231f20; stroke-miterlimit: 10; stroke-width: .5px;"/>
    <rect x="275.45" y="194.18" width="8.41" height="3.6" rx="1.8" ry="1.8" transform="translate(-56.87 137.96) rotate(-25.24)" style="fill: none; stroke: #231f20; stroke-miterlimit: 10; stroke-width: .5px;"/>
    <g>
      <path d="M266.13,205.35h3.81v-2.25h.48v2.79h-4.29v-.54Z" style="fill: #231f20;"/>
      <path d="M268.27,203c-1.29,0-2.22-.84-2.22-2.1s.94-2.1,2.22-2.1,2.23.84,2.23,2.1-.94,2.1-2.23,2.1ZM268.27,199.34c-.92,0-1.75.48-1.75,1.56s.82,1.56,1.75,1.56,1.75-.48,1.75-1.56-.83-1.56-1.75-1.56Z" style="fill: #231f20;"/>
      <path d="M266.52,196.33c0,1.02.94,1.45,1.75,1.45s1.75-.31,1.75-1.39c0-.77-.55-1.4-1.36-1.4v1.4h-.48v-1.94h2.23v.36l-.61.18h0c.45.34.69.74.69,1.4,0,1.25-.94,1.93-2.23,1.93s-2.22-.8-2.22-1.99c0-1.09.56-1.65,1.38-1.8v.54c-.61.13-.9.62-.9,1.27h0Z" style="fill: #231f20;"/>
    </g>
    <g>
      <path d="M268.36,211.34c0,.41-.3.79-1.02.79-.67,0-1.18-.35-1.22-1h.35c.04.39.28.69.87.69.49,0,.66-.22.66-.48,0-.39-.21-.46-.84-.6-.42-.1-.93-.24-.93-.79,0-.44.34-.74.96-.74s1.02.31,1.06.89h-.35c-.05-.38-.26-.58-.71-.58-.4,0-.61.15-.61.39,0,.37.3.42.72.53.63.16,1.05.26,1.05.91h0Z" style="fill: #231f20;"/>
      <path d="M269.2,210.35v1.21c0,.23.13.27.39.25v.28c-.07.02-.15.02-.24.02-.27,0-.47-.11-.47-.52v-1.24h-.3v-.28h.3v-.67h.31v.67h.39v.28h-.39,0Z" style="fill: #231f20;"/>
      <path d="M270.75,210.29c-.38,0-.51.11-.53.4h-.31c.02-.39.26-.68.84-.68.38,0,.72.15.72.63v.98c0,.16.03.24.23.22v.22c-.08.03-.13.03-.19.03-.19,0-.3-.05-.36-.27h0c-.13.19-.35.31-.68.31-.41,0-.66-.23-.66-.57,0-.46.34-.57.86-.67.34-.06.49-.11.49-.31,0-.16-.09-.29-.41-.29ZM271.16,211.31v-.33c-.06.06-.25.11-.46.16-.39.08-.57.18-.57.42,0,.2.12.31.38.31.37,0,.66-.17.66-.55h-.01Z" style="fill: #231f20;"/>
      <path d="M273,210.03v.31h0c-.44-.07-.74.24-.74.67v1.07h-.31v-2.01h.31v.4h0c.11-.26.27-.45.55-.45.08,0,.13,0,.19.01Z" style="fill: #231f20;"/>
      <path d="M273.77,210.35v1.21c0,.23.13.27.39.25v.28c-.07.02-.15.02-.24.02-.27,0-.47-.11-.47-.52v-1.24h-.3v-.28h.3v-.67h.31v.67h.39v.28h-.39,0Z" style="fill: #231f20;"/>
      <path d="M276.12,209.36v2.72h-.35v-2.04c-.17.16-.32.16-.57.16v-.26c.48,0,.61-.23.65-.59h.28,0Z" style="fill: #231f20;"/>
      <path d="M276.6,210.72c0-.77.3-1.42,1.05-1.42s1.05.65,1.05,1.42-.3,1.41-1.05,1.41-1.05-.64-1.05-1.41ZM278.34,210.72c0-.58-.17-1.1-.69-1.1s-.69.52-.69,1.1.17,1.1.69,1.1.69-.52.69-1.1Z" style="fill: #231f20;"/>
      <path d="M279.75,210.08c0-.42.21-.78.63-.78s.63.36.63.78-.2.78-.63.78-.63-.36-.63-.78ZM280.74,210.08c0-.3-.12-.5-.36-.5s-.36.21-.36.5.12.5.36.5.36-.2.36-.5ZM280.68,212.08h-.28l1.43-2.72h.28l-1.43,2.72ZM281.49,211.36c0-.42.2-.78.63-.78s.63.36.63.78-.2.78-.63.78-.63-.36-.63-.78ZM282.49,211.36c0-.3-.12-.5-.36-.5s-.36.21-.36.5.12.5.36.5.36-.2.36-.5Z" style="fill: #231f20;"/>
      <path d="M266.31,213.27h1.14c.56,0,.93.3.93.8,0,.41-.19.63-.5.71h0c.63.13.4,1.24.54,1.28v.02h-.38c-.12-.12.15-1.14-.57-1.14h-.81v1.14h-.35v-2.81h0ZM266.66,214.63h.7c.29,0,.66-.04.66-.52s-.37-.52-.66-.52h-.7v1.05h0Z" style="fill: #231f20;"/>
      <path d="M269.57,214.29c-.38,0-.51.11-.53.4h-.31c.02-.39.26-.68.84-.68.38,0,.72.15.72.63v.98c0,.16.03.24.23.22v.22c-.08.03-.13.03-.19.03-.19,0-.3-.05-.36-.27h0c-.13.19-.35.31-.68.31-.41,0-.66-.23-.66-.57,0-.46.34-.57.86-.67.34-.06.49-.11.49-.31,0-.16-.09-.29-.41-.29ZM269.98,215.31v-.33c-.06.06-.25.11-.46.16-.39.08-.57.18-.57.42,0,.2.12.31.38.31.37,0,.66-.17.66-.55h-.01Z" style="fill: #231f20;"/>
      <path d="M272.42,214.68v1.4h-.31v-1.32c0-.26-.12-.46-.44-.46-.35,0-.59.22-.59.54v1.25h-.31v-2.01h.31v.24h0c.11-.14.32-.3.66-.3.37,0,.67.2.67.66h0Z" style="fill: #231f20;"/>
      <path d="M274.58,214.07v1.9c0,.54-.34.81-.89.81s-.88-.29-.91-.63h.31c.04.2.2.36.58.36s.59-.16.59-.54v-.3h0c-.12.17-.31.31-.64.31-.5,0-.9-.32-.9-.98s.4-.98.9-.98c.33,0,.52.15.64.3h0v-.25h.32ZM274.27,215c0-.47-.23-.7-.61-.7-.41,0-.62.31-.62.7s.21.7.62.7c.37,0,.61-.23.61-.7Z" style="fill: #231f20;"/>
      <path d="M276.46,215.46h.31c-.1.37-.39.67-.89.67-.61,0-.98-.43-.98-1.06,0-.67.38-1.06.96-1.06.63,0,.94.43.94,1.14h-1.59c0,.36.22.7.65.7.4,0,.55-.26.59-.4h.01ZM275.22,214.88h1.27c0-.32-.24-.59-.62-.59s-.65.27-.65.59Z" style="fill: #231f20;"/>
      <path d="M278.74,213.36v2.72h-.35v-2.04c-.17.16-.32.16-.57.16v-.26c.48,0,.61-.23.65-.59h.28,0Z" style="fill: #231f20;"/>
      <path d="M279.22,214.72c0-.77.3-1.42,1.05-1.42s1.05.65,1.05,1.42-.3,1.41-1.05,1.41-1.05-.64-1.05-1.41ZM280.96,214.72c0-.58-.17-1.1-.69-1.1s-.69.52-.69,1.1.17,1.1.69,1.1.69-.52.69-1.1Z" style="fill: #231f20;"/>
      <path d="M283.48,214.92v.31h-1.06v-.31h1.06Z" style="fill: #231f20;"/>
      <path d="M285.05,214.64h0c-.19-.11-.37-.28-.37-.59,0-.47.36-.74.88-.74s.88.28.88.74c0,.31-.18.48-.37.58h0c.26.12.5.31.5.69,0,.55-.44.82-1.02.82s-1.02-.27-1.02-.82c0-.38.24-.56.5-.68h.02ZM286.23,215.31c0-.33-.26-.51-.67-.51s-.67.18-.67.51.26.52.67.52.67-.18.67-.52ZM286.1,214.05c0-.3-.21-.43-.53-.43s-.53.13-.53.43.21.43.53.43.53-.13.53-.43Z" style="fill: #231f20;"/>
      <path d="M286.85,214.72c0-.77.3-1.42,1.05-1.42s1.05.65,1.05,1.42-.3,1.41-1.05,1.41-1.05-.64-1.05-1.41ZM288.59,214.72c0-.58-.17-1.1-.69-1.1s-.69.52-.69,1.1.17,1.1.69,1.1.69-.52.69-1.1Z" style="fill: #231f20;"/>
      <path d="M290,214.08c0-.42.21-.78.63-.78s.63.36.63.78-.2.78-.63.78-.63-.36-.63-.78ZM291,214.08c0-.3-.12-.5-.36-.5s-.36.21-.36.5.12.5.36.5.36-.2.36-.5ZM290.93,216.08h-.28l1.43-2.72h.28l-1.43,2.72ZM291.75,215.36c0-.42.2-.78.63-.78s.63.36.63.78-.2.78-.63.78-.63-.36-.63-.78ZM292.74,215.36c0-.3-.12-.5-.36-.5s-.36.21-.36.5.12.5.36.5.36-.2.36-.5Z" style="fill: #231f20;"/>
    </g>
    <g>
      <path d="M299.68,198.45h-.48v-2.2h-1.5v2.56h-.48v-3.1h4.29v3.03h-.48v-2.49h-1.35v2.2h0Z" style="fill: #231f20;"/>
      <path d="M301.51,199.23v.6l-1.71,1.06h0l1.71,1.07v.6l-2.09-1.36-2.2,1.46v-.66l1.81-1.1h0l-1.81-1.1v-.66l2.19,1.46,2.1-1.36h0Z" style="fill: #231f20;"/>
      <path d="M301.51,203.14v1.7c0,.79-.35,1.39-1.25,1.39s-1.25-.61-1.25-1.39v-1.16h-1.79v-.54h4.29ZM299.49,203.68v1.22c0,.53.25.79.77.79s.77-.26.77-.79v-1.22h-1.54,0Z" style="fill: #231f20;"/>
    </g>
    <g>
      <path d="M256.08,151.93v.48h-1.91v1.94h-.54v-4.29h2.91v.48h-2.37v1.39h1.91Z" style="fill: #231f20;"/>
      <path d="M257.3,153.27l-.38,1.07h-.56l1.58-4.29h.6l1.58,4.29h-.56l-.38-1.07h-1.89.01ZM259.01,152.79l-.76-2.24h-.01l-.76,2.24h1.54,0Z" style="fill: #231f20;"/>
      <path d="M261.13,150.06v3.81h2.25v.48h-2.79v-4.29h.54Z" style="fill: #231f20;"/>
      <path d="M264.45,150.06v3.81h2.25v.48h-2.79v-4.29h.54Z" style="fill: #231f20;"/>
    </g>
    <circle cx="285.49" cy="149.22" r="8.41" style="fill: none; stroke: #231f20; stroke-miterlimit: 10; stroke-width: .5px;"/>
    <rect x="287.33" y="147.1" width="3.6" height="8.41" rx="1.8" ry="1.8" transform="translate(13.99 326.77) rotate(-60.15)" style="fill: none; stroke: #231f20; stroke-miterlimit: 10; stroke-width: .5px;"/>
    <g>
      <line x1="49.03" y1="142.46" y2="142.46" style="fill: none; stroke: #231f20; stroke-miterlimit: 10; stroke-width: .5px;"/>
      <polygon points="48.3 139.96 52.62 142.46 48.3 144.95 48.3 139.96" style="fill: #231f20;"/>
    </g>
    <g>
      <line x1="314.03" y1="251.85" x2="314.03" y2="295.22" style="fill: none; stroke: #231f20; stroke-miterlimit: 10; stroke-width: .5px;"/>
      <polygon points="311.54 252.58 314.03 248.26 316.53 252.58 311.54 252.58" style="fill: #231f20;"/>
      <path d="M312.15,295.13c0,1.04.84,1.88,1.88,1.88s1.88-.84,1.88-1.88-.84-1.88-1.88-1.88-1.88.84-1.88,1.88Z" style="fill: #231f20;"/>
    </g>
    <g>
      <path d="M302.35,301.9h-1.43v-.48h3.39v.48h-1.43v3.81h-.54v-3.81h0Z" style="fill: #231f20;"/>
      <path d="M304.85,301.42h1.74c.85,0,1.42.46,1.42,1.22,0,.62-.29.96-.77,1.08h0c.95.2.61,1.88.83,1.95v.04h-.58c-.19-.18.22-1.73-.86-1.73h-1.23v1.73h-.54v-4.29h-.01ZM305.39,303.49h1.07c.44,0,1-.05,1-.8s-.56-.8-1-.8h-1.07v1.59h0Z" style="fill: #231f20;"/>
      <path d="M309.2,301.42v4.29h-.54v-4.29h.54Z" style="fill: #231f20;"/>
      <path d="M311.88,301.81c-1.02,0-1.45.94-1.45,1.75s.31,1.75,1.39,1.75c.77,0,1.4-.55,1.4-1.36h-1.4v-.48h1.94v2.23h-.36l-.18-.61h-.01c-.32.45-.73.69-1.39.69-1.25,0-1.93-.94-1.93-2.23s.8-2.22,1.99-2.22c1.09,0,1.65.56,1.8,1.38h-.54c-.13-.61-.62-.9-1.27-.9h.01Z" style="fill: #231f20;"/>
      <path d="M316.33,301.81c-1.02,0-1.45.94-1.45,1.75s.31,1.75,1.39,1.75c.77,0,1.4-.55,1.4-1.36h-1.4v-.48h1.94v2.23h-.36l-.18-.61h-.01c-.32.45-.73.69-1.39.69-1.25,0-1.93-.94-1.93-2.23s.8-2.22,1.99-2.22c1.09,0,1.65.56,1.8,1.38h-.54c-.13-.61-.62-.9-1.27-.9h.01Z" style="fill: #231f20;"/>
      <path d="M321.69,303.25v.48h-2.2v1.5h2.56v.48h-3.1v-4.29h3.03v.48h-2.49v1.35h2.2Z" style="fill: #231f20;"/>
      <path d="M322.68,301.42h1.74c.85,0,1.42.46,1.42,1.22,0,.62-.29.96-.77,1.08h0c.95.2.61,1.88.83,1.95v.04h-.58c-.19-.18.22-1.73-.86-1.73h-1.23v1.73h-.54v-4.29h-.01ZM323.22,303.49h1.07c.44,0,1-.05,1-.8s-.56-.8-1-.8h-1.07v1.59h0Z" style="fill: #231f20;"/>
      <path d="M294.31,310.49v.48h-1.91v1.94h-.54v-4.29h2.91v.48h-2.37v1.39h1.91Z" style="fill: #231f20;"/>
      <path d="M295.33,308.62h1.74c.85,0,1.42.46,1.42,1.22,0,.62-.29.96-.77,1.08h0c.95.2.61,1.88.83,1.95v.04h-.58c-.19-.18.22-1.73-.86-1.73h-1.23v1.73h-.54v-4.29h-.01ZM295.87,310.69h1.07c.44,0,1-.05,1-.8s-.56-.8-1-.8h-1.07v1.59h0Z" style="fill: #231f20;"/>
      <path d="M298.96,310.76c0-1.29.84-2.22,2.1-2.22s2.1.94,2.1,2.22-.84,2.23-2.1,2.23-2.1-.94-2.1-2.23ZM302.62,310.76c0-.92-.48-1.75-1.56-1.75s-1.56.82-1.56,1.75.48,1.75,1.56,1.75,1.56-.83,1.56-1.75Z" style="fill: #231f20;"/>
      <path d="M303.81,308.62h.74l1.34,3.56h.01l1.34-3.56h.74v4.29h-.54v-3.53h-.01l-1.3,3.53h-.48l-1.29-3.53h-.01v3.53h-.54v-4.29h0Z" style="fill: #231f20;"/>
      <path d="M310.58,311.83l-.38,1.07h-.56l1.58-4.29h.6l1.58,4.29h-.56l-.38-1.07h-1.89.01ZM312.29,311.35l-.76-2.24h-.01l-.76,2.24h1.54,0Z" style="fill: #231f20;"/>
      <path d="M316.33,310.58h0c.45.09.83.43.83,1.07,0,.79-.56,1.25-1.45,1.25h-1.85v-4.29h1.73c.88,0,1.4.41,1.4,1.08,0,.53-.31.77-.67.89h.01ZM315.68,310.41c.61,0,.78-.26.78-.65s-.23-.66-.72-.66h-1.33v1.31h1.27ZM314.41,312.42h1.36c.69,0,.86-.37.86-.77,0-.46-.29-.77-.74-.77h-1.48v1.54h0Z" style="fill: #231f20;"/>
      <path d="M318.27,308.62v3.81h2.25v.48h-2.79v-4.29h.54Z" style="fill: #231f20;"/>
      <path d="M323.8,310.45v.48h-2.2v1.5h2.56v.48h-3.1v-4.29h3.03v.48h-2.49v1.35h2.2Z" style="fill: #231f20;"/>
      <path d="M325.94,309.1h-1.43v-.48h3.39v.48h-1.43v3.81h-.54v-3.81h0Z" style="fill: #231f20;"/>
      <path d="M328.01,310.76c0-1.29.84-2.22,2.1-2.22s2.1.94,2.1,2.22-.84,2.23-2.1,2.23-2.1-.94-2.1-2.23ZM331.67,310.76c0-.92-.48-1.75-1.56-1.75s-1.56.82-1.56,1.75.48,1.75,1.56,1.75,1.56-.83,1.56-1.75Z" style="fill: #231f20;"/>
      <path d="M332.86,308.62h.66l2.14,3.53h.01v-3.53h.54v4.29h-.66l-2.14-3.52h-.01v3.52h-.54v-4.29Z" style="fill: #231f20;"/>
    </g>
    <g>
      <line x1="360.43" y1="250.04" x2="360.43" y2="293.42" style="fill: none; stroke: #231f20; stroke-miterlimit: 10; stroke-width: .5px;"/>
      <path d="M358.55,250.14c0-1.04.84-1.88,1.88-1.88s1.88.84,1.88,1.88-.84,1.88-1.88,1.88-1.88-.84-1.88-1.88Z" style="fill: #231f20;"/>
      <polygon points="357.93 292.69 360.43 297.01 362.92 292.69 357.93 292.69" style="fill: #231f20;"/>
    </g>
    <g>
      <path d="M354.52,303.56c0-1.29.84-2.22,2.1-2.22s2.1.94,2.1,2.22-.84,2.23-2.1,2.23-2.1-.94-2.1-2.23ZM358.18,303.56c0-.92-.48-1.75-1.56-1.75s-1.56.82-1.56,1.75.48,1.75,1.56,1.75,1.56-.83,1.56-1.75Z" style="fill: #231f20;"/>
      <path d="M360.94,305.79c-1.15,0-1.64-.64-1.64-1.51v-2.86h.54v2.86c0,.7.36,1.03,1.1,1.03s1.1-.33,1.1-1.03v-2.86h.54v2.86c0,.88-.5,1.51-1.64,1.51Z" style="fill: #231f20;"/>
      <path d="M364.47,301.89h-1.43v-.48h3.39v.48h-1.43v3.81h-.54v-3.81h0Z" style="fill: #231f20;"/>
    </g>
    <g>
      <line x1="411.13" y1="250.04" x2="411.13" y2="293.42" style="fill: none; stroke: #231f20; stroke-miterlimit: 10; stroke-width: .5px;"/>
      <path d="M409.25,250.14c0-1.04.84-1.88,1.88-1.88s1.88.84,1.88,1.88-.84,1.88-1.88,1.88-1.88-.84-1.88-1.88Z" style="fill: #231f20;"/>
      <polygon points="408.63 292.69 411.13 297.01 413.62 292.69 408.63 292.69" style="fill: #231f20;"/>
    </g>
    <g>
      <path d="M405.22,303.56c0-1.29.84-2.22,2.1-2.22s2.1.94,2.1,2.22-.84,2.23-2.1,2.23-2.1-.94-2.1-2.23ZM408.88,303.56c0-.92-.48-1.75-1.56-1.75s-1.56.82-1.56,1.75.48,1.75,1.56,1.75,1.56-.83,1.56-1.75Z" style="fill: #231f20;"/>
      <path d="M411.64,305.79c-1.15,0-1.64-.64-1.64-1.51v-2.86h.54v2.86c0,.7.36,1.03,1.1,1.03s1.1-.33,1.1-1.03v-2.86h.54v2.86c0,.88-.5,1.51-1.64,1.51Z" style="fill: #231f20;"/>
      <path d="M415.17,301.89h-1.43v-.48h3.39v.48h-1.43v3.81h-.54v-3.81h0Z" style="fill: #231f20;"/>
    </g>
    <circle cx="411.13" cy="250.03" r="5.17" style="fill: none; stroke: #231f20; stroke-miterlimit: 10; stroke-width: .5px;"/>
    <g>
      <path d="M398.12,245.79l1.1-1.1c.83-.84,1.89-.81,2.87.17.98.97,1,2.03.17,2.86l-1.1,1.1-3.03-3.03h-.01ZM401.19,248.1l.72-.72c.77-.77.39-1.55-.21-2.14s-1.38-.98-2.15-.21l-.72.72,2.35,2.35h0Z" style="fill: #231f20;"/>
      <path d="M400.94,242.98l2.36.61h0l-.6-2.37.41-.41.68,2.9,1.24,1.24-.38.38-1.24-1.24-2.89-.69.41-.41h.01Z" style="fill: #231f20;"/>
      <path d="M403.44,240.47l.47-.47,4.01.98h0l-2.5-2.51.38-.38,3.03,3.03-.47.47-4-.98h0l2.49,2.5-.38.38-3.03-3.03h0Z" style="fill: #231f20;"/>
      <path d="M406.39,237.53l.52-.52,3.47,1.57h0l-1.57-3.48.52-.52,3.03,3.03-.38.38-2.49-2.49h0l1.58,3.42-.34.34-3.41-1.58h0l2.49,2.5-.38.38-3.03-3.03h0Z" style="fill: #231f20;"/>
      <path d="M411.5,232.98c-.72.72-.4,1.65.21,2.26.61.61,1.54.94,2.26.22.64-.64.45-1.31.09-1.72l.38-.38c.6.74.61,1.7-.14,2.44-.83.83-2.06.74-2.98-.17-.91-.91-1-2.15-.17-2.98.74-.74,1.7-.73,2.35-.23l-.38.38c-.34-.23-1-.44-1.63.19h.01Z" style="fill: #231f20;"/>
    </g>
    <g>
      <path d="M390.95,71.04h-.01c-.08.45-.42.83-1.06.83-.79,0-1.25-.56-1.25-1.45v-1.85h4.29v1.73c0,.88-.41,1.4-1.08,1.4-.53,0-.77-.31-.89-.67h0ZM389.11,69.12v1.36c0,.69.37.86.77.86.46,0,.77-.29.77-.74v-1.48h-1.54,0ZM391.12,70.39c0,.61.26.78.65.78s.66-.23.66-.72v-1.33h-1.31v1.27Z" style="fill: #231f20;"/>
      <path d="M389.7,73.04l-1.07-.38v-.56l4.29,1.58v.6l-4.29,1.58v-.56l1.07-.38v-1.89h0ZM390.18,74.75l2.24-.76h0l-2.24-.77v1.54h0Z" style="fill: #231f20;"/>
      <path d="M392.92,76.86h-3.81v2.25h-.48v-2.79h4.29v.54Z" style="fill: #231f20;"/>
      <path d="M389.7,80.24l-1.07-.38v-.56l4.29,1.58v.6l-4.29,1.58v-.56l1.07-.38v-1.89h0ZM390.18,81.96l2.24-.76h0l-2.24-.77v1.54h0Z" style="fill: #231f20;"/>
      <path d="M392.92,83.53v.66l-3.53,2.14h3.53v.55h-4.29v-.66l3.52-2.14h-3.52v-.55h4.29Z" style="fill: #231f20;"/>
      <path d="M392.52,89.54c0-1.02-.88-1.44-1.75-1.44s-1.75.43-1.75,1.44c0,.9.61,1.25,1.15,1.28v.54c-.95-.1-1.63-.77-1.63-1.82,0-1.18.94-1.98,2.23-1.98s2.22.81,2.22,1.98c0,1.05-.68,1.72-1.5,1.82v-.54c.41-.08,1.02-.39,1.02-1.28h.01Z" style="fill: #231f20;"/>
      <path d="M391.09,94.71h-.48v-2.2h-1.5v2.56h-.48v-3.1h4.29v3.03h-.48v-2.49h-1.35v2.2h0Z" style="fill: #231f20;"/>
    </g>
    <g>
      <path d="M374.66,123.25c0,.41-.3.79-1.02.79-.67,0-1.18-.35-1.22-1h.35c.04.39.28.69.87.69.49,0,.66-.22.66-.48,0-.39-.21-.46-.84-.6-.42-.1-.93-.24-.93-.79,0-.44.34-.74.96-.74s1.02.31,1.06.89h-.35c-.05-.38-.26-.58-.71-.58-.4,0-.61.15-.61.39,0,.37.3.42.72.53.63.16,1.05.26,1.05.91h0Z" style="fill: #231f20;"/>
      <path d="M375.5,122.25v1.21c0,.23.13.27.39.25v.28c-.07.02-.15.02-.24.02-.27,0-.47-.11-.47-.52v-1.24h-.3v-.28h.3v-.67h.31v.67h.39v.28h-.39,0Z" style="fill: #231f20;"/>
      <path d="M377.05,122.2c-.38,0-.51.11-.53.4h-.31c.02-.39.26-.68.84-.68.38,0,.72.15.72.63v.98c0,.16.03.24.23.22v.22c-.08.03-.13.03-.19.03-.19,0-.3-.05-.36-.27h0c-.13.19-.35.31-.68.31-.41,0-.66-.23-.66-.57,0-.46.34-.57.86-.67.34-.06.49-.11.49-.31,0-.16-.09-.29-.41-.29ZM377.46,123.21v-.33c-.06.06-.25.11-.46.16-.39.08-.57.18-.57.42,0,.2.12.31.38.31.37,0,.66-.17.66-.55h-.01Z" style="fill: #231f20;"/>
      <path d="M379.3,121.93v.31h0c-.44-.07-.74.24-.74.67v1.07h-.31v-2.01h.31v.4h0c.11-.26.27-.45.55-.45.08,0,.13,0,.19,0Z" style="fill: #231f20;"/>
      <path d="M380.07,122.25v1.21c0,.23.13.27.39.25v.28c-.07.02-.15.02-.24.02-.27,0-.47-.11-.47-.52v-1.24h-.3v-.28h.3v-.67h.31v.67h.39v.28h-.39,0Z" style="fill: #231f20;"/>
      <path d="M383.41,123.05c0,.59-.43.98-.98.98-.62,0-.97-.4-.98-.84h.35c.03.26.19.52.61.52.37,0,.64-.23.64-.67,0-.41-.25-.58-.6-.58-.24,0-.46.08-.59.26h-.38l.28-1.46h1.5v.31h-1.21l-.16.82h0c.14-.15.34-.24.65-.24.51,0,.87.39.87.9h0Z" style="fill: #231f20;"/>
      <path d="M384.42,121.99c0-.42.2-.78.63-.78s.63.36.63.78-.2.78-.63.78-.63-.36-.63-.78ZM385.41,121.99c0-.3-.12-.5-.36-.5s-.36.21-.36.5.12.5.36.5.36-.2.36-.5ZM385.35,123.98h-.28l1.43-2.72h.28l-1.43,2.72ZM386.17,123.26c0-.42.2-.78.63-.78s.63.36.63.78-.2.78-.63.78-.63-.36-.63-.78ZM387.16,123.26c0-.3-.12-.5-.36-.5s-.36.21-.36.5.12.5.36.5.36-.2.36-.5Z" style="fill: #231f20;"/>
      <path d="M372.6,125.17h1.14c.56,0,.93.3.93.8,0,.41-.19.63-.5.71h0c.63.13.4,1.24.54,1.28v.02h-.38c-.12-.12.15-1.14-.57-1.14h-.81v1.14h-.35v-2.81h0ZM372.96,126.53h.7c.29,0,.66-.04.66-.52s-.37-.52-.66-.52h-.7v1.05h0Z" style="fill: #231f20;"/>
      <path d="M375.87,126.2c-.38,0-.51.11-.53.4h-.31c.02-.39.26-.68.84-.68.38,0,.72.15.72.63v.98c0,.16.03.24.23.22v.22c-.08.03-.13.03-.19.03-.19,0-.3-.05-.36-.27h0c-.13.19-.35.31-.68.31-.41,0-.66-.23-.66-.57,0-.46.34-.57.86-.67.34-.06.49-.11.49-.31,0-.16-.09-.29-.41-.29h0ZM376.28,127.21v-.33c-.06.06-.25.11-.46.16-.39.08-.57.18-.57.42,0,.2.12.31.38.31.37,0,.66-.17.66-.55h-.01Z" style="fill: #231f20;"/>
      <path d="M378.72,126.58v1.4h-.31v-1.32c0-.26-.12-.46-.44-.46-.35,0-.59.22-.59.54v1.25h-.31v-2.01h.31v.24h0c.11-.14.32-.3.66-.3.37,0,.67.2.67.66h0Z" style="fill: #231f20;"/>
      <path d="M380.88,125.98v1.9c0,.54-.34.81-.89.81s-.88-.29-.91-.63h.31c.04.2.2.36.58.36s.59-.16.59-.54v-.3h0c-.12.17-.31.31-.64.31-.5,0-.9-.32-.9-.98s.4-.98.9-.98c.33,0,.52.15.64.3h0v-.25h.32ZM380.57,126.9c0-.47-.23-.7-.61-.7-.41,0-.62.31-.62.7s.21.7.62.7c.37,0,.61-.23.61-.7Z" style="fill: #231f20;"/>
      <path d="M382.76,127.37h.31c-.1.37-.39.67-.89.67-.61,0-.98-.43-.98-1.06,0-.67.38-1.06.96-1.06.63,0,.94.43.94,1.14h-1.59c0,.36.22.7.65.7.4,0,.55-.26.59-.4h.01ZM381.52,126.79h1.27c0-.32-.24-.59-.62-.59s-.65.27-.65.59Z" style="fill: #231f20;"/>
      <path d="M384.16,126.63c0-.77.3-1.42,1.05-1.42s1.05.65,1.05,1.42-.3,1.41-1.05,1.41-1.05-.64-1.05-1.41ZM385.9,126.63c0-.58-.17-1.1-.69-1.1s-.69.52-.69,1.1.17,1.1.69,1.1.69-.52.69-1.1Z" style="fill: #231f20;"/>
      <path d="M388.42,126.82v.31h-1.06v-.31h1.06Z" style="fill: #231f20;"/>
      <path d="M390.41,125.26v2.72h-.35v-2.04c-.17.16-.32.16-.57.16v-.26c.48,0,.61-.23.65-.59h.28,0Z" style="fill: #231f20;"/>
      <path d="M390.89,126.63c0-.77.3-1.42,1.05-1.42s1.05.65,1.05,1.42-.3,1.41-1.05,1.41-1.05-.64-1.05-1.41ZM392.63,126.63c0-.58-.17-1.1-.69-1.1s-.69.52-.69,1.1.17,1.1.69,1.1.69-.52.69-1.1Z" style="fill: #231f20;"/>
      <path d="M393.33,126.63c0-.77.3-1.42,1.05-1.42s1.05.65,1.05,1.42-.3,1.41-1.05,1.41-1.05-.64-1.05-1.41ZM395.07,126.63c0-.58-.17-1.1-.69-1.1s-.69.52-.69,1.1.17,1.1.69,1.1.69-.52.69-1.1Z" style="fill: #231f20;"/>
      <path d="M396.48,125.99c0-.42.2-.78.63-.78s.63.36.63.78-.2.78-.63.78-.63-.36-.63-.78h0ZM397.47,125.99c0-.3-.12-.5-.36-.5s-.36.21-.36.5.12.5.36.5.36-.2.36-.5h0ZM397.41,127.98h-.28l1.43-2.72h.28l-1.43,2.72ZM398.23,127.26c0-.42.2-.78.63-.78s.63.36.63.78-.2.78-.63.78-.63-.36-.63-.78ZM399.22,127.26c0-.3-.12-.5-.36-.5s-.36.21-.36.5.12.5.36.5.36-.2.36-.5Z" style="fill: #231f20;"/>
    </g>
    <path d="M386.33,116.58c-7.53-8.72-.2-17.04,6.12-17.04s13.59,8.78,6.05,17.02" style="fill: none; stroke: #a7a9ac; stroke-miterlimit: 10; stroke-width: 2px;"/>
    <circle cx="392.49" cy="109.22" r="8.41" style="fill: none; stroke: #231f20; stroke-miterlimit: 10; stroke-width: .5px;"/>
    <rect x="384.32" y="108.79" width="8.41" height="3.6" rx="1.8" ry="1.8" transform="translate(-14.82 132.8) rotate(-19.04)" style="fill: none; stroke: #231f20; stroke-miterlimit: 10; stroke-width: .5px;"/>
    <g>
      <path d="M205.42,77.01c0-1.29.84-2.22,2.1-2.22s2.1.94,2.1,2.22-.84,2.23-2.1,2.23-2.1-.94-2.1-2.23ZM209.08,77.01c0-.92-.48-1.75-1.56-1.75s-1.56.82-1.56,1.75.48,1.75,1.56,1.75,1.56-.83,1.56-1.75Z" style="fill: #231f20;"/>
      <path d="M210.28,74.87l1.22,3.75h0l1.22-3.75h.57l-1.5,4.29h-.59l-1.5-4.29h.58Z" style="fill: #231f20;"/>
      <path d="M216.51,76.7v.48h-2.2v1.5h2.56v.48h-3.1v-4.29h3.03v.48h-2.49v1.35h2.2Z" style="fill: #231f20;"/>
      <path d="M217.5,74.87h1.74c.85,0,1.42.46,1.42,1.22,0,.62-.29.96-.77,1.08h0c.95.2.61,1.88.83,1.96v.04h-.58c-.19-.18.22-1.73-.86-1.73h-1.23v1.73h-.54v-4.29h-.01ZM218.04,76.94h1.07c.44,0,1-.05,1-.8s-.56-.8-1-.8h-1.07v1.6Z" style="fill: #231f20;"/>
      <path d="M222.36,75.35h-1.43v-.48h3.39v.48h-1.43v3.81h-.54v-3.81h0Z" style="fill: #231f20;"/>
      <path d="M224.43,77.01c0-1.29.84-2.22,2.1-2.22s2.1.94,2.1,2.22-.84,2.23-2.1,2.23-2.1-.94-2.1-2.23ZM228.09,77.01c0-.92-.48-1.75-1.56-1.75s-1.56.82-1.56,1.75.48,1.75,1.56,1.75,1.56-.83,1.56-1.75Z" style="fill: #231f20;"/>
      <path d="M229.28,74.87h.66l2.14,3.53h0v-3.53h.54v4.29h-.66l-2.14-3.52h0v3.52h-.54v-4.29Z" style="fill: #231f20;"/>
      <path d="M236.17,76.7v.48h-2.2v1.5h2.56v.48h-3.1v-4.29h3.03v.48h-2.49v1.35h2.2Z" style="fill: #231f20;"/>
    </g>
    <g>
      <path d="M207.74,67.99c0,.41-.3.79-1.02.79-.67,0-1.18-.35-1.22-1h.35c.04.39.28.69.87.69.49,0,.66-.22.66-.48,0-.39-.21-.46-.84-.6-.42-.1-.93-.24-.93-.79,0-.44.34-.74.96-.74s1.02.31,1.06.89h-.35c-.05-.38-.26-.58-.71-.58-.4,0-.61.15-.61.39,0,.37.3.42.72.53.63.16,1.05.26,1.05.91h0Z" style="fill: #231f20;"/>
      <path d="M208.58,66.99v1.21c0,.23.13.27.39.25v.28c-.07.02-.15.02-.24.02-.27,0-.47-.11-.47-.52v-1.24h-.3v-.28h.3v-.67h.31v.67h.39v.28h-.39.01Z" style="fill: #231f20;"/>
      <path d="M210.12,66.94c-.38,0-.51.11-.53.4h-.31c.02-.39.26-.68.84-.68.38,0,.72.15.72.63v.98c0,.16.03.24.23.22v.22c-.08.03-.13.03-.19.03-.19,0-.3-.05-.36-.27h0c-.13.19-.35.31-.68.31-.41,0-.66-.23-.66-.57,0-.46.34-.57.86-.67.34-.06.49-.11.49-.31,0-.16-.09-.29-.41-.29ZM210.53,67.95v-.33c-.06.06-.25.11-.46.16-.39.08-.57.18-.57.42,0,.2.12.31.38.31.37,0,.66-.17.66-.55h0Z" style="fill: #231f20;"/>
      <path d="M212.38,66.67v.31h0c-.44-.07-.74.24-.74.67v1.07h-.31v-2.01h.31v.4h0c.11-.26.27-.45.55-.45.08,0,.13,0,.19,0Z" style="fill: #231f20;"/>
      <path d="M213.15,66.99v1.21c0,.23.13.27.39.25v.28c-.07.02-.15.02-.24.02-.27,0-.47-.11-.47-.52v-1.24h-.3v-.28h.3v-.67h.31v.67h.39v.28h-.39.01Z" style="fill: #231f20;"/>
      <path d="M215.5,66v2.72h-.35v-2.04c-.17.16-.32.16-.57.16v-.26c.48,0,.61-.23.65-.59h.28,0Z" style="fill: #231f20;"/>
      <path d="M215.98,67.37c0-.77.3-1.42,1.05-1.42s1.05.65,1.05,1.42-.3,1.41-1.05,1.41-1.05-.64-1.05-1.41ZM217.72,67.37c0-.58-.17-1.1-.69-1.1s-.69.52-.69,1.1.17,1.1.69,1.1.69-.52.69-1.1Z" style="fill: #231f20;"/>
      <path d="M219.13,66.73c0-.42.21-.78.63-.78s.63.36.63.78-.2.78-.63.78-.63-.36-.63-.78ZM220.12,66.73c0-.3-.12-.5-.36-.5s-.36.21-.36.5.12.5.36.5.36-.2.36-.5ZM220.06,68.73h-.28l1.43-2.72h.28l-1.43,2.72ZM220.87,68c0-.42.2-.78.63-.78s.63.36.63.78-.2.78-.63.78-.63-.36-.63-.78ZM221.86,68c0-.3-.12-.5-.36-.5s-.36.21-.36.5.12.5.36.5.36-.2.36-.5Z" style="fill: #231f20;"/>
      <path d="M205.68,69.91h1.14c.56,0,.93.3.93.8,0,.41-.19.63-.5.71h0c.63.13.4,1.24.54,1.28v.02h-.38c-.12-.12.15-1.14-.57-1.14h-.81v1.14h-.35v-2.81h0ZM206.04,71.27h.7c.29,0,.66-.04.66-.52s-.37-.52-.66-.52h-.7v1.05h0Z" style="fill: #231f20;"/>
      <path d="M208.95,70.94c-.38,0-.51.11-.53.4h-.31c.02-.39.26-.68.84-.68.38,0,.72.15.72.63v.98c0,.16.03.24.23.22v.22c-.08.03-.13.03-.19.03-.19,0-.3-.05-.36-.27h0c-.13.19-.35.31-.68.31-.41,0-.66-.23-.66-.57,0-.46.34-.57.86-.67.34-.06.49-.11.49-.31,0-.16-.09-.29-.41-.29ZM209.36,71.95v-.33c-.06.06-.25.11-.46.16-.39.08-.57.18-.57.42,0,.2.12.31.38.31.37,0,.66-.17.66-.55h0Z" style="fill: #231f20;"/>
      <path d="M211.79,71.32v1.4h-.31v-1.32c0-.26-.12-.46-.44-.46-.35,0-.59.22-.59.54v1.25h-.31v-2.01h.31v.24h0c.11-.14.32-.3.66-.3.37,0,.67.2.67.66h0Z" style="fill: #231f20;"/>
      <path d="M213.96,70.72v1.9c0,.54-.34.81-.89.81s-.88-.29-.91-.63h.31c.04.2.2.36.58.36s.59-.16.59-.54v-.3h0c-.12.17-.31.31-.64.31-.5,0-.9-.32-.9-.98s.4-.98.9-.98c.33,0,.52.15.64.3h0v-.25h.32ZM213.65,71.64c0-.47-.23-.7-.61-.7-.41,0-.62.31-.62.7s.21.7.62.7c.37,0,.61-.23.61-.7Z" style="fill: #231f20;"/>
      <path d="M215.83,72.11h.31c-.1.37-.39.67-.89.67-.61,0-.98-.43-.98-1.06,0-.67.38-1.06.96-1.06.63,0,.94.43.94,1.14h-1.59c0,.36.22.7.65.7.4,0,.55-.26.59-.4h0ZM214.6,71.53h1.27c0-.32-.24-.59-.62-.59s-.65.27-.65.59h0Z" style="fill: #231f20;"/>
      <path d="M217.24,71.37c0-.77.3-1.42,1.05-1.42s1.05.65,1.05,1.42-.3,1.41-1.05,1.41-1.05-.64-1.05-1.41ZM218.98,71.37c0-.58-.17-1.1-.69-1.1s-.69.52-.69,1.1.17,1.1.69,1.1.69-.52.69-1.1Z" style="fill: #231f20;"/>
      <path d="M221.5,71.56v.31h-1.06v-.31h1.06Z" style="fill: #231f20;"/>
      <path d="M223.49,70v2.72h-.35v-2.04c-.17.16-.32.16-.57.16v-.26c.48,0,.61-.23.65-.59h.28,0Z" style="fill: #231f20;"/>
      <path d="M223.97,71.37c0-.77.3-1.42,1.05-1.42s1.05.65,1.05,1.42-.3,1.41-1.05,1.41-1.05-.64-1.05-1.41ZM225.71,71.37c0-.58-.17-1.1-.69-1.1s-.69.52-.69,1.1.17,1.1.69,1.1.69-.52.69-1.1Z" style="fill: #231f20;"/>
      <path d="M226.41,71.37c0-.77.3-1.42,1.05-1.42s1.05.65,1.05,1.42-.3,1.41-1.05,1.41-1.05-.64-1.05-1.41ZM228.15,71.37c0-.58-.17-1.1-.69-1.1s-.69.52-.69,1.1.17,1.1.69,1.1.69-.52.69-1.1Z" style="fill: #231f20;"/>
      <path d="M229.56,70.73c0-.42.2-.78.63-.78s.63.36.63.78-.2.78-.63.78-.63-.36-.63-.78ZM230.55,70.73c0-.3-.12-.5-.36-.5s-.36.21-.36.5.12.5.36.5.36-.2.36-.5ZM230.49,72.73h-.28l1.43-2.72h.28l-1.43,2.72ZM231.31,72c0-.42.2-.78.63-.78s.63.36.63.78-.2.78-.63.78-.63-.36-.63-.78ZM232.3,72c0-.3-.12-.5-.36-.5s-.36.21-.36.5.12.5.36.5.36-.2.36-.5Z" style="fill: #231f20;"/>
    </g>
    <path d="M224.47,102.61c-5.11-4.54-4.09-11.05-.19-14.81,6.26-6.03,20.58.29,13.95,12.47" style="fill: none; stroke: #a7a9ac; stroke-miterlimit: 10; stroke-width: 2px;"/>
    <circle cx="230.47" cy="95.03" r="8.41" style="fill: none; stroke: #231f20; stroke-miterlimit: 10; stroke-width: .5px;"/>
    <path d="M230.47,95.03h0c0,.99-.81,1.8-1.8,1.8h-4.81c-.99,0-1.8-.81-1.8-1.8h0c0-.99.81-1.8,1.8-1.8h4.81c.99,0,1.8.81,1.8,1.8Z" style="fill: none; stroke: #231f20; stroke-miterlimit: 10; stroke-width: .5px;"/>
    <path d="M227.66,138.43c-4.45-2.05-5.1-6.73-3.2-10.12,3.04-5.43,14.18-4.07,12.16,5.67" style="fill: none; stroke: #a7a9ac; stroke-miterlimit: 10; stroke-width: 2px;"/>
    <circle cx="230.17" cy="132.01" r="6.03" style="fill: none; stroke: #231f20; stroke-miterlimit: 10; stroke-width: .5px;"/>
    <rect x="225.53" y="133.26" width="6.03" height="2.58" rx="1.29" ry="1.29" transform="translate(-8.36 253.77) rotate(-57.2)" style="fill: none; stroke: #231f20; stroke-miterlimit: 10; stroke-width: .5px;"/>
    <g>
      <path d="M204.9,142.53c0,.41-.3.79-1.02.79-.67,0-1.18-.35-1.22-1h.35c.04.39.28.69.87.69.49,0,.66-.22.66-.48,0-.39-.21-.46-.84-.6-.42-.1-.93-.24-.93-.79,0-.44.34-.74.96-.74s1.02.31,1.06.89h-.35c-.05-.38-.26-.58-.71-.58-.4,0-.61.15-.61.39,0,.37.3.42.72.53.63.16,1.05.26,1.05.91h0Z" style="fill: #231f20;"/>
      <path d="M205.74,141.54v1.21c0,.23.13.27.39.25v.28c-.07.02-.15.02-.24.02-.27,0-.47-.11-.47-.52v-1.24h-.3v-.28h.3v-.67h.31v.67h.39v.28h-.39.01Z" style="fill: #231f20;"/>
      <path d="M207.29,141.48c-.38,0-.51.11-.53.4h-.31c.02-.39.26-.68.84-.68.38,0,.72.15.72.63v.98c0,.16.03.24.23.22v.22c-.08.03-.13.03-.19.03-.19,0-.3-.05-.36-.27h0c-.13.19-.35.31-.68.31-.41,0-.66-.23-.66-.57,0-.46.34-.57.86-.67.34-.06.49-.11.49-.31,0-.16-.09-.29-.41-.29ZM207.7,142.5v-.33c-.06.06-.25.11-.46.16-.39.08-.57.18-.57.42,0,.2.12.31.38.31.37,0,.66-.17.66-.55h0Z" style="fill: #231f20;"/>
      <path d="M209.54,141.22v.31h0c-.44-.07-.74.24-.74.67v1.07h-.31v-2.01h.31v.4h0c.11-.26.27-.45.55-.45.08,0,.13,0,.19.01Z" style="fill: #231f20;"/>
      <path d="M210.31,141.54v1.21c0,.23.13.27.39.25v.28c-.07.02-.15.02-.24.02-.27,0-.47-.11-.47-.52v-1.24h-.3v-.28h.3v-.67h.31v.67h.39v.28h-.39.01Z" style="fill: #231f20;"/>
      <path d="M211.78,141.91c0-.77.3-1.42,1.05-1.42s1.05.65,1.05,1.42-.3,1.41-1.05,1.41-1.05-.64-1.05-1.41ZM213.52,141.91c0-.58-.17-1.1-.69-1.1s-.69.52-.69,1.1.17,1.1.69,1.1.69-.52.69-1.1Z" style="fill: #231f20;"/>
      <path d="M214.93,141.27c0-.42.21-.78.63-.78s.63.36.63.78-.2.78-.63.78-.63-.36-.63-.78ZM215.92,141.27c0-.3-.12-.5-.36-.5s-.36.21-.36.5.12.5.36.5.36-.2.36-.5ZM215.86,143.27h-.28l1.43-2.72h.28l-1.43,2.72ZM216.67,142.55c0-.42.2-.78.63-.78s.63.36.63.78-.2.78-.63.78-.63-.36-.63-.78ZM217.66,142.55c0-.3-.12-.5-.36-.5s-.36.21-.36.5.12.5.36.5.36-.2.36-.5Z" style="fill: #231f20;"/>
      <path d="M202.85,144.46h1.14c.56,0,.93.3.93.8,0,.41-.19.63-.5.71h0c.63.13.4,1.24.54,1.28v.02h-.38c-.12-.12.15-1.14-.57-1.14h-.81v1.14h-.35v-2.81h0ZM203.2,145.82h.7c.29,0,.66-.04.66-.52s-.37-.52-.66-.52h-.7v1.05h0Z" style="fill: #231f20;"/>
      <path d="M206.11,145.48c-.38,0-.51.11-.53.4h-.31c.02-.39.26-.68.84-.68.38,0,.72.15.72.63v.98c0,.16.03.24.23.22v.22c-.08.03-.13.03-.19.03-.19,0-.3-.05-.36-.27h0c-.13.19-.35.31-.68.31-.41,0-.66-.23-.66-.57,0-.46.34-.57.86-.67.34-.06.49-.11.49-.31,0-.16-.09-.29-.41-.29ZM206.52,146.5v-.33c-.06.06-.25.11-.46.16-.39.08-.57.18-.57.42,0,.2.12.31.38.31.37,0,.66-.17.66-.55h0Z" style="fill: #231f20;"/>
      <path d="M208.96,145.87v1.4h-.31v-1.32c0-.26-.12-.46-.44-.46-.35,0-.59.22-.59.54v1.25h-.31v-2.01h.31v.24h0c.11-.14.32-.3.66-.3.37,0,.67.2.67.66h0Z" style="fill: #231f20;"/>
      <path d="M211.12,145.26v1.9c0,.54-.34.81-.89.81s-.88-.29-.91-.63h.31c.04.2.2.36.58.36s.59-.16.59-.54v-.3h0c-.12.17-.31.31-.64.31-.5,0-.9-.32-.9-.98s.4-.98.9-.98c.33,0,.52.15.64.3h0v-.25h.32ZM210.81,146.19c0-.47-.23-.7-.61-.7-.41,0-.62.31-.62.7s.21.7.62.7c.37,0,.61-.23.61-.7Z" style="fill: #231f20;"/>
      <path d="M213,146.65h.31c-.1.37-.39.67-.89.67-.61,0-.98-.43-.98-1.06,0-.67.38-1.06.96-1.06.63,0,.94.43.94,1.14h-1.59c0,.36.22.7.65.7.4,0,.55-.26.59-.4h0ZM211.76,146.07h1.27c0-.32-.24-.59-.62-.59s-.65.27-.65.59h0Z" style="fill: #231f20;"/>
      <path d="M214.4,145.91c0-.77.3-1.42,1.05-1.42s1.05.65,1.05,1.42-.3,1.41-1.05,1.41-1.05-.64-1.05-1.41ZM216.14,145.91c0-.58-.17-1.1-.69-1.1s-.69.52-.69,1.1.17,1.1.69,1.1.69-.52.69-1.1Z" style="fill: #231f20;"/>
      <path d="M218.66,146.11v.31h-1.06v-.31h1.06Z" style="fill: #231f20;"/>
      <path d="M220.65,144.55v2.72h-.35v-2.04c-.17.16-.32.16-.57.16v-.26c.48,0,.61-.23.65-.59h.28,0Z" style="fill: #231f20;"/>
      <path d="M221.13,145.91c0-.77.3-1.42,1.05-1.42s1.05.65,1.05,1.42-.3,1.41-1.05,1.41-1.05-.64-1.05-1.41ZM222.87,145.91c0-.58-.17-1.1-.69-1.1s-.69.52-.69,1.1.17,1.1.69,1.1.69-.52.69-1.1Z" style="fill: #231f20;"/>
      <path d="M223.57,145.91c0-.77.3-1.42,1.05-1.42s1.05.65,1.05,1.42-.3,1.41-1.05,1.41-1.05-.64-1.05-1.41ZM225.31,145.91c0-.58-.17-1.1-.69-1.1s-.69.52-.69,1.1.17,1.1.69,1.1.69-.52.69-1.1Z" style="fill: #231f20;"/>
      <path d="M226.72,145.27c0-.42.2-.78.63-.78s.63.36.63.78-.2.78-.63.78-.63-.36-.63-.78ZM227.72,145.27c0-.3-.12-.5-.36-.5s-.36.21-.36.5.12.5.36.5.36-.2.36-.5ZM227.65,147.27h-.28l1.43-2.72h.28l-1.43,2.72ZM228.47,146.55c0-.42.2-.78.63-.78s.63.36.63.78-.2.78-.63.78-.63-.36-.63-.78ZM229.46,146.55c0-.3-.12-.5-.36-.5s-.36.21-.36.5.12.5.36.5.36-.2.36-.5Z" style="fill: #231f20;"/>
    </g>
    <g>
      <path d="M206.2,188.23v-.74l3.56-1.34h0l-3.56-1.36v-.74h4.29v.54h-3.53l3.53,1.31v.48l-3.53,1.29h3.53v.55h-4.29Z" style="fill: #231f20;"/>
      <path d="M210.57,181.68c0,1.15-.64,1.64-1.51,1.64h-2.86v-.54h2.86c.7,0,1.03-.36,1.03-1.1s-.34-1.1-1.03-1.1h-2.86v-.54h2.86c.88,0,1.51.5,1.51,1.64Z" style="fill: #231f20;"/>
      <path d="M206.2,178.76h3.81v-2.25h.48v2.79h-4.29v-.54Z" style="fill: #231f20;"/>
      <path d="M206.68,175.42v1.43h-.48v-3.39h.48v1.43h3.81v.54h-3.81Z" style="fill: #231f20;"/>
      <path d="M206.2,172.37h4.29v.54h-4.29v-.54Z" style="fill: #231f20;"/>
      <path d="M206.2,171.55v-1.7c0-.79.35-1.39,1.25-1.39s1.25.61,1.25,1.39v1.16h1.79v.54h-4.29ZM208.21,171.01v-1.22c0-.53-.25-.79-.77-.79s-.77.26-.77.79v1.22h1.54Z" style="fill: #231f20;"/>
      <path d="M206.2,167.39h3.81v-2.25h.48v2.79h-4.29v-.54Z" style="fill: #231f20;"/>
      <path d="M206.2,165l2.1-1.24h0l-2.1-1.26v-.58l2.53,1.57h1.76v.54h-1.76l-2.53,1.56v-.58h0Z" style="fill: #231f20;"/>
    </g>
    <path d="M224.47,179.71c-5.11-4.54-4.09-11.05-.19-14.81,6.26-6.03,20.58.29,13.95,12.47" style="fill: none; stroke: #a7a9ac; stroke-miterlimit: 10; stroke-width: 2px;"/>
    <circle cx="230.47" cy="172.13" r="8.41" style="fill: none; stroke: #231f20; stroke-miterlimit: 10; stroke-width: .5px;"/>
    <path d="M230.48,172.13h0c0,.99-.81,1.8-1.8,1.8h-4.81c-.99,0-1.8-.81-1.8-1.8h0c0-.99.81-1.8,1.8-1.8h4.81c.99,0,1.8.81,1.8,1.8Z" style="fill: none; stroke: #231f20; stroke-miterlimit: 10; stroke-width: .5px;"/>
    <path d="M227.66,216.53c-4.45-2.05-5.1-6.73-3.2-10.12,3.04-5.43,14.18-4.07,12.16,5.67" style="fill: none; stroke: #a7a9ac; stroke-miterlimit: 10; stroke-width: 2px;"/>
    <circle cx="230.17" cy="210.11" r="6.03" style="fill: none; stroke: #231f20; stroke-miterlimit: 10; stroke-width: .5px;"/>
    <rect x="225.53" y="211.36" width="6.03" height="2.58" rx="1.29" ry="1.29" transform="translate(-74 289.56) rotate(-57.2)" style="fill: none; stroke: #231f20; stroke-miterlimit: 10; stroke-width: .5px;"/>
    <circle cx="121.11" cy="211.94" r="6.03" style="fill: none; stroke: #231f20; stroke-miterlimit: 10; stroke-width: .5px;"/>
    <path d="M121.1,211.95h0c.62-.34,1.41-.11,1.75.51l1.66,3.02c.34.62.11,1.41-.51,1.75h0c-.62.34-1.41.11-1.75-.51l-1.66-3.02c-.34-.62-.11-1.41.51-1.75Z" style="fill: none; stroke: #231f20; stroke-miterlimit: 10; stroke-width: .5px;"/>
    <circle cx="166.65" cy="118.23" r="14.02" style="fill: none; stroke: #231f20; stroke-miterlimit: 10; stroke-width: .5px;"/>
    <path d="M166.65,118.23h0c.86.49,1.16,1.59.67,2.46l-5.19,9.04c-.49.86-1.59,1.16-2.46.67h0c-.86-.49-1.16-1.59-.67-2.46l5.19-9.04c.49-.86,1.59-1.16,2.46-.67Z" style="fill: none; stroke: #231f20; stroke-miterlimit: 10; stroke-width: .5px;"/>
    <circle cx="166.65" cy="167.64" r="3.81" style="fill: none; stroke: #231f20; stroke-miterlimit: 10; stroke-width: .5px;"/>
    <path d="M166.66,167.62h0c-.33.31-.85.29-1.16-.04l-1.48-1.58c-.31-.33-.29-.85.03-1.16h0c.33-.31.85-.29,1.16.04l1.48,1.58c.31.33.29.85-.03,1.16Z" style="fill: none; stroke: #231f20; stroke-miterlimit: 10; stroke-width: .5px;"/>
    <g>
      <path d="M108.8,215.16c.62,0,1.21.46,1.21,1.55,0,1.01-.54,1.8-1.52,1.86v-.54c.59-.06,1.04-.42,1.04-1.32,0-.74-.34-1.01-.73-1.01-.59,0-.7.32-.92,1.28-.15.64-.37,1.41-1.21,1.41-.68,0-1.13-.52-1.13-1.47s.47-1.55,1.36-1.62v.54c-.58.08-.88.4-.88,1.08,0,.61.23.93.59.93.57,0,.65-.46.8-1.09.24-.97.4-1.6,1.38-1.6h0Z" style="fill: #231f20;"/>
      <path d="M110,212.91c0,1.15-.64,1.64-1.51,1.64h-2.86v-.54h2.86c.7,0,1.03-.36,1.03-1.1s-.34-1.1-1.03-1.1h-2.86v-.54h2.86c.88,0,1.51.5,1.51,1.64Z" style="fill: #231f20;"/>
      <path d="M105.63,210.53v-.74l3.56-1.34h0l-3.56-1.36v-.74h4.29v.54h-3.53l3.53,1.31v.48l-3.53,1.29h3.53v.55h-4.29Z" style="fill: #231f20;"/>
    </g>
    <g>
      <circle cx="115.6" cy="197.93" r="3.32" style="fill: none; stroke: #231f20; stroke-miterlimit: 10; stroke-width: .5px;"/>
      <path d="M116.54,197.86v.49h-1.87v-.49h1.87Z" style="fill: #231f20;"/>
    </g>
    <g>
      <circle cx="126.62" cy="197.93" r="3.32" style="fill: none; stroke: #231f20; stroke-miterlimit: 10; stroke-width: .5px;"/>
      <path d="M126.86,196.12v1.78h1.71v.45h-1.71v1.79h-.48v-1.79h-1.71v-.45h1.71v-1.78s.48,0,.48,0Z" style="fill: #231f20;"/>
    </g>
    <circle cx="413.44" cy="66.28" r="5.17" style="fill: none; stroke: #231f20; stroke-miterlimit: 10; stroke-width: .5px;"/>
    <g>
      <path d="M406.55,54.25h0c.45.09.83.43.83,1.07,0,.79-.56,1.25-1.45,1.25h-1.85v-4.29h1.73c.88,0,1.4.41,1.4,1.08,0,.53-.31.77-.67.89h.01ZM405.9,54.08c.61,0,.78-.26.78-.65s-.23-.66-.72-.66h-1.33v1.31h1.27ZM404.63,56.09h1.36c.69,0,.86-.37.86-.77,0-.46-.29-.77-.74-.77h-1.48v1.54h0Z" style="fill: #231f20;"/>
      <path d="M408.55,55.5l-.38,1.07h-.56l1.58-4.29h.6l1.58,4.29h-.56l-.38-1.07h-1.89.01ZM410.26,55.02l-.76-2.24h-.01l-.76,2.24h1.54,0Z" style="fill: #231f20;"/>
      <path d="M412.38,52.29v3.81h2.25v.48h-2.79v-4.29h.54Z" style="fill: #231f20;"/>
      <path d="M415.16,52.29h.66l2.14,3.53h.01v-3.53h.54v4.29h-.66l-2.14-3.52h-.01v3.52h-.54v-4.29Z" style="fill: #231f20;"/>
      <path d="M421.17,52.68c-1.02,0-1.44.88-1.44,1.75s.43,1.75,1.44,1.75c.9,0,1.25-.61,1.28-1.15h.54c-.1.95-.77,1.63-1.82,1.63-1.18,0-1.98-.94-1.98-2.23s.81-2.22,1.98-2.22c1.05,0,1.72.68,1.82,1.5h-.54c-.08-.41-.39-1.02-1.28-1.02h0Z" style="fill: #231f20;"/>
    </g>
    <g>
      <polyline points="286.94 249.89 299.57 249.89 299.57 272.34 448.91 272.34 448.91 65.99 415.36 65.99" style="fill: none; stroke: #231f20; stroke-miterlimit: 10; stroke-width: .5px;"/>
      <path d="M287.03,251.77c-1.04,0-1.88-.84-1.88-1.88s.84-1.88,1.88-1.88,1.88.84,1.88,1.88-.84,1.88-1.88,1.88Z" style="fill: #231f20;"/>
      <polygon points="416.09 63.49 411.77 65.99 416.09 68.48 416.09 63.49" style="fill: #231f20;"/>
    </g>
  </g>
</svg>