<?xml version="1.0" encoding="UTF-8"?>
<svg id="Layer_1" data-name="Layer 1" xmlns="http://www.w3.org/2000/svg" viewBox="0 0 1701.7 827.39">
  <rect x="15.08" y="70.39" width="194.5" height="35.45" style="fill: none; stroke: #000; stroke-miterlimit: 10; stroke-width: .5px;"/>
  <rect x="15.08" y="105.84" width="194.5" height="54.41" style="fill: none; stroke: #000; stroke-miterlimit: 10; stroke-width: .5px;"/>
  <rect x="15.08" y="160.29" width="194.5" height="35.45" style="fill: none; stroke: #000; stroke-miterlimit: 10; stroke-width: .5px;"/>
  <g>
    <path d="M26.49,80.94h5.65c1.49,0,2.61.43,3.37,1.21.72.74,1.15,1.75,1.15,2.94,0,2.43-1.6,4.07-4.3,4.07h-3.17v4.66h-2.7v-12.87ZM29.19,87.03h2.7c1.37,0,2.09-.76,2.09-1.93s-.76-1.89-2.05-1.89h-2.74v3.82Z"/>
    <path d="M37.04,89.19c0-2.74,1.85-4.86,4.56-4.86,2.97,0,4.56,2.27,4.56,5.56h-6.7c.18,1.42.97,2.3,2.36,2.3.95,0,1.51-.43,1.78-1.13h2.41c-.34,1.64-1.8,3.02-4.18,3.02-3.06,0-4.79-2.14-4.79-4.9ZM39.49,88.2h4.1c-.07-1.17-.85-1.98-1.96-1.98-1.3,0-1.93.77-2.14,1.98Z"/>
    <path d="M49.64,86.05h.05c.56-1.04,1.19-1.58,2.27-1.58.27,0,.43.02.58.07v2.14h-.05c-1.6-.16-2.75.68-2.75,2.63v4.5h-2.45v-9.24h2.36v1.48Z"/>
    <path d="M53.02,90.82h2.27c.16,1.06.92,1.53,2.02,1.53s1.69-.41,1.69-1.06c0-.88-1.17-.97-2.43-1.22-1.66-.32-3.28-.77-3.28-2.79s1.66-2.95,3.76-2.95c2.43,0,3.78,1.21,3.96,3.06h-2.21c-.11-.99-.74-1.35-1.78-1.35-.95,0-1.58.36-1.58,1.03,0,.79,1.22.86,2.54,1.13,1.55.32,3.26.76,3.26,2.92,0,1.85-1.58,2.97-3.89,2.97-2.68,0-4.18-1.3-4.32-3.26Z"/>
    <path d="M62.33,80.94h2.45v2.2h-2.45v-2.2ZM62.33,84.58h2.45v9.24h-2.45v-9.24Z"/>
    <path d="M71.78,85.84h.05c.63-.99,1.48-1.51,2.74-1.51,1.91,0,3.19,1.44,3.19,3.46v6.03h-2.45v-5.67c0-.99-.58-1.69-1.6-1.69-1.08,0-1.87.86-1.87,2.12v5.24h-2.45v-9.24h2.39v1.26Z"/>
    <path d="M78.82,89.19c0-2.74,1.85-4.86,4.56-4.86,2.97,0,4.56,2.27,4.56,5.56h-6.7c.18,1.42.97,2.3,2.36,2.3.95,0,1.51-.43,1.78-1.13h2.41c-.34,1.64-1.8,3.02-4.18,3.02-3.06,0-4.79-2.14-4.79-4.9ZM81.27,88.2h4.1c-.07-1.17-.85-1.98-1.96-1.98-1.3,0-1.93.77-2.14,1.98Z"/>
    <path d="M89.1,80.94h2.45v12.87h-2.45v-12.87Z"/>
    <path d="M95.65,84.58h1.28v-2.88h2.4v2.88h1.58v1.62h-1.58v4.9c0,.68.38.92.92.92.31,0,.72-.02.72-.02v1.8s-.56.04-1.53.04c-1.19,0-2.5-.47-2.5-2.21v-5.42h-1.28v-1.62Z"/>
    <path d="M101.62,89.19c0-2.74,1.85-4.86,4.56-4.86,2.97,0,4.56,2.27,4.56,5.56h-6.7c.18,1.42.97,2.3,2.36,2.3.95,0,1.51-.43,1.78-1.13h2.41c-.34,1.64-1.8,3.02-4.18,3.02-3.06,0-4.79-2.14-4.79-4.9ZM104.07,88.2h4.1c-.07-1.17-.85-1.98-1.96-1.98-1.3,0-1.93.77-2.14,1.98Z"/>
    <path d="M111.87,84.58h2.36v1.24h.05c.5-.85,1.4-1.49,2.68-1.49,1.17,0,2.11.65,2.56,1.62h.04c.63-1.01,1.6-1.62,2.77-1.62,1.94,0,3.04,1.26,3.04,3.28v6.21h-2.45v-5.8c0-1.04-.52-1.58-1.42-1.58-1.03,0-1.66.79-1.66,2.02v5.37h-2.45v-5.8c0-1.04-.52-1.58-1.42-1.58-.99,0-1.66.79-1.66,2.02v5.37h-2.45v-9.24Z"/>
    <path d="M126.88,84.58h2.36v1.15h.05c.59-.81,1.46-1.4,2.72-1.4,2.45,0,4.02,2,4.02,4.88s-1.62,4.88-4,4.88c-1.3,0-2.14-.52-2.67-1.31h-.04v4.07h-2.45v-12.26ZM133.54,89.28c0-1.75-.61-2.97-2.12-2.97s-2.14,1.31-2.14,2.97.77,2.77,2.23,2.77c1.24,0,2.03-1.03,2.03-2.77Z"/>
    <path d="M136.71,89.2c0-2.75,1.96-4.88,4.83-4.88s4.83,2.12,4.83,4.88-1.96,4.88-4.83,4.88-4.83-2.12-4.83-4.88ZM143.87,89.2c0-1.8-.85-3.02-2.34-3.02s-2.34,1.22-2.34,3.02.83,3.01,2.34,3.01,2.34-1.21,2.34-3.01Z"/>
  </g>
  <g>
    <path d="M26.44,127.36c-1.02-.92-1.36-2.24-1.36-4.22,0-2.98,1.27-4.96,3.71-4.96,1.92,0,2.87,1.27,3.03,2.66h-1.16c-.08-.91-.73-1.67-1.83-1.67-1.88,0-2.55,1.51-2.59,3.87h.03c.62-.85,1.48-1.33,2.63-1.33,1.77,0,3.15,1.46,3.17,3.22.01,1.79-1.43,3.28-3.22,3.28-1.05,0-1.82-.32-2.4-.85ZM30.97,124.98c0-1.36-.95-2.3-2.2-2.3-1.37,0-2.33.91-2.33,2.28s1.02,2.3,2.37,2.3c1.25,0,2.16-.92,2.16-2.28Z"/>
    <path d="M35.13,124.61h1.23c.17,1.69,1.2,2.58,3.1,2.58,1.39,0,2.38-.63,2.38-1.88,0-1.37-1.2-1.69-3-2.09-1.76-.39-3.28-.9-3.28-2.79,0-1.65,1.37-2.65,3.4-2.65,2.51,0,3.54,1.27,3.8,3.12h-1.19c-.18-1.43-1.11-2.14-2.58-2.14-1.36,0-2.26.57-2.26,1.61,0,1.13,1.12,1.47,2.62,1.77,1.95.39,3.73.87,3.73,3.12,0,1.88-1.53,2.93-3.68,2.93-2.82,0-4.16-1.57-4.27-3.59Z"/>
    <path d="M48.8,126.99h-.01c-.43.56-1.18,1.15-2.41,1.15-1.37,0-2.45-.64-2.45-2.02,0-1.71,1.34-2.06,3.15-2.34,1.02-.15,1.74-.25,1.74-1.04s-.59-1.27-1.62-1.27c-1.18,0-1.77.5-1.81,1.6h-1.09c.04-1.4.97-2.45,2.89-2.45,1.54,0,2.68.57,2.68,2.3v3.45c0,.59.14.91.77.77h.04v.83c-.14.06-.32.11-.62.11-.74,0-1.13-.34-1.25-1.08ZM48.83,125.33v-1.23c-.38.24-1.04.42-1.65.53-1.13.21-2.04.41-2.04,1.47,0,.97.76,1.18,1.5,1.18,1.51,0,2.2-1.11,2.2-1.95Z"/>
    <path d="M53.54,124.2l-2.41-3.45h1.32l1.72,2.63h.03l1.79-2.63h1.25l-2.38,3.32,2.83,3.92h-1.33l-2.14-3.11h-.03l-2.1,3.11h-1.27l2.73-3.8Z"/>
    <path d="M57.65,124.39c0-2.1,1.34-3.81,3.5-3.81s3.49,1.71,3.49,3.81-1.32,3.81-3.49,3.81-3.5-1.71-3.5-3.81ZM63.47,124.39c0-1.6-.78-2.87-2.33-2.87s-2.34,1.27-2.34,2.87.8,2.86,2.34,2.86,2.33-1.26,2.33-2.86Z"/>
    <path d="M65.77,120.76h1.13v1.02h.03c.55-.74,1.27-1.19,2.33-1.19,1.83,0,3.11,1.4,3.11,3.81s-1.19,3.81-3.15,3.81c-.98,0-1.68-.29-2.28-1.06h-.03v3.18h-1.13v-9.57ZM71.2,124.41c0-1.62-.69-2.86-2.06-2.86-1.58,0-2.31,1.29-2.31,2.86s.63,2.84,2.3,2.84c1.39,0,2.07-1.21,2.07-2.84Z"/>
    <path d="M74.63,121.71h.03c.52-.69,1.25-1.12,2.3-1.12,1.51,0,2.44.83,2.44,2.33v5.08h-1.13v-4.99c0-.94-.62-1.47-1.64-1.47-1.15,0-1.99.81-1.99,2v4.45h-1.13v-10.02h1.13v3.73Z"/>
    <path d="M80.48,124.39c0-2.1,1.34-3.81,3.5-3.81s3.49,1.71,3.49,3.81-1.32,3.81-3.49,3.81-3.5-1.71-3.5-3.81ZM86.31,124.39c0-1.6-.78-2.87-2.33-2.87s-2.34,1.27-2.34,2.87.8,2.86,2.34,2.86,2.33-1.26,2.33-2.86Z"/>
    <path d="M89.73,121.71h.03c.52-.69,1.25-1.12,2.3-1.12,1.51,0,2.44.83,2.44,2.33v5.08h-1.13v-4.99c0-.94-.62-1.47-1.64-1.47-1.15,0-1.99.81-1.99,2v4.45h-1.13v-7.24h1.13v.95Z"/>
    <path d="M95.59,124.39c0-2.1,1.37-3.81,3.43-3.81,2.17,0,3.33,1.68,3.33,4.08h-5.6c.08,1.47.88,2.59,2.34,2.59,1.05,0,1.75-.5,2-1.48h1.11c-.34,1.55-1.47,2.44-3.11,2.44-2.21,0-3.5-1.71-3.5-3.81ZM96.78,123.8h4.36c-.07-1.44-.81-2.33-2.12-2.33s-2.07,1.01-2.24,2.33Z"/>
    <path d="M102.99,125.65h1.16c.15,1.26.99,1.61,2.07,1.61,1.19,0,1.68-.52,1.68-1.19,0-.81-.56-1.02-1.89-1.3-1.43-.29-2.7-.59-2.7-2.17,0-1.2.92-1.99,2.61-1.99,1.79,0,2.68.85,2.84,2.27h-1.16c-.11-.95-.63-1.37-1.71-1.37s-1.46.46-1.46,1.04c0,.78.7.94,1.95,1.19,1.46.29,2.68.62,2.68,2.28,0,1.46-1.19,2.2-2.86,2.2-1.99,0-3.1-.94-3.21-2.56Z"/>
    <path d="M116.81,126.99h-.01c-.43.56-1.18,1.15-2.41,1.15-1.37,0-2.45-.64-2.45-2.02,0-1.71,1.34-2.06,3.15-2.34,1.02-.15,1.74-.25,1.74-1.04s-.59-1.27-1.62-1.27c-1.18,0-1.77.5-1.81,1.6h-1.09c.04-1.4.97-2.45,2.89-2.45,1.54,0,2.68.57,2.68,2.3v3.45c0,.59.14.91.77.77h.04v.83c-.14.06-.32.11-.62.11-.74,0-1.13-.34-1.25-1.08ZM116.84,125.33v-1.23c-.38.24-1.04.42-1.65.53-1.13.21-2.04.41-2.04,1.47,0,.97.76,1.18,1.5,1.18,1.51,0,2.2-1.11,2.2-1.95Z"/>
    <path d="M120.65,121.71h.03c.52-.69,1.25-1.12,2.3-1.12,1.51,0,2.44.83,2.44,2.33v5.08h-1.13v-4.99c0-.94-.62-1.47-1.64-1.47-1.15,0-1.99.81-1.99,2v4.45h-1.13v-7.24h1.13v.95Z"/>
    <path d="M126.5,124.4c0-2.41,1.39-3.81,3.18-3.81,1.02,0,1.81.5,2.27,1.19h.03v-3.8h1.13v10.02h-1.13v-.88h-.03c-.55.7-1.22,1.09-2.24,1.09-1.98,0-3.21-1.48-3.21-3.81ZM132.04,124.41c0-1.68-.81-2.86-2.31-2.86-1.37,0-2.07,1.23-2.07,2.86s.7,2.84,2.09,2.84c1.61,0,2.3-1.21,2.3-2.84Z"/>
    <path d="M136.46,124.39c0-2.1,1.37-3.81,3.43-3.81,2.17,0,3.33,1.68,3.33,4.08h-5.6c.08,1.47.88,2.59,2.34,2.59,1.05,0,1.75-.5,2-1.48h1.11c-.34,1.55-1.47,2.44-3.11,2.44-2.21,0-3.5-1.71-3.5-3.81ZM137.66,123.8h4.36c-.07-1.44-.81-2.33-2.12-2.33s-2.07,1.01-2.24,2.33Z"/>
    <path d="M144.38,117.99h1.13v10.02h-1.13v-10.02Z"/>
    <path d="M146.68,124.39c0-2.1,1.37-3.81,3.43-3.81,2.17,0,3.33,1.68,3.33,4.08h-5.6c.08,1.47.88,2.59,2.34,2.59,1.05,0,1.75-.5,2-1.48h1.11c-.34,1.55-1.47,2.44-3.11,2.44-2.21,0-3.5-1.71-3.5-3.81ZM147.88,123.8h4.36c-.07-1.44-.81-2.33-2.12-2.33s-2.07,1.01-2.24,2.33Z"/>
    <path d="M154.15,124.39c0-2.1,1.34-3.81,3.5-3.81,1.71,0,2.84.98,3.1,2.52h-1.15c-.17-.98-.85-1.58-1.95-1.58-1.54,0-2.34,1.27-2.34,2.87s.8,2.86,2.34,2.86c1.18,0,1.88-.67,1.98-1.79h1.12c-.15,1.74-1.29,2.75-3.1,2.75-2.16,0-3.5-1.71-3.5-3.81Z"/>
    <path d="M161.36,120.76h1.05v-2.28h1.13v2.28h1.4v.92h-1.4v4.71c0,.5.27.67.73.67.22,0,.48-.06.6-.1h.04v.98c-.27.06-.57.1-.91.1-.92,0-1.6-.38-1.6-1.4v-4.96h-1.05v-.92Z"/>
    <path d="M167.25,121.96h.03c.43-.7,1.19-1.29,2.16-1.29.21,0,.32.03.46.08v1.09h-.04c-.17-.06-.28-.07-.5-.07-1.12,0-2.1.84-2.1,2.2v4.02h-1.13v-7.24h1.13v1.2Z"/>
    <path d="M170.23,124.39c0-2.1,1.34-3.81,3.5-3.81s3.49,1.71,3.49,3.81-1.32,3.81-3.49,3.81-3.5-1.71-3.5-3.81ZM176.06,124.39c0-1.6-.78-2.87-2.33-2.87s-2.34,1.27-2.34,2.87.8,2.86,2.34,2.86,2.33-1.26,2.33-2.86Z"/>
    <path d="M179.49,121.71h.03c.52-.69,1.25-1.12,2.3-1.12,1.51,0,2.44.83,2.44,2.33v5.08h-1.13v-4.99c0-.94-.62-1.47-1.64-1.47-1.15,0-1.99.81-1.99,2v4.45h-1.13v-7.24h1.13v.95Z"/>
    <path d="M185.74,117.99h1.13v1.4h-1.13v-1.4ZM185.74,120.76h1.13v7.24h-1.13v-7.24Z"/>
    <path d="M188.01,124.39c0-2.1,1.34-3.81,3.5-3.81,1.71,0,2.84.98,3.1,2.52h-1.15c-.17-.98-.85-1.58-1.95-1.58-1.54,0-2.34,1.27-2.34,2.87s.8,2.86,2.34,2.86c1.18,0,1.88-.67,1.98-1.79h1.12c-.15,1.74-1.29,2.75-3.1,2.75-2.16,0-3.5-1.71-3.5-3.81Z"/>
    <path d="M195.36,125.65h1.16c.15,1.26.99,1.61,2.07,1.61,1.19,0,1.68-.52,1.68-1.19,0-.81-.56-1.02-1.89-1.3-1.43-.29-2.7-.59-2.7-2.17,0-1.2.92-1.99,2.61-1.99,1.79,0,2.68.85,2.84,2.27h-1.16c-.11-.95-.63-1.37-1.71-1.37s-1.46.46-1.46,1.04c0,.78.7.94,1.95,1.19,1.46.29,2.68.62,2.68,2.28,0,1.46-1.19,2.2-2.86,2.2-1.99,0-3.1-.94-3.21-2.56Z"/>
    <path d="M25.4,134.78h7.07v1.11h-5.81v3.17h5.28v1.06h-5.28v3.52h5.98v1.16h-7.24v-10.02Z"/>
    <path d="M33.33,141.2c0-2.41,1.39-3.81,3.18-3.81,1.02,0,1.81.5,2.27,1.19h.03v-3.8h1.13v10.02h-1.13v-.88h-.03c-.55.7-1.22,1.09-2.24,1.09-1.98,0-3.21-1.48-3.21-3.81ZM38.88,141.21c0-1.68-.81-2.86-2.31-2.86-1.37,0-2.07,1.23-2.07,2.86s.7,2.84,2.09,2.84c1.61,0,2.3-1.21,2.3-2.84Z"/>
    <path d="M46.08,144.8v-.99h-.03c-.52.7-1.13,1.16-2.19,1.16-1.48,0-2.44-.9-2.44-2.4v-5.01h1.13v4.99c0,.94.6,1.48,1.62,1.48,1.15,0,1.89-.87,1.89-2.02v-4.45h1.13v7.24h-1.13Z"/>
    <path d="M53.2,143.79h-.01c-.43.56-1.18,1.15-2.41,1.15-1.37,0-2.45-.64-2.45-2.02,0-1.71,1.34-2.06,3.15-2.34,1.02-.15,1.74-.25,1.74-1.04s-.59-1.27-1.62-1.27c-1.18,0-1.77.5-1.81,1.6h-1.09c.04-1.4.97-2.45,2.89-2.45,1.54,0,2.68.57,2.68,2.3v3.45c0,.59.14.91.77.77h.04v.83c-.14.06-.32.11-.62.11-.74,0-1.13-.34-1.25-1.08ZM53.22,142.13v-1.23c-.38.24-1.04.42-1.65.53-1.13.21-2.04.41-2.04,1.47,0,.97.76,1.18,1.5,1.18,1.51,0,2.2-1.11,2.2-1.95Z"/>
    <path d="M57.03,138.76h.03c.43-.7,1.19-1.29,2.16-1.29.21,0,.32.03.46.08v1.09h-.04c-.17-.06-.28-.07-.5-.07-1.12,0-2.1.84-2.1,2.2v4.02h-1.13v-7.24h1.13v1.2Z"/>
    <path d="M60.01,141.2c0-2.41,1.39-3.81,3.18-3.81,1.02,0,1.81.5,2.27,1.19h.03v-3.8h1.13v10.02h-1.13v-.88h-.03c-.55.7-1.22,1.09-2.24,1.09-1.98,0-3.21-1.48-3.21-3.81ZM65.56,141.21c0-1.68-.81-2.86-2.31-2.86-1.37,0-2.07,1.23-2.07,2.86s.7,2.84,2.09,2.84c1.61,0,2.3-1.21,2.3-2.84Z"/>
    <path d="M69.92,134.78h7.93v1.11h-3.33v8.91h-1.26v-8.91h-3.33v-1.11Z"/>
    <path d="M81.76,143.79h-.01c-.43.56-1.18,1.15-2.41,1.15-1.37,0-2.45-.64-2.45-2.02,0-1.71,1.34-2.06,3.15-2.34,1.02-.15,1.74-.25,1.74-1.04s-.59-1.27-1.62-1.27c-1.18,0-1.77.5-1.81,1.6h-1.09c.04-1.4.97-2.45,2.89-2.45,1.54,0,2.68.57,2.68,2.3v3.45c0,.59.14.91.77.77h.04v.83c-.14.06-.32.11-.62.11-.74,0-1.13-.34-1.25-1.08ZM81.78,142.13v-1.23c-.38.24-1.04.42-1.65.53-1.13.21-2.04.41-2.04,1.47,0,.97.76,1.18,1.5,1.18,1.51,0,2.2-1.11,2.2-1.95Z"/>
    <path d="M84.46,137.56h1.13v1.04h.03c.45-.7,1.22-1.2,2.13-1.2s1.58.45,1.89,1.29h.03c.46-.83,1.33-1.29,2.21-1.29,1.29,0,2.2.83,2.2,2.33v5.08h-1.13v-5.03c0-.9-.6-1.43-1.33-1.43-.94,0-1.78.81-1.78,1.95v4.51h-1.13v-5.03c0-.9-.5-1.43-1.25-1.43-.88,0-1.86.81-1.86,1.95v4.51h-1.13v-7.24Z"/>
    <path d="M95.57,137.56h1.13v1.02h.03c.55-.74,1.27-1.19,2.33-1.19,1.83,0,3.11,1.4,3.11,3.81s-1.19,3.81-3.15,3.81c-.98,0-1.68-.29-2.28-1.06h-.03v3.18h-1.13v-9.57ZM101.01,141.21c0-1.62-.69-2.86-2.06-2.86-1.58,0-2.31,1.29-2.31,2.86s.63,2.84,2.3,2.84c1.39,0,2.07-1.21,2.07-2.84Z"/>
    <path d="M107.91,144.8v-.99h-.03c-.52.7-1.13,1.16-2.19,1.16-1.48,0-2.44-.9-2.44-2.4v-5.01h1.13v4.99c0,.94.6,1.48,1.62,1.48,1.15,0,1.89-.87,1.89-2.02v-4.45h1.13v7.24h-1.13Z"/>
  </g>
  <g>
    <path d="M26.34,171.77h1.26v4.26h5.35v-4.26h1.26v10.02h-1.26v-4.73h-5.35v4.73h-1.26v-10.02Z"/>
    <path d="M35.51,178.17c0-2.1,1.37-3.81,3.43-3.81,2.17,0,3.33,1.68,3.33,4.08h-5.6c.08,1.47.88,2.59,2.34,2.59,1.05,0,1.75-.5,2-1.48h1.11c-.34,1.55-1.47,2.44-3.11,2.44-2.21,0-3.5-1.71-3.5-3.81ZM36.7,177.58h4.36c-.07-1.44-.81-2.33-2.12-2.33s-2.07,1.01-2.24,2.33Z"/>
    <path d="M43.42,171.77h1.13v10.02h-1.13v-10.02Z"/>
    <path d="M45.68,179.43h1.16c.15,1.26.99,1.61,2.07,1.61,1.19,0,1.68-.52,1.68-1.19,0-.81-.56-1.02-1.89-1.3-1.43-.29-2.7-.59-2.7-2.17,0-1.2.92-1.99,2.61-1.99,1.79,0,2.68.85,2.84,2.27h-1.16c-.11-.95-.63-1.37-1.71-1.37s-1.46.46-1.46,1.04c0,.78.7.94,1.95,1.19,1.46.29,2.68.62,2.68,2.28,0,1.46-1.19,2.2-2.86,2.2-1.99,0-3.1-.94-3.21-2.56Z"/>
    <path d="M52.83,171.77h1.13v1.4h-1.13v-1.4ZM52.83,174.54h1.13v7.24h-1.13v-7.24Z"/>
    <path d="M56.64,175.49h.03c.52-.69,1.25-1.12,2.3-1.12,1.51,0,2.44.83,2.44,2.33v5.08h-1.13v-4.99c0-.94-.62-1.47-1.64-1.47-1.15,0-1.99.81-1.99,2v4.45h-1.13v-7.24h1.13v.95Z"/>
    <path d="M65.1,177.87l-1.06,1.01v2.9h-1.13v-10.02h1.13v5.87l3.18-3.1h1.44l-2.77,2.6,3.11,4.64h-1.33l-2.56-3.91Z"/>
    <path d="M69.74,171.77h1.13v1.4h-1.13v-1.4ZM69.74,174.54h1.13v7.24h-1.13v-7.24Z"/>
    <path d="M72.28,182.94c.31-.11.63-.38.63-1.16h-.64v-1.39h1.36v1.43c0,1.02-.55,1.6-1.34,1.75v-.63Z"/>
    <path d="M79.04,174.79h-2.1v-.78c1.18-.03,2.19-.46,2.37-1.88h.91v9.65h-1.18v-6.99Z"/>
    <path d="M86.19,179.43h-4.52v-1.05l4.75-6.29h.92v6.4h1.58v.94h-1.58v2.35h-1.15v-2.35ZM82.8,178.49h3.39v-4.5h-.03l-3.36,4.45v.04Z"/>
    <path d="M92.39,171.77h1.61l3.25,8.32h.03l3.22-8.32h1.64v10.02h-1.21v-8.24h-.03s-.27.78-.45,1.26l-2.75,6.98h-.97l-2.75-6.98c-.2-.5-.45-1.26-.45-1.26h-.03v8.24h-1.13v-10.02Z"/>
    <path d="M108.29,180.77h-.01c-.43.56-1.18,1.15-2.41,1.15-1.37,0-2.45-.64-2.45-2.02,0-1.71,1.34-2.06,3.15-2.34,1.02-.15,1.74-.25,1.74-1.04s-.59-1.27-1.62-1.27c-1.18,0-1.77.5-1.81,1.6h-1.09c.04-1.4.97-2.45,2.89-2.45,1.54,0,2.68.57,2.68,2.3v3.45c0,.59.14.91.77.77h.04v.83c-.14.06-.32.11-.62.11-.74,0-1.13-.34-1.25-1.08ZM108.31,179.11v-1.23c-.38.24-1.04.42-1.65.53-1.13.21-2.04.41-2.04,1.47,0,.97.76,1.18,1.5,1.18,1.51,0,2.2-1.11,2.2-1.95Z"/>
    <path d="M112.12,175.74h.03c.43-.7,1.19-1.29,2.16-1.29.21,0,.32.03.46.08v1.09h-.04c-.17-.06-.28-.07-.5-.07-1.12,0-2.1.84-2.1,2.2v4.02h-1.13v-7.24h1.13v1.2Z"/>
    <path d="M115.1,178.17c0-2.1,1.34-3.81,3.5-3.81,1.71,0,2.84.98,3.1,2.52h-1.15c-.17-.98-.85-1.58-1.95-1.58-1.54,0-2.34,1.27-2.34,2.87s.8,2.86,2.34,2.86c1.18,0,1.88-.67,1.98-1.79h1.12c-.15,1.74-1.29,2.75-3.1,2.75-2.16,0-3.5-1.71-3.5-3.81Z"/>
    <path d="M123.91,175.49h.03c.52-.69,1.25-1.12,2.3-1.12,1.51,0,2.44.83,2.44,2.33v5.08h-1.13v-4.99c0-.94-.62-1.47-1.64-1.47-1.15,0-1.99.81-1.99,2v4.45h-1.13v-10.02h1.13v3.73Z"/>
    <path d="M135.65,177.31c1.26-.73,2.03-1.22,2.03-2.38s-.81-1.98-2.09-1.98c-.67,0-1.18.22-1.53.6-.38.41-.55.94-.55,1.92h-1.23c0-1.23.32-2.02.91-2.61.62-.6,1.51-.9,2.49-.9,1.95,0,3.21,1.23,3.21,2.94,0,1.85-1.26,2.47-2.8,3.32-1.04.57-2.37,1.36-2.63,2.42h5.24v1.12h-6.65c.11-2.56,1.92-3.5,3.6-4.47Z"/>
    <path d="M140.02,176.98c0-3.11,1.47-5.01,3.74-5.01s3.71,1.88,3.71,5.01-1.33,5.01-3.73,5.01-3.73-1.96-3.73-5.01ZM146.25,176.98c0-2.44-.83-4.01-2.49-4.01s-2.52,1.53-2.52,4.01.83,3.99,2.52,3.99,2.49-1.51,2.49-3.99Z"/>
    <path d="M152.05,177.31c1.26-.73,2.03-1.22,2.03-2.38s-.81-1.98-2.09-1.98c-.67,0-1.18.22-1.53.6-.38.41-.55.94-.55,1.92h-1.23c0-1.23.32-2.02.91-2.61.62-.6,1.51-.9,2.49-.9,1.95,0,3.21,1.23,3.21,2.94,0,1.85-1.26,2.47-2.8,3.32-1.04.57-2.37,1.36-2.63,2.42h5.24v1.12h-6.65c.11-2.56,1.92-3.5,3.6-4.47Z"/>
    <path d="M160.27,179.43h-4.52v-1.05l4.75-6.29h.92v6.4h1.58v.94h-1.58v2.35h-1.15v-2.35ZM156.88,178.49h3.39v-4.5h-.03l-3.36,4.45v.04Z"/>
  </g>
  <g>
    <rect x="551.97" y="269.94" width="616.17" height="455.5" style="fill: none; stroke: #000; stroke-miterlimit: 10;"/>
    <g>
      <path d="M552.29,247.48h8.28v1.16h-3.48v9.31h-1.32v-9.31h-3.48v-1.16Z"/>
      <path d="M563.58,247.48h1.48l3.86,10.46h-1.43l-1.11-3.19h-4.17l-1.13,3.19h-1.35l3.85-10.46ZM562.58,253.68h3.42l-1.2-3.51c-.21-.59-.47-1.48-.47-1.48h-.03s-.28.88-.48,1.48l-1.24,3.51Z"/>
      <path d="M570.05,247.48h4.43c1.1,0,1.93.29,2.52.91.42.44.67,1.04.67,1.79,0,1.16-.64,1.87-1.68,2.19v.04c1.19.28,2.11,1.13,2.11,2.53,0,.81-.28,1.49-.76,2-.58.63-1.49,1-2.62,1h-4.67v-10.46ZM574.32,251.96c1.27,0,2.03-.63,2.03-1.71,0-1.01-.69-1.62-1.86-1.62h-3.13v3.34h2.96ZM574.66,256.76c.75,0,1.29-.19,1.64-.53.29-.31.47-.72.47-1.21,0-1.3-.92-1.95-2.2-1.95h-3.2v3.69h3.29Z"/>
      <path d="M579.48,247.48h1.32v9.25h5.49v1.21h-6.8v-10.46Z"/>
      <path d="M587.59,247.48h7.39v1.16h-6.07v3.31h5.52v1.11h-5.52v3.67h6.25v1.21h-7.57v-10.46Z"/>
    </g>
    <rect x="739.03" y="431.27" width="170.43" height="98.4" style="fill: none; stroke: #000; stroke-miterlimit: 10;"/>
    <g>
      <path d="M740.01,410.18h1.68l3.4,8.69h.03l3.37-8.69h1.71v10.46h-1.26v-8.6h-.03s-.28.82-.47,1.32l-2.87,7.29h-1.01l-2.87-7.29c-.2-.53-.47-1.32-.47-1.32h-.03v8.6h-1.19v-10.46Z"/>
      <path d="M756.62,419.59h-.01c-.45.58-1.23,1.2-2.52,1.2-1.43,0-2.56-.67-2.56-2.11,0-1.79,1.4-2.15,3.29-2.44,1.07-.16,1.81-.26,1.81-1.08s-.61-1.33-1.7-1.33c-1.23,0-1.84.53-1.89,1.67h-1.14c.04-1.46,1.01-2.56,3.01-2.56,1.61,0,2.79.6,2.79,2.4v3.6c0,.61.15.95.8.8h.04v.86c-.15.06-.34.12-.64.12-.78,0-1.19-.35-1.3-1.13ZM756.65,417.85v-1.29c-.4.25-1.08.44-1.73.56-1.19.22-2.14.42-2.14,1.54,0,1.01.79,1.23,1.57,1.23,1.58,0,2.3-1.16,2.3-2.03Z"/>
      <path d="M759.02,416.87c0-2.2,1.4-3.98,3.66-3.98,1.79,0,2.97,1.02,3.23,2.63h-1.2c-.18-1.02-.89-1.65-2.03-1.65-1.61,0-2.44,1.33-2.44,3s.83,2.99,2.44,2.99c1.23,0,1.96-.7,2.06-1.87h1.17c-.16,1.81-1.35,2.87-3.23,2.87-2.25,0-3.66-1.79-3.66-3.98Z"/>
      <path d="M767.22,410.18h4.43c1.1,0,1.93.29,2.52.91.42.44.67,1.04.67,1.79,0,1.16-.64,1.87-1.68,2.2v.04c1.19.28,2.11,1.13,2.11,2.53,0,.8-.28,1.49-.76,2-.58.63-1.49,1-2.62,1h-4.67v-10.46ZM771.49,414.66c1.27,0,2.03-.63,2.03-1.71,0-1.01-.69-1.62-1.86-1.62h-3.13v3.34h2.96ZM771.83,419.46c.75,0,1.29-.19,1.64-.53.29-.31.47-.72.47-1.21,0-1.3-.92-1.95-2.2-1.95h-3.2v3.69h3.29Z"/>
      <path d="M776.19,416.87c0-2.2,1.4-3.98,3.66-3.98s3.64,1.79,3.64,3.98-1.38,3.98-3.64,3.98-3.66-1.79-3.66-3.98ZM782.28,416.87c0-1.67-.82-3-2.43-3s-2.44,1.33-2.44,3,.83,2.99,2.44,2.99,2.43-1.32,2.43-2.99Z"/>
      <path d="M784.26,416.87c0-2.2,1.4-3.98,3.66-3.98s3.64,1.79,3.64,3.98-1.38,3.98-3.64,3.98-3.66-1.79-3.66-3.98ZM790.35,416.87c0-1.67-.82-3-2.43-3s-2.44,1.33-2.44,3,.83,2.99,2.44,2.99,2.43-1.32,2.43-2.99Z"/>
      <path d="M795.04,416.56l-1.11,1.05v3.03h-1.19v-10.46h1.19v6.13l3.32-3.23h1.51l-2.9,2.72,3.25,4.84h-1.39l-2.68-4.08Z"/>
      <path d="M802.41,410.18h4.36c1.1,0,1.95.37,2.49,1.01.44.51.7,1.2.7,1.99,0,1.92-1.1,3.07-3.38,3.07h-2.85v4.39h-1.32v-10.46ZM803.73,415.19h2.75c1.48,0,2.18-.75,2.18-1.95,0-1.26-.78-1.92-2.11-1.92h-2.82v3.86Z"/>
      <path d="M812.25,414.34h.03c.45-.73,1.24-1.35,2.25-1.35.22,0,.34.03.48.09v1.14h-.04c-.18-.06-.29-.07-.53-.07-1.17,0-2.19.88-2.19,2.3v4.2h-1.19v-7.57h1.19v1.26Z"/>
      <path d="M815.36,416.87c0-2.2,1.4-3.98,3.66-3.98s3.64,1.79,3.64,3.98-1.38,3.98-3.64,3.98-3.66-1.79-3.66-3.98ZM821.45,416.87c0-1.67-.82-3-2.43-3s-2.44,1.33-2.44,3,.83,2.99,2.44,2.99,2.43-1.32,2.43-2.99Z"/>
    </g>
    <rect x="701.67" y="580.01" width="95.77" height="95.77" style="fill: none; stroke: #000; stroke-miterlimit: 10;"/>
    <rect x="815.13" y="581.51" width="142.33" height="95.77" style="fill: none; stroke: #000; stroke-miterlimit: 10;"/>
    <polyline points="740.01 459.08 714.04 459.08 714.04 580.01" style="fill: none; stroke: #000; stroke-miterlimit: 10;"/>
    <polyline points="909.46 460.58 939.47 460.58 939.47 581.51" style="fill: none; stroke: #000; stroke-miterlimit: 10;"/>
    <g>
      <path d="M725.2,543.53h1.39l4.77,7.27c.35.54.76,1.35.76,1.35h.03v-8.62h1.23v10.46h-1.35l-4.8-7.29c-.34-.51-.78-1.3-.78-1.3h-.03v8.59h-1.23v-10.46Z"/>
      <path d="M734.75,550.22c0-2.2,1.4-3.98,3.66-3.98s3.64,1.79,3.64,3.98-1.38,3.98-3.64,3.98-3.66-1.79-3.66-3.98ZM740.84,550.22c0-1.67-.82-3-2.43-3s-2.44,1.33-2.44,3,.83,2.99,2.44,2.99,2.43-1.32,2.43-2.99Z"/>
      <path d="M742.32,546.43h1.27l1.57,4.8c.22.67.5,1.59.5,1.59h.03s.28-.94.5-1.59l1.59-4.8h1.23l-2.72,7.57h-1.32l-2.65-7.57Z"/>
      <path d="M754.26,552.94h-.01c-.45.58-1.23,1.2-2.52,1.2-1.43,0-2.56-.67-2.56-2.11,0-1.79,1.4-2.15,3.29-2.44,1.07-.16,1.81-.26,1.81-1.08s-.61-1.33-1.7-1.33c-1.23,0-1.84.53-1.89,1.67h-1.14c.04-1.46,1.01-2.56,3.01-2.56,1.61,0,2.79.6,2.79,2.4v3.6c0,.61.15.95.8.8h.04v.86c-.15.06-.34.12-.64.12-.78,0-1.19-.35-1.3-1.13ZM754.29,551.2v-1.29c-.4.25-1.08.44-1.73.56-1.19.22-2.14.42-2.14,1.54,0,1.01.79,1.23,1.57,1.23,1.58,0,2.3-1.16,2.3-2.03Z"/>
      <path d="M756.46,546.43h1.1v-2.38h1.19v2.38h1.46v.97h-1.46v4.92c0,.53.28.7.76.7.23,0,.5-.06.63-.1h.04v1.02c-.28.06-.6.1-.95.1-.97,0-1.67-.4-1.67-1.46v-5.18h-1.1v-.97Z"/>
      <path d="M761.43,543.53h1.19v1.46h-1.19v-1.46ZM761.43,546.43h1.19v7.57h-1.19v-7.57Z"/>
      <path d="M763.81,550.22c0-2.2,1.4-3.98,3.66-3.98s3.64,1.79,3.64,3.98-1.38,3.98-3.64,3.98-3.66-1.79-3.66-3.98ZM769.89,550.22c0-1.67-.82-3-2.43-3s-2.44,1.33-2.44,3,.83,2.99,2.44,2.99,2.43-1.32,2.43-2.99Z"/>
      <path d="M773.48,547.42h.03c.54-.72,1.3-1.17,2.4-1.17,1.58,0,2.55.86,2.55,2.43v5.31h-1.19v-5.21c0-.98-.64-1.54-1.71-1.54-1.2,0-2.08.85-2.08,2.09v4.65h-1.19v-7.57h1.19v1Z"/>
      <path d="M725.2,561.1h1.32v9.25h5.49v1.21h-6.8v-10.46Z"/>
      <path d="M737.78,570.51h-.01c-.45.58-1.23,1.2-2.52,1.2-1.43,0-2.56-.67-2.56-2.11,0-1.79,1.4-2.15,3.29-2.44,1.07-.16,1.81-.26,1.81-1.08s-.61-1.33-1.7-1.33c-1.23,0-1.84.53-1.89,1.67h-1.14c.04-1.46,1.01-2.56,3.01-2.56,1.61,0,2.79.6,2.79,2.4v3.6c0,.61.15.95.8.8h.04v.86c-.15.06-.34.12-.64.12-.78,0-1.19-.35-1.3-1.13ZM737.81,568.76v-1.29c-.4.25-1.08.44-1.73.56-1.19.22-2.14.42-2.14,1.54,0,1.01.79,1.23,1.57,1.23,1.58,0,2.3-1.16,2.3-2.03Z"/>
      <path d="M745.42,571.56v-1.04h-.03c-.54.73-1.19,1.21-2.28,1.21-1.55,0-2.55-.94-2.55-2.5v-5.24h1.19v5.21c0,.98.63,1.55,1.7,1.55,1.2,0,1.98-.91,1.98-2.11v-4.65h1.19v7.57h-1.19Z"/>
      <path d="M749.4,564.99h.03c.54-.72,1.3-1.17,2.4-1.17,1.58,0,2.55.86,2.55,2.43v5.31h-1.19v-5.21c0-.98-.64-1.54-1.71-1.54-1.2,0-2.08.85-2.08,2.09v4.65h-1.19v-7.57h1.19v1Z"/>
      <path d="M755.52,567.78c0-2.2,1.4-3.98,3.66-3.98,1.79,0,2.97,1.02,3.23,2.63h-1.2c-.18-1.02-.89-1.65-2.03-1.65-1.61,0-2.44,1.33-2.44,3s.83,2.99,2.44,2.99c1.23,0,1.96-.7,2.06-1.87h1.17c-.16,1.81-1.35,2.87-3.23,2.87-2.25,0-3.66-1.79-3.66-3.98Z"/>
      <path d="M764.73,564.99h.03c.54-.72,1.3-1.17,2.4-1.17,1.58,0,2.55.86,2.55,2.43v5.31h-1.19v-5.21c0-.98-.64-1.54-1.71-1.54-1.2,0-2.08.85-2.08,2.09v4.65h-1.19v-10.46h1.19v3.89Z"/>
      <path d="M771.27,563.99h1.19v1.07h.03c.57-.78,1.33-1.24,2.43-1.24,1.92,0,3.25,1.46,3.25,3.98s-1.24,3.98-3.29,3.98c-1.02,0-1.76-.31-2.39-1.11h-.03v3.32h-1.19v-9.99ZM776.95,567.81c0-1.7-.72-2.99-2.15-2.99-1.65,0-2.41,1.35-2.41,2.99s.66,2.97,2.4,2.97c1.45,0,2.17-1.26,2.17-2.97Z"/>
      <path d="M783.99,570.51h-.01c-.45.58-1.23,1.2-2.52,1.2-1.43,0-2.56-.67-2.56-2.11,0-1.79,1.4-2.15,3.29-2.44,1.07-.16,1.81-.26,1.81-1.08s-.61-1.33-1.7-1.33c-1.23,0-1.84.53-1.89,1.67h-1.14c.04-1.46,1.01-2.56,3.01-2.56,1.61,0,2.79.6,2.79,2.4v3.6c0,.61.15.95.8.8h.04v.86c-.15.06-.34.12-.64.12-.78,0-1.19-.35-1.3-1.13ZM784.02,568.76v-1.29c-.4.25-1.08.44-1.73.56-1.19.22-2.14.42-2.14,1.54,0,1.01.79,1.23,1.57,1.23,1.58,0,2.3-1.16,2.3-2.03Z"/>
      <path d="M786.39,567.8c0-2.52,1.45-3.98,3.32-3.98,1.07,0,1.89.53,2.37,1.24h.03v-3.97h1.19v10.46h-1.19v-.92h-.03c-.57.73-1.27,1.14-2.34,1.14-2.06,0-3.35-1.55-3.35-3.98ZM792.19,567.81c0-1.76-.85-2.99-2.41-2.99-1.43,0-2.17,1.29-2.17,2.99s.73,2.97,2.18,2.97c1.68,0,2.4-1.26,2.4-2.97Z"/>
      <path d="M800.27,566.2l-3.37-5.11h1.52l2.59,4.19h.03l2.65-4.19h1.45l-3.42,5.12,3.53,5.34h-1.58l-2.69-4.4h-.03l-2.81,4.4h-1.49l3.63-5.36Z"/>
    </g>
    <g>
      <path d="M816.11,543.99h4.43c1.1,0,1.93.29,2.52.91.42.44.67,1.04.67,1.79,0,1.16-.64,1.87-1.68,2.2v.04c1.19.28,2.11,1.13,2.11,2.53,0,.8-.28,1.49-.76,2-.58.63-1.49,1-2.62,1h-4.67v-10.46ZM820.38,548.46c1.27,0,2.03-.63,2.03-1.71,0-1.01-.69-1.62-1.86-1.62h-3.13v3.34h2.96ZM820.72,553.26c.75,0,1.29-.19,1.64-.53.29-.31.47-.72.47-1.21,0-1.3-.92-1.95-2.2-1.95h-3.2v3.69h3.29Z"/>
      <path d="M825.08,550.67c0-2.2,1.43-3.98,3.59-3.98,2.27,0,3.48,1.76,3.48,4.26h-5.85c.09,1.54.92,2.71,2.44,2.71,1.1,0,1.83-.53,2.09-1.55h1.16c-.35,1.62-1.54,2.55-3.25,2.55-2.31,0-3.66-1.79-3.66-3.98ZM826.33,550.06h4.55c-.07-1.51-.85-2.43-2.21-2.43s-2.17,1.05-2.34,2.43Z"/>
      <path d="M834.49,547.88h.03c.54-.72,1.3-1.17,2.4-1.17,1.58,0,2.55.86,2.55,2.43v5.31h-1.19v-5.21c0-.98-.64-1.54-1.71-1.54-1.2,0-2.08.85-2.08,2.09v4.65h-1.19v-10.46h1.19v3.89Z"/>
      <path d="M842.22,548.14h.03c.45-.73,1.24-1.35,2.25-1.35.22,0,.34.03.48.09v1.14h-.04c-.18-.06-.29-.07-.53-.07-1.17,0-2.19.88-2.19,2.3v4.2h-1.19v-7.57h1.19v1.26Z"/>
      <path d="M846.06,543.99h1.19v1.46h-1.19v-1.46ZM846.06,546.88h1.19v7.57h-1.19v-7.57Z"/>
      <path d="M850.04,547.88h.03c.54-.72,1.3-1.17,2.4-1.17,1.58,0,2.55.86,2.55,2.43v5.31h-1.19v-5.21c0-.98-.64-1.54-1.71-1.54-1.2,0-2.08.85-2.08,2.09v4.65h-1.19v-7.57h1.19v1Z"/>
      <path d="M856.39,554.87h1.1c.12.83.91,1.16,2.08,1.16,1.39,0,2.17-.63,2.17-1.95v-1.07h-.03c-.56.72-1.16,1.17-2.24,1.17-1.96,0-3.31-1.57-3.31-3.75,0-2.36,1.48-3.73,3.23-3.73,1.1,0,1.8.42,2.31,1.14h.03v-.97h1.19v7.16c0,1.99-1.32,2.93-3.32,2.93s-3.07-.79-3.2-2.09ZM861.82,550.38c0-1.65-.7-2.68-2.31-2.68-1.42,0-2.14,1.11-2.14,2.75s.75,2.74,2.15,2.74c1.74,0,2.3-1.21,2.3-2.81Z"/>
      <path d="M864.11,550.67c0-2.2,1.43-3.98,3.59-3.98,2.27,0,3.48,1.76,3.48,4.26h-5.85c.09,1.54.92,2.71,2.44,2.71,1.1,0,1.83-.53,2.09-1.55h1.16c-.35,1.62-1.54,2.55-3.25,2.55-2.31,0-3.66-1.79-3.66-3.98ZM865.35,550.06h4.55c-.07-1.51-.85-2.43-2.21-2.43s-2.17,1.05-2.34,2.43Z"/>
      <path d="M873.52,548.14h.03c.45-.73,1.24-1.35,2.25-1.35.22,0,.34.03.48.09v1.14h-.04c-.18-.06-.29-.07-.53-.07-1.17,0-2.19.88-2.19,2.3v4.2h-1.19v-7.57h1.19v1.26Z"/>
      <path d="M816.11,561.55h4.43c1.1,0,1.93.29,2.52.91.42.44.67,1.04.67,1.79,0,1.16-.64,1.87-1.68,2.2v.04c1.19.28,2.11,1.13,2.11,2.53,0,.8-.28,1.49-.76,2-.58.63-1.49,1-2.62,1h-4.67v-10.46ZM820.38,566.03c1.27,0,2.03-.63,2.03-1.71,0-1.01-.69-1.62-1.86-1.62h-3.13v3.34h2.96ZM820.72,570.83c.75,0,1.29-.19,1.64-.53.29-.31.47-.72.47-1.21,0-1.3-.92-1.95-2.2-1.95h-3.2v3.69h3.29Z"/>
      <path d="M825.21,566.78c0-3.07,1.84-5.46,4.96-5.46,2.44,0,3.92,1.41,4.2,3.34h-1.29c-.25-1.3-1.29-2.2-2.94-2.2-2.3,0-3.58,1.86-3.58,4.32s1.42,4.29,3.6,4.29c1.98,0,2.91-1.35,3.04-2.88h1.3c-.01,1.04-.51,2.21-1.26,2.94-.73.72-1.8,1.1-3.13,1.1-2.97,0-4.9-2.27-4.9-5.44Z"/>
      <path d="M835.99,561.55h7.1v1.16h-5.78v3.26h4.81v1.11h-4.81v4.93h-1.32v-10.46Z"/>
      <path d="M847.68,567.35c1.32-.76,2.12-1.27,2.12-2.49s-.85-2.06-2.18-2.06c-.7,0-1.23.23-1.59.63-.4.42-.57.98-.57,2h-1.29c0-1.29.34-2.11.95-2.72.64-.63,1.58-.94,2.6-.94,2.03,0,3.35,1.29,3.35,3.07,0,1.93-1.32,2.58-2.93,3.47-1.08.6-2.47,1.42-2.75,2.53h5.47v1.17h-6.95c.12-2.68,2-3.66,3.76-4.67Z"/>
      <path d="M852.25,567c0-3.25,1.54-5.24,3.91-5.24s3.88,1.96,3.88,5.24-1.39,5.24-3.89,5.24-3.89-2.05-3.89-5.24ZM858.76,567c0-2.55-.86-4.18-2.6-4.18s-2.63,1.59-2.63,4.18.86,4.17,2.63,4.17,2.6-1.58,2.6-4.17Z"/>
      <path d="M861.33,567c0-3.25,1.54-5.24,3.91-5.24s3.88,1.96,3.88,5.24-1.39,5.24-3.89,5.24-3.89-2.05-3.89-5.24ZM867.84,567c0-2.55-.86-4.18-2.6-4.18s-2.63,1.59-2.63,4.18.86,4.17,2.63,4.17,2.6-1.58,2.6-4.17Z"/>
      <path d="M870.4,567c0-3.25,1.54-5.24,3.91-5.24s3.88,1.96,3.88,5.24-1.39,5.24-3.89,5.24-3.89-2.05-3.89-5.24ZM876.92,567c0-2.55-.86-4.18-2.6-4.18s-2.63,1.59-2.63,4.18.86,4.17,2.63,4.17,2.6-1.58,2.6-4.17Z"/>
    </g>
    <g>
      <path d="M568.49,299.77h4.36c1.1,0,1.95.37,2.49,1.01.44.51.7,1.2.7,1.99,0,1.92-1.1,3.07-3.38,3.07h-2.85v4.39h-1.32v-10.46ZM569.81,304.78h2.75c1.48,0,2.18-.75,2.18-1.95,0-1.26-.78-1.92-2.11-1.92h-2.82v3.86Z"/>
      <path d="M576.5,306.46c0-2.19,1.4-3.98,3.66-3.98s3.64,1.79,3.64,3.98-1.38,3.98-3.64,3.98-3.66-1.79-3.66-3.98ZM582.59,306.46c0-1.67-.82-3-2.43-3s-2.44,1.33-2.44,3,.83,2.99,2.44,2.99,2.43-1.32,2.43-2.99Z"/>
      <path d="M584.1,302.67h1.27l1.33,4.67c.18.63.41,1.62.41,1.62h.03s.22-1,.38-1.6l1.27-4.7h1.24l1.23,4.7c.16.61.37,1.6.37,1.6h.03s.23-1,.42-1.62l1.4-4.67h1.23l-2.47,7.57h-1.21l-1.26-4.58c-.18-.63-.37-1.58-.37-1.58h-.03s-.21.95-.38,1.58l-1.27,4.58h-1.23l-2.4-7.57Z"/>
      <path d="M595.02,306.46c0-2.19,1.43-3.98,3.59-3.98,2.27,0,3.48,1.76,3.48,4.26h-5.85c.09,1.54.92,2.71,2.44,2.71,1.1,0,1.83-.53,2.09-1.55h1.16c-.35,1.62-1.54,2.55-3.25,2.55-2.31,0-3.66-1.79-3.66-3.98ZM596.26,305.84h4.55c-.07-1.51-.85-2.43-2.21-2.43s-2.17,1.05-2.34,2.43Z"/>
      <path d="M604.43,303.93h.03c.45-.73,1.24-1.35,2.25-1.35.22,0,.34.03.48.09v1.14h-.04c-.18-.06-.29-.07-.53-.07-1.17,0-2.19.88-2.19,2.3v4.2h-1.19v-7.57h1.19v1.26Z"/>
      <path d="M610.11,306.69h1.29c.18,1.77,1.26,2.69,3.23,2.69,1.45,0,2.49-.66,2.49-1.96,0-1.43-1.26-1.77-3.13-2.18-1.84-.41-3.42-.94-3.42-2.91,0-1.73,1.43-2.77,3.56-2.77,2.62,0,3.7,1.33,3.97,3.26h-1.24c-.19-1.49-1.16-2.24-2.69-2.24-1.42,0-2.36.6-2.36,1.68,0,1.19,1.17,1.54,2.74,1.84,2.03.41,3.89.91,3.89,3.26,0,1.96-1.6,3.06-3.85,3.06-2.94,0-4.35-1.64-4.46-3.75Z"/>
      <path d="M619.33,306.46c0-2.19,1.4-3.98,3.66-3.98s3.64,1.79,3.64,3.98-1.38,3.98-3.64,3.98-3.66-1.79-3.66-3.98ZM625.42,306.46c0-1.67-.82-3-2.43-3s-2.44,1.33-2.44,3,.83,2.99,2.44,2.99,2.43-1.32,2.43-2.99Z"/>
      <path d="M627.4,306.46c0-2.19,1.4-3.98,3.66-3.98,1.79,0,2.97,1.02,3.23,2.63h-1.2c-.18-1.02-.89-1.65-2.03-1.65-1.61,0-2.44,1.33-2.44,3s.83,2.99,2.44,2.99c1.23,0,1.96-.7,2.06-1.87h1.17c-.16,1.81-1.35,2.87-3.23,2.87-2.25,0-3.66-1.79-3.66-3.98Z"/>
      <path d="M637.72,306.15l-1.11,1.05v3.03h-1.19v-10.46h1.19v6.13l3.32-3.23h1.51l-2.9,2.72,3.25,4.84h-1.39l-2.68-4.08Z"/>
      <path d="M641.71,306.46c0-2.19,1.43-3.98,3.59-3.98,2.27,0,3.48,1.76,3.48,4.26h-5.85c.09,1.54.92,2.71,2.44,2.71,1.1,0,1.83-.53,2.09-1.55h1.16c-.35,1.62-1.54,2.55-3.25,2.55-2.31,0-3.66-1.79-3.66-3.98ZM642.96,305.84h4.55c-.07-1.51-.85-2.43-2.21-2.43s-2.17,1.05-2.34,2.43Z"/>
      <path d="M649.31,302.67h1.1v-2.39h1.19v2.39h1.46v.97h-1.46v4.92c0,.53.28.7.76.7.23,0,.5-.06.63-.1h.04v1.02c-.28.06-.6.1-.95.1-.97,0-1.67-.4-1.67-1.46v-5.18h-1.1v-.97Z"/>
    </g>
    <polyline points="594.88 331.07 594.88 440.24 739.03 440.24" style="fill: none; stroke: #b3b3b3; stroke-miterlimit: 10;"/>
    <rect x="270.31" y="320.86" width="20.42" height="20.42" style="fill: none; stroke: #000; stroke-miterlimit: 10;"/>
    <line x1="909.46" y1="440.24" x2="1015.85" y2="440.24" style="fill: none; stroke: #000; stroke-miterlimit: 10;"/>
    <g>
      <path d="M1018.74,472.35h1.48l3.86,10.46h-1.43l-1.11-3.19h-4.17l-1.13,3.19h-1.35l3.85-10.46ZM1017.75,478.55h3.42l-1.2-3.51c-.2-.58-.47-1.48-.47-1.48h-.03s-.28.88-.48,1.48l-1.24,3.51Z"/>
      <path d="M1029.63,482.81v-1.04h-.03c-.54.73-1.19,1.21-2.28,1.21-1.55,0-2.55-.94-2.55-2.5v-5.24h1.19v5.21c0,.98.63,1.55,1.7,1.55,1.2,0,1.98-.91,1.98-2.11v-4.65h1.19v7.57h-1.19Z"/>
      <path d="M1032.01,479.05c0-2.52,1.45-3.98,3.32-3.98,1.07,0,1.89.53,2.37,1.24h.03v-3.97h1.19v10.46h-1.19v-.92h-.03c-.57.73-1.27,1.14-2.34,1.14-2.06,0-3.35-1.55-3.35-3.98ZM1037.8,479.06c0-1.76-.85-2.99-2.41-2.99-1.43,0-2.17,1.29-2.17,2.99s.73,2.97,2.18,2.97c1.68,0,2.4-1.26,2.4-2.97Z"/>
      <path d="M1040.52,472.35h1.19v1.46h-1.19v-1.46ZM1040.52,475.24h1.19v7.57h-1.19v-7.57Z"/>
      <path d="M1042.9,479.03c0-2.2,1.4-3.98,3.66-3.98s3.64,1.79,3.64,3.98-1.38,3.98-3.64,3.98-3.66-1.79-3.66-3.98ZM1048.98,479.03c0-1.67-.82-3-2.43-3s-2.44,1.33-2.44,3,.83,2.99,2.44,2.99,2.43-1.32,2.43-2.99Z"/>
      <path d="M1053.92,472.35h1.32v10.46h-1.32v-10.46Z"/>
      <path d="M1058.24,476.24h.03c.54-.72,1.3-1.17,2.4-1.17,1.58,0,2.55.86,2.55,2.43v5.31h-1.19v-5.21c0-.98-.64-1.54-1.71-1.54-1.2,0-2.08.85-2.08,2.09v4.65h-1.19v-7.57h1.19v1Z"/>
      <path d="M1064.15,475.24h1.1v-2.38h1.19v2.38h1.46v.97h-1.46v4.92c0,.53.28.7.76.7.23,0,.5-.06.63-.1h.04v1.02c-.28.06-.6.1-.95.1-.97,0-1.67-.4-1.67-1.46v-5.18h-1.1v-.97Z"/>
      <path d="M1068.63,479.03c0-2.2,1.43-3.98,3.58-3.98,2.27,0,3.48,1.76,3.48,4.26h-5.85c.09,1.54.92,2.71,2.44,2.71,1.1,0,1.83-.53,2.09-1.55h1.16c-.35,1.62-1.54,2.55-3.25,2.55-2.31,0-3.66-1.79-3.66-3.98ZM1069.87,478.42h4.55c-.07-1.51-.85-2.43-2.21-2.43s-2.17,1.05-2.34,2.43Z"/>
      <path d="M1078.04,476.5h.03c.45-.73,1.24-1.35,2.25-1.35.22,0,.34.03.48.09v1.14h-.04c-.18-.06-.29-.07-.53-.07-1.17,0-2.2.88-2.2,2.3v4.2h-1.19v-7.57h1.19v1.26Z"/>
      <path d="M1081.4,475.24h1.04v-1.21c0-1.3.75-1.77,2-1.77.25,0,.44.01.6.03v1.01c-.21-.01-.26-.01-.38-.01-.76,0-1.04.19-1.04.8v1.16h1.41v.97h-1.41v6.6h-1.18v-6.6h-1.04v-.97Z"/>
      <path d="M1090.6,481.76h-.01c-.45.59-1.23,1.2-2.52,1.2-1.43,0-2.56-.67-2.56-2.11,0-1.79,1.4-2.15,3.29-2.44,1.07-.16,1.81-.26,1.81-1.08s-.61-1.33-1.7-1.33c-1.23,0-1.84.53-1.89,1.67h-1.14c.04-1.46,1.01-2.56,3.01-2.56,1.61,0,2.79.6,2.79,2.4v3.6c0,.61.15.95.8.8h.04v.86c-.15.06-.34.12-.64.12-.78,0-1.19-.35-1.3-1.13ZM1090.63,480.01v-1.29c-.39.25-1.08.44-1.73.56-1.19.22-2.14.42-2.14,1.54,0,1.01.79,1.23,1.57,1.23,1.58,0,2.3-1.16,2.3-2.03Z"/>
      <path d="M1093,479.03c0-2.2,1.4-3.98,3.66-3.98,1.79,0,2.97,1.02,3.23,2.63h-1.2c-.18-1.02-.89-1.65-2.03-1.65-1.61,0-2.44,1.33-2.44,3s.83,2.99,2.44,2.99c1.23,0,1.96-.7,2.06-1.87h1.17c-.16,1.81-1.35,2.87-3.23,2.87-2.25,0-3.66-1.79-3.66-3.98Z"/>
      <path d="M1100.6,479.03c0-2.2,1.43-3.98,3.58-3.98,2.27,0,3.48,1.76,3.48,4.26h-5.85c.09,1.54.92,2.71,2.44,2.71,1.1,0,1.83-.53,2.09-1.55h1.16c-.35,1.62-1.54,2.55-3.25,2.55-2.31,0-3.66-1.79-3.66-3.98ZM1101.84,478.42h4.55c-.07-1.51-.85-2.43-2.21-2.43s-2.17,1.05-2.34,2.43Z"/>
    </g>
    <g>
      <line x1="1096.31" y1="368.57" x2="1096.31" y2="420.85" style="fill: none; stroke: #000; stroke-miterlimit: 10;"/>
      <polygon points="1093.82 369.3 1096.31 364.98 1098.8 369.3 1093.82 369.3"/>
    </g>
    <g>
      <line x1="1105.57" y1="368.57" x2="1105.57" y2="420.85" style="fill: none; stroke: #000; stroke-miterlimit: 10;"/>
      <polygon points="1103.08 369.3 1105.57 364.98 1108.07 369.3 1103.08 369.3"/>
    </g>
    <g>
      <path d="M1069.51,348.68h1.68l3.4,8.69h.03l3.37-8.69h1.71v10.46h-1.26v-8.6h-.03s-.28.82-.47,1.32l-2.87,7.29h-1.01l-2.87-7.29c-.21-.53-.47-1.32-.47-1.32h-.03v8.6h-1.19v-10.46Z"/>
      <path d="M1084.67,348.68h1.48l3.86,10.46h-1.43l-1.11-3.19h-4.17l-1.13,3.19h-1.35l3.85-10.46ZM1083.67,354.88h3.42l-1.2-3.51c-.2-.59-.47-1.48-.47-1.48h-.03s-.28.88-.48,1.48l-1.24,3.51Z"/>
      <path d="M1091.17,348.68h1.32v10.46h-1.32v-10.46Z"/>
      <path d="M1094.48,348.68h1.39l4.77,7.27c.35.54.76,1.35.76,1.35h.03v-8.62h1.23v10.46h-1.35l-4.8-7.29c-.34-.51-.78-1.3-.78-1.3h-.03v8.59h-1.23v-10.46Z"/>
      <path d="M1106.56,353.9c0-3.13,1.96-5.46,5.12-5.46s5.12,2.33,5.12,5.46-1.96,5.46-5.12,5.46-5.12-2.33-5.12-5.46ZM1115.45,353.9c0-2.46-1.32-4.32-3.78-4.32s-3.78,1.86-3.78,4.32,1.32,4.3,3.78,4.3,3.78-1.84,3.78-4.3Z"/>
      <path d="M1118.19,355.76v-7.08h1.32v6.95c0,1.79,1.01,2.55,2.74,2.55s2.65-.76,2.65-2.55v-6.95h1.32v7.08c0,2.53-1.77,3.54-4.01,3.54s-4.01-1.01-4.01-3.54Z"/>
      <path d="M1127.34,348.68h8.28v1.16h-3.48v9.31h-1.32v-9.31h-3.48v-1.16Z"/>
    </g>
    <polyline points="610.16 330.31 610.16 374.82 1022.68 374.82 1022.68 420.09" style="fill: none; stroke: #b3b3b3; stroke-miterlimit: 10;"/>
    <line x1="948.8" y1="581.51" x2="948.8" y2="450.71" style="fill: none; stroke: #b3b3b3; stroke-miterlimit: 10;"/>
    <line x1="948.8" y1="431.27" x2="948.8" y2="385.66" style="fill: none; stroke: #b3b3b3; stroke-miterlimit: 10;"/>
    <line x1="948.8" y1="365.5" x2="948.8" y2="335.08" style="fill: none; stroke: #b3b3b3; stroke-miterlimit: 10;"/>
    <rect x="575.54" y="318.64" width="68.75" height="24.87" style="fill: none; stroke: #000; stroke-miterlimit: 10;"/>
    <line x1="627.23" y1="334.77" x2="948.8" y2="335.08" style="fill: none; stroke: #b3b3b3; stroke-miterlimit: 10;"/>
    <line x1="280.52" y1="331.07" x2="575.54" y2="331.07" style="fill: none; stroke: #000; stroke-miterlimit: 10;"/>
    <rect x="975.79" y="599.25" width="89.58" height="60.27" style="fill: none; stroke: #000; stroke-miterlimit: 10;"/>
    <g>
      <path d="M976.77,553.75h1.68l3.4,8.69h.03l3.37-8.69h1.71v10.46h-1.26v-8.6h-.03s-.28.82-.47,1.32l-2.87,7.29h-1.01l-2.87-7.29c-.2-.53-.47-1.32-.47-1.32h-.03v8.6h-1.19v-10.46Z"/>
      <path d="M993.38,563.16h-.01c-.45.59-1.23,1.2-2.52,1.2-1.43,0-2.56-.67-2.56-2.11,0-1.79,1.41-2.15,3.29-2.44,1.07-.16,1.81-.26,1.81-1.08s-.61-1.33-1.7-1.33c-1.23,0-1.84.53-1.89,1.67h-1.14c.04-1.46,1.01-2.56,3.01-2.56,1.61,0,2.79.6,2.79,2.4v3.6c0,.61.15.95.8.8h.04v.86c-.15.06-.34.12-.64.12-.78,0-1.19-.35-1.3-1.13ZM993.41,561.42v-1.29c-.4.25-1.08.44-1.73.56-1.19.22-2.14.42-2.14,1.54,0,1.01.79,1.23,1.57,1.23,1.58,0,2.3-1.16,2.3-2.03Z"/>
      <path d="M998.51,560.13l-1.11,1.05v3.03h-1.19v-10.46h1.19v6.13l3.32-3.23h1.51l-2.9,2.72,3.25,4.84h-1.39l-2.68-4.08Z"/>
      <path d="M1002.51,560.44c0-2.2,1.43-3.98,3.59-3.98,2.27,0,3.48,1.76,3.48,4.26h-5.85c.09,1.54.92,2.71,2.44,2.71,1.1,0,1.83-.53,2.09-1.55h1.16c-.35,1.62-1.54,2.55-3.25,2.55-2.31,0-3.66-1.79-3.66-3.98ZM1003.75,559.82h4.55c-.07-1.51-.85-2.43-2.21-2.43s-2.17,1.05-2.34,2.43Z"/>
      <path d="M1013.24,553.75h1.39l4.77,7.27c.35.54.76,1.35.76,1.35h.03v-8.62h1.23v10.46h-1.35l-4.8-7.29c-.34-.51-.78-1.3-.78-1.3h-.03v8.59h-1.23v-10.46Z"/>
      <path d="M1022.78,560.44c0-2.2,1.4-3.98,3.66-3.98s3.64,1.79,3.64,3.98-1.38,3.98-3.64,3.98-3.66-1.79-3.66-3.98ZM1028.87,560.44c0-1.67-.82-3-2.43-3s-2.44,1.33-2.44,3,.83,2.99,2.44,2.99,2.43-1.32,2.43-2.99Z"/>
      <path d="M1031.27,553.75h1.19v1.46h-1.19v-1.46ZM1031.27,556.65h1.19v7.57h-1.19v-7.57Z"/>
      <path d="M1033.58,561.75h1.21c.16,1.32,1.04,1.68,2.17,1.68,1.24,0,1.76-.54,1.76-1.24,0-.85-.58-1.07-1.98-1.36-1.49-.31-2.82-.62-2.82-2.27,0-1.26.97-2.08,2.72-2.08,1.87,0,2.79.89,2.97,2.37h-1.21c-.12-1-.66-1.43-1.79-1.43s-1.52.48-1.52,1.08c0,.82.73.98,2.03,1.24,1.52.31,2.79.64,2.79,2.38,0,1.52-1.24,2.3-2.99,2.3-2.08,0-3.23-.98-3.35-2.68Z"/>
      <path d="M1040.79,560.44c0-2.2,1.43-3.98,3.58-3.98,2.27,0,3.48,1.76,3.48,4.26h-5.85c.09,1.54.92,2.71,2.44,2.71,1.1,0,1.83-.53,2.09-1.55h1.16c-.35,1.62-1.54,2.55-3.25,2.55-2.31,0-3.66-1.79-3.66-3.98ZM1042.03,559.82h4.55c-.07-1.51-.85-2.43-2.21-2.43s-2.17,1.05-2.34,2.43Z"/>
      <path d="M976.44,576.76c0-3.25,1.54-5.24,3.91-5.24s3.88,1.96,3.88,5.24-1.39,5.24-3.89,5.24-3.89-2.05-3.89-5.24ZM982.95,576.76c0-2.55-.86-4.18-2.61-4.18s-2.63,1.59-2.63,4.18.86,4.17,2.63,4.17,2.61-1.58,2.61-4.17Z"/>
      <path d="M985.42,577.2h3.92v1.08h-3.92v-1.08Z"/>
      <path d="M990.49,576.54c0-3.07,1.84-5.46,4.96-5.46,2.44,0,3.92,1.41,4.2,3.34h-1.29c-.25-1.3-1.29-2.2-2.94-2.2-2.3,0-3.58,1.86-3.58,4.32s1.42,4.29,3.6,4.29c1.98,0,2.91-1.35,3.04-2.88h1.3c-.01,1.04-.51,2.21-1.26,2.94-.73.72-1.8,1.1-3.13,1.1-2.97,0-4.9-2.27-4.9-5.44Z"/>
      <path d="M1000.66,578c0-2.2,1.4-3.98,3.66-3.98s3.64,1.79,3.64,3.98-1.38,3.98-3.64,3.98-3.66-1.79-3.66-3.98ZM1006.75,578c0-1.67-.82-3-2.43-3s-2.44,1.33-2.44,3,.83,2.99,2.44,2.99,2.43-1.32,2.43-2.99Z"/>
      <path d="M1013.79,580.72h-.01c-.45.59-1.23,1.2-2.52,1.2-1.43,0-2.56-.67-2.56-2.11,0-1.79,1.4-2.15,3.29-2.44,1.07-.16,1.81-.26,1.81-1.08s-.61-1.33-1.7-1.33c-1.23,0-1.84.53-1.89,1.67h-1.14c.04-1.46,1.01-2.56,3.01-2.56,1.61,0,2.79.6,2.79,2.4v3.6c0,.61.15.95.8.8h.04v.86c-.15.06-.34.12-.64.12-.78,0-1.19-.35-1.3-1.13ZM1013.82,578.98v-1.29c-.39.25-1.08.44-1.73.56-1.19.22-2.14.42-2.14,1.54,0,1.01.79,1.23,1.57,1.23,1.58,0,2.3-1.16,2.3-2.03Z"/>
      <path d="M1016.13,579.32h1.21c.16,1.32,1.04,1.68,2.17,1.68,1.24,0,1.76-.54,1.76-1.24,0-.85-.58-1.07-1.98-1.36-1.49-.31-2.82-.62-2.82-2.27,0-1.26.97-2.08,2.72-2.08,1.87,0,2.79.89,2.97,2.37h-1.21c-.12-1-.66-1.43-1.79-1.43s-1.52.48-1.52,1.08c0,.82.73.98,2.03,1.24,1.52.31,2.79.64,2.79,2.38,0,1.52-1.24,2.3-2.99,2.3-2.08,0-3.23-.98-3.35-2.68Z"/>
      <path d="M1022.99,574.21h1.1v-2.38h1.19v2.38h1.46v.97h-1.46v4.92c0,.53.28.7.76.7.23,0,.5-.06.63-.1h.04v1.02c-.28.06-.6.1-.95.1-.97,0-1.67-.4-1.67-1.46v-5.18h-1.1v-.97Z"/>
    </g>
    <line x1="964.77" y1="629.39" x2="964.77" y2="450.71" style="fill: none; stroke: #b3b3b3; stroke-miterlimit: 10;"/>
    <line x1="964.77" y1="629.39" x2="975.79" y2="629.39" style="fill: none; stroke: #b3b3b3; stroke-miterlimit: 10;"/>
    <rect x="1015.85" y="420.65" width="97.52" height="46.12" style="fill: none; stroke: #000; stroke-miterlimit: 10;"/>
  </g>
  <g>
    <path d="M30.71,33.45h-.05c-1.35,1.9-3.35,2.83-5.8,2.83-5.23,0-8.74-3.98-8.74-9.62s3.09-9.75,8.94-9.75c4.32,0,6.97,2.34,7.57,5.98h-2.42c-.52-2.47-2.26-3.95-5.2-3.95-4.47,0-6.5,3.35-6.5,7.72s2.65,7.59,6.42,7.59,5.62-2.6,5.62-5.72v-.44h-5.59v-2.03h7.93v9.83h-1.51l-.68-2.44Z"/>
    <path d="M36.11,17.31h13.13v2.05h-10.79v5.88h9.8v1.98h-9.8v6.53h11.1v2.16h-13.44v-18.59Z"/>
    <path d="M52.28,17.31h2.47l8.48,12.92c.62.96,1.35,2.39,1.35,2.39h.05v-15.31h2.18v18.59h-2.39l-8.53-12.95c-.6-.91-1.38-2.31-1.38-2.31h-.05v15.26h-2.18v-18.59Z"/>
    <path d="M70.3,17.31h13.13v2.05h-10.79v5.88h9.8v1.98h-9.8v6.53h11.1v2.16h-13.44v-18.59Z"/>
    <path d="M86.47,17.31h8.68c3.28,0,5.49,2.05,5.49,5.1,0,2.26-.99,3.87-3.22,4.6v.08c1.9.68,2.5,1.98,2.68,4.73.21,2.99.52,3.74.86,3.98v.1h-2.52c-.39-.34-.47-1.04-.68-4.16-.18-2.73-1.27-3.69-3.77-3.69h-5.17v7.85h-2.34v-18.59ZM88.81,26.15h5.51c2.6,0,3.9-1.3,3.9-3.41,0-2.26-1.04-3.41-3.77-3.41h-5.64v6.81Z"/>
    <path d="M108.83,17.31h2.63l6.86,18.59h-2.55l-1.98-5.67h-7.41l-2,5.67h-2.39l6.84-18.59ZM107.07,28.33h6.08l-2.13-6.24c-.36-1.04-.83-2.63-.83-2.63h-.05s-.49,1.56-.86,2.63l-2.21,6.24Z"/>
    <path d="M120.33,17.31h2.34v16.43h9.75v2.16h-12.09v-18.59Z"/>
    <path d="M138.16,26.59c0-5.56,3.48-9.7,9.1-9.7s9.1,4.13,9.1,9.7-3.48,9.7-9.1,9.7-9.1-4.13-9.1-9.7ZM153.97,26.59c0-4.37-2.34-7.67-6.71-7.67s-6.71,3.3-6.71,7.67,2.34,7.64,6.71,7.64,6.71-3.28,6.71-7.64Z"/>
    <path d="M156.75,17.31h2.52l4.58,13.83c.29.86.73,2.5.73,2.5h.05s.44-1.66.73-2.5l4.52-13.83h2.44l-6.53,18.59h-2.57l-6.47-18.59Z"/>
    <path d="M174.33,17.31h13.13v2.05h-10.79v5.88h9.8v1.98h-9.8v6.53h11.1v2.16h-13.44v-18.59Z"/>
    <path d="M190.5,17.31h8.68c3.28,0,5.49,2.05,5.49,5.1,0,2.26-.99,3.87-3.22,4.6v.08c1.9.68,2.5,1.98,2.68,4.73.21,2.99.52,3.74.86,3.98v.1h-2.52c-.39-.34-.47-1.04-.68-4.16-.18-2.73-1.27-3.69-3.77-3.69h-5.17v7.85h-2.34v-18.59ZM192.84,26.15h5.51c2.6,0,3.9-1.3,3.9-3.41,0-2.26-1.04-3.41-3.77-3.41h-5.64v6.81Z"/>
    <path d="M206.02,17.31h2.52l4.58,13.83c.29.86.73,2.5.73,2.5h.05s.44-1.66.73-2.5l4.52-13.83h2.44l-6.53,18.59h-2.57l-6.47-18.59Z"/>
    <path d="M223.65,17.31h2.34v18.59h-2.34v-18.59Z"/>
    <path d="M229.52,17.31h13.13v2.05h-10.79v5.88h9.8v1.98h-9.8v6.53h11.1v2.16h-13.44v-18.59Z"/>
    <path d="M244.32,17.31h2.44l2.94,12.09c.31,1.25.7,3.15.7,3.15h.05s.44-1.98.78-3.2l3.35-12.04h2.52l3.25,12.04c.34,1.25.75,3.2.75,3.2h.05s.44-2,.73-3.15l3.09-12.09h2.37l-5.17,18.59h-2.24l-3.41-13.1c-.29-1.09-.68-2.83-.68-2.83h-.05s-.39,1.74-.7,2.83l-3.64,13.1h-2.34l-4.81-18.59Z"/>
  </g>
  <line x1="964.77" y1="431.27" x2="964.77" y2="385.66" style="fill: none; stroke: #b3b3b3; stroke-miterlimit: 10;"/>
  <line x1="964.77" y1="364.98" x2="964.77" y2="325.26" style="fill: none; stroke: #b3b3b3; stroke-miterlimit: 10;"/>
  <line x1="627.1" y1="325.26" x2="964.77" y2="325.26" style="fill: none; stroke: #b3b3b3; stroke-miterlimit: 10;"/>
  <circle cx="1449.75" cy="358.34" r="13.25" style="fill: none; stroke: #000; stroke-miterlimit: 10;"/>
  <circle cx="1493.65" cy="358.34" r="13.25" style="fill: none; stroke: #000; stroke-miterlimit: 10;"/>
  <circle cx="1534.7" cy="358.34" r="13.25" style="fill: none; stroke: #000; stroke-miterlimit: 10;"/>
  <circle cx="1577.23" cy="358.34" r="13.25" style="fill: none; stroke: #000; stroke-miterlimit: 10;"/>
  <line x1="1436.07" y1="371.59" x2="1463.43" y2="371.59" style="fill: none; stroke: #000; stroke-miterlimit: 10;"/>
  <line x1="1479.97" y1="371.59" x2="1507.33" y2="371.59" style="fill: none; stroke: #000; stroke-miterlimit: 10;"/>
  <line x1="1521.45" y1="371.59" x2="1548.8" y2="371.59" style="fill: none; stroke: #000; stroke-miterlimit: 10;"/>
  <line x1="1563.55" y1="371.59" x2="1590.9" y2="371.59" style="fill: none; stroke: #000; stroke-miterlimit: 10;"/>
  <g>
    <polyline points="1116.96 457.08 1135.63 457.08 1135.63 646.41 1052.36 646.41" style="fill: none; stroke: #000; stroke-miterlimit: 10;"/>
    <polygon points="1117.69 459.57 1113.38 457.08 1117.69 454.58 1117.69 459.57"/>
  </g>
  <line x1="986.96" y1="599.25" x2="986.96" y2="588.16" style="fill: none; stroke: #000; stroke-dasharray: 5; stroke-miterlimit: 10; stroke-width: .5px;"/>
  <polyline points="986.96 546.43 986.96 450.71 1015.85 450.71" style="fill: none; stroke: #000; stroke-dasharray: 5; stroke-miterlimit: 10; stroke-width: .5px;"/>
  <g>
    <polyline points="1449.75 354.37 1449.75 339.81 1412.95 339.81 1412.95 452.08 1116.96 452.08" style="fill: none; stroke: #000; stroke-miterlimit: 10;"/>
    <polygon points="1117.69 449.59 1113.38 452.08 1117.69 454.58 1117.69 449.59"/>
  </g>
  <g>
    <polyline points="1493.65 354.9 1493.65 335.84 1409.65 335.84 1409.49 448.11 1116.96 448.11" style="fill: none; stroke: #000; stroke-miterlimit: 10;"/>
    <polygon points="1117.69 445.62 1113.38 448.11 1117.69 450.61 1117.69 445.62"/>
  </g>
  <g>
    <polyline points="1534.49 354.66 1534.49 331.99 1406.72 331.99 1406.72 444.58 1116.96 443.92" style="fill: none; stroke: #000; stroke-miterlimit: 10;"/>
    <polygon points="1117.7 441.43 1113.38 443.91 1117.69 446.42 1117.7 441.43"/>
  </g>
  <g>
    <polyline points="1577.23 354.15 1577.23 327.4 1403.63 327.4 1403.47 440.76 1116.96 439.75" style="fill: none; stroke: #000; stroke-miterlimit: 10;"/>
    <polygon points="1117.7 437.26 1113.38 439.74 1117.69 442.24 1117.7 437.26"/>
  </g>
  <circle cx="1619.06" cy="358.73" r="13.25" style="fill: none; stroke: #000; stroke-miterlimit: 10;"/>
  <circle cx="1661.59" cy="358.73" r="13.25" style="fill: none; stroke: #000; stroke-miterlimit: 10;"/>
  <line x1="1605.81" y1="371.98" x2="1633.17" y2="371.98" style="fill: none; stroke: #000; stroke-miterlimit: 10;"/>
  <line x1="1647.91" y1="371.98" x2="1675.27" y2="371.98" style="fill: none; stroke: #000; stroke-miterlimit: 10;"/>
  <g>
    <polyline points="1618.86 354.56 1618.86 323.31 1399.65 323.31 1399.65 436.3 1116.96 435.64" style="fill: none; stroke: #000; stroke-miterlimit: 10;"/>
    <polygon points="1117.7 433.15 1113.38 435.63 1117.69 438.14 1117.7 433.15"/>
  </g>
  <g>
    <polyline points="1661.59 354.38 1661.59 319.16 1395.38 319.16 1395.7 432.47 1116.96 431.46" style="fill: none; stroke: #000; stroke-miterlimit: 10;"/>
    <polygon points="1117.7 428.97 1113.38 431.45 1117.69 433.96 1117.7 428.97"/>
  </g>
</svg>