<?xml version="1.0" encoding="UTF-8"?>
<svg id="Layer_1" data-name="Layer 1" xmlns="http://www.w3.org/2000/svg" viewBox="0 0 1603.7 889.23">
  <rect x="506.72" y="123.16" width="345" height="199.92" style="fill: #fff; stroke: #000; stroke-miterlimit: 10; stroke-width: .5px;"/>
  <g>
    <path d="M608.64,140.57h1.21l3.17,8.58h-1.18l-.91-2.62h-3.42l-.92,2.62h-1.1l3.15-8.58ZM607.82,145.65h2.81l-.98-2.88c-.17-.48-.38-1.21-.38-1.21h-.02s-.23.72-.4,1.21l-1.02,2.88Z"/>
    <path d="M613.8,142.94h.97v.88h.02c.47-.64,1.09-1.02,1.99-1.02,1.57,0,2.66,1.2,2.66,3.26s-1.02,3.26-2.7,3.26c-.84,0-1.44-.25-1.95-.91h-.02v2.72h-.97v-8.19ZM618.45,146.07c0-1.39-.59-2.45-1.76-2.45-1.35,0-1.98,1.1-1.98,2.45s.54,2.43,1.97,2.43c1.19,0,1.77-1.03,1.77-2.43Z"/>
    <path d="M620.43,142.94h.97v.88h.02c.47-.64,1.09-1.02,1.99-1.02,1.57,0,2.66,1.2,2.66,3.26s-1.02,3.26-2.7,3.26c-.84,0-1.44-.25-1.95-.91h-.02v2.72h-.97v-8.19ZM625.08,146.07c0-1.39-.59-2.45-1.76-2.45-1.35,0-1.98,1.1-1.98,2.45s.54,2.43,1.97,2.43c1.19,0,1.77-1.03,1.77-2.43Z"/>
    <path d="M627.09,140.57h.97v8.58h-.97v-8.58Z"/>
    <path d="M629.07,146.05c0-1.8,1.18-3.26,2.94-3.26,1.86,0,2.85,1.44,2.85,3.49h-4.8c.07,1.26.76,2.22,2,2.22.9,0,1.5-.43,1.72-1.27h.95c-.29,1.33-1.26,2.09-2.66,2.09-1.9,0-3-1.46-3-3.26ZM630.08,145.55h3.73c-.06-1.24-.7-1.99-1.81-1.99s-1.77.86-1.92,1.99Z"/>
    <path d="M637.86,140.57h1.38l2.78,7.12h.02l2.76-7.12h1.4v8.58h-1.03v-7.05h-.02s-.23.67-.38,1.08l-2.35,5.97h-.83l-2.35-5.97c-.17-.43-.38-1.08-.38-1.08h-.02v7.05h-.97v-8.58Z"/>
    <path d="M651.48,148.28h-.01c-.37.48-1.01.98-2.06.98-1.18,0-2.1-.55-2.1-1.73,0-1.46,1.15-1.76,2.7-2,.88-.13,1.49-.22,1.49-.89s-.5-1.09-1.39-1.09c-1.01,0-1.51.43-1.55,1.37h-.94c.04-1.2.83-2.1,2.47-2.1,1.32,0,2.29.49,2.29,1.97v2.95c0,.5.12.78.66.66h.04v.71c-.12.05-.28.1-.53.1-.64,0-.97-.29-1.07-.92ZM651.5,146.85v-1.06c-.32.2-.89.36-1.42.46-.97.18-1.75.35-1.75,1.26,0,.83.65,1.01,1.28,1.01,1.3,0,1.88-.95,1.88-1.67Z"/>
    <path d="M653.45,146.05c0-1.8,1.15-3.26,3-3.26,1.46,0,2.43.84,2.65,2.16h-.98c-.14-.84-.73-1.35-1.67-1.35-1.32,0-2,1.09-2,2.46s.68,2.45,2,2.45c1.01,0,1.61-.58,1.69-1.54h.96c-.13,1.49-1.1,2.35-2.65,2.35-1.85,0-3-1.46-3-3.26Z"/>
    <path d="M661.02,148.33h-.02v.82h-.97v-8.58h.97v3.26h.02c.47-.64,1.09-1.03,1.99-1.03,1.57,0,2.64,1.2,2.64,3.26s-1,3.26-2.67,3.26c-.84,0-1.45-.3-1.95-1ZM664.65,146.07c0-1.39-.56-2.45-1.74-2.45-1.36,0-1.98,1.1-1.98,2.45s.65,2.43,1.97,2.43c1.19,0,1.75-1.03,1.75-2.43Z"/>
    <path d="M666.28,146.05c0-1.8,1.15-3.26,3-3.26s2.99,1.46,2.99,3.26-1.13,3.26-2.99,3.26-3-1.46-3-3.26ZM671.27,146.05c0-1.37-.67-2.46-1.99-2.46s-2,1.09-2,2.46.68,2.45,2,2.45,1.99-1.08,1.99-2.45Z"/>
    <path d="M672.89,146.05c0-1.8,1.15-3.26,3-3.26s2.99,1.46,2.99,3.26-1.13,3.26-2.99,3.26-3-1.46-3-3.26ZM677.88,146.05c0-1.37-.67-2.46-1.99-2.46s-2,1.09-2,2.46.68,2.45,2,2.45,1.99-1.08,1.99-2.45Z"/>
    <path d="M681.73,145.8l-.91.86v2.48h-.97v-8.58h.97v5.02l2.72-2.65h1.24l-2.37,2.23,2.66,3.97h-1.14l-2.19-3.35Z"/>
    <path d="M685.86,140.57h3.57c.9,0,1.6.3,2.04.83.36.42.58.98.58,1.63,0,1.57-.9,2.52-2.77,2.52h-2.34v3.6h-1.08v-8.58ZM686.94,144.67h2.25c1.21,0,1.79-.61,1.79-1.6s-.64-1.57-1.73-1.57h-2.31v3.17Z"/>
    <path d="M693.92,143.98h.02c.37-.6,1.02-1.1,1.85-1.1.18,0,.28.02.4.07v.94h-.04c-.14-.05-.24-.06-.43-.06-.96,0-1.8.72-1.8,1.88v3.44h-.97v-6.2h.97v1.03Z"/>
    <path d="M696.48,146.05c0-1.8,1.15-3.26,3-3.26s2.99,1.46,2.99,3.26-1.13,3.26-2.99,3.26-3-1.46-3-3.26ZM701.47,146.05c0-1.37-.67-2.46-1.99-2.46s-2,1.09-2,2.46.68,2.45,2,2.45,1.99-1.08,1.99-2.45Z"/>
    <path d="M705.49,140.57h1.38l2.78,7.12h.02l2.76-7.12h1.4v8.58h-1.03v-7.05h-.02s-.23.67-.38,1.08l-2.35,5.97h-.83l-2.35-5.97c-.17-.43-.38-1.08-.38-1.08h-.02v7.05h-.97v-8.58Z"/>
    <path d="M716.86,143.16h-1.8v-.67c1.01-.02,1.87-.4,2.03-1.61h.78v8.26h-1.01v-5.99Z"/>
    <path d="M721.51,140.57h3.57c.9,0,1.6.3,2.04.83.36.42.58.98.58,1.63,0,1.57-.9,2.52-2.77,2.52h-2.34v3.6h-1.08v-8.58ZM722.59,144.67h2.25c1.21,0,1.79-.61,1.79-1.6s-.64-1.57-1.73-1.57h-2.31v3.17Z"/>
    <path d="M729.58,143.98h.02c.37-.6,1.02-1.1,1.85-1.1.18,0,.28.02.4.07v.94h-.04c-.14-.05-.24-.06-.43-.06-.96,0-1.8.72-1.8,1.88v3.44h-.97v-6.2h.97v1.03Z"/>
    <path d="M732.13,146.05c0-1.8,1.15-3.26,3-3.26s2.99,1.46,2.99,3.26-1.13,3.26-2.99,3.26-3-1.46-3-3.26ZM737.12,146.05c0-1.37-.67-2.46-1.99-2.46s-2,1.09-2,2.46.68,2.45,2,2.45,1.99-1.08,1.99-2.45Z"/>
    <path d="M742.55,143.16h-1.8v-.67c1.01-.02,1.87-.4,2.03-1.61h.78v8.26h-1.01v-5.99Z"/>
    <path d="M748.68,147.13h-3.87v-.9l4.07-5.38h.79v5.48h1.36v.8h-1.36v2.02h-.98v-2.02ZM745.78,146.33h2.9v-3.85h-.02l-2.88,3.81v.04Z"/>
    <path d="M752.57,141.77c0,.86-.44,1.24-1.01,1.32v-.46c.28-.11.46-.35.46-.86h-.47v-1.2h1.02v1.2Z"/>
  </g>
  <rect x="508.33" y="485.81" width="311.1" height="145.72" style="fill: #fff; stroke: #000; stroke-miterlimit: 10; stroke-width: .5px;"/>
  <g>
    <path d="M602.4,551.06h1.72l4.49,12.15h-1.67l-1.29-3.71h-4.84l-1.31,3.71h-1.56l4.47-12.15ZM601.25,558.27h3.98l-1.39-4.08c-.24-.68-.54-1.72-.54-1.72h-.03s-.32,1.02-.56,1.72l-1.44,4.08Z"/>
    <path d="M615.05,563.21v-1.21h-.03c-.63.85-1.38,1.41-2.65,1.41-1.8,0-2.96-1.09-2.96-2.91v-6.08h1.38v6.05c0,1.14.73,1.8,1.97,1.8,1.39,0,2.29-1.05,2.29-2.45v-5.41h1.38v8.79h-1.38Z"/>
    <path d="M617.81,558.84c0-2.92,1.68-4.62,3.86-4.62,1.24,0,2.19.61,2.75,1.44h.03v-4.61h1.38v12.15h-1.38v-1.07h-.03c-.66.85-1.48,1.33-2.72,1.33-2.4,0-3.89-1.8-3.89-4.62ZM624.54,558.86c0-2.04-.99-3.47-2.8-3.47-1.67,0-2.52,1.5-2.52,3.47s.85,3.45,2.53,3.45c1.95,0,2.79-1.46,2.79-3.45Z"/>
    <path d="M627.7,551.06h1.38v1.7h-1.38v-1.7ZM627.7,554.43h1.38v8.79h-1.38v-8.79Z"/>
    <path d="M630.45,558.83c0-2.55,1.63-4.62,4.25-4.62s4.23,2.07,4.23,4.62-1.6,4.62-4.23,4.62-4.25-2.07-4.25-4.62ZM637.52,558.83c0-1.94-.95-3.48-2.82-3.48s-2.84,1.55-2.84,3.48.97,3.47,2.84,3.47,2.82-1.53,2.82-3.47Z"/>
    <path d="M643.25,551.06h1.53v12.15h-1.53v-12.15Z"/>
    <path d="M648.27,555.58h.03c.63-.83,1.51-1.36,2.79-1.36,1.84,0,2.96,1,2.96,2.82v6.17h-1.38v-6.05c0-1.14-.75-1.79-1.99-1.79-1.39,0-2.41.99-2.41,2.43v5.41h-1.38v-8.79h1.38v1.16Z"/>
    <path d="M655.14,554.43h1.27v-2.77h1.38v2.77h1.7v1.12h-1.7v5.71c0,.61.32.82.88.82.27,0,.58-.07.73-.12h.05v1.19c-.32.07-.7.12-1.1.12-1.12,0-1.94-.46-1.94-1.7v-6.02h-1.27v-1.12Z"/>
    <path d="M660.34,558.83c0-2.55,1.67-4.62,4.16-4.62,2.63,0,4.05,2.04,4.05,4.95h-6.8c.1,1.78,1.07,3.14,2.84,3.14,1.27,0,2.12-.61,2.43-1.8h1.34c-.41,1.89-1.79,2.96-3.77,2.96-2.69,0-4.25-2.07-4.25-4.62ZM661.78,558.11h5.29c-.08-1.75-.99-2.82-2.57-2.82s-2.52,1.22-2.72,2.82Z"/>
    <path d="M671.27,555.89h.03c.53-.85,1.44-1.56,2.62-1.56.25,0,.39.03.56.1v1.33h-.05c-.2-.07-.34-.08-.61-.08-1.36,0-2.55,1.02-2.55,2.67v4.88h-1.38v-8.79h1.38v1.46Z"/>
    <path d="M675.16,554.43h1.21v-1.41c0-1.51.87-2.06,2.33-2.06.29,0,.51.02.7.03v1.17c-.24-.02-.31-.02-.44-.02-.88,0-1.21.22-1.21.94v1.34h1.63v1.12h-1.63v7.67h-1.38v-7.67h-1.21v-1.12Z"/>
    <path d="M685.86,561.99h-.02c-.53.68-1.43,1.39-2.92,1.39-1.67,0-2.98-.78-2.98-2.45,0-2.07,1.63-2.5,3.82-2.84,1.24-.19,2.11-.31,2.11-1.26s-.71-1.55-1.97-1.55c-1.43,0-2.14.61-2.19,1.94h-1.33c.05-1.7,1.17-2.97,3.5-2.97,1.87,0,3.25.7,3.25,2.79v4.18c0,.71.17,1.11.94.94h.05v1c-.17.07-.39.14-.75.14-.9,0-1.38-.41-1.51-1.31ZM685.89,559.97v-1.5c-.46.29-1.26.51-2.01.65-1.38.25-2.48.49-2.48,1.78,0,1.17.92,1.43,1.82,1.43,1.84,0,2.67-1.34,2.67-2.36Z"/>
    <path d="M688.64,558.83c0-2.55,1.63-4.62,4.25-4.62,2.07,0,3.45,1.19,3.76,3.06h-1.39c-.2-1.19-1.04-1.92-2.36-1.92-1.87,0-2.84,1.55-2.84,3.48s.97,3.47,2.84,3.47c1.43,0,2.28-.82,2.4-2.18h1.36c-.19,2.11-1.56,3.33-3.76,3.33-2.62,0-4.25-2.07-4.25-4.62Z"/>
    <path d="M697.47,558.83c0-2.55,1.67-4.62,4.16-4.62,2.63,0,4.05,2.04,4.05,4.95h-6.8c.1,1.78,1.07,3.14,2.84,3.14,1.27,0,2.12-.61,2.43-1.8h1.34c-.41,1.89-1.79,2.96-3.77,2.96-2.69,0-4.25-2.07-4.25-4.62ZM698.91,558.11h5.29c-.08-1.75-.99-2.82-2.57-2.82s-2.52,1.22-2.72,2.82Z"/>
  </g>
  <g>
    <rect x="524.65" y="618.29" width="55.9" height="8.02" style="fill: none;"/>
    <path d="M524.83,621.49c0-1.05.67-1.91,1.75-1.91s1.74.86,1.74,1.91-.66,1.9-1.74,1.9-1.75-.86-1.75-1.9ZM527.75,621.49c0-.8-.39-1.44-1.16-1.44s-1.17.64-1.17,1.44.4,1.43,1.17,1.43,1.16-.63,1.16-1.43Z"/>
    <path d="M531.2,623.3v-.5h-.01c-.26.35-.57.58-1.09.58-.74,0-1.22-.45-1.22-1.2v-2.51h.57v2.49c0,.47.3.74.81.74.57,0,.95-.44.95-1.01v-2.23h.57v3.62h-.57Z"/>
    <path d="M532.3,619.68h.52v-1.14h.57v1.14h.7v.46h-.7v2.35c0,.25.13.34.36.34.11,0,.24-.03.3-.05h.02v.49c-.13.03-.29.05-.46.05-.46,0-.8-.19-.8-.7v-2.48h-.52v-.46Z"/>
    <path d="M536.7,619.8h-1.05v-.39c.59-.02,1.09-.23,1.18-.94h.46v4.83h-.59v-3.5Z"/>
    <path d="M560.83,621.49c0-1.05.67-1.91,1.75-1.91s1.74.86,1.74,1.91-.66,1.9-1.74,1.9-1.75-.86-1.75-1.9ZM563.75,621.49c0-.8-.39-1.44-1.16-1.44s-1.17.64-1.17,1.44.4,1.43,1.17,1.43,1.16-.63,1.16-1.43Z"/>
    <path d="M567.2,623.3v-.5h-.01c-.26.35-.57.58-1.09.58-.74,0-1.22-.45-1.22-1.2v-2.51h.57v2.49c0,.47.3.74.81.74.57,0,.95-.44.95-1.01v-2.23h.57v3.62h-.57Z"/>
    <path d="M568.3,619.68h.53v-1.14h.57v1.14h.7v.46h-.7v2.35c0,.25.13.34.36.34.11,0,.24-.03.3-.05h.02v.49c-.13.03-.29.05-.46.05-.46,0-.8-.19-.8-.7v-2.48h-.53v-.46Z"/>
    <path d="M573.43,621.06c.63-.37,1.02-.61,1.02-1.19s-.41-.99-1.04-.99c-.34,0-.59.11-.76.3-.19.2-.27.47-.27.96h-.62c0-.62.16-1.01.46-1.3.31-.3.76-.45,1.25-.45.97,0,1.6.62,1.6,1.47,0,.92-.63,1.23-1.4,1.66-.52.29-1.18.68-1.32,1.21h2.62v.56h-3.33c.06-1.28.96-1.75,1.8-2.23Z"/>
  </g>
  <g>
    <line x1="531.12" y1="631.53" x2="531.12" y2="687.07" style="fill: none; stroke: #000; stroke-miterlimit: 10; stroke-width: .75px;"/>
    <polygon points="527.38 685.97 531.12 692.45 534.86 685.97 527.38 685.97"/>
  </g>
  <g>
    <line x1="568.17" y1="631.53" x2="568.17" y2="687.07" style="fill: none; stroke: #000; stroke-miterlimit: 10; stroke-width: .75px;"/>
    <polygon points="564.43 685.97 568.17 692.45 571.91 685.97 564.43 685.97"/>
  </g>
  <rect x="1206.78" y="260.73" width="223.37" height="135" style="fill: #fff; stroke: #000; stroke-miterlimit: 10; stroke-width: .5px;"/>
  <g>
    <path d="M1233.2,321.09h5.15c1.28,0,2.24.34,2.92,1.05.49.51.78,1.21.78,2.07,0,1.34-.75,2.18-1.96,2.55v.05c1.38.32,2.45,1.31,2.45,2.94,0,.93-.32,1.73-.88,2.33-.68.73-1.73,1.16-3.04,1.16h-5.42v-12.15ZM1238.16,326.3c1.48,0,2.36-.73,2.36-1.99,0-1.17-.8-1.89-2.16-1.89h-3.64v3.88h3.43ZM1238.56,331.87c.87,0,1.5-.22,1.9-.61.34-.36.54-.83.54-1.41,0-1.51-1.07-2.26-2.55-2.26h-3.72v4.28h3.82Z"/>
    <path d="M1244.15,321.09h8.58v1.34h-7.05v3.84h6.41v1.29h-6.41v4.27h7.26v1.41h-8.79v-12.15Z"/>
    <path d="M1254.72,321.09h1.53v5.17h6.49v-5.17h1.53v12.15h-1.53v-5.75h-6.49v5.75h-1.53v-12.15Z"/>
    <path d="M1266.55,321.09h5.68c2.14,0,3.59,1.34,3.59,3.33,0,1.48-.65,2.53-2.11,3.01v.05c1.24.44,1.63,1.29,1.75,3.09.14,1.96.34,2.45.56,2.6v.07h-1.65c-.25-.22-.31-.68-.44-2.72-.12-1.78-.83-2.41-2.46-2.41h-3.38v5.13h-1.53v-12.15ZM1268.08,326.87h3.6c1.7,0,2.55-.85,2.55-2.23,0-1.48-.68-2.23-2.46-2.23h-3.69v4.45Z"/>
    <path d="M1277.71,321.09h1.53v12.15h-1.53v-12.15Z"/>
    <path d="M1281.55,321.09h1.62l5.54,8.45c.41.63.88,1.56.88,1.56h.03v-10.01h1.43v12.15h-1.56l-5.58-8.46c-.39-.59-.9-1.51-.9-1.51h-.03v9.98h-1.43v-12.15Z"/>
    <path d="M1302.41,331.65h-.03c-.88,1.24-2.19,1.85-3.79,1.85-3.42,0-5.71-2.6-5.71-6.29s2.02-6.37,5.85-6.37c2.82,0,4.56,1.53,4.95,3.91h-1.58c-.34-1.61-1.48-2.58-3.4-2.58-2.92,0-4.25,2.19-4.25,5.05s1.73,4.96,4.2,4.96,3.67-1.7,3.67-3.74v-.29h-3.65v-1.33h5.18v6.42h-.99l-.44-1.6Z"/>
    <path d="M1305.94,321.09h8.58v1.34h-7.05v3.84h6.41v1.29h-6.41v4.27h7.26v1.41h-8.79v-12.15Z"/>
    <path d="M1316.52,321.09h5.68c2.14,0,3.59,1.34,3.59,3.33,0,1.48-.65,2.53-2.11,3.01v.05c1.24.44,1.63,1.29,1.75,3.09.14,1.96.34,2.45.56,2.6v.07h-1.65c-.25-.22-.31-.68-.44-2.72-.12-1.78-.83-2.41-2.46-2.41h-3.38v5.13h-1.53v-12.15ZM1318.05,326.87h3.6c1.7,0,2.55-.85,2.55-2.23,0-1.48-.68-2.23-2.46-2.23h-3.69v4.45Z"/>
    <path d="M1330.34,321.09h5.15c1.27,0,2.24.34,2.92,1.05.49.51.78,1.21.78,2.07,0,1.34-.75,2.18-1.96,2.55v.05c1.38.32,2.45,1.31,2.45,2.94,0,.93-.32,1.73-.88,2.33-.68.73-1.73,1.16-3.04,1.16h-5.42v-12.15ZM1335.3,326.3c1.48,0,2.36-.73,2.36-1.99,0-1.17-.8-1.89-2.16-1.89h-3.64v3.88h3.43ZM1335.69,331.87c.87,0,1.5-.22,1.9-.61.34-.36.54-.83.54-1.41,0-1.51-1.07-2.26-2.55-2.26h-3.72v4.28h3.82Z"/>
    <path d="M1341.29,321.09h8.24v1.34h-6.71v3.79h5.59v1.29h-5.59v5.73h-1.53v-12.15Z"/>
    <path d="M1350.31,327.16c0-3.57,2.14-6.34,5.76-6.34,2.84,0,4.56,1.63,4.88,3.88h-1.5c-.29-1.51-1.5-2.55-3.42-2.55-2.67,0-4.16,2.16-4.16,5.01s1.65,4.98,4.18,4.98c2.29,0,3.38-1.56,3.54-3.35h1.51c-.02,1.21-.59,2.57-1.46,3.42-.85.83-2.09,1.28-3.64,1.28-3.45,0-5.69-2.63-5.69-6.32Z"/>
    <path d="M1366.58,327.83c1.53-.88,2.46-1.48,2.46-2.89s-.99-2.4-2.53-2.4c-.82,0-1.43.27-1.85.73-.46.49-.66,1.14-.66,2.33h-1.5c0-1.5.39-2.45,1.11-3.16.75-.73,1.84-1.09,3.03-1.09,2.36,0,3.89,1.5,3.89,3.57,0,2.24-1.53,2.99-3.4,4.03-1.26.7-2.87,1.65-3.2,2.94h6.36v1.36h-8.07c.14-3.11,2.33-4.25,4.37-5.42Z"/>
    <path d="M1371.89,327.42c0-3.77,1.78-6.09,4.54-6.09s4.5,2.28,4.5,6.09-1.62,6.08-4.52,6.08-4.52-2.38-4.52-6.08ZM1379.45,327.42c0-2.96-1-4.86-3.03-4.86s-3.06,1.85-3.06,4.86,1,4.84,3.06,4.84,3.03-1.84,3.03-4.84Z"/>
    <path d="M1382.43,327.42c0-3.77,1.79-6.09,4.54-6.09s4.5,2.28,4.5,6.09-1.61,6.08-4.52,6.08-4.52-2.38-4.52-6.08ZM1389.99,327.42c0-2.96-1-4.86-3.03-4.86s-3.06,1.85-3.06,4.86,1,4.84,3.06,4.84,3.03-1.84,3.03-4.84Z"/>
    <path d="M1392.97,327.42c0-3.77,1.79-6.09,4.54-6.09s4.5,2.28,4.5,6.09-1.61,6.08-4.52,6.08-4.52-2.38-4.52-6.08ZM1400.53,327.42c0-2.96-1-4.86-3.03-4.86s-3.06,1.85-3.06,4.86,1,4.84,3.06,4.84,3.03-1.84,3.03-4.84Z"/>
  </g>
  <g>
    <path d="M568.7,412.31v-5.8h1.08v5.7c0,1.46.83,2.09,2.24,2.09s2.17-.62,2.17-2.09v-5.7h1.08v5.8c0,2.08-1.45,2.9-3.29,2.9s-3.29-.83-3.29-2.9Z"/>
    <path d="M576.32,412.18h1.06c.14,1.45,1.03,2.21,2.65,2.21,1.19,0,2.04-.54,2.04-1.61,0-1.17-1.03-1.45-2.57-1.79-1.51-.34-2.81-.77-2.81-2.39,0-1.42,1.17-2.27,2.91-2.27,2.15,0,3.03,1.09,3.25,2.67h-1.02c-.16-1.22-.95-1.83-2.21-1.83-1.16,0-1.93.49-1.93,1.38,0,.97.96,1.26,2.24,1.51,1.67.34,3.19.74,3.19,2.67,0,1.61-1.31,2.51-3.15,2.51-2.41,0-3.56-1.34-3.66-3.07Z"/>
    <path d="M584.38,406.51h3.63c.9,0,1.58.24,2.06.74.35.36.55.85.55,1.46,0,.95-.53,1.54-1.38,1.8v.04c.97.23,1.73.92,1.73,2.08,0,.66-.23,1.22-.62,1.64-.48.52-1.22.82-2.15.82h-3.83v-8.58ZM587.88,410.18c1.04,0,1.67-.52,1.67-1.4,0-.83-.56-1.33-1.52-1.33h-2.57v2.73h2.42ZM588.15,414.11c.61,0,1.06-.16,1.34-.43.24-.25.38-.59.38-1,0-1.07-.76-1.59-1.8-1.59h-2.63v3.02h2.7Z"/>
    <path d="M593.69,410.79c0-2.52,1.51-4.47,4.07-4.47,2,0,3.21,1.15,3.44,2.73h-1.05c-.2-1.07-1.06-1.8-2.41-1.8-1.88,0-2.94,1.52-2.94,3.54s1.16,3.51,2.95,3.51c1.62,0,2.39-1.1,2.5-2.36h1.07c-.01.85-.42,1.81-1.03,2.41-.6.59-1.48.9-2.57.9-2.43,0-4.02-1.86-4.02-4.46Z"/>
    <path d="M602.03,411.99c0-1.8,1.15-3.26,3-3.26s2.99,1.46,2.99,3.26-1.13,3.26-2.99,3.26-3-1.46-3-3.26ZM607.02,411.99c0-1.37-.67-2.46-1.99-2.46s-2,1.09-2,2.46.68,2.45,2,2.45,1.99-1.08,1.99-2.45Z"/>
    <path d="M609.96,409.7h.02c.44-.59,1.07-.96,1.97-.96,1.29,0,2.09.71,2.09,1.99v4.35h-.97v-4.27c0-.8-.53-1.26-1.4-1.26-.98,0-1.7.7-1.7,1.71v3.81h-.97v-6.2h.97v.82Z"/>
    <path d="M616.3,409.7h.02c.44-.59,1.07-.96,1.97-.96,1.29,0,2.09.71,2.09,1.99v4.35h-.97v-4.27c0-.8-.53-1.26-1.4-1.26-.98,0-1.7.7-1.7,1.71v3.81h-.97v-6.2h.97v.82Z"/>
    <path d="M621.31,411.99c0-1.8,1.18-3.26,2.94-3.26,1.86,0,2.85,1.44,2.85,3.49h-4.8c.07,1.26.75,2.22,2,2.22.9,0,1.5-.43,1.71-1.27h.95c-.29,1.33-1.26,2.09-2.66,2.09-1.9,0-3-1.46-3-3.26ZM622.33,411.49h3.73c-.06-1.24-.7-1.99-1.81-1.99s-1.77.86-1.92,1.99Z"/>
    <path d="M627.71,411.99c0-1.8,1.15-3.26,3-3.26,1.46,0,2.43.84,2.65,2.16h-.98c-.14-.84-.73-1.36-1.67-1.36-1.32,0-2,1.09-2,2.46s.68,2.45,2,2.45c1.01,0,1.61-.58,1.69-1.54h.96c-.13,1.49-1.1,2.35-2.65,2.35-1.85,0-3-1.46-3-3.26Z"/>
    <path d="M633.89,408.88h.9v-1.96h.97v1.96h1.2v.79h-1.2v4.03c0,.43.23.58.62.58.19,0,.41-.05.52-.08h.04v.84c-.23.05-.49.08-.78.08-.79,0-1.37-.32-1.37-1.2v-4.25h-.9v-.79Z"/>
    <path d="M637.97,406.51h.97v1.2h-.97v-1.2ZM637.97,408.88h.97v6.2h-.97v-6.2Z"/>
    <path d="M639.91,411.99c0-1.8,1.15-3.26,3-3.26s2.99,1.46,2.99,3.26-1.13,3.26-2.99,3.26-3-1.46-3-3.26ZM644.9,411.99c0-1.37-.67-2.46-1.99-2.46s-2,1.09-2,2.46.68,2.45,2,2.45,1.99-1.08,1.99-2.45Z"/>
    <path d="M647.84,409.7h.02c.44-.59,1.07-.96,1.97-.96,1.29,0,2.09.71,2.09,1.99v4.35h-.97v-4.27c0-.8-.53-1.26-1.4-1.26-.98,0-1.7.7-1.7,1.71v3.81h-.97v-6.2h.97v.82Z"/>
  </g>
  <rect x="1206.78" y="116.59" width="143.57" height="135" style="fill: #fff; stroke: #000; stroke-miterlimit: 10; stroke-width: .5px;"/>
  <g>
    <rect x="1049.01" y="189.35" width="136.19" height="17.21" style="fill: none;"/>
    <path d="M1077.43,195.16v-5.8h1.08v5.7c0,1.46.83,2.09,2.24,2.09s2.17-.62,2.17-2.09v-5.7h1.08v5.8c0,2.07-1.45,2.9-3.29,2.9s-3.29-.83-3.29-2.9Z"/>
    <path d="M1085.05,195.03h1.06c.14,1.45,1.03,2.21,2.65,2.21,1.19,0,2.04-.54,2.04-1.61,0-1.18-1.03-1.45-2.57-1.79-1.51-.34-2.81-.77-2.81-2.39,0-1.42,1.17-2.27,2.91-2.27,2.15,0,3.03,1.09,3.25,2.67h-1.02c-.16-1.22-.95-1.83-2.21-1.83-1.16,0-1.93.49-1.93,1.38,0,.97.96,1.26,2.24,1.51,1.67.34,3.19.74,3.19,2.67,0,1.61-1.31,2.51-3.15,2.51-2.41,0-3.56-1.34-3.66-3.07Z"/>
    <path d="M1093.11,189.35h3.63c.9,0,1.58.24,2.06.74.35.36.55.85.55,1.46,0,.95-.53,1.54-1.38,1.8v.04c.97.23,1.73.92,1.73,2.08,0,.66-.23,1.22-.62,1.64-.48.52-1.22.82-2.15.82h-3.83v-8.58ZM1096.61,193.02c1.04,0,1.67-.52,1.67-1.4,0-.83-.56-1.33-1.52-1.33h-2.57v2.73h2.42ZM1096.88,196.96c.61,0,1.06-.16,1.34-.43.24-.25.38-.59.38-1,0-1.07-.76-1.6-1.8-1.6h-2.63v3.02h2.7Z"/>
    <path d="M1105.21,189.35h1.21l3.17,8.58h-1.17l-.91-2.62h-3.42l-.92,2.62h-1.1l3.15-8.58ZM1104.4,194.44h2.81l-.98-2.88c-.17-.48-.38-1.21-.38-1.21h-.02s-.23.72-.4,1.21l-1.02,2.88Z"/>
    <path d="M1111.89,191.73h.9v-1.95h.97v1.95h1.2v.79h-1.2v4.03c0,.43.23.58.62.58.19,0,.41-.05.52-.08h.04v.84c-.23.05-.49.08-.78.08-.79,0-1.37-.32-1.37-1.2v-4.25h-.9v-.79Z"/>
    <path d="M1115.56,194.84c0-1.8,1.15-3.26,3-3.26s2.99,1.46,2.99,3.26-1.13,3.26-2.99,3.26-3-1.46-3-3.26ZM1120.55,194.84c0-1.37-.67-2.46-1.99-2.46s-2,1.09-2,2.46.68,2.45,2,2.45,1.99-1.08,1.99-2.45Z"/>
    <path d="M1124.43,195.16v-5.8h1.08v5.7c0,1.46.83,2.09,2.24,2.09s2.17-.62,2.17-2.09v-5.7h1.08v5.8c0,2.07-1.45,2.9-3.29,2.9s-3.29-.83-3.29-2.9Z"/>
    <path d="M1132.04,195.03h1.06c.14,1.45,1.03,2.21,2.65,2.21,1.19,0,2.04-.54,2.04-1.61,0-1.18-1.03-1.45-2.57-1.79-1.51-.34-2.81-.77-2.81-2.39,0-1.42,1.17-2.27,2.91-2.27,2.15,0,3.03,1.09,3.25,2.67h-1.02c-.16-1.22-.95-1.83-2.21-1.83-1.16,0-1.93.49-1.93,1.38,0,.97.96,1.26,2.24,1.51,1.67.34,3.19.74,3.19,2.67,0,1.61-1.31,2.51-3.15,2.51-2.41,0-3.56-1.34-3.66-3.07Z"/>
    <path d="M1140.1,189.35h3.63c.9,0,1.58.24,2.06.74.35.36.55.85.55,1.46,0,.95-.53,1.54-1.38,1.8v.04c.97.23,1.73.92,1.73,2.08,0,.66-.23,1.22-.62,1.64-.48.52-1.22.82-2.15.82h-3.83v-8.58ZM1143.6,193.02c1.04,0,1.67-.52,1.67-1.4,0-.83-.56-1.33-1.52-1.33h-2.57v2.73h2.42ZM1143.87,196.96c.61,0,1.06-.16,1.34-.43.24-.25.38-.59.38-1,0-1.07-.76-1.6-1.8-1.6h-2.63v3.02h2.7Z"/>
    <path d="M1149.41,193.64c0-2.52,1.51-4.47,4.07-4.47,2,0,3.21,1.15,3.44,2.73h-1.05c-.2-1.07-1.06-1.8-2.41-1.8-1.88,0-2.94,1.52-2.94,3.54s1.16,3.51,2.95,3.51c1.62,0,2.39-1.1,2.5-2.36h1.07c-.01.85-.42,1.81-1.03,2.41-.6.59-1.48.9-2.57.9-2.43,0-4.02-1.86-4.02-4.46Z"/>
  </g>
  <g>
    <path d="M526.93,600.63h.88l2.29,6.2h-.85l-.66-1.89h-2.47l-.67,1.89h-.8l2.28-6.2ZM526.34,604.3h2.03l-.71-2.08c-.12-.35-.28-.88-.28-.88h-.02s-.16.52-.29.88l-.74,2.08Z"/>
    <path d="M530.76,600.63h.82l2.83,4.31c.21.32.45.8.45.8h.02v-5.11h.73v6.2h-.8l-2.84-4.32c-.2-.3-.46-.77-.46-.77h-.02v5.09h-.73v-6.2Z"/>
    <path d="M538.54,600.63h.88l2.29,6.2h-.85l-.66-1.89h-2.47l-.67,1.89h-.8l2.28-6.2ZM537.95,604.3h2.03l-.71-2.08c-.12-.35-.28-.88-.28-.88h-.02s-.16.52-.29.88l-.74,2.08Z"/>
    <path d="M542.37,600.63h.78v5.48h3.25v.72h-4.03v-6.2Z"/>
    <path d="M546.54,603.72c0-1.85,1.16-3.23,3.03-3.23s3.03,1.38,3.03,3.23-1.16,3.23-3.03,3.23-3.03-1.38-3.03-3.23ZM551.81,603.72c0-1.46-.78-2.56-2.24-2.56s-2.24,1.1-2.24,2.56.78,2.55,2.24,2.55,2.24-1.09,2.24-2.55Z"/>
    <path d="M558.16,606.01h-.02c-.45.63-1.12.94-1.93.94-1.74,0-2.91-1.33-2.91-3.21s1.03-3.25,2.98-3.25c1.44,0,2.32.78,2.52,1.99h-.81c-.17-.82-.75-1.32-1.73-1.32-1.49,0-2.17,1.12-2.17,2.57s.88,2.53,2.14,2.53,1.87-.87,1.87-1.91v-.15h-1.86v-.68h2.64v3.28h-.5l-.23-.81Z"/>
    <path d="M561.1,603.72c0-1.85,1.16-3.23,3.03-3.23s3.03,1.38,3.03,3.23-1.16,3.23-3.03,3.23-3.03-1.38-3.03-3.23ZM566.37,603.72c0-1.46-.78-2.56-2.24-2.56s-2.24,1.1-2.24,2.56.78,2.55,2.24,2.55,2.24-1.09,2.24-2.55Z"/>
    <path d="M567.99,604.82v-4.2h.78v4.12c0,1.06.6,1.51,1.62,1.51s1.57-.45,1.57-1.51v-4.12h.78v4.2c0,1.5-1.05,2.1-2.37,2.1s-2.38-.6-2.38-2.1Z"/>
    <path d="M573.4,600.63h4.91v.69h-2.06v5.51h-.78v-5.51h-2.06v-.69Z"/>
  </g>
  <g>
    <path d="M515.39,499.87h4.2v.68h-3.42v1.93h2.85v.66h-2.85v2.92h-.78v-6.2Z"/>
    <path d="M520.4,499.87h2.9c1.09,0,1.83.68,1.83,1.7,0,.75-.33,1.29-1.07,1.53v.03c.63.23.83.66.89,1.58.07,1,.17,1.25.29,1.33v.03h-.84c-.13-.11-.16-.35-.23-1.39-.06-.91-.42-1.23-1.26-1.23h-1.72v2.62h-.78v-6.2ZM521.18,502.82h1.84c.87,0,1.3-.43,1.3-1.14,0-.75-.35-1.13-1.26-1.13h-1.88v2.27Z"/>
    <path d="M525.83,502.96c0-1.86,1.16-3.23,3.03-3.23s3.03,1.38,3.03,3.23-1.16,3.23-3.03,3.23-3.03-1.38-3.03-3.23ZM531.1,502.96c0-1.46-.78-2.56-2.24-2.56s-2.24,1.1-2.24,2.56.78,2.55,2.24,2.55,2.24-1.09,2.24-2.55Z"/>
    <path d="M532.82,499.87h1l2.01,5.15h.02l1.99-5.15h1.01v6.2h-.75v-5.1h-.02s-.16.49-.28.78l-1.7,4.32h-.6l-1.7-4.32c-.12-.31-.28-.78-.28-.78h-.02v5.1h-.7v-6.2Z"/>
    <path d="M541.15,502.96c0-1.82,1.09-3.23,2.94-3.23,1.45,0,2.32.83,2.49,1.98h-.76c-.15-.77-.76-1.3-1.74-1.3-1.36,0-2.12,1.1-2.12,2.56s.84,2.54,2.13,2.54c1.17,0,1.73-.8,1.8-1.71h.77c0,.62-.3,1.31-.75,1.74-.43.42-1.07.65-1.85.65-1.76,0-2.9-1.34-2.9-3.22Z"/>
    <path d="M547.29,502.96c0-1.86,1.16-3.23,3.03-3.23s3.03,1.38,3.03,3.23-1.16,3.23-3.03,3.23-3.03-1.38-3.03-3.23ZM552.56,502.96c0-1.46-.78-2.56-2.24-2.56s-2.24,1.1-2.24,2.56.78,2.55,2.24,2.55,2.24-1.09,2.24-2.55Z"/>
    <path d="M554.28,499.87h1l2.01,5.15h.02l1.99-5.15h1.01v6.2h-.75v-5.1h-.02s-.16.49-.28.78l-1.7,4.32h-.6l-1.7-4.32c-.12-.31-.28-.78-.28-.78h-.02v5.1h-.7v-6.2Z"/>
    <path d="M561.47,499.87h2.58c.65,0,1.15.22,1.47.6.26.3.42.71.42,1.18,0,1.13-.65,1.82-2,1.82h-1.69v2.6h-.78v-6.2ZM562.25,502.83h1.63c.88,0,1.29-.44,1.29-1.15s-.46-1.13-1.25-1.13h-1.67v2.29Z"/>
    <path d="M566.69,504.06v-4.2h.78v4.12c0,1.06.6,1.51,1.62,1.51s1.57-.45,1.57-1.51v-4.12h.78v4.2c0,1.5-1.05,2.1-2.37,2.1s-2.38-.6-2.38-2.1Z"/>
    <path d="M572.1,499.87h4.91v.68h-2.06v5.51h-.78v-5.51h-2.06v-.68Z"/>
    <path d="M577.77,499.87h4.38v.68h-3.6v1.96h3.27v.66h-3.27v2.17h3.7v.72h-4.48v-6.2Z"/>
    <path d="M583.16,499.87h2.9c1.09,0,1.83.68,1.83,1.7,0,.75-.33,1.29-1.07,1.53v.03c.63.23.83.66.89,1.58.07,1,.17,1.25.29,1.33v.03h-.84c-.13-.11-.16-.35-.23-1.39-.06-.91-.42-1.23-1.26-1.23h-1.72v2.62h-.78v-6.2ZM583.94,502.82h1.84c.87,0,1.3-.43,1.3-1.14,0-.75-.35-1.13-1.26-1.13h-1.88v2.27Z"/>
  </g>
  <rect x="526.9" y="489.54" width="49.25" height="2.68"/>
  <g>
    <line x1="551.53" y1="514.23" x2="551.53" y2="587.78" style="fill: none; stroke: #000; stroke-miterlimit: 10; stroke-width: .5px;"/>
    <polygon points="549.04 587.05 551.53 591.37 554.02 587.05 549.04 587.05"/>
  </g>
  <line x1="851.72" y1="145.88" x2="917.8" y2="145.88" style="fill: none; stroke: #000; stroke-miterlimit: 10; stroke-width: .75px;"/>
  <rect x="917.8" y="137.76" width="133.11" height="16.24" style="fill: none; stroke: #000; stroke-miterlimit: 10; stroke-width: .5px;"/>
  <g>
    <rect x="916.88" y="141.14" width="136.19" height="17.21" style="fill: none;"/>
    <path d="M923.5,146.95v-5.8h1.08v5.7c0,1.46.83,2.09,2.24,2.09s2.17-.62,2.17-2.09v-5.7h1.08v5.8c0,2.07-1.45,2.9-3.29,2.9s-3.29-.83-3.29-2.9Z"/>
    <path d="M931.12,146.82h1.06c.14,1.45,1.03,2.21,2.65,2.21,1.19,0,2.04-.54,2.04-1.61,0-1.18-1.03-1.45-2.57-1.79-1.51-.34-2.81-.77-2.81-2.39,0-1.42,1.17-2.27,2.91-2.27,2.15,0,3.03,1.09,3.25,2.67h-1.02c-.16-1.22-.95-1.83-2.21-1.83-1.16,0-1.93.49-1.93,1.38,0,.97.96,1.26,2.24,1.51,1.67.34,3.19.74,3.19,2.67,0,1.61-1.31,2.51-3.15,2.51-2.41,0-3.56-1.34-3.66-3.07Z"/>
    <path d="M939.18,141.15h3.63c.9,0,1.58.24,2.06.74.35.36.55.85.55,1.46,0,.95-.53,1.54-1.38,1.8v.04c.97.23,1.73.92,1.73,2.08,0,.66-.23,1.22-.62,1.64-.48.52-1.22.82-2.15.82h-3.83v-8.58ZM942.68,144.82c1.04,0,1.67-.52,1.67-1.4,0-.83-.56-1.33-1.52-1.33h-2.57v2.73h2.42ZM942.95,148.75c.61,0,1.06-.16,1.34-.43.24-.25.38-.59.38-1,0-1.07-.76-1.6-1.8-1.6h-2.63v3.02h2.7Z"/>
    <path d="M948.27,141.15h6.79v.95h-2.85v7.63h-1.08v-7.63h-2.85v-.95Z"/>
    <path d="M955.06,151.64v-.86h.05c.13.07.34.13.66.13.41,0,.68-.16.92-.76l.24-.61-2.42-6.02h1.05l1.46,3.86c.19.52.42,1.21.42,1.21h.02s.22-.7.41-1.21l1.42-3.86h1.03l-2.65,6.71c-.5,1.28-.98,1.55-1.74,1.55-.37,0-.61-.02-.88-.13Z"/>
    <path d="M961.02,143.52h.97v.88h.02c.47-.64,1.09-1.02,1.99-1.02,1.57,0,2.66,1.2,2.66,3.26s-1.02,3.26-2.7,3.26c-.84,0-1.44-.25-1.96-.91h-.02v2.72h-.97v-8.19ZM965.67,146.65c0-1.39-.59-2.45-1.76-2.45-1.36,0-1.98,1.1-1.98,2.45s.54,2.43,1.97,2.43c1.19,0,1.78-1.03,1.78-2.43Z"/>
    <path d="M967.29,146.63c0-1.8,1.18-3.26,2.94-3.26,1.86,0,2.85,1.44,2.85,3.49h-4.8c.07,1.26.75,2.22,2,2.22.9,0,1.5-.43,1.71-1.27h.95c-.29,1.33-1.26,2.09-2.66,2.09-1.9,0-3-1.46-3-3.26ZM968.31,146.13h3.73c-.06-1.24-.7-1.99-1.81-1.99s-1.77.86-1.92,1.99Z"/>
    <path d="M973.83,145.97h3.21v.89h-3.21v-.89Z"/>
    <path d="M977.98,145.43c0-2.52,1.51-4.47,4.07-4.47,2,0,3.21,1.15,3.44,2.73h-1.05c-.2-1.07-1.06-1.8-2.41-1.8-1.88,0-2.94,1.52-2.94,3.54s1.16,3.51,2.95,3.51c1.62,0,2.39-1.1,2.5-2.36h1.07c-.01.85-.42,1.81-1.03,2.41-.6.59-1.48.9-2.57.9-2.43,0-4.02-1.86-4.02-4.46Z"/>
    <path d="M992.11,147.71h-3.87v-.9l4.07-5.38h.79v5.48h1.36v.8h-1.36v2.01h-.98v-2.01ZM989.2,146.91h2.9v-3.85h-.02l-2.88,3.81v.04Z"/>
    <path d="M997.12,146.47l-2.06-2.95h1.13l1.47,2.25h.02l1.54-2.25h1.07l-2.04,2.84,2.42,3.36h-1.14l-1.83-2.66h-.02l-1.8,2.66h-1.09l2.34-3.25Z"/>
    <path d="M1001.41,146.95v-5.8h1.08v5.7c0,1.46.83,2.09,2.24,2.09s2.17-.62,2.17-2.09v-5.7h1.08v5.8c0,2.07-1.45,2.9-3.29,2.9s-3.29-.83-3.29-2.9Z"/>
    <path d="M1009.03,146.82h1.06c.14,1.45,1.03,2.21,2.65,2.21,1.19,0,2.04-.54,2.04-1.61,0-1.18-1.03-1.45-2.57-1.79-1.51-.34-2.81-.77-2.81-2.39,0-1.42,1.17-2.27,2.91-2.27,2.15,0,3.03,1.09,3.25,2.67h-1.02c-.16-1.22-.95-1.83-2.21-1.83-1.16,0-1.93.49-1.93,1.38,0,.97.96,1.26,2.24,1.51,1.67.34,3.19.74,3.19,2.67,0,1.61-1.31,2.51-3.15,2.51-2.41,0-3.56-1.34-3.66-3.07Z"/>
    <path d="M1017.08,141.15h3.63c.9,0,1.58.24,2.06.74.35.36.55.85.55,1.46,0,.95-.53,1.54-1.38,1.8v.04c.97.23,1.73.92,1.73,2.08,0,.66-.23,1.22-.62,1.64-.48.52-1.22.82-2.15.82h-3.83v-8.58ZM1020.58,144.82c1.04,0,1.67-.52,1.67-1.4,0-.83-.56-1.33-1.52-1.33h-2.57v2.73h2.42ZM1020.86,148.75c.61,0,1.06-.16,1.34-.43.24-.25.38-.59.38-1,0-1.07-.76-1.6-1.8-1.6h-2.63v3.02h2.7Z"/>
    <path d="M1026.71,141.15h1.08v3.65h4.58v-3.65h1.08v8.58h-1.08v-4.05h-4.58v4.05h-1.08v-8.58Z"/>
    <path d="M1038.87,149.72v-.85h-.02c-.44.6-.97,1-1.87,1-1.27,0-2.09-.77-2.09-2.05v-4.29h.97v4.27c0,.8.52,1.27,1.39,1.27.98,0,1.62-.74,1.62-1.73v-3.81h.97v6.2h-.97Z"/>
    <path d="M1042.16,148.91h-.02v.82h-.97v-8.58h.97v3.26h.02c.47-.64,1.09-1.03,1.99-1.03,1.57,0,2.64,1.2,2.64,3.26s-1,3.26-2.67,3.26c-.84,0-1.45-.3-1.96-1ZM1045.79,146.65c0-1.39-.56-2.45-1.74-2.45-1.36,0-1.98,1.1-1.98,2.45s.65,2.43,1.97,2.43c1.19,0,1.75-1.03,1.75-2.43Z"/>
  </g>
  <polyline points="1027.43 154 1027.43 205.26 1206.78 205.26" style="fill: none; stroke: #000; stroke-miterlimit: 10; stroke-width: .5px;"/>
  <g>
    <path d="M514.54,705.03h1.38l2.78,7.12h.02l2.76-7.12h1.4v8.58h-1.03v-7.05h-.02s-.23.67-.38,1.08l-2.35,5.97h-.83l-2.35-5.97c-.17-.43-.38-1.08-.38-1.08h-.02v7.05h-.97v-8.58Z"/>
    <path d="M526.97,705.03h1.21l3.17,8.58h-1.17l-.91-2.62h-3.42l-.92,2.62h-1.1l3.15-8.58ZM526.15,710.12h2.81l-.98-2.88c-.17-.48-.38-1.21-.38-1.21h-.02s-.23.72-.4,1.21l-1.02,2.88Z"/>
    <path d="M532.3,705.03h1.08v8.58h-1.08v-8.58Z"/>
    <path d="M535.01,705.03h1.14l3.91,5.96c.29.44.62,1.1.62,1.1h.02v-7.06h1.01v8.58h-1.1l-3.93-5.97c-.28-.42-.64-1.07-.64-1.07h-.02v7.04h-1.01v-8.58Z"/>
    <path d="M544.91,709.32c0-2.57,1.61-4.47,4.2-4.47s4.2,1.91,4.2,4.47-1.61,4.47-4.2,4.47-4.2-1.91-4.2-4.47ZM552.2,709.32c0-2.01-1.08-3.54-3.09-3.54s-3.09,1.52-3.09,3.54,1.08,3.53,3.09,3.53,3.09-1.51,3.09-3.53Z"/>
    <path d="M554.45,710.84v-5.8h1.08v5.7c0,1.46.83,2.09,2.24,2.09s2.17-.62,2.17-2.09v-5.7h1.08v5.8c0,2.07-1.45,2.9-3.29,2.9s-3.29-.83-3.29-2.9Z"/>
    <path d="M561.95,705.03h6.79v.95h-2.85v7.63h-1.08v-7.63h-2.85v-.95Z"/>
    <path d="M569.81,705.03h3.57c.9,0,1.59.3,2.04.83.36.42.58.98.58,1.63,0,1.57-.9,2.52-2.77,2.52h-2.34v3.6h-1.08v-8.58ZM570.89,709.14h2.25c1.21,0,1.79-.61,1.79-1.6s-.64-1.57-1.73-1.57h-2.31v3.17Z"/>
    <path d="M577.05,710.84v-5.8h1.08v5.7c0,1.46.83,2.09,2.24,2.09s2.17-.62,2.17-2.09v-5.7h1.08v5.8c0,2.07-1.45,2.9-3.29,2.9s-3.29-.83-3.29-2.9Z"/>
    <path d="M584.55,705.03h6.79v.95h-2.85v7.63h-1.08v-7.63h-2.85v-.95Z"/>
  </g>
  <polyline points="992.83 154 992.83 328.23 1206.78 328.23" style="fill: none; stroke: #000; stroke-miterlimit: 10; stroke-width: .5px;"/>
  <g>
    <rect x="1049.01" y="311.02" width="136.19" height="17.21" style="fill: none;"/>
    <path d="M1077.82,316.83v-5.8h1.08v5.7c0,1.46.83,2.09,2.24,2.09s2.17-.62,2.17-2.09v-5.7h1.08v5.8c0,2.07-1.45,2.9-3.29,2.9s-3.29-.83-3.29-2.9Z"/>
    <path d="M1085.44,316.7h1.06c.14,1.45,1.03,2.21,2.65,2.21,1.19,0,2.04-.54,2.04-1.61,0-1.18-1.03-1.45-2.57-1.79-1.51-.34-2.81-.77-2.81-2.39,0-1.42,1.17-2.27,2.91-2.27,2.15,0,3.03,1.09,3.25,2.67h-1.02c-.16-1.22-.95-1.83-2.21-1.83-1.16,0-1.93.49-1.93,1.38,0,.97.96,1.26,2.24,1.51,1.67.34,3.19.74,3.19,2.67,0,1.61-1.31,2.51-3.15,2.51-2.41,0-3.56-1.34-3.66-3.07Z"/>
    <path d="M1093.5,311.03h3.63c.9,0,1.58.24,2.06.74.35.36.55.85.55,1.46,0,.95-.53,1.54-1.38,1.8v.04c.97.23,1.73.92,1.73,2.08,0,.66-.23,1.22-.62,1.64-.48.52-1.22.82-2.15.82h-3.83v-8.58ZM1097,314.7c1.04,0,1.67-.52,1.67-1.4,0-.83-.56-1.33-1.52-1.33h-2.57v2.73h2.42ZM1097.27,318.63c.61,0,1.06-.16,1.34-.43.24-.25.38-.59.38-1,0-1.07-.76-1.6-1.8-1.6h-2.63v3.02h2.7Z"/>
    <path d="M1105.6,311.03h1.21l3.17,8.58h-1.17l-.91-2.62h-3.42l-.92,2.62h-1.1l3.15-8.58ZM1104.79,316.11h2.81l-.98-2.88c-.17-.48-.38-1.21-.38-1.21h-.02s-.23.72-.4,1.21l-1.02,2.88Z"/>
    <path d="M1112.28,313.4h.9v-1.95h.97v1.95h1.2v.79h-1.2v4.03c0,.43.23.58.62.58.19,0,.41-.05.52-.08h.04v.84c-.23.05-.49.08-.78.08-.79,0-1.37-.32-1.37-1.2v-4.25h-.9v-.79Z"/>
    <path d="M1115.95,316.51c0-1.8,1.15-3.26,3-3.26s2.99,1.46,2.99,3.26-1.13,3.26-2.99,3.26-3-1.46-3-3.26ZM1120.94,316.51c0-1.37-.67-2.46-1.99-2.46s-2,1.09-2,2.46.68,2.45,2,2.45,1.99-1.08,1.99-2.45Z"/>
    <path d="M1124.82,316.83v-5.8h1.08v5.7c0,1.46.83,2.09,2.24,2.09s2.17-.62,2.17-2.09v-5.7h1.08v5.8c0,2.07-1.45,2.9-3.29,2.9s-3.29-.83-3.29-2.9Z"/>
    <path d="M1132.44,316.7h1.06c.14,1.45,1.03,2.21,2.65,2.21,1.19,0,2.04-.54,2.04-1.61,0-1.18-1.03-1.45-2.57-1.79-1.51-.34-2.81-.77-2.81-2.39,0-1.42,1.17-2.27,2.91-2.27,2.15,0,3.03,1.09,3.25,2.67h-1.02c-.16-1.22-.95-1.83-2.21-1.83-1.16,0-1.93.49-1.93,1.38,0,.97.96,1.26,2.24,1.51,1.67.34,3.19.74,3.19,2.67,0,1.61-1.31,2.51-3.15,2.51-2.41,0-3.56-1.34-3.66-3.07Z"/>
    <path d="M1140.49,311.03h3.63c.9,0,1.58.24,2.06.74.35.36.55.85.55,1.46,0,.95-.53,1.54-1.38,1.8v.04c.97.23,1.73.92,1.73,2.08,0,.66-.23,1.22-.62,1.64-.48.52-1.22.82-2.15.82h-3.83v-8.58ZM1143.99,314.7c1.04,0,1.67-.52,1.67-1.4,0-.83-.56-1.33-1.52-1.33h-2.57v2.73h2.42ZM1144.26,318.63c.61,0,1.06-.16,1.34-.43.24-.25.38-.59.38-1,0-1.07-.76-1.6-1.8-1.6h-2.63v3.02h2.7Z"/>
    <path d="M1150.12,311.03h3.63c.9,0,1.58.24,2.06.74.35.36.55.85.55,1.46,0,.95-.53,1.54-1.38,1.8v.04c.97.23,1.73.92,1.73,2.08,0,.66-.23,1.22-.62,1.64-.48.52-1.22.82-2.15.82h-3.83v-8.58ZM1153.62,314.7c1.04,0,1.67-.52,1.67-1.4,0-.83-.56-1.33-1.52-1.33h-2.57v2.73h2.42ZM1153.9,318.63c.61,0,1.06-.16,1.34-.43.24-.25.38-.59.38-1,0-1.07-.76-1.6-1.8-1.6h-2.63v3.02h2.7Z"/>
  </g>
  <g>
    <path d="M1237.08,168.16h1.62l5.54,8.45c.41.63.88,1.56.88,1.56h.03v-10.01h1.43v12.15h-1.56l-5.58-8.47c-.39-.59-.9-1.51-.9-1.51h-.03v9.98h-1.43v-12.15Z"/>
    <path d="M1248.4,174.23c0-3.64,2.28-6.34,5.95-6.34s5.95,2.7,5.95,6.34-2.28,6.34-5.95,6.34-5.95-2.7-5.95-6.34ZM1258.73,174.23c0-2.86-1.53-5.01-4.38-5.01s-4.39,2.16-4.39,5.01,1.53,5,4.39,5,4.38-2.14,4.38-5Z"/>
    <path d="M1260.56,168.16h1.65l2.99,9.04c.19.56.48,1.63.48,1.63h.03s.29-1.09.48-1.63l2.96-9.04h1.6l-4.27,12.15h-1.68l-4.23-12.15Z"/>
    <path d="M1274.36,168.16h1.72l4.49,12.15h-1.67l-1.29-3.71h-4.84l-1.31,3.71h-1.56l4.47-12.15ZM1273.2,175.37h3.98l-1.39-4.08c-.24-.68-.54-1.72-.54-1.72h-.03s-.32,1.02-.56,1.72l-1.44,4.08Z"/>
    <path d="M1279.58,168.16h9.62v1.34h-4.05v10.81h-1.53v-10.81h-4.05v-1.34Z"/>
    <path d="M1290.75,168.16h1.53v12.15h-1.53v-12.15Z"/>
    <path d="M1294.13,174.23c0-3.64,2.28-6.34,5.95-6.34s5.95,2.7,5.95,6.34-2.28,6.34-5.95,6.34-5.95-2.7-5.95-6.34ZM1304.46,174.23c0-2.86-1.53-5.01-4.39-5.01s-4.39,2.16-4.39,5.01,1.53,5,4.39,5,4.39-2.14,4.39-5Z"/>
    <path d="M1307.85,168.16h1.62l5.54,8.45c.41.63.88,1.56.88,1.56h.03v-10.01h1.43v12.15h-1.56l-5.58-8.47c-.39-.59-.9-1.51-.9-1.51h-.03v9.98h-1.43v-12.15Z"/>
    <path d="M1232.36,188.56h1.53v10.74h6.37v1.41h-7.9v-12.15Z"/>
    <path d="M1240.74,196.33c0-2.55,1.63-4.62,4.25-4.62s4.23,2.07,4.23,4.62-1.6,4.62-4.23,4.62-4.25-2.07-4.25-4.62ZM1247.81,196.33c0-1.94-.95-3.48-2.82-3.48s-2.84,1.55-2.84,3.48.97,3.47,2.84,3.47,2.82-1.53,2.82-3.47Z"/>
    <path d="M1256.19,200.72v-1.21h-.03c-.63.85-1.38,1.41-2.65,1.41-1.8,0-2.96-1.09-2.96-2.91v-6.09h1.38v6.05c0,1.14.73,1.8,1.97,1.8,1.39,0,2.29-1.05,2.29-2.45v-5.41h1.38v8.79h-1.38Z"/>
    <path d="M1260.82,193.08h.03c.63-.83,1.51-1.36,2.79-1.36,1.84,0,2.96,1,2.96,2.82v6.17h-1.38v-6.05c0-1.14-.75-1.79-1.99-1.79-1.39,0-2.41.99-2.41,2.43v5.41h-1.38v-8.79h1.38v1.16Z"/>
    <path d="M1267.92,196.33c0-2.55,1.63-4.62,4.25-4.62,2.07,0,3.45,1.19,3.76,3.06h-1.39c-.2-1.19-1.04-1.92-2.36-1.92-1.87,0-2.84,1.55-2.84,3.48s.97,3.47,2.84,3.47c1.43,0,2.28-.82,2.4-2.18h1.36c-.19,2.11-1.56,3.33-3.76,3.33-2.62,0-4.25-2.07-4.25-4.62Z"/>
    <path d="M1278.62,193.08h.03c.63-.83,1.51-1.36,2.79-1.36,1.84,0,2.96,1,2.96,2.82v6.17h-1.38v-6.05c0-1.14-.75-1.79-1.99-1.79-1.39,0-2.41.99-2.41,2.43v5.41h-1.38v-12.15h1.38v4.52Z"/>
    <path d="M1286.22,191.93h1.38v1.24h.03c.66-.9,1.55-1.45,2.82-1.45,2.23,0,3.77,1.7,3.77,4.62s-1.45,4.62-3.82,4.62c-1.19,0-2.04-.36-2.77-1.29h-.03v3.86h-1.38v-11.61ZM1292.81,196.36c0-1.97-.83-3.47-2.5-3.47-1.92,0-2.8,1.56-2.8,3.47s.77,3.45,2.79,3.45c1.68,0,2.52-1.46,2.52-3.45Z"/>
    <path d="M1300.99,199.49h-.02c-.53.68-1.43,1.39-2.92,1.39-1.67,0-2.97-.78-2.97-2.45,0-2.07,1.63-2.5,3.82-2.84,1.24-.19,2.11-.31,2.11-1.26s-.71-1.55-1.97-1.55c-1.43,0-2.14.61-2.19,1.94h-1.33c.05-1.7,1.17-2.97,3.5-2.97,1.87,0,3.25.7,3.25,2.79v4.18c0,.71.17,1.1.93.93h.05v1c-.17.07-.39.14-.75.14-.9,0-1.38-.41-1.51-1.31ZM1301.02,197.47v-1.5c-.46.29-1.26.51-2.01.65-1.38.25-2.48.49-2.48,1.79,0,1.17.92,1.43,1.82,1.43,1.84,0,2.67-1.34,2.67-2.36Z"/>
    <path d="M1303.78,196.35c0-2.92,1.68-4.62,3.86-4.62,1.24,0,2.19.61,2.75,1.45h.03v-4.61h1.38v12.15h-1.38v-1.07h-.03c-.66.85-1.48,1.33-2.72,1.33-2.4,0-3.89-1.8-3.89-4.62ZM1310.51,196.36c0-2.04-.99-3.47-2.8-3.47-1.67,0-2.52,1.5-2.52,3.47s.85,3.45,2.53,3.45c1.96,0,2.79-1.46,2.79-3.45Z"/>
    <path d="M1319.89,194.49l-3.91-5.93h1.77l3.01,4.86h.03l3.08-4.86h1.68l-3.98,5.95,4.1,6.2h-1.84l-3.13-5.12h-.03l-3.26,5.12h-1.73l4.22-6.22Z"/>
  </g>
  <g>
    <line x1="1377.77" y1="227.7" x2="1377.77" y2="255.35" style="fill: none; stroke: #000; stroke-miterlimit: 10; stroke-width: .75px;"/>
    <polygon points="1374.03 254.26 1377.77 260.73 1381.51 254.26 1374.03 254.26"/>
  </g>
  <rect x="1436.64" y="143.52" width="131.42" height="38.06" style="fill: none; stroke: #000; stroke-miterlimit: 10; stroke-width: .5px;"/>
  <rect x="1436.64" y="191.53" width="131.42" height="33.31" style="fill: none; stroke: #000; stroke-miterlimit: 10; stroke-width: .5px;"/>
  <g>
    <rect x="1434.25" y="158.64" width="136.19" height="17.21" style="fill: none;"/>
    <path d="M1472.73,164.32h1.06c.14,1.45,1.03,2.21,2.65,2.21,1.19,0,2.04-.54,2.04-1.61,0-1.18-1.03-1.45-2.57-1.79-1.51-.34-2.81-.77-2.81-2.39,0-1.42,1.17-2.27,2.91-2.27,2.15,0,3.03,1.09,3.25,2.67h-1.02c-.16-1.22-.95-1.83-2.21-1.83-1.16,0-1.93.49-1.93,1.38,0,.97.96,1.26,2.24,1.51,1.67.34,3.19.74,3.19,2.67,0,1.61-1.31,2.51-3.15,2.51-2.41,0-3.56-1.34-3.66-3.07Z"/>
    <path d="M1479.9,161.02h1.04l1.09,3.83c.14.52.34,1.33.34,1.33h.02s.18-.82.31-1.31l1.04-3.85h1.02l1.01,3.85c.13.5.3,1.31.3,1.31h.02s.19-.82.35-1.33l1.15-3.83h1.01l-2.03,6.2h-1l-1.03-3.75c-.14-.52-.3-1.3-.3-1.3h-.02s-.17.78-.31,1.3l-1.04,3.75h-1.01l-1.97-6.2Z"/>
    <path d="M1489.32,158.65h.97v1.2h-.97v-1.2ZM1489.32,161.02h.97v6.2h-.97v-6.2Z"/>
    <path d="M1491.22,161.02h.9v-1.95h.97v1.95h1.2v.79h-1.2v4.03c0,.43.23.58.62.58.19,0,.41-.05.52-.08h.04v.84c-.23.05-.49.08-.78.08-.79,0-1.37-.32-1.37-1.2v-4.25h-.9v-.79Z"/>
    <path d="M1494.89,164.13c0-1.8,1.15-3.26,3-3.26,1.46,0,2.43.84,2.65,2.16h-.98c-.14-.84-.73-1.35-1.67-1.35-1.32,0-2,1.09-2,2.46s.68,2.45,2,2.45c1.01,0,1.61-.58,1.69-1.54h.96c-.13,1.49-1.1,2.35-2.65,2.35-1.85,0-3-1.46-3-3.26Z"/>
    <path d="M1502.44,161.84h.02c.44-.59,1.07-.96,1.97-.96,1.29,0,2.09.71,2.09,1.99v4.35h-.97v-4.27c0-.8-.53-1.26-1.4-1.26-.98,0-1.7.7-1.7,1.71v3.81h-.97v-8.58h.97v3.19Z"/>
    <path d="M1509.85,158.65h5.82v.95h-4.74v2.67h3.95v.91h-3.95v4.04h-1.08v-8.58Z"/>
    <path d="M1515.76,164.13c0-1.8,1.15-3.26,3-3.26s2.99,1.46,2.99,3.26-1.13,3.26-2.99,3.26-3-1.46-3-3.26ZM1520.75,164.13c0-1.37-.67-2.46-1.99-2.46s-2,1.09-2,2.46.68,2.45,2,2.45,1.99-1.08,1.99-2.45Z"/>
    <path d="M1522.37,164.13c0-1.8,1.15-3.26,3-3.26s2.99,1.46,2.99,3.26-1.13,3.26-2.99,3.26-3-1.46-3-3.26ZM1527.36,164.13c0-1.37-.67-2.46-1.99-2.46s-2,1.09-2,2.46.68,2.45,2,2.45,1.99-1.08,1.99-2.45Z"/>
    <path d="M1528.81,161.02h.9v-1.95h.97v1.95h1.2v.79h-1.2v4.03c0,.43.23.58.62.58.19,0,.41-.05.52-.08h.04v.84c-.23.05-.49.08-.78.08-.79,0-1.37-.32-1.37-1.2v-4.25h-.9v-.79Z"/>
  </g>
  <g>
    <rect x="1434.25" y="201.95" width="136.19" height="17.21" style="fill: none;"/>
    <path d="M1464.91,206.24c0-2.52,1.51-4.47,4.07-4.47,2,0,3.21,1.15,3.44,2.73h-1.05c-.2-1.07-1.06-1.8-2.41-1.8-1.88,0-2.94,1.52-2.94,3.54s1.16,3.51,2.95,3.51c1.62,0,2.39-1.1,2.5-2.36h1.07c-.01.85-.42,1.81-1.03,2.41-.6.59-1.48.9-2.57.9-2.43,0-4.02-1.86-4.02-4.46Z"/>
    <path d="M1473.25,207.44c0-1.8,1.15-3.26,3-3.26s2.99,1.46,2.99,3.26-1.13,3.26-2.99,3.26-3-1.46-3-3.26ZM1478.24,207.44c0-1.37-.67-2.46-1.99-2.46s-2,1.09-2,2.46.68,2.45,2,2.45,1.99-1.08,1.99-2.45Z"/>
    <path d="M1481.18,205.15h.02c.44-.59,1.07-.96,1.97-.96,1.29,0,2.09.71,2.09,1.99v4.35h-.97v-4.27c0-.8-.53-1.26-1.4-1.26-.98,0-1.7.7-1.7,1.71v3.81h-.97v-6.2h.97v.82Z"/>
    <path d="M1486.03,204.33h.9v-1.95h.97v1.95h1.2v.79h-1.2v4.03c0,.43.23.58.62.58.19,0,.41-.05.52-.08h.04v.84c-.23.05-.49.08-.78.08-.79,0-1.37-.32-1.37-1.2v-4.25h-.9v-.79Z"/>
    <path d="M1491.08,205.37h.02c.37-.6,1.02-1.1,1.85-1.1.18,0,.28.02.4.07v.94h-.04c-.14-.05-.24-.06-.43-.06-.96,0-1.8.72-1.8,1.88v3.44h-.97v-6.2h.97v1.03Z"/>
    <path d="M1493.64,207.44c0-1.8,1.15-3.26,3-3.26s2.99,1.46,2.99,3.26-1.13,3.26-2.99,3.26-3-1.46-3-3.26ZM1498.63,207.44c0-1.37-.67-2.46-1.99-2.46s-2,1.09-2,2.46.68,2.45,2,2.45,1.99-1.08,1.99-2.45Z"/>
    <path d="M1500.63,201.96h.97v8.58h-.97v-8.58Z"/>
    <path d="M1503,201.96h.97v8.58h-.97v-8.58Z"/>
    <path d="M1504.98,207.44c0-1.8,1.18-3.26,2.94-3.26,1.86,0,2.85,1.44,2.85,3.49h-4.8c.07,1.26.75,2.22,2,2.22.9,0,1.5-.43,1.71-1.27h.95c-.29,1.33-1.26,2.09-2.66,2.09-1.9,0-3-1.46-3-3.26ZM1506,206.94h3.73c-.06-1.24-.7-1.99-1.81-1.99s-1.77.86-1.92,1.99Z"/>
    <path d="M1512.69,205.37h.02c.37-.6,1.02-1.1,1.85-1.1.18,0,.28.02.4.07v.94h-.04c-.14-.05-.24-.06-.43-.06-.96,0-1.8.72-1.8,1.88v3.44h-.97v-6.2h.97v1.03Z"/>
    <path d="M1517.89,201.96h5.82v.95h-4.74v2.67h3.95v.91h-3.95v4.04h-1.08v-8.58Z"/>
    <path d="M1523.79,207.44c0-1.8,1.15-3.26,3-3.26s2.99,1.46,2.99,3.26-1.13,3.26-2.99,3.26-3-1.46-3-3.26ZM1528.78,207.44c0-1.37-.67-2.46-1.99-2.46s-2,1.09-2,2.46.68,2.45,2,2.45,1.99-1.08,1.99-2.45Z"/>
    <path d="M1530.41,207.44c0-1.8,1.15-3.26,3-3.26s2.99,1.46,2.99,3.26-1.13,3.26-2.99,3.26-3-1.46-3-3.26ZM1535.39,207.44c0-1.37-.67-2.46-1.99-2.46s-2,1.09-2,2.46.68,2.45,2,2.45,1.99-1.08,1.99-2.45Z"/>
    <path d="M1536.85,204.33h.9v-1.95h.97v1.95h1.2v.79h-1.2v4.03c0,.43.23.58.62.58.19,0,.41-.05.52-.08h.04v.84c-.23.05-.49.08-.78.08-.79,0-1.37-.32-1.37-1.2v-4.25h-.9v-.79Z"/>
  </g>
  <polyline points="1436.64 162.55 1377.77 162.55 1377.77 227.7" style="fill: none; stroke: #000; stroke-miterlimit: 10; stroke-width: .75px;"/>
  <g>
    <polyline points="1436.64 208.19 1413.35 208.19 1413.35 227.7 1413.35 255.35" style="fill: none; stroke: #000; stroke-miterlimit: 10; stroke-width: .75px;"/>
    <polygon points="1409.61 254.26 1413.35 260.73 1417.09 254.26 1409.61 254.26"/>
  </g>
  <g>
    <rect x="1368.59" y="268.63" width="59.71" height="8.02" style="fill: none;"/>
    <path d="M1373.38,271.94h.62c.08.85.6,1.29,1.55,1.29.69,0,1.19-.32,1.19-.94,0-.69-.6-.85-1.5-1.04-.88-.2-1.64-.45-1.64-1.39,0-.83.69-1.32,1.7-1.32,1.25,0,1.77.64,1.9,1.56h-.6c-.09-.71-.55-1.07-1.29-1.07-.68,0-1.13.29-1.13.81,0,.57.56.74,1.31.88.97.2,1.86.43,1.86,1.56,0,.94-.76,1.46-1.84,1.46-1.41,0-2.08-.78-2.14-1.79Z"/>
    <path d="M1377.6,268.63h.66l.79,3.26c.08.34.19.85.19.85h.01s.12-.53.21-.86l.9-3.24h.68l.88,3.24c.09.34.2.86.2.86h.01s.12-.54.2-.85l.83-3.26h.64l-1.39,5.01h-.6l-.92-3.53c-.08-.29-.18-.76-.18-.76h-.01s-.1.47-.19.76l-.98,3.53h-.63l-1.3-5.01Z"/>
    <path d="M1406.43,271.13c0-1.47.88-2.61,2.37-2.61,1.17,0,1.88.67,2.01,1.6h-.62c-.12-.62-.62-1.05-1.41-1.05-1.1,0-1.72.89-1.72,2.07s.68,2.05,1.72,2.05c.95,0,1.39-.64,1.46-1.38h.62c0,.5-.25,1.06-.6,1.41-.35.34-.86.52-1.5.52-1.42,0-2.35-1.08-2.35-2.61Z"/>
    <path d="M1411.1,268.63h3.96v.55h-1.67v4.45h-.63v-4.45h-1.67v-.55Z"/>
    <path d="M1415.68,268.63h2.34c.88,0,1.48.55,1.48,1.37,0,.61-.27,1.04-.87,1.24v.02c.51.18.67.53.72,1.27.06.81.14,1.01.23,1.07v.03h-.68c-.11-.09-.13-.28-.18-1.12-.05-.74-.34-1-1.02-1h-1.39v2.12h-.63v-5.01ZM1416.31,271.01h1.48c.7,0,1.05-.35,1.05-.92,0-.61-.28-.92-1.02-.92h-1.52v1.83Z"/>
    <path d="M1420.26,268.63h.63v4.43h2.63v.58h-3.26v-5.01Z"/>
  </g>
  <rect x="1206.78" y="403.03" width="143.57" height="73.96" style="fill: #fff; stroke: #000; stroke-miterlimit: 10; stroke-width: .5px;"/>
  <g>
    <path d="M1230.84,450.54h1.21l3.17,8.58h-1.18l-.91-2.61h-3.42l-.92,2.61h-1.1l3.15-8.58ZM1230.03,455.62h2.81l-.98-2.88c-.17-.48-.38-1.21-.38-1.21h-.02s-.23.72-.4,1.21l-1.02,2.88Z"/>
    <path d="M1236,452.91h.97v.88h.02c.47-.64,1.09-1.02,1.99-1.02,1.57,0,2.66,1.2,2.66,3.26s-1.02,3.26-2.7,3.26c-.84,0-1.44-.25-1.95-.91h-.02v2.72h-.97v-8.19ZM1240.66,456.04c0-1.39-.59-2.45-1.76-2.45-1.36,0-1.98,1.1-1.98,2.45s.54,2.43,1.97,2.43c1.19,0,1.77-1.03,1.77-2.43Z"/>
    <path d="M1242.63,452.91h.97v.88h.02c.47-.64,1.09-1.02,1.99-1.02,1.57,0,2.66,1.2,2.66,3.26s-1.02,3.26-2.7,3.26c-.84,0-1.44-.25-1.95-.91h-.02v2.72h-.97v-8.19ZM1247.28,456.04c0-1.39-.59-2.45-1.76-2.45-1.36,0-1.98,1.1-1.98,2.45s.54,2.43,1.97,2.43c1.19,0,1.77-1.03,1.77-2.43Z"/>
    <path d="M1249.29,450.54h.97v8.58h-.97v-8.58Z"/>
    <path d="M1251.27,456.02c0-1.8,1.17-3.26,2.94-3.26,1.86,0,2.85,1.44,2.85,3.49h-4.8c.07,1.26.76,2.22,2,2.22.9,0,1.5-.43,1.71-1.27h.95c-.29,1.33-1.26,2.09-2.66,2.09-1.9,0-3-1.46-3-3.26ZM1252.29,455.52h3.73c-.06-1.24-.7-1.99-1.81-1.99s-1.77.86-1.92,1.99Z"/>
    <path d="M1260.09,450.54h1.08v8.58h-1.08v-8.58Z"/>
    <path d="M1262.8,450.54h3.57c.9,0,1.6.3,2.04.83.36.42.58.98.58,1.63,0,1.57-.9,2.52-2.77,2.52h-2.34v3.6h-1.08v-8.58ZM1263.88,454.64h2.25c1.21,0,1.79-.61,1.79-1.59s-.64-1.57-1.73-1.57h-2.31v3.17Z"/>
    <path d="M1270.86,453.73h.02c.44-.59,1.07-.96,1.97-.96,1.3,0,2.09.71,2.09,1.99v4.35h-.97v-4.27c0-.8-.53-1.26-1.4-1.26-.98,0-1.7.7-1.7,1.71v3.81h-.97v-8.58h.97v3.19Z"/>
    <path d="M1275.88,456.02c0-1.8,1.15-3.26,3-3.26s2.99,1.46,2.99,3.26-1.13,3.26-2.99,3.26-3-1.46-3-3.26ZM1280.87,456.02c0-1.37-.67-2.46-1.99-2.46s-2,1.09-2,2.46.68,2.45,2,2.45,1.99-1.08,1.99-2.45Z"/>
    <path d="M1283.81,453.73h.02c.44-.59,1.07-.96,1.97-.96,1.3,0,2.09.71,2.09,1.99v4.35h-.97v-4.27c0-.8-.53-1.26-1.4-1.26-.98,0-1.7.7-1.7,1.71v3.81h-.97v-6.2h.97v.82Z"/>
    <path d="M1288.83,456.02c0-1.8,1.17-3.26,2.94-3.26,1.86,0,2.85,1.44,2.85,3.49h-4.8c.07,1.26.76,2.22,2,2.22.9,0,1.5-.43,1.71-1.27h.95c-.29,1.33-1.26,2.09-2.66,2.09-1.9,0-3-1.46-3-3.26ZM1289.85,455.52h3.73c-.06-1.24-.7-1.99-1.81-1.99s-1.77.86-1.92,1.99Z"/>
    <path d="M1299.03,453.13h-1.8v-.67c1.01-.02,1.87-.4,2.03-1.61h.78v8.26h-1.01v-5.98Z"/>
    <path d="M1304.43,455.29c1.08-.62,1.74-1.04,1.74-2.04s-.7-1.69-1.79-1.69c-.58,0-1.01.19-1.31.52-.32.35-.47.8-.47,1.64h-1.06c0-1.06.28-1.73.78-2.23.53-.52,1.29-.77,2.13-.77,1.67,0,2.75,1.06,2.75,2.52,0,1.58-1.08,2.11-2.4,2.84-.89.49-2.03,1.16-2.25,2.08h4.49v.96h-5.7c.1-2.19,1.64-3,3.08-3.83Z"/>
    <path d="M1310.36,450.54h1.38l2.78,7.12h.02l2.76-7.12h1.4v8.58h-1.03v-7.05h-.02s-.23.67-.38,1.08l-2.35,5.97h-.83l-2.35-5.97c-.17-.43-.38-1.08-.38-1.08h-.02v7.05h-.97v-8.58Z"/>
    <path d="M1320.17,450.54h.97v1.2h-.97v-1.2ZM1320.17,452.91h.97v6.2h-.97v-6.2Z"/>
    <path d="M1323.43,453.73h.02c.44-.59,1.07-.96,1.97-.96,1.29,0,2.09.71,2.09,1.99v4.35h-.97v-4.27c0-.8-.53-1.26-1.4-1.26-.98,0-1.7.7-1.7,1.71v3.81h-.97v-6.2h.97v.82Z"/>
    <path d="M1328.8,450.54h.97v1.2h-.97v-1.2ZM1328.8,452.91h.97v6.2h-.97v-6.2Z"/>
  </g>
  <g>
    <path d="M1236.16,435.76l7.28-9.35v-.05h-6.85v-1.29h8.74v1.19l-7.38,9.54v.05h7.67v1.38h-9.45v-1.46Z"/>
    <path d="M1247.4,425.07h1.53v12.15h-1.53v-12.15Z"/>
    <path d="M1260.32,435.63h-.03c-.88,1.24-2.19,1.85-3.79,1.85-3.42,0-5.71-2.6-5.71-6.29s2.02-6.38,5.85-6.38c2.82,0,4.56,1.53,4.95,3.91h-1.58c-.34-1.62-1.48-2.58-3.4-2.58-2.92,0-4.25,2.19-4.25,5.05s1.73,4.96,4.2,4.96,3.67-1.7,3.67-3.74v-.29h-3.65v-1.33h5.18v6.43h-.99l-.44-1.6Z"/>
    <path d="M1265.79,433.11h1.5c.2,2.06,1.46,3.13,3.76,3.13,1.68,0,2.89-.76,2.89-2.28,0-1.67-1.46-2.06-3.64-2.53-2.14-.48-3.98-1.09-3.98-3.38,0-2.01,1.67-3.21,4.13-3.21,3.04,0,4.3,1.55,4.61,3.79h-1.45c-.22-1.73-1.34-2.6-3.13-2.6-1.65,0-2.74.7-2.74,1.96,0,1.38,1.36,1.78,3.18,2.14,2.36.48,4.52,1.05,4.52,3.79,0,2.28-1.85,3.55-4.47,3.55-3.42,0-5.05-1.9-5.18-4.35Z"/>
    <path d="M1276.99,425.07h1.38v1.7h-1.38v-1.7ZM1276.99,428.44h1.38v8.79h-1.38v-8.79Z"/>
    <path d="M1280.24,428.44h1.38v1.26h.03c.54-.85,1.48-1.46,2.58-1.46s1.92.54,2.29,1.56h.03c.56-1,1.62-1.56,2.69-1.56,1.56,0,2.67,1,2.67,2.82v6.17h-1.38v-6.1c0-1.09-.73-1.73-1.61-1.73-1.14,0-2.16.99-2.16,2.36v5.47h-1.38v-6.1c0-1.09-.61-1.73-1.51-1.73-1.07,0-2.26.99-2.26,2.36v5.47h-1.38v-8.79Z"/>
    <path d="M1296.65,425.07h5.07c1.27,0,2.26.42,2.89,1.17.51.6.82,1.39.82,2.31,0,2.23-1.28,3.57-3.93,3.57h-3.31v5.1h-1.53v-12.15ZM1298.18,430.89h3.2c1.72,0,2.53-.87,2.53-2.26,0-1.46-.9-2.23-2.45-2.23h-3.28v4.49Z"/>
    <path d="M1308.07,429.9h.03c.53-.85,1.44-1.56,2.62-1.56.25,0,.39.03.56.1v1.33h-.05c-.2-.07-.34-.08-.61-.08-1.36,0-2.55,1.02-2.55,2.67v4.88h-1.38v-8.79h1.38v1.46Z"/>
    <path d="M1311.69,432.84c0-2.55,1.63-4.62,4.25-4.62s4.23,2.07,4.23,4.62-1.6,4.62-4.23,4.62-4.25-2.07-4.25-4.62ZM1318.76,432.84c0-1.94-.95-3.48-2.82-3.48s-2.84,1.55-2.84,3.48.97,3.47,2.84,3.47,2.82-1.53,2.82-3.47Z"/>
  </g>
  <g>
    <line x1="851.72" y1="175.85" x2="857.72" y2="175.85" style="fill: none; stroke: #000; stroke-miterlimit: 10; stroke-width: .5px;"/>
    <line x1="870.99" y1="175.85" x2="944" y2="175.85" style="fill: none; stroke: #000; stroke-dasharray: 13.27 13.27; stroke-miterlimit: 10; stroke-width: .5px;"/>
    <polyline points="950.64 175.85 956.64 175.85 956.64 181.85" style="fill: none; stroke: #000; stroke-miterlimit: 10; stroke-width: .5px;"/>
    <line x1="956.64" y1="194.65" x2="956.64" y2="341.83" style="fill: none; stroke: #000; stroke-dasharray: 12.8 12.8; stroke-miterlimit: 10; stroke-width: .5px;"/>
    <polyline points="956.64 348.23 956.64 354.23 962.64 354.23" style="fill: none; stroke: #000; stroke-miterlimit: 10; stroke-width: .5px;"/>
    <line x1="975.18" y1="354.23" x2="1144.45" y2="354.23" style="fill: none; stroke: #000; stroke-dasharray: 12.54 12.54; stroke-miterlimit: 10; stroke-width: .5px;"/>
    <polyline points="1150.72 354.23 1156.72 354.23 1156.72 360.23" style="fill: none; stroke: #000; stroke-miterlimit: 10; stroke-width: .5px;"/>
    <line x1="1156.72" y1="371.72" x2="1156.72" y2="411.94" style="fill: none; stroke: #000; stroke-dasharray: 11.49 11.49; stroke-miterlimit: 10; stroke-width: .5px;"/>
    <polyline points="1156.72 417.69 1156.72 423.69 1162.72 423.69" style="fill: none; stroke: #000; stroke-miterlimit: 10; stroke-width: .5px;"/>
    <line x1="1175.41" y1="423.69" x2="1194.44" y2="423.69" style="fill: none; stroke: #000; stroke-dasharray: 12.69 12.69; stroke-miterlimit: 10; stroke-width: .5px;"/>
    <line x1="1200.78" y1="423.69" x2="1206.78" y2="423.69" style="fill: none; stroke: #000; stroke-miterlimit: 10; stroke-width: .5px;"/>
  </g>
  <g>
    <rect x="1112.84" y="406.48" width="136.19" height="17.21" style="fill: none;"/>
    <path d="M1168.73,410.77c0-2.57,1.61-4.47,4.2-4.47s4.2,1.91,4.2,4.47-1.61,4.47-4.2,4.47-4.2-1.91-4.2-4.47ZM1176.02,410.77c0-2.02-1.08-3.54-3.09-3.54s-3.09,1.52-3.09,3.54,1.08,3.53,3.09,3.53,3.09-1.51,3.09-3.53Z"/>
    <path d="M1177.87,412.16h1.06c.14,1.45,1.03,2.21,2.65,2.21,1.19,0,2.04-.54,2.04-1.61,0-1.17-1.03-1.45-2.57-1.79-1.51-.34-2.81-.77-2.81-2.39,0-1.41,1.17-2.27,2.91-2.27,2.15,0,3.03,1.09,3.25,2.67h-1.02c-.16-1.22-.95-1.83-2.21-1.83-1.16,0-1.93.49-1.93,1.38,0,.97.96,1.26,2.24,1.51,1.67.34,3.19.74,3.19,2.67,0,1.61-1.31,2.51-3.15,2.51-2.41,0-3.56-1.34-3.66-3.07Z"/>
    <path d="M1185.6,410.77c0-2.52,1.51-4.47,4.07-4.47,2,0,3.21,1.15,3.44,2.73h-1.05c-.2-1.07-1.06-1.8-2.41-1.8-1.88,0-2.94,1.52-2.94,3.54s1.16,3.51,2.95,3.51c1.62,0,2.39-1.1,2.5-2.36h1.07c-.01.85-.42,1.81-1.03,2.41-.6.59-1.48.9-2.57.9-2.43,0-4.02-1.86-4.02-4.46Z"/>
  </g>
  <line x1="1430.15" y1="330.8" x2="1525.39" y2="330.8" style="fill: none; stroke: #000; stroke-miterlimit: 10; stroke-width: .75px;"/>
  <g>
    <path d="M1515.75,353.82h5.07c1.28,0,2.26.42,2.89,1.17.51.59.82,1.39.82,2.31,0,2.23-1.28,3.57-3.93,3.57h-3.31v5.1h-1.53v-12.15ZM1517.28,359.64h3.2c1.72,0,2.53-.87,2.53-2.26,0-1.46-.9-2.23-2.45-2.23h-3.28v4.49Z"/>
    <path d="M1525.05,361.59c0-2.55,1.63-4.62,4.25-4.62s4.23,2.07,4.23,4.62-1.6,4.62-4.23,4.62-4.25-2.07-4.25-4.62ZM1532.12,361.59c0-1.94-.95-3.48-2.82-3.48s-2.84,1.55-2.84,3.48.97,3.47,2.84,3.47,2.82-1.53,2.82-3.47Z"/>
    <path d="M1533.87,357.19h1.48l1.55,5.42c.2.73.48,1.89.48,1.89h.03s.25-1.16.44-1.85l1.48-5.46h1.45l1.43,5.46c.19.71.42,1.85.42,1.85h.03s.27-1.16.49-1.89l1.63-5.42h1.43l-2.87,8.79h-1.41l-1.46-5.32c-.2-.73-.43-1.84-.43-1.84h-.03s-.24,1.11-.44,1.84l-1.48,5.32h-1.43l-2.79-8.79Z"/>
    <path d="M1546.56,361.59c0-2.55,1.67-4.62,4.17-4.62,2.63,0,4.05,2.04,4.05,4.95h-6.8c.1,1.79,1.07,3.14,2.84,3.14,1.27,0,2.12-.61,2.43-1.8h1.34c-.41,1.89-1.79,2.96-3.77,2.96-2.69,0-4.25-2.07-4.25-4.62ZM1548,360.88h5.29c-.08-1.75-.99-2.82-2.57-2.82s-2.52,1.22-2.72,2.82Z"/>
    <path d="M1557.49,358.65h.03c.53-.85,1.45-1.56,2.62-1.56.25,0,.39.03.56.1v1.33h-.05c-.2-.07-.34-.08-.61-.08-1.36,0-2.55,1.02-2.55,2.67v4.88h-1.38v-8.79h1.38v1.46Z"/>
  </g>
  <line x1="369.53" y1="553.52" x2="508.33" y2="553.52" style="fill: none; stroke: #000; stroke-miterlimit: 10; stroke-width: .75px;"/>
  <rect x="347.12" y="541.16" width="25.09" height="24.72" style="fill: none; stroke: #000; stroke-miterlimit: 10; stroke-width: .75px;"/>
  <rect x="349.79" y="543.51" width="19.74" height="19.45" rx="6.27" ry="6.27" style="fill: none; stroke: #000; stroke-miterlimit: 10; stroke-width: .75px;"/>
  <g>
    <path d="M337.6,575.65h5.07c1.27,0,2.26.42,2.89,1.17.51.59.82,1.39.82,2.31,0,2.23-1.27,3.57-3.93,3.57h-3.31v5.1h-1.53v-12.15ZM339.13,581.47h3.2c1.72,0,2.53-.87,2.53-2.26,0-1.46-.9-2.23-2.45-2.23h-3.28v4.49Z"/>
    <path d="M346.9,583.42c0-2.55,1.63-4.62,4.25-4.62s4.23,2.07,4.23,4.62-1.6,4.62-4.23,4.62-4.25-2.07-4.25-4.62ZM353.97,583.42c0-1.94-.95-3.48-2.82-3.48s-2.84,1.55-2.84,3.48.97,3.47,2.84,3.47,2.82-1.53,2.82-3.47Z"/>
    <path d="M355.73,579.02h1.48l1.55,5.42c.2.73.48,1.89.48,1.89h.03s.25-1.16.44-1.85l1.48-5.46h1.44l1.43,5.46c.19.71.43,1.85.43,1.85h.03s.27-1.16.49-1.89l1.63-5.42h1.43l-2.87,8.79h-1.41l-1.46-5.32c-.2-.73-.43-1.84-.43-1.84h-.03s-.24,1.11-.44,1.84l-1.48,5.32h-1.43l-2.79-8.79Z"/>
    <path d="M368.41,583.42c0-2.55,1.67-4.62,4.16-4.62,2.63,0,4.05,2.04,4.05,4.95h-6.8c.1,1.79,1.07,3.14,2.84,3.14,1.27,0,2.12-.61,2.43-1.8h1.34c-.41,1.89-1.79,2.96-3.77,2.96-2.69,0-4.25-2.07-4.25-4.62ZM369.85,582.71h5.29c-.08-1.75-.99-2.82-2.57-2.82s-2.52,1.22-2.72,2.82Z"/>
    <path d="M379.34,580.48h.03c.53-.85,1.44-1.56,2.62-1.56.25,0,.39.03.56.1v1.33h-.05c-.2-.07-.34-.08-.61-.08-1.36,0-2.55,1.02-2.55,2.67v4.88h-1.38v-8.79h1.38v1.46Z"/>
  </g>
  <line x1="379.25" y1="149.14" x2="506.72" y2="149.14" style="fill: none; stroke: #000; stroke-miterlimit: 10; stroke-width: .75px;"/>
  <g>
    <path d="M347.16,171h5.07c1.27,0,2.26.42,2.89,1.17.51.6.82,1.39.82,2.31,0,2.23-1.27,3.57-3.93,3.57h-3.31v5.1h-1.53v-12.15ZM348.69,176.82h3.2c1.72,0,2.53-.87,2.53-2.26,0-1.46-.9-2.23-2.45-2.23h-3.28v4.49Z"/>
    <path d="M356.46,178.77c0-2.55,1.63-4.62,4.25-4.62s4.23,2.07,4.23,4.62-1.6,4.62-4.23,4.62-4.25-2.07-4.25-4.62ZM363.53,178.77c0-1.94-.95-3.48-2.82-3.48s-2.84,1.55-2.84,3.48.97,3.47,2.84,3.47,2.82-1.53,2.82-3.47Z"/>
    <path d="M365.28,174.37h1.48l1.55,5.42c.2.73.48,1.89.48,1.89h.03s.25-1.16.44-1.85l1.48-5.46h1.44l1.43,5.46c.19.71.43,1.85.43,1.85h.03s.27-1.16.49-1.89l1.63-5.42h1.43l-2.87,8.79h-1.41l-1.46-5.32c-.2-.73-.43-1.84-.43-1.84h-.03s-.24,1.1-.44,1.84l-1.48,5.32h-1.43l-2.79-8.79Z"/>
    <path d="M377.97,178.77c0-2.55,1.67-4.62,4.16-4.62,2.63,0,4.05,2.04,4.05,4.95h-6.8c.1,1.78,1.07,3.14,2.84,3.14,1.27,0,2.12-.61,2.43-1.8h1.34c-.41,1.89-1.79,2.96-3.77,2.96-2.69,0-4.25-2.07-4.25-4.62ZM379.41,178.06h5.29c-.08-1.75-.99-2.82-2.57-2.82s-2.52,1.22-2.72,2.82Z"/>
    <path d="M388.9,175.83h.03c.53-.85,1.44-1.56,2.62-1.56.25,0,.39.03.56.1v1.33h-.05c-.2-.07-.34-.08-.61-.08-1.36,0-2.55,1.02-2.55,2.67v4.88h-1.38v-8.79h1.38v1.46Z"/>
  </g>
  <rect x="356.67" y="136.79" width="25.09" height="24.72" style="fill: none; stroke: #000; stroke-miterlimit: 10; stroke-width: .75px;"/>
  <rect x="359.35" y="139.42" width="19.74" height="19.45" rx="6.27" ry="6.27" style="fill: none; stroke: #000; stroke-miterlimit: 10; stroke-width: .75px;"/>
  <rect x="1522.88" y="318.44" width="25.09" height="24.72" style="fill: none; stroke: #000; stroke-miterlimit: 10; stroke-width: .75px;"/>
  <rect x="1525.55" y="321.08" width="19.74" height="19.45" rx="6.27" ry="6.27" style="fill: none; stroke: #000; stroke-miterlimit: 10; stroke-width: .75px;"/>
  <line x1="551.53" y1="323.15" x2="551.53" y2="489.46" style="fill: none; stroke: #000; stroke-miterlimit: 10; stroke-width: .75px;"/>
  <g>
    <path d="M29.62,26.79h6.76c5.59,0,8.24,3.8,8.24,9.36s-2.83,9.23-8.42,9.23h-6.58v-18.59ZM36.12,43.33c4.37,0,6.11-2.81,6.11-7.18s-1.56-7.33-5.93-7.33h-4.34v14.51h4.16Z"/>
    <path d="M47.4,26.79h13.13v2.05h-10.79v5.88h9.8v1.98h-9.8v6.53h11.1v2.16h-13.44v-18.59Z"/>
    <path d="M62.4,26.79h14.72v2.05h-6.19v16.54h-2.34v-16.54h-6.19v-2.05Z"/>
    <path d="M82.45,26.79h2.63l6.86,18.59h-2.55l-1.98-5.67h-7.41l-2,5.67h-2.39l6.84-18.59ZM80.68,37.82h6.08l-2.13-6.24c-.36-1.04-.83-2.63-.83-2.63h-.05s-.49,1.56-.86,2.63l-2.21,6.24Z"/>
    <path d="M93.99,26.79h2.34v18.59h-2.34v-18.59Z"/>
    <path d="M99.87,26.79h2.34v16.43h9.75v2.16h-12.09v-18.59Z"/>
    <path d="M114.27,26.79h13.13v2.05h-10.79v5.88h9.8v1.98h-9.8v6.53h11.1v2.16h-13.44v-18.59Z"/>
    <path d="M130.44,26.79h6.76c5.59,0,8.24,3.8,8.24,9.36s-2.83,9.23-8.42,9.23h-6.58v-18.59ZM136.94,43.33c4.37,0,6.11-2.81,6.11-7.18s-1.56-7.33-5.93-7.33h-4.34v14.51h4.16Z"/>
    <path d="M150.88,26.79h2.52l4.58,13.83c.29.86.73,2.5.73,2.5h.05s.44-1.66.73-2.5l4.52-13.83h2.44l-6.53,18.59h-2.57l-6.47-18.59Z"/>
    <path d="M168.51,26.79h2.34v18.59h-2.34v-18.59Z"/>
    <path d="M174.38,26.79h13.13v2.05h-10.79v5.88h9.8v1.98h-9.8v6.53h11.1v2.16h-13.44v-18.59Z"/>
    <path d="M189.18,26.79h2.44l2.94,12.09c.31,1.25.7,3.15.7,3.15h.05s.44-1.98.78-3.2l3.35-12.04h2.52l3.25,12.04c.34,1.25.75,3.2.75,3.2h.05s.44-2,.73-3.15l3.09-12.09h2.37l-5.17,18.59h-2.24l-3.41-13.1c-.29-1.09-.68-2.83-.68-2.83h-.05s-.39,1.74-.7,2.83l-3.64,13.1h-2.34l-4.81-18.59Z"/>
  </g>
  <rect x="27.87" y="74.1" width="194.5" height="35.45" style="fill: none; stroke: #000; stroke-miterlimit: 10; stroke-width: .5px;"/>
  <rect x="27.87" y="109.56" width="194.5" height="54.41" style="fill: none; stroke: #000; stroke-miterlimit: 10; stroke-width: .5px;"/>
  <rect x="27.87" y="164.01" width="194.5" height="35.45" style="fill: none; stroke: #000; stroke-miterlimit: 10; stroke-width: .5px;"/>
  <g>
    <path d="M38.45,84.66h5.65c1.49,0,2.61.43,3.37,1.21.72.74,1.15,1.75,1.15,2.94,0,2.43-1.6,4.07-4.3,4.07h-3.17v4.66h-2.7v-12.87ZM41.15,90.74h2.7c1.37,0,2.09-.76,2.09-1.93s-.76-1.89-2.05-1.89h-2.74v3.82Z"/>
    <path d="M49,92.9c0-2.74,1.85-4.86,4.56-4.86,2.97,0,4.56,2.27,4.56,5.56h-6.7c.18,1.42.97,2.3,2.36,2.3.95,0,1.51-.43,1.78-1.13h2.41c-.34,1.64-1.8,3.02-4.18,3.02-3.06,0-4.79-2.14-4.79-4.9ZM51.45,91.91h4.1c-.07-1.17-.85-1.98-1.96-1.98-1.3,0-1.93.77-2.14,1.98Z"/>
    <path d="M61.6,89.77h.05c.56-1.04,1.19-1.58,2.27-1.58.27,0,.43.02.58.07v2.14h-.05c-1.6-.16-2.75.68-2.75,2.63v4.5h-2.45v-9.24h2.36v1.48Z"/>
    <path d="M64.98,94.54h2.27c.16,1.06.92,1.53,2.02,1.53s1.69-.41,1.69-1.06c0-.88-1.17-.97-2.43-1.22-1.66-.32-3.28-.77-3.28-2.79s1.66-2.95,3.76-2.95c2.43,0,3.78,1.21,3.96,3.06h-2.21c-.11-.99-.74-1.35-1.78-1.35-.95,0-1.58.36-1.58,1.03,0,.79,1.22.86,2.54,1.13,1.55.32,3.26.76,3.26,2.92,0,1.86-1.58,2.97-3.89,2.97-2.68,0-4.18-1.3-4.32-3.26Z"/>
    <path d="M74.29,84.66h2.45v2.2h-2.45v-2.2ZM74.29,88.3h2.45v9.24h-2.45v-9.24Z"/>
    <path d="M83.74,89.55h.05c.63-.99,1.48-1.51,2.74-1.51,1.91,0,3.19,1.44,3.19,3.46v6.03h-2.45v-5.67c0-.99-.58-1.69-1.6-1.69-1.08,0-1.87.86-1.87,2.12v5.24h-2.45v-9.24h2.39v1.26Z"/>
    <path d="M90.78,92.9c0-2.74,1.85-4.86,4.56-4.86,2.97,0,4.56,2.27,4.56,5.56h-6.7c.18,1.42.97,2.3,2.36,2.3.95,0,1.51-.43,1.78-1.13h2.41c-.34,1.64-1.8,3.02-4.18,3.02-3.06,0-4.79-2.14-4.79-4.9ZM93.23,91.91h4.1c-.07-1.17-.85-1.98-1.96-1.98-1.3,0-1.93.77-2.14,1.98Z"/>
    <path d="M101.06,84.66h2.45v12.87h-2.45v-12.87Z"/>
    <path d="M107.61,88.3h1.28v-2.88h2.4v2.88h1.58v1.62h-1.58v4.9c0,.68.38.92.92.92.31,0,.72-.02.72-.02v1.8s-.56.04-1.53.04c-1.19,0-2.5-.47-2.5-2.21v-5.42h-1.28v-1.62Z"/>
    <path d="M113.58,92.9c0-2.74,1.85-4.86,4.56-4.86,2.97,0,4.56,2.27,4.56,5.56h-6.7c.18,1.42.97,2.3,2.36,2.3.95,0,1.51-.43,1.78-1.13h2.41c-.34,1.64-1.8,3.02-4.18,3.02-3.06,0-4.79-2.14-4.79-4.9ZM116.03,91.91h4.1c-.07-1.17-.85-1.98-1.96-1.98-1.3,0-1.93.77-2.14,1.98Z"/>
    <path d="M123.83,88.3h2.36v1.24h.05c.5-.85,1.4-1.49,2.68-1.49,1.17,0,2.11.65,2.56,1.62h.04c.63-1.01,1.6-1.62,2.77-1.62,1.94,0,3.04,1.26,3.04,3.28v6.21h-2.45v-5.8c0-1.04-.52-1.58-1.42-1.58-1.03,0-1.66.79-1.66,2.02v5.37h-2.45v-5.8c0-1.04-.52-1.58-1.42-1.58-.99,0-1.66.79-1.66,2.02v5.37h-2.45v-9.24Z"/>
    <path d="M138.84,88.3h2.36v1.15h.05c.59-.81,1.46-1.4,2.72-1.4,2.45,0,4.02,2,4.02,4.88s-1.62,4.88-4,4.88c-1.3,0-2.14-.52-2.67-1.31h-.04v4.07h-2.45v-12.26ZM145.5,92.99c0-1.75-.61-2.97-2.12-2.97s-2.14,1.31-2.14,2.97.77,2.77,2.23,2.77c1.24,0,2.03-1.03,2.03-2.77Z"/>
    <path d="M148.67,92.92c0-2.75,1.96-4.88,4.83-4.88s4.83,2.12,4.83,4.88-1.96,4.88-4.83,4.88-4.83-2.12-4.83-4.88ZM155.83,92.92c0-1.8-.85-3.03-2.34-3.03s-2.34,1.22-2.34,3.03.83,3.01,2.34,3.01,2.34-1.21,2.34-3.01Z"/>
  </g>
  <g>
    <path d="M39.24,131.07c-1.02-.92-1.36-2.24-1.36-4.22,0-2.98,1.27-4.96,3.71-4.96,1.92,0,2.87,1.27,3.03,2.66h-1.16c-.08-.91-.73-1.67-1.83-1.67-1.88,0-2.55,1.51-2.59,3.87h.03c.62-.85,1.48-1.33,2.63-1.33,1.77,0,3.15,1.46,3.17,3.22.01,1.79-1.43,3.28-3.22,3.28-1.05,0-1.82-.32-2.4-.85ZM43.76,128.69c0-1.36-.95-2.3-2.2-2.3-1.37,0-2.33.91-2.33,2.28s1.02,2.3,2.37,2.3c1.25,0,2.16-.92,2.16-2.28Z"/>
    <path d="M47.93,128.33h1.23c.17,1.69,1.2,2.58,3.1,2.58,1.39,0,2.38-.63,2.38-1.88,0-1.37-1.2-1.7-3-2.09-1.76-.39-3.28-.9-3.28-2.79,0-1.65,1.37-2.65,3.4-2.65,2.51,0,3.54,1.27,3.8,3.12h-1.19c-.18-1.43-1.11-2.14-2.58-2.14-1.36,0-2.26.57-2.26,1.61,0,1.13,1.12,1.47,2.62,1.76,1.95.39,3.73.87,3.73,3.12,0,1.88-1.53,2.93-3.68,2.93-2.82,0-4.16-1.57-4.27-3.59Z"/>
    <path d="M61.59,130.71h-.01c-.43.56-1.18,1.15-2.41,1.15-1.37,0-2.45-.64-2.45-2.02,0-1.71,1.34-2.06,3.15-2.34,1.02-.15,1.74-.25,1.74-1.04s-.59-1.27-1.62-1.27c-1.18,0-1.77.5-1.81,1.6h-1.09c.04-1.4.97-2.45,2.89-2.45,1.54,0,2.68.57,2.68,2.3v3.45c0,.59.14.91.77.77h.04v.83c-.14.06-.32.11-.62.11-.74,0-1.13-.34-1.25-1.08ZM61.62,129.04v-1.23c-.38.24-1.04.42-1.65.53-1.13.21-2.04.41-2.04,1.47,0,.97.76,1.18,1.5,1.18,1.51,0,2.2-1.11,2.2-1.95Z"/>
    <path d="M66.34,127.92l-2.41-3.45h1.32l1.72,2.63h.03l1.79-2.63h1.25l-2.38,3.32,2.83,3.92h-1.33l-2.14-3.11h-.03l-2.1,3.11h-1.27l2.73-3.8Z"/>
    <path d="M70.44,128.1c0-2.1,1.34-3.81,3.5-3.81s3.49,1.71,3.49,3.81-1.32,3.81-3.49,3.81-3.5-1.71-3.5-3.81ZM76.27,128.1c0-1.6-.78-2.87-2.33-2.87s-2.34,1.27-2.34,2.87.8,2.86,2.34,2.86,2.33-1.26,2.33-2.86Z"/>
    <path d="M78.56,124.48h1.13v1.02h.03c.55-.74,1.27-1.19,2.33-1.19,1.83,0,3.11,1.4,3.11,3.81s-1.19,3.81-3.15,3.81c-.98,0-1.68-.29-2.28-1.06h-.03v3.18h-1.13v-9.57ZM84,128.13c0-1.62-.69-2.86-2.06-2.86-1.58,0-2.31,1.29-2.31,2.86s.63,2.84,2.3,2.84c1.39,0,2.07-1.21,2.07-2.84Z"/>
    <path d="M87.42,125.43h.03c.52-.69,1.25-1.12,2.3-1.12,1.51,0,2.44.83,2.44,2.33v5.08h-1.13v-4.99c0-.94-.62-1.47-1.64-1.47-1.15,0-1.99.81-1.99,2v4.46h-1.13v-10.02h1.13v3.73Z"/>
    <path d="M93.27,128.1c0-2.1,1.34-3.81,3.5-3.81s3.49,1.71,3.49,3.81-1.32,3.81-3.49,3.81-3.5-1.71-3.5-3.81ZM99.1,128.1c0-1.6-.78-2.87-2.33-2.87s-2.34,1.27-2.34,2.87.8,2.86,2.34,2.86,2.33-1.26,2.33-2.86Z"/>
    <path d="M102.53,125.43h.03c.52-.69,1.25-1.12,2.3-1.12,1.51,0,2.44.83,2.44,2.33v5.08h-1.13v-4.99c0-.94-.62-1.47-1.64-1.47-1.15,0-1.99.81-1.99,2v4.46h-1.13v-7.24h1.13v.95Z"/>
    <path d="M108.38,128.1c0-2.1,1.37-3.81,3.43-3.81,2.17,0,3.33,1.68,3.33,4.08h-5.6c.08,1.47.88,2.59,2.34,2.59,1.05,0,1.75-.5,2-1.48h1.11c-.34,1.55-1.47,2.44-3.11,2.44-2.21,0-3.5-1.71-3.5-3.81ZM109.57,127.52h4.36c-.07-1.44-.81-2.33-2.12-2.33s-2.07,1.01-2.24,2.33Z"/>
    <path d="M115.79,129.37h1.16c.15,1.26.99,1.61,2.07,1.61,1.19,0,1.68-.52,1.68-1.19,0-.81-.56-1.02-1.89-1.3-1.43-.29-2.7-.59-2.7-2.17,0-1.2.92-1.99,2.61-1.99,1.79,0,2.68.85,2.84,2.27h-1.16c-.11-.95-.63-1.37-1.71-1.37s-1.46.46-1.46,1.04c0,.78.7.94,1.95,1.19,1.46.29,2.68.62,2.68,2.28,0,1.46-1.19,2.2-2.86,2.2-1.99,0-3.1-.94-3.21-2.56Z"/>
    <path d="M129.61,130.71h-.01c-.43.56-1.18,1.15-2.41,1.15-1.37,0-2.45-.64-2.45-2.02,0-1.71,1.34-2.06,3.15-2.34,1.02-.15,1.74-.25,1.74-1.04s-.59-1.27-1.62-1.27c-1.18,0-1.77.5-1.81,1.6h-1.09c.04-1.4.97-2.45,2.89-2.45,1.54,0,2.68.57,2.68,2.3v3.45c0,.59.14.91.77.77h.04v.83c-.14.06-.32.11-.62.11-.74,0-1.13-.34-1.25-1.08ZM129.63,129.04v-1.23c-.38.24-1.04.42-1.65.53-1.13.21-2.04.41-2.04,1.47,0,.97.76,1.18,1.5,1.18,1.51,0,2.2-1.11,2.2-1.95Z"/>
    <path d="M133.44,125.43h.03c.52-.69,1.25-1.12,2.3-1.12,1.51,0,2.44.83,2.44,2.33v5.08h-1.13v-4.99c0-.94-.62-1.47-1.64-1.47-1.15,0-1.99.81-1.99,2v4.46h-1.13v-7.24h1.13v.95Z"/>
    <path d="M139.29,128.12c0-2.41,1.39-3.81,3.18-3.81,1.02,0,1.81.5,2.27,1.19h.03v-3.8h1.13v10.02h-1.13v-.88h-.03c-.55.7-1.22,1.09-2.24,1.09-1.98,0-3.21-1.49-3.21-3.81ZM144.84,128.13c0-1.68-.81-2.86-2.31-2.86-1.37,0-2.07,1.23-2.07,2.86s.7,2.84,2.09,2.84c1.61,0,2.3-1.21,2.3-2.84Z"/>
    <path d="M149.26,128.1c0-2.1,1.37-3.81,3.43-3.81,2.17,0,3.33,1.68,3.33,4.08h-5.6c.08,1.47.88,2.59,2.34,2.59,1.05,0,1.75-.5,2-1.48h1.11c-.34,1.55-1.47,2.44-3.11,2.44-2.21,0-3.5-1.71-3.5-3.81ZM150.45,127.52h4.36c-.07-1.44-.81-2.33-2.12-2.33s-2.07,1.01-2.24,2.33Z"/>
    <path d="M157.17,121.7h1.13v10.02h-1.13v-10.02Z"/>
    <path d="M159.48,128.1c0-2.1,1.37-3.81,3.43-3.81,2.17,0,3.33,1.68,3.33,4.08h-5.6c.08,1.47.88,2.59,2.34,2.59,1.05,0,1.75-.5,2-1.48h1.11c-.34,1.55-1.47,2.44-3.11,2.44-2.21,0-3.5-1.71-3.5-3.81ZM160.67,127.52h4.36c-.07-1.44-.81-2.33-2.12-2.33s-2.07,1.01-2.24,2.33Z"/>
    <path d="M166.94,128.1c0-2.1,1.34-3.81,3.5-3.81,1.71,0,2.84.98,3.1,2.52h-1.15c-.17-.98-.85-1.58-1.95-1.58-1.54,0-2.34,1.27-2.34,2.87s.8,2.86,2.34,2.86c1.18,0,1.88-.67,1.98-1.79h1.12c-.15,1.74-1.29,2.75-3.1,2.75-2.16,0-3.5-1.71-3.5-3.81Z"/>
    <path d="M174.15,124.48h1.05v-2.28h1.13v2.28h1.4v.92h-1.4v4.71c0,.5.27.67.73.67.22,0,.48-.06.6-.1h.04v.98c-.27.06-.57.1-.91.1-.92,0-1.6-.38-1.6-1.4v-4.96h-1.05v-.92Z"/>
    <path d="M180.05,125.68h.03c.43-.7,1.19-1.29,2.16-1.29.21,0,.32.03.46.08v1.09h-.04c-.17-.06-.28-.07-.5-.07-1.12,0-2.1.84-2.1,2.2v4.02h-1.13v-7.24h1.13v1.21Z"/>
    <path d="M183.03,128.1c0-2.1,1.34-3.81,3.5-3.81s3.49,1.71,3.49,3.81-1.32,3.81-3.49,3.81-3.5-1.71-3.5-3.81ZM188.85,128.1c0-1.6-.78-2.87-2.33-2.87s-2.34,1.27-2.34,2.87.8,2.86,2.34,2.86,2.33-1.26,2.33-2.86Z"/>
    <path d="M192.28,125.43h.03c.52-.69,1.25-1.12,2.3-1.12,1.51,0,2.44.83,2.44,2.33v5.08h-1.13v-4.99c0-.94-.62-1.47-1.64-1.47-1.15,0-1.99.81-1.99,2v4.46h-1.13v-7.24h1.13v.95Z"/>
    <path d="M198.54,121.7h1.13v1.4h-1.13v-1.4ZM198.54,124.48h1.13v7.24h-1.13v-7.24Z"/>
    <path d="M200.81,128.1c0-2.1,1.34-3.81,3.5-3.81,1.71,0,2.84.98,3.1,2.52h-1.15c-.17-.98-.85-1.58-1.95-1.58-1.54,0-2.34,1.27-2.34,2.87s.8,2.86,2.34,2.86c1.18,0,1.88-.67,1.98-1.79h1.12c-.15,1.74-1.29,2.75-3.1,2.75-2.16,0-3.5-1.71-3.5-3.81Z"/>
    <path d="M208.16,129.37h1.16c.15,1.26.99,1.61,2.07,1.61,1.19,0,1.68-.52,1.68-1.19,0-.81-.56-1.02-1.89-1.3-1.43-.29-2.7-.59-2.7-2.17,0-1.2.92-1.99,2.61-1.99,1.79,0,2.68.85,2.84,2.27h-1.16c-.11-.95-.63-1.37-1.71-1.37s-1.46.46-1.46,1.04c0,.78.7.94,1.95,1.19,1.46.29,2.68.62,2.68,2.28,0,1.46-1.19,2.2-2.86,2.2-1.99,0-3.1-.94-3.21-2.56Z"/>
    <path d="M38.2,138.5h7.07v1.11h-5.81v3.17h5.28v1.06h-5.28v3.52h5.98v1.16h-7.24v-10.02Z"/>
    <path d="M46.12,144.92c0-2.41,1.39-3.81,3.18-3.81,1.02,0,1.81.5,2.27,1.19h.03v-3.8h1.13v10.02h-1.13v-.88h-.03c-.55.7-1.22,1.09-2.24,1.09-1.98,0-3.21-1.49-3.21-3.81ZM51.67,144.93c0-1.68-.81-2.86-2.31-2.86-1.37,0-2.07,1.23-2.07,2.86s.7,2.84,2.09,2.84c1.61,0,2.3-1.21,2.3-2.84Z"/>
    <path d="M58.88,148.52v-1h-.03c-.52.7-1.13,1.16-2.19,1.16-1.48,0-2.44-.9-2.44-2.4v-5.01h1.13v4.99c0,.94.6,1.49,1.62,1.49,1.15,0,1.89-.87,1.89-2.02v-4.45h1.13v7.24h-1.13Z"/>
    <path d="M65.99,147.51h-.01c-.43.56-1.18,1.15-2.41,1.15-1.37,0-2.45-.64-2.45-2.02,0-1.71,1.34-2.06,3.15-2.34,1.02-.15,1.74-.25,1.74-1.04s-.59-1.27-1.62-1.27c-1.18,0-1.77.5-1.81,1.6h-1.09c.04-1.4.97-2.45,2.89-2.45,1.54,0,2.68.57,2.68,2.3v3.45c0,.59.14.91.77.77h.04v.83c-.14.06-.32.11-.62.11-.74,0-1.13-.34-1.25-1.08ZM66.02,145.84v-1.23c-.38.24-1.04.42-1.65.53-1.13.21-2.04.41-2.04,1.47,0,.97.76,1.18,1.5,1.18,1.51,0,2.2-1.11,2.2-1.95Z"/>
    <path d="M69.83,142.48h.03c.43-.7,1.19-1.29,2.16-1.29.21,0,.32.03.46.08v1.09h-.04c-.17-.06-.28-.07-.5-.07-1.12,0-2.1.84-2.1,2.2v4.02h-1.13v-7.24h1.13v1.21Z"/>
    <path d="M72.81,144.92c0-2.41,1.39-3.81,3.18-3.81,1.02,0,1.81.5,2.27,1.19h.03v-3.8h1.13v10.02h-1.13v-.88h-.03c-.55.7-1.22,1.09-2.24,1.09-1.98,0-3.21-1.49-3.21-3.81ZM78.35,144.93c0-1.68-.81-2.86-2.31-2.86-1.37,0-2.07,1.23-2.07,2.86s.7,2.84,2.09,2.84c1.61,0,2.3-1.21,2.3-2.84Z"/>
    <path d="M82.72,138.5h7.93v1.11h-3.33v8.91h-1.26v-8.91h-3.33v-1.11Z"/>
    <path d="M94.55,147.51h-.01c-.43.56-1.18,1.15-2.41,1.15-1.37,0-2.45-.64-2.45-2.02,0-1.71,1.34-2.06,3.15-2.34,1.02-.15,1.74-.25,1.74-1.04s-.59-1.27-1.62-1.27c-1.18,0-1.77.5-1.81,1.6h-1.09c.04-1.4.97-2.45,2.89-2.45,1.54,0,2.68.57,2.68,2.3v3.45c0,.59.14.91.77.77h.04v.83c-.14.06-.32.11-.62.11-.74,0-1.13-.34-1.25-1.08ZM94.58,145.84v-1.23c-.38.24-1.04.42-1.65.53-1.13.21-2.04.41-2.04,1.47,0,.97.76,1.18,1.5,1.18,1.51,0,2.2-1.11,2.2-1.95Z"/>
    <path d="M97.25,141.28h1.13v1.04h.03c.45-.7,1.22-1.2,2.13-1.2s1.58.45,1.89,1.29h.03c.46-.83,1.33-1.29,2.21-1.29,1.29,0,2.2.83,2.2,2.33v5.08h-1.13v-5.03c0-.9-.6-1.43-1.33-1.43-.94,0-1.78.81-1.78,1.95v4.51h-1.13v-5.03c0-.9-.5-1.43-1.25-1.43-.88,0-1.86.81-1.86,1.95v4.51h-1.13v-7.24Z"/>
    <path d="M108.37,141.28h1.13v1.02h.03c.55-.74,1.27-1.19,2.33-1.19,1.83,0,3.11,1.4,3.11,3.81s-1.19,3.81-3.15,3.81c-.98,0-1.68-.29-2.28-1.06h-.03v3.18h-1.13v-9.57ZM113.8,144.93c0-1.62-.69-2.86-2.06-2.86-1.58,0-2.31,1.29-2.31,2.86s.63,2.84,2.3,2.84c1.39,0,2.07-1.21,2.07-2.84Z"/>
    <path d="M120.7,148.52v-1h-.03c-.52.7-1.13,1.16-2.19,1.16-1.48,0-2.44-.9-2.44-2.4v-5.01h1.13v4.99c0,.94.6,1.49,1.62,1.49,1.15,0,1.89-.87,1.89-2.02v-4.45h1.13v7.24h-1.13Z"/>
  </g>
  <g>
    <path d="M39.14,175.48h1.26v4.26h5.35v-4.26h1.26v10.02h-1.26v-4.73h-5.35v4.73h-1.26v-10.02Z"/>
    <path d="M48.31,181.88c0-2.1,1.37-3.81,3.43-3.81,2.17,0,3.33,1.68,3.33,4.08h-5.6c.08,1.47.88,2.59,2.34,2.59,1.05,0,1.75-.5,2-1.48h1.11c-.34,1.55-1.47,2.44-3.11,2.44-2.21,0-3.5-1.71-3.5-3.81ZM49.5,181.3h4.36c-.07-1.44-.81-2.33-2.12-2.33s-2.07,1.01-2.24,2.33Z"/>
    <path d="M56.22,175.48h1.13v10.02h-1.13v-10.02Z"/>
    <path d="M58.47,183.15h1.16c.15,1.26.99,1.61,2.07,1.61,1.19,0,1.68-.52,1.68-1.19,0-.81-.56-1.02-1.89-1.3-1.43-.29-2.7-.59-2.7-2.17,0-1.2.92-1.99,2.61-1.99,1.79,0,2.68.85,2.84,2.27h-1.16c-.11-.95-.63-1.37-1.71-1.37s-1.46.46-1.46,1.04c0,.78.7.94,1.95,1.19,1.46.29,2.68.62,2.68,2.28,0,1.46-1.19,2.2-2.86,2.2-1.99,0-3.1-.94-3.21-2.56Z"/>
    <path d="M65.62,175.48h1.13v1.4h-1.13v-1.4ZM65.62,178.26h1.13v7.24h-1.13v-7.24Z"/>
    <path d="M69.43,179.21h.03c.52-.69,1.25-1.12,2.3-1.12,1.51,0,2.44.83,2.44,2.33v5.08h-1.13v-4.99c0-.94-.62-1.47-1.64-1.47-1.15,0-1.99.81-1.99,2v4.46h-1.13v-7.24h1.13v.95Z"/>
    <path d="M77.89,181.59l-1.06,1.01v2.9h-1.13v-10.02h1.13v5.87l3.18-3.1h1.44l-2.77,2.61,3.11,4.64h-1.33l-2.56-3.91Z"/>
    <path d="M82.54,175.48h1.13v1.4h-1.13v-1.4ZM82.54,178.26h1.13v7.24h-1.13v-7.24Z"/>
    <path d="M85.07,186.66c.31-.11.63-.38.63-1.16h-.64v-1.39h1.36v1.43c0,1.02-.55,1.6-1.34,1.75v-.63Z"/>
    <path d="M91.83,178.51h-2.1v-.78c1.18-.03,2.19-.46,2.37-1.88h.91v9.65h-1.18v-6.99Z"/>
    <path d="M98.99,183.15h-4.52v-1.05l4.75-6.29h.92v6.4h1.58v.94h-1.58v2.35h-1.15v-2.35ZM95.6,182.21h3.39v-4.5h-.03l-3.36,4.45v.04Z"/>
    <path d="M105.19,175.48h1.61l3.25,8.32h.03l3.22-8.32h1.64v10.02h-1.21v-8.24h-.03s-.27.78-.45,1.26l-2.75,6.98h-.97l-2.75-6.98c-.2-.5-.45-1.26-.45-1.26h-.03v8.24h-1.13v-10.02Z"/>
    <path d="M121.08,184.49h-.01c-.43.56-1.18,1.15-2.41,1.15-1.37,0-2.45-.64-2.45-2.02,0-1.71,1.34-2.06,3.15-2.34,1.02-.15,1.74-.25,1.74-1.04s-.59-1.27-1.62-1.27c-1.18,0-1.77.5-1.81,1.6h-1.09c.04-1.4.97-2.45,2.89-2.45,1.54,0,2.68.57,2.68,2.3v3.45c0,.59.14.91.77.77h.04v.83c-.14.06-.32.11-.62.11-.74,0-1.13-.34-1.25-1.08ZM121.11,182.82v-1.23c-.38.24-1.04.42-1.65.53-1.13.21-2.04.41-2.04,1.47,0,.97.76,1.18,1.5,1.18,1.51,0,2.2-1.11,2.2-1.95Z"/>
    <path d="M124.91,179.46h.03c.43-.7,1.19-1.29,2.16-1.29.21,0,.32.03.46.08v1.09h-.04c-.17-.06-.28-.07-.5-.07-1.12,0-2.1.84-2.1,2.2v4.02h-1.13v-7.24h1.13v1.21Z"/>
    <path d="M127.9,181.88c0-2.1,1.34-3.81,3.5-3.81,1.71,0,2.84.98,3.1,2.52h-1.15c-.17-.98-.85-1.58-1.95-1.58-1.54,0-2.34,1.27-2.34,2.87s.8,2.86,2.34,2.86c1.18,0,1.88-.67,1.98-1.79h1.12c-.15,1.74-1.29,2.75-3.1,2.75-2.16,0-3.5-1.71-3.5-3.81Z"/>
    <path d="M136.7,179.21h.03c.52-.69,1.25-1.12,2.3-1.12,1.51,0,2.44.83,2.44,2.33v5.08h-1.13v-4.99c0-.94-.62-1.47-1.64-1.47-1.15,0-1.99.81-1.99,2v4.46h-1.13v-10.02h1.13v3.73Z"/>
    <path d="M148.45,181.03c1.26-.73,2.03-1.22,2.03-2.38s-.81-1.98-2.09-1.98c-.67,0-1.18.22-1.53.6-.38.41-.55.94-.55,1.92h-1.23c0-1.23.32-2.02.91-2.61.62-.6,1.51-.9,2.49-.9,1.95,0,3.21,1.23,3.21,2.94,0,1.85-1.26,2.47-2.8,3.32-1.04.57-2.37,1.36-2.63,2.42h5.24v1.12h-6.65c.11-2.56,1.92-3.5,3.6-4.47Z"/>
    <path d="M152.82,180.69c0-3.11,1.47-5.01,3.74-5.01s3.71,1.88,3.71,5.01-1.33,5.01-3.73,5.01-3.73-1.96-3.73-5.01ZM159.05,180.69c0-2.44-.83-4.01-2.49-4.01s-2.52,1.53-2.52,4.01.83,3.99,2.52,3.99,2.49-1.51,2.49-3.99Z"/>
    <path d="M164.84,181.03c1.26-.73,2.03-1.22,2.03-2.38s-.81-1.98-2.09-1.98c-.67,0-1.18.22-1.53.6-.38.41-.55.94-.55,1.92h-1.23c0-1.23.32-2.02.91-2.61.62-.6,1.51-.9,2.49-.9,1.95,0,3.21,1.23,3.21,2.94,0,1.85-1.26,2.47-2.8,3.32-1.04.57-2.37,1.36-2.63,2.42h5.24v1.12h-6.65c.11-2.56,1.92-3.5,3.6-4.47Z"/>
    <path d="M173.06,183.15h-4.52v-1.05l4.75-6.29h.92v6.4h1.58v.94h-1.58v2.35h-1.15v-2.35ZM169.67,182.21h3.39v-4.5h-.03l-3.36,4.45v.04Z"/>
  </g>
  <rect x="1206.78" y="484.3" width="143.57" height="73.96" style="fill: #fff; stroke: #000; stroke-miterlimit: 10; stroke-width: .5px;"/>
  <g>
    <path d="M1258.47,536.27c0-2.66,1.26-4.29,3.2-4.29s3.18,1.61,3.18,4.29-1.14,4.29-3.19,4.29-3.19-1.68-3.19-4.29ZM1263.81,536.27c0-2.09-.71-3.43-2.13-3.43s-2.16,1.31-2.16,3.43.71,3.42,2.16,3.42,2.13-1.29,2.13-3.42Z"/>
    <path d="M1265.84,536.63h3.21v.89h-3.21v-.89Z"/>
    <path d="M1269.99,536.09c0-2.52,1.51-4.47,4.07-4.47,2,0,3.21,1.15,3.44,2.73h-1.05c-.2-1.07-1.06-1.8-2.41-1.8-1.88,0-2.94,1.52-2.94,3.54s1.16,3.51,2.95,3.51c1.62,0,2.39-1.1,2.49-2.36h1.07c-.01.85-.42,1.81-1.03,2.41-.6.59-1.47.9-2.57.9-2.43,0-4.02-1.86-4.02-4.46Z"/>
    <path d="M1278.33,537.29c0-1.8,1.15-3.26,3-3.26s2.99,1.46,2.99,3.26-1.13,3.26-2.99,3.26-3-1.46-3-3.26ZM1283.32,537.29c0-1.37-.67-2.46-1.99-2.46s-2,1.09-2,2.46.68,2.45,2,2.45,1.99-1.08,1.99-2.45Z"/>
    <path d="M1289.09,539.52h-.01c-.37.48-1.01.98-2.06.98-1.18,0-2.1-.55-2.1-1.73,0-1.46,1.15-1.76,2.7-2,.88-.13,1.49-.22,1.49-.89s-.5-1.09-1.39-1.09c-1.01,0-1.51.43-1.55,1.37h-.94c.04-1.2.83-2.1,2.47-2.1,1.32,0,2.29.49,2.29,1.97v2.95c0,.5.12.78.66.66h.04v.71c-.12.05-.28.1-.53.1-.64,0-.97-.29-1.07-.92ZM1289.12,538.09v-1.06c-.32.2-.89.36-1.42.46-.97.18-1.75.35-1.75,1.26,0,.83.65,1.01,1.28,1.01,1.3,0,1.88-.95,1.88-1.67Z"/>
    <path d="M1291.02,538.36h1c.13,1.08.85,1.38,1.78,1.38,1.02,0,1.44-.44,1.44-1.02,0-.7-.48-.88-1.62-1.12-1.22-.25-2.32-.5-2.32-1.86,0-1.03.79-1.7,2.23-1.7,1.54,0,2.29.73,2.43,1.94h-1c-.1-.82-.54-1.18-1.46-1.18s-1.25.4-1.25.89c0,.67.6.8,1.67,1.02,1.25.25,2.29.53,2.29,1.96,0,1.25-1.02,1.88-2.45,1.88-1.7,0-2.65-.8-2.75-2.2Z"/>
    <path d="M1296.63,534.18h.9v-1.96h.97v1.96h1.2v.79h-1.2v4.03c0,.43.23.58.62.58.19,0,.41-.05.52-.08h.04v.84c-.23.05-.49.08-.78.08-.79,0-1.37-.32-1.37-1.2v-4.25h-.9v-.79Z"/>
  </g>
  <g>
    <path d="M1229.53,506.34h1.96l3.94,10.1h.03l3.91-10.1h1.99v12.15h-1.46v-10h-.03s-.32.95-.54,1.53l-3.33,8.46h-1.17l-3.33-8.46c-.24-.61-.54-1.53-.54-1.53h-.03v10h-1.38v-12.15Z"/>
    <path d="M1247.14,506.34h1.72l4.49,12.15h-1.67l-1.29-3.71h-4.84l-1.31,3.71h-1.56l4.47-12.15ZM1245.99,513.55h3.98l-1.39-4.08c-.24-.68-.54-1.72-.54-1.72h-.03s-.32,1.02-.56,1.72l-1.44,4.08Z"/>
    <path d="M1254.66,506.34h1.53v6.03l5.98-6.03h1.92l-4.91,4.86,5.32,7.29h-1.79l-4.57-6.25-1.96,1.95v4.3h-1.53v-12.15Z"/>
    <path d="M1265.6,506.34h8.58v1.34h-7.05v3.84h6.41v1.29h-6.41v4.27h7.26v1.41h-8.79v-12.15Z"/>
    <path d="M1278.88,506.34h1.62l5.54,8.45c.41.63.88,1.56.88,1.56h.03v-10.01h1.43v12.15h-1.56l-5.58-8.46c-.39-.59-.9-1.51-.9-1.51h-.03v9.98h-1.43v-12.15Z"/>
    <path d="M1290.2,512.41c0-3.64,2.28-6.34,5.95-6.34s5.95,2.7,5.95,6.34-2.28,6.34-5.95,6.34-5.95-2.7-5.95-6.34ZM1300.54,512.41c0-2.86-1.53-5.01-4.38-5.01s-4.39,2.16-4.39,5.01,1.53,5,4.39,5,4.38-2.14,4.38-5Z"/>
    <path d="M1303.96,506.34h1.53v12.15h-1.53v-12.15Z"/>
    <path d="M1307.03,514.38h1.5c.2,2.06,1.46,3.13,3.76,3.13,1.68,0,2.89-.77,2.89-2.28,0-1.67-1.46-2.06-3.64-2.53-2.14-.48-3.98-1.09-3.98-3.38,0-2.01,1.67-3.21,4.13-3.21,3.04,0,4.3,1.55,4.61,3.79h-1.45c-.22-1.73-1.34-2.6-3.13-2.6-1.65,0-2.74.7-2.74,1.95,0,1.38,1.36,1.79,3.18,2.14,2.36.48,4.52,1.05,4.52,3.79,0,2.28-1.85,3.55-4.47,3.55-3.42,0-5.05-1.9-5.18-4.35Z"/>
    <path d="M1318.44,506.34h8.58v1.34h-7.05v3.84h6.41v1.29h-6.41v4.27h7.26v1.41h-8.79v-12.15Z"/>
  </g>
  <g>
    <rect x="1112.84" y="485.8" width="136.19" height="17.21" style="fill: none;"/>
    <path d="M1169.92,485.8h1.38l2.78,7.12h.02l2.76-7.12h1.4v8.58h-1.03v-7.05h-.02s-.23.67-.38,1.08l-2.35,5.97h-.83l-2.35-5.97c-.17-.43-.38-1.08-.38-1.08h-.02v7.05h-.97v-8.58Z"/>
    <path d="M1179.91,485.8h1.08v8.58h-1.08v-8.58Z"/>
    <path d="M1182.62,485.8h3.12c2.58,0,3.8,1.75,3.8,4.32s-1.31,4.26-3.89,4.26h-3.03v-8.58ZM1185.62,493.43c2.01,0,2.82-1.29,2.82-3.31s-.72-3.38-2.73-3.38h-2v6.69h1.92Z"/>
    <path d="M1190.85,485.8h1.08v8.58h-1.08v-8.58Z"/>
  </g>
  <line x1="819.43" y1="501.61" x2="1206.78" y2="501.61" style="fill: none; stroke: #000; stroke-dasharray: 12; stroke-miterlimit: 10; stroke-width: .5px;"/>
  <circle cx="1216.28" cy="767.44" r="13.25" style="fill: none; stroke: #000; stroke-miterlimit: 10;"/>
  <circle cx="1216.28" cy="734.13" r="13.25" style="fill: none; stroke: #000; stroke-miterlimit: 10;"/>
  <circle cx="1216.28" cy="700.52" r="13.25" style="fill: none; stroke: #000; stroke-miterlimit: 10;"/>
  <circle cx="1216.28" cy="667.69" r="13.25" style="fill: none; stroke: #000; stroke-miterlimit: 10;"/>
  <line x1="1229.53" y1="781.11" x2="1229.53" y2="753.76" style="fill: none; stroke: #000; stroke-miterlimit: 10;"/>
  <line x1="1229.53" y1="747.81" x2="1229.53" y2="720.45" style="fill: none; stroke: #000; stroke-miterlimit: 10;"/>
  <line x1="1229.53" y1="713.77" x2="1229.53" y2="686.41" style="fill: none; stroke: #000; stroke-miterlimit: 10;"/>
  <line x1="1229.53" y1="681.37" x2="1229.53" y2="654.01" style="fill: none; stroke: #000; stroke-miterlimit: 10;"/>
  <g>
    <polyline points="787.48 636.91 787.48 667.69 1216.28 667.69" style="fill: none; stroke: #000; stroke-miterlimit: 10; stroke-width: .75px;"/>
    <polygon points="783.74 638 787.48 631.53 791.22 638 783.74 638"/>
  </g>
  <g>
    <polyline points="1216.28 700.52 777.5 700.52 777.5 636.91" style="fill: none; stroke: #000; stroke-miterlimit: 10; stroke-width: .75px;"/>
    <polygon points="781.24 638 777.5 631.53 773.76 638 781.24 638"/>
  </g>
  <g>
    <polyline points="1216.28 734.13 767.67 734.13 767.67 636.91" style="fill: none; stroke: #000; stroke-miterlimit: 10; stroke-width: .75px;"/>
    <polygon points="771.41 638 767.67 631.53 763.93 638 771.41 638"/>
  </g>
  <g>
    <polyline points="1216.28 767.44 756.87 767.44 756.87 636.91" style="fill: none; stroke: #000; stroke-miterlimit: 10; stroke-width: .75px;"/>
    <polygon points="760.61 638 756.87 631.53 753.13 638 760.61 638"/>
  </g>
  <g>
    <path d="M1254.46,745.18h1.38l2.78,7.12h.02l2.76-7.12h1.4v8.58h-1.03v-7.05h-.02s-.23.67-.38,1.08l-2.35,5.97h-.83l-2.35-5.97c-.17-.43-.38-1.08-.38-1.08h-.02v7.05h-.97v-8.58Z"/>
    <path d="M1264.44,745.18h1.08v8.58h-1.08v-8.58Z"/>
    <path d="M1266.83,749.46c0-2.52,1.51-4.47,4.07-4.47,2,0,3.21,1.15,3.44,2.73h-1.05c-.2-1.07-1.06-1.8-2.41-1.8-1.88,0-2.94,1.52-2.94,3.54s1.16,3.51,2.95,3.51c1.62,0,2.39-1.1,2.5-2.36h1.07c-.01.85-.42,1.81-1.03,2.41-.6.59-1.48.9-2.57.9-2.43,0-4.02-1.86-4.02-4.46Z"/>
    <path d="M1275.66,745.18h4.01c1.51,0,2.53.95,2.53,2.35,0,1.04-.46,1.79-1.49,2.12v.04c.88.31,1.15.91,1.24,2.18.1,1.38.24,1.73.4,1.83v.05h-1.16c-.18-.16-.22-.48-.31-1.92-.08-1.26-.59-1.7-1.74-1.7h-2.39v3.62h-1.08v-8.58ZM1276.74,749.26h2.54c1.2,0,1.8-.6,1.8-1.57,0-1.04-.48-1.57-1.74-1.57h-2.6v3.14Z"/>
    <path d="M1283.19,749.46c0-2.57,1.61-4.47,4.2-4.47s4.2,1.91,4.2,4.47-1.61,4.47-4.2,4.47-4.2-1.91-4.2-4.47ZM1290.48,749.46c0-2.02-1.08-3.54-3.09-3.54s-3.09,1.52-3.09,3.54,1.08,3.53,3.09,3.53,3.09-1.51,3.09-3.53Z"/>
    <path d="M1292.87,745.18h3.57c.9,0,1.59.3,2.04.83.36.42.58.98.58,1.63,0,1.57-.9,2.52-2.77,2.52h-2.34v3.6h-1.08v-8.58ZM1293.95,749.28h2.25c1.21,0,1.79-.61,1.79-1.59s-.64-1.57-1.73-1.57h-2.31v3.17Z"/>
    <path d="M1300.11,745.18h1.08v3.65h4.58v-3.65h1.08v8.58h-1.08v-4.05h-4.58v4.05h-1.08v-8.58Z"/>
    <path d="M1308.14,749.46c0-2.57,1.61-4.47,4.2-4.47s4.2,1.91,4.2,4.47-1.61,4.47-4.2,4.47-4.2-1.91-4.2-4.47ZM1315.43,749.46c0-2.02-1.08-3.54-3.09-3.54s-3.09,1.52-3.09,3.54,1.08,3.53,3.09,3.53,3.09-1.51,3.09-3.53Z"/>
    <path d="M1317.82,745.18h1.14l3.91,5.96c.29.44.62,1.1.62,1.1h.02v-7.06h1.01v8.58h-1.1l-3.93-5.97c-.28-.42-.64-1.07-.64-1.07h-.02v7.04h-1.01v-8.58Z"/>
    <path d="M1326.14,745.18h6.06v.95h-4.98v2.71h4.52v.91h-4.52v3.01h5.12v1h-6.2v-8.58Z"/>
    <path d="M1332.94,750.85h1.06c.14,1.45,1.03,2.21,2.65,2.21,1.19,0,2.04-.54,2.04-1.61,0-1.17-1.03-1.45-2.57-1.79-1.51-.34-2.81-.77-2.81-2.39,0-1.42,1.17-2.27,2.91-2.27,2.15,0,3.03,1.09,3.25,2.67h-1.02c-.16-1.22-.95-1.83-2.21-1.83-1.16,0-1.93.49-1.93,1.38,0,.97.96,1.26,2.24,1.51,1.67.34,3.19.74,3.19,2.67,0,1.61-1.31,2.51-3.15,2.51-2.41,0-3.56-1.34-3.66-3.07Z"/>
  </g>
  <g>
    <polyline points="1206.78 546.78 1191.94 546.78 1191.94 654.44 796.39 654.44 796.39 637.34" style="fill: none; stroke: #000; stroke-miterlimit: 10; stroke-width: .75px;"/>
    <polygon points="800.13 638.44 796.39 631.96 792.65 638.44 800.13 638.44"/>
  </g>
  <line x1="1350.35" y1="509.87" x2="1525.55" y2="509.87" style="fill: none; stroke: #000; stroke-miterlimit: 10; stroke-width: .75px;"/>
  <g>
    <path d="M1515.75,532.89h5.07c1.28,0,2.26.42,2.89,1.17.51.6.82,1.39.82,2.31,0,2.23-1.28,3.57-3.93,3.57h-3.31v5.1h-1.53v-12.15ZM1517.28,538.71h3.2c1.72,0,2.53-.87,2.53-2.26,0-1.46-.9-2.23-2.45-2.23h-3.28v4.49Z"/>
    <path d="M1525.05,540.66c0-2.55,1.63-4.62,4.25-4.62s4.23,2.07,4.23,4.62-1.6,4.62-4.23,4.62-4.25-2.07-4.25-4.62ZM1532.12,540.66c0-1.94-.95-3.48-2.82-3.48s-2.84,1.55-2.84,3.48.97,3.47,2.84,3.47,2.82-1.53,2.82-3.47Z"/>
    <path d="M1533.87,536.26h1.48l1.55,5.42c.2.73.48,1.89.48,1.89h.03s.25-1.16.44-1.85l1.48-5.46h1.45l1.43,5.46c.19.71.42,1.85.42,1.85h.03s.27-1.16.49-1.89l1.63-5.42h1.43l-2.87,8.79h-1.41l-1.46-5.32c-.2-.73-.43-1.84-.43-1.84h-.03s-.24,1.1-.44,1.84l-1.48,5.32h-1.43l-2.79-8.79Z"/>
    <path d="M1546.56,540.66c0-2.55,1.67-4.62,4.17-4.62,2.63,0,4.05,2.04,4.05,4.95h-6.8c.1,1.78,1.07,3.14,2.84,3.14,1.27,0,2.12-.61,2.43-1.8h1.34c-.41,1.89-1.79,2.96-3.77,2.96-2.69,0-4.25-2.07-4.25-4.62ZM1548,539.95h5.29c-.08-1.75-.99-2.82-2.57-2.82s-2.52,1.22-2.72,2.82Z"/>
    <path d="M1557.49,537.72h.03c.53-.85,1.44-1.56,2.62-1.56.25,0,.39.03.56.1v1.33h-.05c-.2-.07-.34-.08-.61-.08-1.36,0-2.55,1.02-2.55,2.67v4.88h-1.38v-8.79h1.38v1.46Z"/>
  </g>
  <rect x="1522.88" y="497.51" width="25.09" height="24.72" style="fill: none; stroke: #000; stroke-miterlimit: 10; stroke-width: .75px;"/>
  <rect x="1525.55" y="500.15" width="19.74" height="19.45" rx="6.27" ry="6.27" style="fill: none; stroke: #000; stroke-miterlimit: 10; stroke-width: .75px;"/>
  <circle cx="1216.28" cy="832.49" r="13.25" style="fill: none; stroke: #000; stroke-miterlimit: 10;"/>
  <circle cx="1216.28" cy="799.19" r="13.25" style="fill: none; stroke: #000; stroke-miterlimit: 10;"/>
  <line x1="1229.53" y1="846.17" x2="1229.53" y2="818.82" style="fill: none; stroke: #000; stroke-miterlimit: 10;"/>
  <line x1="1229.53" y1="812.87" x2="1229.53" y2="785.51" style="fill: none; stroke: #000; stroke-miterlimit: 10;"/>
  <g>
    <polyline points="1216.28 799.01 745.46 799.01 745.46 637.09" style="fill: none; stroke: #000; stroke-miterlimit: 10; stroke-width: .75px;"/>
    <polygon points="749.2 638.18 745.46 631.71 741.72 638.18 749.2 638.18"/>
  </g>
  <g>
    <polyline points="1216.28 832.75 733.96 832.75 733.96 636.65" style="fill: none; stroke: #000; stroke-miterlimit: 10; stroke-width: .75px;"/>
    <polygon points="737.7 637.75 733.96 631.27 730.22 637.75 737.7 637.75"/>
  </g>
  <g>
    <path d="M759.99,498.25h1l2.01,5.15h.02l1.99-5.15h1.01v6.2h-.75v-5.1h-.02s-.16.49-.28.78l-1.7,4.32h-.6l-1.7-4.32c-.12-.31-.28-.78-.28-.78h-.02v5.1h-.7v-6.2Z"/>
    <path d="M767.2,498.25h.78v6.2h-.78v-6.2Z"/>
    <path d="M769.16,498.25h2.25c1.86,0,2.75,1.27,2.75,3.12s-.94,3.08-2.81,3.08h-2.19v-6.2ZM771.32,503.76c1.46,0,2.04-.94,2.04-2.39s-.52-2.44-1.98-2.44h-1.45v4.84h1.39Z"/>
    <path d="M775.1,498.25h.78v6.2h-.78v-6.2Z"/>
    <path d="M778.2,501.34c0-1.86,1.16-3.23,3.03-3.23s3.03,1.38,3.03,3.23-1.16,3.23-3.03,3.23-3.03-1.38-3.03-3.23ZM783.47,501.34c0-1.46-.78-2.56-2.24-2.56s-2.24,1.1-2.24,2.56.78,2.55,2.24,2.55,2.24-1.09,2.24-2.55Z"/>
    <path d="M785.08,502.45v-4.2h.78v4.12c0,1.06.6,1.51,1.62,1.51s1.57-.45,1.57-1.51v-4.12h.78v4.2c0,1.5-1.05,2.1-2.37,2.1s-2.38-.6-2.38-2.1Z"/>
    <path d="M790.5,498.25h4.91v.68h-2.06v5.51h-.78v-5.51h-2.06v-.68Z"/>
  </g>
  <g>
    <path d="M746.73,600.63h.88l2.29,6.2h-.85l-.66-1.89h-2.47l-.67,1.89h-.8l2.28-6.2ZM746.14,604.3h2.03l-.71-2.08c-.12-.35-.28-.88-.28-.88h-.02s-.16.52-.29.88l-.74,2.08Z"/>
    <path d="M750.56,600.63h.82l2.83,4.31c.21.32.45.8.45.8h.02v-5.11h.73v6.2h-.8l-2.84-4.32c-.2-.3-.46-.77-.46-.77h-.02v5.09h-.73v-6.2Z"/>
    <path d="M758.35,600.63h.88l2.29,6.2h-.85l-.66-1.89h-2.47l-.67,1.89h-.8l2.28-6.2ZM757.76,604.3h2.03l-.71-2.08c-.12-.35-.28-.88-.28-.88h-.02s-.16.52-.29.88l-.74,2.08Z"/>
    <path d="M762.17,600.63h.78v5.48h3.25v.72h-4.03v-6.2Z"/>
    <path d="M766.35,603.72c0-1.85,1.16-3.23,3.03-3.23s3.03,1.38,3.03,3.23-1.16,3.23-3.03,3.23-3.03-1.38-3.03-3.23ZM771.62,603.72c0-1.46-.78-2.56-2.24-2.56s-2.24,1.1-2.24,2.56.78,2.55,2.24,2.55,2.24-1.09,2.24-2.55Z"/>
    <path d="M777.96,606.01h-.02c-.45.63-1.12.94-1.93.94-1.74,0-2.91-1.33-2.91-3.21s1.03-3.25,2.98-3.25c1.44,0,2.32.78,2.52,1.99h-.81c-.17-.82-.75-1.32-1.73-1.32-1.49,0-2.17,1.12-2.17,2.57s.88,2.53,2.14,2.53,1.87-.87,1.87-1.91v-.15h-1.86v-.68h2.64v3.28h-.5l-.23-.81Z"/>
    <path d="M781.16,600.63h.78v6.2h-.78v-6.2Z"/>
    <path d="M783.11,600.63h.82l2.83,4.31c.21.32.45.8.45.8h.02v-5.11h.73v6.2h-.8l-2.84-4.32c-.2-.3-.46-.77-.46-.77h-.02v5.09h-.73v-6.2Z"/>
  </g>
  <g>
    <rect x="713.39" y="617.19" width="106.04" height="8.02" style="fill: none;"/>
    <path d="M729.05,617.19h.57v.7h-.57v-.7ZM729.05,618.58h.57v3.62h-.57v-3.62Z"/>
    <path d="M730.96,619.05h.01c.26-.34.62-.56,1.15-.56.76,0,1.22.41,1.22,1.16v2.54h-.57v-2.49c0-.47-.31-.74-.82-.74-.57,0-.99.41-.99,1v2.23h-.57v-3.62h.57v.48Z"/>
    <path d="M736.1,618.7h-1.05v-.39c.59-.01,1.09-.23,1.18-.94h.46v4.83h-.59v-3.5Z"/>
    <path d="M738.73,617.19h.57v.7h-.57v-.7ZM738.73,618.58h.57v3.62h-.57v-3.62Z"/>
    <path d="M740.64,619.05h.01c.26-.34.62-.56,1.15-.56.76,0,1.22.41,1.22,1.16v2.54h-.57v-2.49c0-.47-.31-.74-.82-.74-.57,0-.99.41-.99,1v2.23h-.57v-3.62h.57v.48Z"/>
    <path d="M746.51,619.96c.63-.36,1.02-.61,1.02-1.19s-.41-.99-1.04-.99c-.34,0-.59.11-.76.3-.19.2-.27.47-.27.96h-.62c0-.62.16-1.01.46-1.3.31-.3.76-.45,1.25-.45.97,0,1.6.62,1.6,1.47,0,.92-.63,1.23-1.4,1.66-.52.29-1.18.68-1.32,1.21h2.62v.56h-3.33c.06-1.28.96-1.75,1.8-2.23Z"/>
    <path d="M749.88,617.19h.57v.7h-.57v-.7ZM749.88,618.58h.57v3.62h-.57v-3.62Z"/>
    <path d="M751.79,619.05h.01c.26-.34.62-.56,1.15-.56.76,0,1.22.41,1.22,1.16v2.54h-.57v-2.49c0-.47-.31-.74-.82-.74-.57,0-.99.41-.99,1v2.23h-.57v-3.62h.57v.48Z"/>
    <path d="M755.77,620.61h.58c.02.77.52,1.2,1.31,1.2.67,0,1.13-.33,1.13-1.01,0-.61-.46-.93-1.26-.93h-.3v-.46h.29c.75,0,1.13-.32,1.13-.83s-.47-.84-1.04-.84c-.69,0-1.11.45-1.11,1.11h-.57c0-.95.64-1.58,1.7-1.58.89,0,1.6.48,1.6,1.32,0,.54-.33.85-.79,1.01v.02c.67.17.97.6.97,1.23,0,.92-.75,1.44-1.72,1.44-1.06,0-1.89-.6-1.91-1.69Z"/>
    <path d="M761.12,617.19h.57v.7h-.57v-.7ZM761.12,618.58h.57v3.62h-.57v-3.62Z"/>
    <path d="M763.03,619.05h.01c.26-.34.62-.56,1.15-.56.76,0,1.22.41,1.22,1.16v2.54h-.57v-2.49c0-.47-.31-.74-.82-.74-.57,0-.99.41-.99,1v2.23h-.57v-3.62h.57v.48Z"/>
    <path d="M769.33,621.02h-2.26v-.53l2.37-3.14h.46v3.2h.79v.47h-.79v1.18h-.57v-1.18ZM767.63,620.55h1.69v-2.25h-.01l-1.68,2.23v.02Z"/>
    <path d="M772.35,617.19h.57v.7h-.57v-.7ZM772.35,618.58h.57v3.62h-.57v-3.62Z"/>
    <path d="M774.25,619.05h.01c.26-.34.62-.56,1.15-.56.76,0,1.22.41,1.22,1.16v2.54h-.57v-2.49c0-.47-.31-.74-.82-.74-.57,0-.99.41-.99,1v2.23h-.57v-3.62h.57v.48Z"/>
    <path d="M778.27,620.81h.58c.08.6.5.97,1.18.97s1.13-.46,1.13-1.16-.5-1.14-1.13-1.14c-.52,0-.88.21-1.08.5h-.57l.53-2.58h2.56v.53h-2.14l-.32,1.44h.01c.27-.26.64-.41,1.1-.41.85,0,1.63.61,1.63,1.67s-.73,1.67-1.72,1.67-1.72-.6-1.77-1.49Z"/>
    <path d="M783.47,617.19h.57v.7h-.57v-.7ZM783.47,618.58h.57v3.62h-.57v-3.62Z"/>
    <path d="M785.38,619.05h.01c.26-.34.62-.56,1.15-.56.76,0,1.22.41,1.22,1.16v2.54h-.57v-2.49c0-.47-.31-.74-.82-.74-.57,0-.99.41-.99,1v2.23h-.57v-3.62h.57v.48Z"/>
    <path d="M790.22,621.88c-.51-.46-.68-1.12-.68-2.11,0-1.49.64-2.48,1.86-2.48.96,0,1.44.64,1.51,1.33h-.58c-.04-.46-.36-.83-.92-.83-.94,0-1.27.76-1.3,1.93h.01c.31-.43.74-.67,1.32-.67.88,0,1.58.73,1.58,1.61,0,.9-.71,1.64-1.61,1.64-.53,0-.91-.16-1.2-.43ZM792.48,620.68c0-.68-.48-1.15-1.1-1.15-.69,0-1.16.46-1.16,1.14s.51,1.15,1.18,1.15c.62,0,1.08-.46,1.08-1.14Z"/>
    <path d="M794.8,617.19h.57v.7h-.57v-.7ZM794.8,618.58h.57v3.62h-.57v-3.62Z"/>
    <path d="M796.7,619.05h.01c.26-.34.62-.56,1.15-.56.76,0,1.22.41,1.22,1.16v2.54h-.57v-2.49c0-.47-.31-.74-.82-.74-.57,0-.99.41-.99,1v2.23h-.57v-3.62h.57v.48Z"/>
    <path d="M803.46,617.94h0s-2.74-.01-2.74-.01v-.53h3.35v.48c-.98.86-1.95,2.41-2.05,4.31h-.63c.1-1.67.98-3.39,2.06-4.26Z"/>
  </g>
  <g>
    <path d="M737.63,526.69h4.91v.68h-2.06v5.51h-.78v-5.51h-2.06v-.68Z"/>
    <path d="M742.67,529.79c0-1.86,1.16-3.23,3.03-3.23s3.03,1.38,3.03,3.23-1.16,3.23-3.03,3.23-3.03-1.38-3.03-3.23ZM747.94,529.79c0-1.46-.78-2.56-2.24-2.56s-2.24,1.1-2.24,2.56.78,2.55,2.24,2.55,2.24-1.09,2.24-2.55Z"/>
    <path d="M750.81,529.79c0-1.82,1.09-3.23,2.94-3.23,1.45,0,2.32.83,2.49,1.98h-.76c-.15-.77-.76-1.3-1.74-1.3-1.36,0-2.12,1.1-2.12,2.56s.84,2.54,2.13,2.54c1.17,0,1.73-.8,1.8-1.71h.77c0,.62-.3,1.31-.75,1.74-.43.42-1.07.65-1.85.65-1.76,0-2.9-1.34-2.9-3.22Z"/>
    <path d="M756.95,529.79c0-1.86,1.16-3.23,3.03-3.23s3.03,1.38,3.03,3.23-1.16,3.23-3.03,3.23-3.03-1.38-3.03-3.23ZM762.22,529.79c0-1.46-.78-2.56-2.24-2.56s-2.24,1.1-2.24,2.56.78,2.55,2.24,2.55,2.24-1.09,2.24-2.55Z"/>
    <path d="M763.94,526.69h1l2.01,5.15h.02l1.99-5.15h1.01v6.2h-.75v-5.1h-.02s-.16.49-.28.78l-1.7,4.32h-.6l-1.7-4.32c-.12-.31-.28-.78-.28-.78h-.02v5.1h-.7v-6.2Z"/>
    <path d="M771.12,526.69h2.58c.65,0,1.15.22,1.47.6.26.3.42.71.42,1.18,0,1.13-.65,1.82-2,1.82h-1.69v2.6h-.78v-6.2ZM771.91,529.66h1.63c.88,0,1.29-.44,1.29-1.15s-.46-1.13-1.25-1.13h-1.67v2.29Z"/>
    <path d="M776.35,530.89v-4.2h.78v4.12c0,1.06.6,1.51,1.62,1.51s1.57-.45,1.57-1.51v-4.12h.78v4.2c0,1.5-1.05,2.1-2.37,2.1s-2.38-.6-2.38-2.1Z"/>
    <path d="M781.76,526.69h4.91v.68h-2.06v5.51h-.78v-5.51h-2.06v-.68Z"/>
    <path d="M787.43,526.69h4.38v.68h-3.6v1.96h3.27v.66h-3.27v2.17h3.7v.72h-4.48v-6.2Z"/>
    <path d="M792.82,526.69h2.9c1.09,0,1.83.68,1.83,1.7,0,.75-.33,1.29-1.07,1.53v.03c.63.23.83.66.89,1.58.07,1,.17,1.25.29,1.33v.03h-.84c-.13-.11-.16-.35-.23-1.39-.06-.91-.42-1.23-1.26-1.23h-1.72v2.62h-.78v-6.2ZM793.6,529.64h1.84c.87,0,1.3-.43,1.3-1.14,0-.75-.35-1.13-1.26-1.13h-1.88v2.27Z"/>
  </g>
  <g>
    <line x1="767.67" y1="592.92" x2="767.67" y2="544.75" style="fill: none; stroke: #000; stroke-miterlimit: 10; stroke-width: .5px;"/>
    <polygon points="770.16 545.48 767.67 541.16 765.18 545.48 770.16 545.48"/>
  </g>
  <g>
    <line x1="597.93" y1="501.61" x2="748.74" y2="501.61" style="fill: none; stroke: #000; stroke-miterlimit: 10; stroke-width: .5px;"/>
    <polygon points="748.01 504.1 752.33 501.61 748.01 499.11 748.01 504.1"/>
  </g>
</svg>