<?xml version="1.0" encoding="UTF-8"?>
<svg id="Layer_1" data-name="Layer 1" xmlns="http://www.w3.org/2000/svg" xmlns:xlink="http://www.w3.org/1999/xlink" viewBox="0 0 841.89 595.28">
  <defs>
    <clipPath id="clippath">
      <rect x="-50.86" y="-38.81" width="951.68" height="672.9" style="fill: none;"/>
    </clipPath>
    <clipPath id="clippath-1">
      <rect x="-50.86" y="-38.81" width="951.68" height="661.74" style="fill: none;"/>
    </clipPath>
    <clipPath id="clippath-2">
      <rect width="72" height="74.8" style="fill: none;"/>
    </clipPath>
    <pattern id="Unnamed_Pattern_12" data-name="Unnamed Pattern 12" x="0" y="0" width="72" height="74.8" patternTransform="translate(1109.37 1930.65) scale(.8 -.8)" patternUnits="userSpaceOnUse" viewBox="0 0 72 74.8">
      <g>
        <rect width="72" height="74.8" style="fill: none;"/>
        <g style="clip-path: url(#clippath-2);">
          <line x1="72" y1=".85" x2="144" y2=".85" style="fill: none; stroke: #231f20; stroke-linecap: square; stroke-width: .3px;"/>
          <line x1="72" y1="2.55" x2="144" y2="2.55" style="fill: none; stroke: #231f20; stroke-linecap: square; stroke-width: .3px;"/>
          <line x1="72" y1="4.25" x2="144" y2="4.25" style="fill: none; stroke: #231f20; stroke-linecap: square; stroke-width: .3px;"/>
          <line x1="72" y1="5.95" x2="144" y2="5.95" style="fill: none; stroke: #231f20; stroke-linecap: square; stroke-width: .3px;"/>
          <line x1="72" y1="7.65" x2="144" y2="7.65" style="fill: none; stroke: #231f20; stroke-linecap: square; stroke-width: .3px;"/>
          <line x1="72" y1="9.35" x2="144" y2="9.35" style="fill: none; stroke: #231f20; stroke-linecap: square; stroke-width: .3px;"/>
          <line x1="72" y1="11.05" x2="144" y2="11.05" style="fill: none; stroke: #231f20; stroke-linecap: square; stroke-width: .3px;"/>
          <line x1="72" y1="12.75" x2="144" y2="12.75" style="fill: none; stroke: #231f20; stroke-linecap: square; stroke-width: .3px;"/>
          <line x1="72" y1="14.45" x2="144" y2="14.45" style="fill: none; stroke: #231f20; stroke-linecap: square; stroke-width: .3px;"/>
          <line x1="72" y1="16.15" x2="144" y2="16.15" style="fill: none; stroke: #231f20; stroke-linecap: square; stroke-width: .3px;"/>
          <line x1="72" y1="17.85" x2="144" y2="17.85" style="fill: none; stroke: #231f20; stroke-linecap: square; stroke-width: .3px;"/>
          <line x1="72" y1="19.55" x2="144" y2="19.55" style="fill: none; stroke: #231f20; stroke-linecap: square; stroke-width: .3px;"/>
          <line x1="72" y1="21.25" x2="144" y2="21.25" style="fill: none; stroke: #231f20; stroke-linecap: square; stroke-width: .3px;"/>
          <line x1="72" y1="22.95" x2="144" y2="22.95" style="fill: none; stroke: #231f20; stroke-linecap: square; stroke-width: .3px;"/>
          <line x1="72" y1="24.65" x2="144" y2="24.65" style="fill: none; stroke: #231f20; stroke-linecap: square; stroke-width: .3px;"/>
          <line x1="72" y1="26.35" x2="144" y2="26.35" style="fill: none; stroke: #231f20; stroke-linecap: square; stroke-width: .3px;"/>
          <line x1="72" y1="28.05" x2="144" y2="28.05" style="fill: none; stroke: #231f20; stroke-linecap: square; stroke-width: .3px;"/>
          <line x1="72" y1="29.75" x2="144" y2="29.75" style="fill: none; stroke: #231f20; stroke-linecap: square; stroke-width: .3px;"/>
          <line x1="72" y1="31.45" x2="144" y2="31.45" style="fill: none; stroke: #231f20; stroke-linecap: square; stroke-width: .3px;"/>
          <line x1="72" y1="33.15" x2="144" y2="33.15" style="fill: none; stroke: #231f20; stroke-linecap: square; stroke-width: .3px;"/>
          <line x1="72" y1="34.85" x2="144" y2="34.85" style="fill: none; stroke: #231f20; stroke-linecap: square; stroke-width: .3px;"/>
          <line x1="72" y1="36.55" x2="144" y2="36.55" style="fill: none; stroke: #231f20; stroke-linecap: square; stroke-width: .3px;"/>
          <line x1="72" y1="38.25" x2="144" y2="38.25" style="fill: none; stroke: #231f20; stroke-linecap: square; stroke-width: .3px;"/>
          <line x1="72" y1="39.95" x2="144" y2="39.95" style="fill: none; stroke: #231f20; stroke-linecap: square; stroke-width: .3px;"/>
          <line x1="72" y1="41.65" x2="144" y2="41.65" style="fill: none; stroke: #231f20; stroke-linecap: square; stroke-width: .3px;"/>
          <line x1="72" y1="43.35" x2="144" y2="43.35" style="fill: none; stroke: #231f20; stroke-linecap: square; stroke-width: .3px;"/>
          <line x1="72" y1="45.05" x2="144" y2="45.05" style="fill: none; stroke: #231f20; stroke-linecap: square; stroke-width: .3px;"/>
          <line x1="72" y1="46.75" x2="144" y2="46.75" style="fill: none; stroke: #231f20; stroke-linecap: square; stroke-width: .3px;"/>
          <line x1="72" y1="48.45" x2="144" y2="48.45" style="fill: none; stroke: #231f20; stroke-linecap: square; stroke-width: .3px;"/>
          <line x1="72" y1="50.15" x2="144" y2="50.15" style="fill: none; stroke: #231f20; stroke-linecap: square; stroke-width: .3px;"/>
          <line x1="72" y1="51.85" x2="144" y2="51.85" style="fill: none; stroke: #231f20; stroke-linecap: square; stroke-width: .3px;"/>
          <line x1="72" y1="53.55" x2="144" y2="53.55" style="fill: none; stroke: #231f20; stroke-linecap: square; stroke-width: .3px;"/>
          <line x1="72" y1="55.25" x2="144" y2="55.25" style="fill: none; stroke: #231f20; stroke-linecap: square; stroke-width: .3px;"/>
          <line x1="72" y1="56.95" x2="144" y2="56.95" style="fill: none; stroke: #231f20; stroke-linecap: square; stroke-width: .3px;"/>
          <line x1="72" y1="58.65" x2="144" y2="58.65" style="fill: none; stroke: #231f20; stroke-linecap: square; stroke-width: .3px;"/>
          <line x1="72" y1="60.35" x2="144" y2="60.35" style="fill: none; stroke: #231f20; stroke-linecap: square; stroke-width: .3px;"/>
          <line x1="72" y1="62.05" x2="144" y2="62.05" style="fill: none; stroke: #231f20; stroke-linecap: square; stroke-width: .3px;"/>
          <line x1="72" y1="63.75" x2="144" y2="63.75" style="fill: none; stroke: #231f20; stroke-linecap: square; stroke-width: .3px;"/>
          <line x1="72" y1="65.45" x2="144" y2="65.45" style="fill: none; stroke: #231f20; stroke-linecap: square; stroke-width: .3px;"/>
          <line x1="72" y1="67.15" x2="144" y2="67.15" style="fill: none; stroke: #231f20; stroke-linecap: square; stroke-width: .3px;"/>
          <line x1="72" y1="68.85" x2="144" y2="68.85" style="fill: none; stroke: #231f20; stroke-linecap: square; stroke-width: .3px;"/>
          <line x1="72" y1="70.55" x2="144" y2="70.55" style="fill: none; stroke: #231f20; stroke-linecap: square; stroke-width: .3px;"/>
          <line x1="72" y1="72.25" x2="144" y2="72.25" style="fill: none; stroke: #231f20; stroke-linecap: square; stroke-width: .3px;"/>
          <line x1="72" y1="73.95" x2="144" y2="73.95" style="fill: none; stroke: #231f20; stroke-linecap: square; stroke-width: .3px;"/>
          <line y1=".85" x2="72" y2=".85" style="fill: none; stroke: #231f20; stroke-linecap: square; stroke-width: .3px;"/>
          <line y1="2.55" x2="72" y2="2.55" style="fill: none; stroke: #231f20; stroke-linecap: square; stroke-width: .3px;"/>
          <line y1="4.25" x2="72" y2="4.25" style="fill: none; stroke: #231f20; stroke-linecap: square; stroke-width: .3px;"/>
          <line y1="5.95" x2="72" y2="5.95" style="fill: none; stroke: #231f20; stroke-linecap: square; stroke-width: .3px;"/>
          <line y1="7.65" x2="72" y2="7.65" style="fill: none; stroke: #231f20; stroke-linecap: square; stroke-width: .3px;"/>
          <line y1="9.35" x2="72" y2="9.35" style="fill: none; stroke: #231f20; stroke-linecap: square; stroke-width: .3px;"/>
          <line y1="11.05" x2="72" y2="11.05" style="fill: none; stroke: #231f20; stroke-linecap: square; stroke-width: .3px;"/>
          <line y1="12.75" x2="72" y2="12.75" style="fill: none; stroke: #231f20; stroke-linecap: square; stroke-width: .3px;"/>
          <line y1="14.45" x2="72" y2="14.45" style="fill: none; stroke: #231f20; stroke-linecap: square; stroke-width: .3px;"/>
          <line y1="16.15" x2="72" y2="16.15" style="fill: none; stroke: #231f20; stroke-linecap: square; stroke-width: .3px;"/>
          <line y1="17.85" x2="72" y2="17.85" style="fill: none; stroke: #231f20; stroke-linecap: square; stroke-width: .3px;"/>
          <line y1="19.55" x2="72" y2="19.55" style="fill: none; stroke: #231f20; stroke-linecap: square; stroke-width: .3px;"/>
          <line y1="21.25" x2="72" y2="21.25" style="fill: none; stroke: #231f20; stroke-linecap: square; stroke-width: .3px;"/>
          <line y1="22.95" x2="72" y2="22.95" style="fill: none; stroke: #231f20; stroke-linecap: square; stroke-width: .3px;"/>
          <line y1="24.65" x2="72" y2="24.65" style="fill: none; stroke: #231f20; stroke-linecap: square; stroke-width: .3px;"/>
          <line y1="26.35" x2="72" y2="26.35" style="fill: none; stroke: #231f20; stroke-linecap: square; stroke-width: .3px;"/>
          <line y1="28.05" x2="72" y2="28.05" style="fill: none; stroke: #231f20; stroke-linecap: square; stroke-width: .3px;"/>
          <line y1="29.75" x2="72" y2="29.75" style="fill: none; stroke: #231f20; stroke-linecap: square; stroke-width: .3px;"/>
          <line y1="31.45" x2="72" y2="31.45" style="fill: none; stroke: #231f20; stroke-linecap: square; stroke-width: .3px;"/>
          <line y1="33.15" x2="72" y2="33.15" style="fill: none; stroke: #231f20; stroke-linecap: square; stroke-width: .3px;"/>
          <line y1="34.85" x2="72" y2="34.85" style="fill: none; stroke: #231f20; stroke-linecap: square; stroke-width: .3px;"/>
          <line y1="36.55" x2="72" y2="36.55" style="fill: none; stroke: #231f20; stroke-linecap: square; stroke-width: .3px;"/>
          <line y1="38.25" x2="72" y2="38.25" style="fill: none; stroke: #231f20; stroke-linecap: square; stroke-width: .3px;"/>
          <line y1="39.95" x2="72" y2="39.95" style="fill: none; stroke: #231f20; stroke-linecap: square; stroke-width: .3px;"/>
          <line y1="41.65" x2="72" y2="41.65" style="fill: none; stroke: #231f20; stroke-linecap: square; stroke-width: .3px;"/>
          <line y1="43.35" x2="72" y2="43.35" style="fill: none; stroke: #231f20; stroke-linecap: square; stroke-width: .3px;"/>
          <line y1="45.05" x2="72" y2="45.05" style="fill: none; stroke: #231f20; stroke-linecap: square; stroke-width: .3px;"/>
          <line y1="46.75" x2="72" y2="46.75" style="fill: none; stroke: #231f20; stroke-linecap: square; stroke-width: .3px;"/>
          <line y1="48.45" x2="72" y2="48.45" style="fill: none; stroke: #231f20; stroke-linecap: square; stroke-width: .3px;"/>
          <line y1="50.15" x2="72" y2="50.15" style="fill: none; stroke: #231f20; stroke-linecap: square; stroke-width: .3px;"/>
          <line y1="51.85" x2="72" y2="51.85" style="fill: none; stroke: #231f20; stroke-linecap: square; stroke-width: .3px;"/>
          <line y1="53.55" x2="72" y2="53.55" style="fill: none; stroke: #231f20; stroke-linecap: square; stroke-width: .3px;"/>
          <line y1="55.25" x2="72" y2="55.25" style="fill: none; stroke: #231f20; stroke-linecap: square; stroke-width: .3px;"/>
          <line y1="56.95" x2="72" y2="56.95" style="fill: none; stroke: #231f20; stroke-linecap: square; stroke-width: .3px;"/>
          <line y1="58.65" x2="72" y2="58.65" style="fill: none; stroke: #231f20; stroke-linecap: square; stroke-width: .3px;"/>
          <line y1="60.35" x2="72" y2="60.35" style="fill: none; stroke: #231f20; stroke-linecap: square; stroke-width: .3px;"/>
          <line y1="62.05" x2="72" y2="62.05" style="fill: none; stroke: #231f20; stroke-linecap: square; stroke-width: .3px;"/>
          <line y1="63.75" x2="72" y2="63.75" style="fill: none; stroke: #231f20; stroke-linecap: square; stroke-width: .3px;"/>
          <line y1="65.45" x2="72" y2="65.45" style="fill: none; stroke: #231f20; stroke-linecap: square; stroke-width: .3px;"/>
          <line y1="67.15" x2="72" y2="67.15" style="fill: none; stroke: #231f20; stroke-linecap: square; stroke-width: .3px;"/>
          <line y1="68.85" x2="72" y2="68.85" style="fill: none; stroke: #231f20; stroke-linecap: square; stroke-width: .3px;"/>
          <line y1="70.55" x2="72" y2="70.55" style="fill: none; stroke: #231f20; stroke-linecap: square; stroke-width: .3px;"/>
          <line y1="72.25" x2="72" y2="72.25" style="fill: none; stroke: #231f20; stroke-linecap: square; stroke-width: .3px;"/>
          <line y1="73.95" x2="72" y2="73.95" style="fill: none; stroke: #231f20; stroke-linecap: square; stroke-width: .3px;"/>
          <line x1="-72" y1=".85" y2=".85" style="fill: none; stroke: #231f20; stroke-linecap: square; stroke-width: .3px;"/>
          <line x1="-72" y1="2.55" y2="2.55" style="fill: none; stroke: #231f20; stroke-linecap: square; stroke-width: .3px;"/>
          <line x1="-72" y1="4.25" y2="4.25" style="fill: none; stroke: #231f20; stroke-linecap: square; stroke-width: .3px;"/>
          <line x1="-72" y1="5.95" y2="5.95" style="fill: none; stroke: #231f20; stroke-linecap: square; stroke-width: .3px;"/>
          <line x1="-72" y1="7.65" y2="7.65" style="fill: none; stroke: #231f20; stroke-linecap: square; stroke-width: .3px;"/>
          <line x1="-72" y1="9.35" y2="9.35" style="fill: none; stroke: #231f20; stroke-linecap: square; stroke-width: .3px;"/>
          <line x1="-72" y1="11.05" y2="11.05" style="fill: none; stroke: #231f20; stroke-linecap: square; stroke-width: .3px;"/>
          <line x1="-72" y1="12.75" y2="12.75" style="fill: none; stroke: #231f20; stroke-linecap: square; stroke-width: .3px;"/>
          <line x1="-72" y1="14.45" y2="14.45" style="fill: none; stroke: #231f20; stroke-linecap: square; stroke-width: .3px;"/>
          <line x1="-72" y1="16.15" y2="16.15" style="fill: none; stroke: #231f20; stroke-linecap: square; stroke-width: .3px;"/>
          <line x1="-72" y1="17.85" y2="17.85" style="fill: none; stroke: #231f20; stroke-linecap: square; stroke-width: .3px;"/>
          <line x1="-72" y1="19.55" y2="19.55" style="fill: none; stroke: #231f20; stroke-linecap: square; stroke-width: .3px;"/>
          <line x1="-72" y1="21.25" y2="21.25" style="fill: none; stroke: #231f20; stroke-linecap: square; stroke-width: .3px;"/>
          <line x1="-72" y1="22.95" y2="22.95" style="fill: none; stroke: #231f20; stroke-linecap: square; stroke-width: .3px;"/>
          <line x1="-72" y1="24.65" y2="24.65" style="fill: none; stroke: #231f20; stroke-linecap: square; stroke-width: .3px;"/>
          <line x1="-72" y1="26.35" y2="26.35" style="fill: none; stroke: #231f20; stroke-linecap: square; stroke-width: .3px;"/>
          <line x1="-72" y1="28.05" y2="28.05" style="fill: none; stroke: #231f20; stroke-linecap: square; stroke-width: .3px;"/>
          <line x1="-72" y1="29.75" y2="29.75" style="fill: none; stroke: #231f20; stroke-linecap: square; stroke-width: .3px;"/>
          <line x1="-72" y1="31.45" y2="31.45" style="fill: none; stroke: #231f20; stroke-linecap: square; stroke-width: .3px;"/>
          <line x1="-72" y1="33.15" y2="33.15" style="fill: none; stroke: #231f20; stroke-linecap: square; stroke-width: .3px;"/>
          <line x1="-72" y1="34.85" y2="34.85" style="fill: none; stroke: #231f20; stroke-linecap: square; stroke-width: .3px;"/>
          <line x1="-72" y1="36.55" y2="36.55" style="fill: none; stroke: #231f20; stroke-linecap: square; stroke-width: .3px;"/>
          <line x1="-72" y1="38.25" y2="38.25" style="fill: none; stroke: #231f20; stroke-linecap: square; stroke-width: .3px;"/>
          <line x1="-72" y1="39.95" y2="39.95" style="fill: none; stroke: #231f20; stroke-linecap: square; stroke-width: .3px;"/>
          <line x1="-72" y1="41.65" y2="41.65" style="fill: none; stroke: #231f20; stroke-linecap: square; stroke-width: .3px;"/>
          <line x1="-72" y1="43.35" y2="43.35" style="fill: none; stroke: #231f20; stroke-linecap: square; stroke-width: .3px;"/>
          <line x1="-72" y1="45.05" y2="45.05" style="fill: none; stroke: #231f20; stroke-linecap: square; stroke-width: .3px;"/>
          <line x1="-72" y1="46.75" y2="46.75" style="fill: none; stroke: #231f20; stroke-linecap: square; stroke-width: .3px;"/>
          <line x1="-72" y1="48.45" y2="48.45" style="fill: none; stroke: #231f20; stroke-linecap: square; stroke-width: .3px;"/>
          <line x1="-72" y1="50.15" y2="50.15" style="fill: none; stroke: #231f20; stroke-linecap: square; stroke-width: .3px;"/>
          <line x1="-72" y1="51.85" y2="51.85" style="fill: none; stroke: #231f20; stroke-linecap: square; stroke-width: .3px;"/>
          <line x1="-72" y1="53.55" y2="53.55" style="fill: none; stroke: #231f20; stroke-linecap: square; stroke-width: .3px;"/>
          <line x1="-72" y1="55.25" y2="55.25" style="fill: none; stroke: #231f20; stroke-linecap: square; stroke-width: .3px;"/>
          <line x1="-72" y1="56.95" y2="56.95" style="fill: none; stroke: #231f20; stroke-linecap: square; stroke-width: .3px;"/>
          <line x1="-72" y1="58.65" y2="58.65" style="fill: none; stroke: #231f20; stroke-linecap: square; stroke-width: .3px;"/>
          <line x1="-72" y1="60.35" y2="60.35" style="fill: none; stroke: #231f20; stroke-linecap: square; stroke-width: .3px;"/>
          <line x1="-72" y1="62.05" y2="62.05" style="fill: none; stroke: #231f20; stroke-linecap: square; stroke-width: .3px;"/>
          <line x1="-72" y1="63.75" y2="63.75" style="fill: none; stroke: #231f20; stroke-linecap: square; stroke-width: .3px;"/>
          <line x1="-72" y1="65.45" y2="65.45" style="fill: none; stroke: #231f20; stroke-linecap: square; stroke-width: .3px;"/>
          <line x1="-72" y1="67.15" y2="67.15" style="fill: none; stroke: #231f20; stroke-linecap: square; stroke-width: .3px;"/>
          <line x1="-72" y1="68.85" y2="68.85" style="fill: none; stroke: #231f20; stroke-linecap: square; stroke-width: .3px;"/>
          <line x1="-72" y1="70.55" y2="70.55" style="fill: none; stroke: #231f20; stroke-linecap: square; stroke-width: .3px;"/>
          <line x1="-72" y1="72.25" y2="72.25" style="fill: none; stroke: #231f20; stroke-linecap: square; stroke-width: .3px;"/>
          <line x1="-72" y1="73.95" y2="73.95" style="fill: none; stroke: #231f20; stroke-linecap: square; stroke-width: .3px;"/>
        </g>
      </g>
    </pattern>
    <clipPath id="clippath-3">
      <rect x="-50.86" y="-38.81" width="951.68" height="661.74" style="fill: none;"/>
    </clipPath>
    <clipPath id="clippath-4">
      <rect x="-50.86" y="-38.81" width="951.68" height="661.74" style="fill: none;"/>
    </clipPath>
    <clipPath id="clippath-5">
      <rect x="-50.86" y="-38.81" width="951.68" height="661.74" style="fill: none;"/>
    </clipPath>
    <pattern id="Unnamed_Pattern_12-2" data-name="Unnamed Pattern 12" patternTransform="translate(1157.31 1937.85) scale(.8 -.8)" xlink:href="#Unnamed_Pattern_12"/>
    <pattern id="Unnamed_Pattern_12-3" data-name="Unnamed Pattern 12" patternTransform="translate(1157.31 1937.85) scale(.8 -.8)" xlink:href="#Unnamed_Pattern_12"/>
    <pattern id="Unnamed_Pattern_12-4" data-name="Unnamed Pattern 12" patternTransform="translate(1157.31 1937.85) scale(.8 -.8)" xlink:href="#Unnamed_Pattern_12"/>
    <pattern id="Unnamed_Pattern_12-5" data-name="Unnamed Pattern 12" patternTransform="translate(1157.31 1937.85) scale(.8 -.8)" xlink:href="#Unnamed_Pattern_12"/>
    <pattern id="Unnamed_Pattern_12-6" data-name="Unnamed Pattern 12" patternTransform="translate(1157.31 1937.85) scale(.8 -.8)" xlink:href="#Unnamed_Pattern_12"/>
    <pattern id="Unnamed_Pattern_12-7" data-name="Unnamed Pattern 12" patternTransform="translate(1157.31 1937.85) scale(.8 -.8)" xlink:href="#Unnamed_Pattern_12"/>
    <pattern id="Unnamed_Pattern_12-8" data-name="Unnamed Pattern 12" patternTransform="translate(1157.31 1937.85) scale(.8 -.8)" xlink:href="#Unnamed_Pattern_12"/>
    <pattern id="Unnamed_Pattern_12-9" data-name="Unnamed Pattern 12" patternTransform="translate(1157.31 1937.85) scale(.8 -.8)" xlink:href="#Unnamed_Pattern_12"/>
    <clipPath id="clippath-6">
      <rect x="-50.86" y="-38.81" width="951.68" height="661.74" style="fill: none;"/>
    </clipPath>
    <clipPath id="clippath-7">
      <rect x="-50.86" y="-38.81" width="951.68" height="661.74" style="fill: none;"/>
    </clipPath>
    <clipPath id="clippath-8">
      <rect x="-50.86" y="-38.81" width="951.68" height="661.74" style="fill: none;"/>
    </clipPath>
    <clipPath id="clippath-9">
      <rect x="-50.86" y="-38.81" width="951.68" height="661.74" style="fill: none;"/>
    </clipPath>
    <clipPath id="clippath-10">
      <rect x="-50.86" y="-38.81" width="951.68" height="661.74" style="fill: none;"/>
    </clipPath>
  </defs>
  <g style="clip-path: url(#clippath);">
    <path d="M95.98,76.08c-5.81,0-8.72-2.83-8.72-8.42,0-2.91,1.49-4.4,4.4-4.4,3.05,0,4.54,1.42,4.54,4.17,0,3.65-2.01,4.32-4.32,4.32h-.37c-.15,0-.15.15-.15.22,0,1.34,3.8,2.46,4.62,2.46,5.81,0,7.82-6.26,7.82-11.55,0-4.17-2.23-9.09-6.78-9.09-2.61,0-4.54,1.19-5.88,3.5h-2.31v-19.07c2.83.89,5.88,1.27,9.01,1.27s6.63-.45,9.76-1.27c0,2.38-1.34,4.32-2.46,5.74-.74,1.04-4.25,1.49-7.6,1.49-3.05,0-5.96-.37-6.41-1.19v10.5c2.01-2.16,4.32-3.28,6.93-3.28,6.85,0,11.55,4.1,11.55,10.95s-6.63,13.63-13.63,13.63Z"/>
    <path d="M92.06,25.91c.2-.11.42-.16.61-.16,1.02,0,1.72.8,1.72,1.77,0,1.15-.82,2.12-1.98,2.12s-1.99-.93-1.99-2.4c0-1.98,1.51-3.22,2.66-3.62.21-.08.69-.18,1.08-.25l.06.32c-.31.07-.76.19-1.05.33-.59.27-1.5.9-1.76,2.22l.64-.33ZM92.29,26.3c-.38,0-.71.14-.93.27-.04.17-.06.41-.06.65,0,1.2.45,2.08,1.27,2.08.75,0,.98-.79.98-1.43,0-.8-.38-1.57-1.26-1.57ZM95.09,24.64c.44-.19.75-.48.75-.81s-.33-.45-.63-.51c-.07,0-.13-.14-.13-.27,0-.26.2-.43.49-.43.42,0,.84.35.84.98,0,.68-.59,1.13-1.2,1.3l-.12-.27ZM99.09,23.44c1.44,0,1.98,1.61,1.98,3.1,0,1.4-.54,3.11-1.98,3.11s-2-1.58-2-3.1c0-1.4.55-3.11,2-3.11ZM99.09,23.78c-.89,0-1.11,1.41-1.11,2.75s.27,2.78,1.11,2.78,1.09-1.43,1.09-2.77-.24-2.76-1.09-2.76ZM103.74,23.44c1.44,0,1.98,1.61,1.98,3.1,0,1.4-.54,3.11-1.98,3.11s-2-1.58-2-3.1c0-1.4.55-3.11,2-3.11ZM103.74,23.78c-.89,0-1.11,1.41-1.11,2.75s.27,2.78,1.11,2.78,1.09-1.43,1.09-2.77-.24-2.76-1.09-2.76ZM106.43,24.64c.44-.19.75-.48.75-.81s-.33-.45-.63-.51c-.07,0-.13-.14-.13-.27,0-.26.2-.43.49-.43.42,0,.84.35.84.98,0,.68-.59,1.13-1.2,1.3l-.12-.27ZM108.84,24.64c.44-.19.75-.48.75-.81s-.33-.45-.63-.51c-.07,0-.13-.14-.13-.27,0-.26.2-.43.49-.43.42,0,.84.35.84.98,0,.68-.59,1.13-1.2,1.3l-.12-.27Z"/>
    <path d="M45.44,91.06c-.15.51-.72,1.91-.91,2.27h-6.4l.08-.39c1.08-.1,1.26-.18,1.45-1.23l1.12-5.76c.21-1.08.07-1.11-1.09-1.22l.1-.39h3.66l-.07.39c-1.13.1-1.27.15-1.46,1.22l-1.06,5.54c-.19.99-.14,1.31.79,1.31h.83c.8,0,1.12-.07,1.55-.47.32-.3.69-.82,1.01-1.44l.41.17ZM51.77,89.25c0,1.44-.72,2.92-1.93,3.69-.5.3-1.08.55-1.7.55-1.31,0-1.85-1.05-1.85-2.16,0-1.91,1.02-3.27,2.22-3.87.44-.22,1.01-.37,1.42-.37,1.16,0,1.84.76,1.84,2.16ZM47.46,91.18c0,1.04.39,1.73,1.15,1.73,1.31,0,2-2.11,2-3.61,0-1.15-.5-1.63-1.16-1.63-1.38,0-1.99,2.09-1.99,3.51ZM56.63,87.84c0,.23-.19.55-.43.66-.12.06-.21.03-.32-.1-.37-.43-.72-.62-1.04-.62-.36,0-.75.29-.75.79,0,.46.41.79.91,1.17.83.65,1.19,1.01,1.19,1.62,0,1.13-1.44,2.13-2.56,2.13-.66,0-1.3-.46-1.3-.94,0-.3.33-.68.57-.7.1-.01.15.04.23.14.35.5.76.8,1.22.8.57,0,.91-.41.91-.86,0-.33-.15-.66-.8-1.2-.65-.51-1.22-.9-1.2-1.62,0-.41.17-.87.72-1.34.44-.4,1.08-.68,1.55-.68.61,0,1.09.36,1.09.75ZM59.06,93.49c-.66,0-1.56-.39-1.56-2.06,0-1.28.55-2.82,1.64-3.62.62-.44,1.27-.72,1.87-.72.79,0,1.23.5,1.23,1.11,0,1.38-2.03,2.03-3.58,2.31-.01.17-.03.44-.03.58,0,.8.22,1.58,1.08,1.58.62,0,1.37-.39,2.04-1.09l.21.35c-1.12,1.3-2.21,1.58-2.9,1.58ZM58.72,90.05c2-.36,2.47-.99,2.49-1.63,0-.47-.28-.73-.72-.73-.41,0-1.37.3-1.77,2.36ZM66.08,88.46c.43-.64,1.2-1.37,1.7-1.37s.66.88.75,2.09c.1,1.19.15,2.4.21,3.29.62-.93,2-2.89,1.99-3.9,0-.28-.14-.53-.21-.68-.07-.17-.07-.29.06-.44.14-.18.41-.36.64-.36.32,0,.51.3.51.76,0,.39-.14.95-.48,1.59-1.12,2.06-3.43,5.29-5.02,7.03l-1.44.37-.12-.32c1.38-.88,2.49-2.02,3.16-2.93-.01-1.11-.18-3.09-.3-4.35-.08-.84-.22-1.16-.36-1.16-.15,0-.53.32-.86.73l-.22-.36ZM77.97,89.25c0,1.44-.72,2.92-1.93,3.69-.5.3-1.08.55-1.7.55-1.31,0-1.85-1.05-1.85-2.16,0-1.91,1.02-3.27,2.22-3.87.44-.22,1.01-.37,1.42-.37,1.16,0,1.84.76,1.84,2.16ZM73.66,91.18c0,1.04.39,1.73,1.15,1.73,1.31,0,2-2.11,2-3.61,0-1.15-.5-1.63-1.16-1.63-1.38,0-1.99,2.09-1.99,3.51ZM85.38,92.07c-.68.94-1.58,1.41-1.96,1.41-.36,0-.53-.33-.3-1.48.11-.53.18-.83.25-1.13-.57.77-1.23,1.49-1.92,2.03-.43.32-.93.58-1.34.58-.44,0-.94-.29-.55-1.99.21-.86.46-1.88.69-2.85.11-.41.1-.54-.01-.54-.15,0-.55.29-.9.64l-.19-.35c.66-.73,1.56-1.3,1.99-1.3.39,0,.4.43.15,1.49-.23.91-.48,1.91-.68,2.75-.21.94-.12,1.2.15,1.2.48,0,1.3-.72,2-1.62.41-.53.8-1.19,1.01-2,.08-.32.22-.88.33-1.48.28-.08.7-.23.99-.36h.15c-.41,1.6-.93,3.7-1.13,4.89-.04.33,0,.47.1.47.12,0,.46-.17.97-.7l.21.33ZM86.47,88.41c.69-.82,1.42-1.31,1.82-1.31.47,0,.43.73.17,1.92l-.08.37c.75-1.27,1.7-2.29,2.25-2.29.33,0,.64.28.64.62,0,.3-.29.72-.54.88-.12.08-.23.08-.3,0-.15-.17-.29-.4-.46-.4-.32,0-.99.98-1.31,1.55-.48.87-.73,2.14-1.01,3.47-.3.06-.73.18-1.01.28l-.1-.1c.33-1.27.82-3.37,1.01-4.38.15-.77.11-.9.01-.9-.14,0-.48.22-.9.64l-.19-.35ZM95.39,87.84c0,.23-.19.55-.43.66-.12.06-.21.03-.32-.1-.37-.43-.72-.62-1.04-.62-.36,0-.75.29-.75.79,0,.46.41.79.91,1.17.83.65,1.19,1.01,1.19,1.62,0,1.13-1.44,2.13-2.56,2.13-.66,0-1.3-.46-1.3-.94,0-.3.33-.68.57-.7.1-.01.15.04.23.14.35.5.76.8,1.22.8.57,0,.91-.41.91-.86,0-.33-.15-.66-.8-1.2-.65-.51-1.22-.9-1.2-1.62,0-.41.17-.87.72-1.34.44-.4,1.08-.68,1.55-.68.61,0,1.09.36,1.09.75ZM97.83,93.49c-.66,0-1.56-.39-1.56-2.06,0-1.28.55-2.82,1.64-3.62.62-.44,1.27-.72,1.87-.72.79,0,1.23.5,1.23,1.11,0,1.38-2.03,2.03-3.58,2.31-.01.17-.03.44-.03.58,0,.8.22,1.58,1.08,1.58.62,0,1.37-.39,2.04-1.09l.21.35c-1.12,1.3-2.21,1.58-2.9,1.58ZM97.48,90.05c2-.36,2.47-.99,2.49-1.63,0-.47-.28-.73-.72-.73-.41,0-1.37.3-1.77,2.36ZM104.22,92.07c-.69.93-1.6,1.42-2,1.42-.35,0-.55-.28-.28-1.6.5-2.36,1.04-4.86,1.48-6.99.11-.55.07-.61-.43-.65-.15-.01-.4-.04-.51-.04l.08-.36c.59-.07,1.3-.21,1.69-.35.25-.1.33-.11.41-.11.12,0,.12.12.06.44-.62,2.65-1.3,5.8-1.75,8.11-.08.39-.07.51.04.51.12,0,.51-.19,1.01-.73l.21.35ZM106.57,87.26c.21-1.04.53-2.04,1.19-2.78.64-.72,1.45-1.09,2-1.09.48,0,.88.28.88.57,0,.21-.23.55-.41.69-.11.08-.22.1-.32,0-.32-.35-.66-.53-.95-.53-.53,0-.9.58-1.33,3.14h1.56l-.26.5c-.23.01-1.01.07-1.38.07-.26,1.52-.41,2.4-.72,4.03-.47,2.45-.98,3.4-1.74,4.19-.61.66-1.27.91-1.6.91-.51,0-.88-.26-.88-.61,0-.23.19-.59.43-.76.1-.07.21-.07.26,0,.28.23.55.47.9.47.79,0,1.02-.97,1.49-3.72.33-1.88.55-3.15.77-4.52h-1.17v-.17s.4-.4.4-.4h.88ZM113.67,87.26c.21-1.04.53-2.04,1.19-2.78.64-.72,1.45-1.09,2-1.09.48,0,.88.28.88.57,0,.21-.23.55-.41.69-.11.08-.22.1-.32,0-.32-.35-.66-.53-.95-.53-.53,0-.9.58-1.33,3.14h1.56l-.26.5c-.23.01-1.01.07-1.38.07-.26,1.52-.41,2.4-.72,4.03-.47,2.45-.98,3.4-1.74,4.19-.61.66-1.27.91-1.6.91-.51,0-.88-.26-.88-.61,0-.23.19-.59.43-.76.1-.07.21-.07.26,0,.28.23.55.47.9.47.79,0,1.02-.97,1.49-3.72.33-1.88.55-3.15.77-4.52h-1.17v-.17s.4-.4.4-.4h.88ZM121.56,89.25c0,1.44-.72,2.92-1.93,3.69-.5.3-1.08.55-1.7.55-1.31,0-1.85-1.05-1.85-2.16,0-1.91,1.02-3.27,2.22-3.87.44-.22,1.01-.37,1.42-.37,1.16,0,1.84.76,1.84,2.16ZM117.25,91.18c0,1.04.39,1.73,1.15,1.73,1.31,0,2-2.11,2-3.61,0-1.15-.5-1.63-1.16-1.63-1.38,0-1.99,2.09-1.99,3.51ZM122.69,88.41c.69-.82,1.42-1.31,1.82-1.31.47,0,.43.73.17,1.92l-.08.37c.75-1.27,1.7-2.29,2.25-2.29.33,0,.64.28.64.62,0,.3-.29.72-.54.88-.12.08-.23.08-.3,0-.15-.17-.29-.4-.46-.4-.32,0-.99.98-1.31,1.55-.48.87-.73,2.14-1.01,3.47-.3.06-.73.18-1.01.28l-.1-.1c.33-1.27.82-3.37,1.01-4.38.15-.77.11-.9.01-.9-.14,0-.48.22-.9.64l-.19-.35ZM133.98,91.65c-.15.77-.21,1.13.65,1.23.12.01.53.04.68.06l-.1.39h-4.21l.08-.39c.11-.01.5-.03.61-.04.9-.11,1.01-.21,1.22-1.24l1.01-5.14c.15-.79.07-.84-.73-.86-.14,0-.4-.01-.54-.01l.08-.37c.88-.12,1.82-.37,2.64-.72l-1.38,7.1ZM138.25,86.22c.68-.26,1.23-.69,1.23-1.22,0-.4-.3-.51-.68-.66-.15-.06-.19-.22-.18-.36.01-.37.33-.61.7-.61.5,0,1.02.44,1.01,1.26-.01,1.08-1.11,1.75-1.95,1.98l-.14-.39Z"/>
    <path d="M732.92,524.62c-9.31,0-11.84-10.35-11.84-18.77,0-7.9,3.65-18.92,12.37-18.92,5.36,0,9.16,3.05,9.16,8.42,0,3.95-2.09,4.69-4.69,4.69s-4.02-1.56-4.02-4.69c0-2.38,2.01-4.69,4.17-4.69.3,0,.3-.15.3-.3,0-1.64-2.31-2.16-4.92-2.16-5.14,0-6.33,8.42-6.33,12.96,0,3.43.37,5.36,1.19,5.81,1.71-2.38,4.1-3.58,7.3-3.58,5.21,0,8.04,5.36,8.04,10.13,0,6.26-4.39,11.1-10.73,11.1ZM733.07,505.32c-3.05,0-4.62,2.83-4.62,8.49,0,6.18,1.56,9.31,4.62,9.31s4.4-3.13,4.4-9.46c0-5.59-1.49-8.34-4.4-8.34Z"/>
    <path d="M728.29,472.29c-.92,1.95-1.81,3.88-2.74,5.87l-.69.07-.07-.11c1-1.62,2.05-3.61,2.81-5.25h-2.05c-.62,0-.66.09-.92.72h-.3c.1-.54.13-1.02.18-1.43h3.72l.06.12ZM728.91,473.25c.44-.19.75-.48.75-.81s-.33-.45-.63-.51c-.07,0-.13-.14-.13-.27,0-.26.2-.43.49-.43.42,0,.84.35.84.98,0,.68-.59,1.13-1.2,1.3l-.12-.27ZM732.9,472.05c1.44,0,1.98,1.61,1.98,3.1,0,1.4-.54,3.11-1.98,3.11s-2-1.58-2-3.1c0-1.4.55-3.11,2-3.11ZM732.9,472.39c-.89,0-1.11,1.41-1.11,2.75s.27,2.78,1.11,2.78,1.09-1.43,1.09-2.77-.24-2.76-1.09-2.76ZM737.56,472.05c1.44,0,1.98,1.61,1.98,3.1,0,1.4-.54,3.11-1.98,3.11s-2-1.58-2-3.1c0-1.4.55-3.11,2-3.11ZM737.56,472.39c-.89,0-1.11,1.41-1.11,2.75s.27,2.78,1.11,2.78,1.09-1.43,1.09-2.77-.24-2.76-1.09-2.76ZM740.24,473.25c.44-.19.75-.48.75-.81s-.33-.45-.63-.51c-.07,0-.13-.14-.13-.27,0-.26.2-.43.49-.43.42,0,.84.35.84.98,0,.68-.59,1.13-1.2,1.3l-.12-.27ZM742.66,473.25c.44-.19.75-.48.75-.81s-.33-.45-.63-.51c-.07,0-.13-.14-.13-.27,0-.26.2-.43.49-.43.42,0,.84.35.84.98,0,.68-.59,1.13-1.2,1.3l-.12-.27Z"/>
    <g style="clip-path: url(#clippath-1);">
      <path d="M403.59,218.32c-4.38-2.66-29.46-4.86-44.47-23.37-.02.05-.03.1-.05.15.56,2.37,1.71,6.79,3.93,11.98,17.57,41.21,71.52,60.66,77.35,53.24,2.28-2.9-2.57-10.16-7.79-18-9.46-14.19-22.74-20.21-28.97-23.99" style="fill: url(#Unnamed_Pattern_12);"/>
      <path d="M403.59,218.32c-4.38-2.66-29.46-4.86-44.47-23.37-.02.05-.03.1-.05.15.56,2.37,1.71,6.79,3.93,11.98,17.57,41.21,71.52,60.66,77.35,53.24,2.28-2.9-2.57-10.16-7.79-18-9.46-14.19-22.74-20.21-28.97-23.99Z" style="fill: none; stroke: #000; stroke-miterlimit: 10; stroke-width: .4px;"/>
      <path d="M528.48,385.18c0,2.12-1.72,3.84-3.84,3.84s-3.84-1.72-3.84-3.84,1.72-3.85,3.84-3.85,3.84,1.72,3.84,3.85"/>
      <path d="M528.48,385.18c0,2.12-1.72,3.84-3.84,3.84s-3.84-1.72-3.84-3.84,1.72-3.85,3.84-3.85,3.84,1.72,3.84,3.85Z" style="fill: none; stroke: #000; stroke-linejoin: bevel; stroke-width: .4px;"/>
      <path d="M303.07,244.68c26.71-1.66,31.54-35.37,54.08-49.12" style="fill: none; stroke: #000; stroke-miterlimit: 10; stroke-width: .4px;"/>
      <path d="M303.23,246.15c-.83.05-1.54-.58-1.59-1.41-.05-.83.58-1.54,1.41-1.59.83-.05,1.54.58,1.59,1.41s-.58,1.54-1.41,1.59"/>
      <polygon points="356.93 197.42 356.74 195.82 355.45 194.86 359.23 194.39 356.93 197.42"/>
      <line x1="426.61" y1="312.27" x2="428.4" y2="314.07" style="fill: none; stroke: #000; stroke-miterlimit: 10; stroke-width: .6px;"/>
      <line x1="428.4" y1="312.27" x2="426.61" y2="314.07" style="fill: none; stroke: #000; stroke-miterlimit: 10; stroke-width: .6px;"/>
      <line x1="418.65" y1="335.45" x2="420.45" y2="337.25" style="fill: none; stroke: #000; stroke-miterlimit: 10; stroke-width: .6px;"/>
      <line x1="420.45" y1="335.45" x2="418.66" y2="337.25" style="fill: none; stroke: #000; stroke-miterlimit: 10; stroke-width: .6px;"/>
      <line x1="431.76" y1="299.22" x2="433.56" y2="297.42" style="fill: none; stroke: #000; stroke-miterlimit: 10; stroke-width: .6px;"/>
      <line x1="431.76" y1="297.42" x2="433.56" y2="299.22" style="fill: none; stroke: #000; stroke-miterlimit: 10; stroke-width: .6px;"/>
      <line x1="454.49" y1="320.21" x2="456.28" y2="318.41" style="fill: none; stroke: #000; stroke-miterlimit: 10; stroke-width: .6px;"/>
      <line x1="454.49" y1="318.41" x2="456.28" y2="320.21" style="fill: none; stroke: #000; stroke-miterlimit: 10; stroke-width: .6px;"/>
      <line x1="441.65" y1="311.02" x2="443.44" y2="309.23" style="fill: none; stroke: #000; stroke-miterlimit: 10; stroke-width: .6px;"/>
      <line x1="441.65" y1="309.23" x2="443.44" y2="311.02" style="fill: none; stroke: #000; stroke-miterlimit: 10; stroke-width: .6px;"/>
      <line x1="411.11" y1="319.88" x2="412.9" y2="318.08" style="fill: none; stroke: #000; stroke-miterlimit: 10; stroke-width: .6px;"/>
      <line x1="411.11" y1="318.08" x2="412.9" y2="319.88" style="fill: none; stroke: #000; stroke-miterlimit: 10; stroke-width: .6px;"/>
      <line x1="422.1" y1="350.59" x2="423.89" y2="348.79" style="fill: none; stroke: #000; stroke-miterlimit: 10; stroke-width: .6px;"/>
      <line x1="422.1" y1="348.79" x2="423.89" y2="350.59" style="fill: none; stroke: #000; stroke-miterlimit: 10; stroke-width: .6px;"/>
      <line x1="437.45" y1="346.09" x2="439.24" y2="344.29" style="fill: none; stroke: #000; stroke-miterlimit: 10; stroke-width: .6px;"/>
      <line x1="437.45" y1="344.29" x2="439.24" y2="346.09" style="fill: none; stroke: #000; stroke-miterlimit: 10; stroke-width: .6px;"/>
      <line x1="449.56" y1="348.35" x2="451.35" y2="346.56" style="fill: none; stroke: #000; stroke-miterlimit: 10; stroke-width: .6px;"/>
      <line x1="449.56" y1="346.56" x2="451.35" y2="348.35" style="fill: none; stroke: #000; stroke-miterlimit: 10; stroke-width: .6px;"/>
      <line x1="419.46" y1="307.65" x2="421.25" y2="305.86" style="fill: none; stroke: #000; stroke-miterlimit: 10; stroke-width: .6px;"/>
      <line x1="419.46" y1="305.86" x2="421.25" y2="307.65" style="fill: none; stroke: #000; stroke-miterlimit: 10; stroke-width: .6px;"/>
      <line x1="431.97" y1="311.18" x2="433.77" y2="309.39" style="fill: none; stroke: #000; stroke-miterlimit: 10; stroke-width: .6px;"/>
      <line x1="431.97" y1="309.39" x2="433.77" y2="311.18" style="fill: none; stroke: #000; stroke-miterlimit: 10; stroke-width: .6px;"/>
      <line x1="422.91" y1="327.91" x2="424.71" y2="329.71" style="fill: none; stroke: #000; stroke-miterlimit: 10; stroke-width: .6px;"/>
      <line x1="424.71" y1="327.91" x2="422.91" y2="329.71" style="fill: none; stroke: #000; stroke-miterlimit: 10; stroke-width: .6px;"/>
      <line x1="428.26" y1="329.93" x2="430.05" y2="328.14" style="fill: none; stroke: #000; stroke-miterlimit: 10; stroke-width: .6px;"/>
      <line x1="428.26" y1="328.13" x2="430.05" y2="329.93" style="fill: none; stroke: #000; stroke-miterlimit: 10; stroke-width: .6px;"/>
      <line x1="439.27" y1="320.89" x2="441.07" y2="319.09" style="fill: none; stroke: #000; stroke-miterlimit: 10; stroke-width: .6px;"/>
      <line x1="439.27" y1="319.09" x2="441.07" y2="320.89" style="fill: none; stroke: #000; stroke-miterlimit: 10; stroke-width: .6px;"/>
      <line x1="455.38" y1="333.64" x2="457.17" y2="331.84" style="fill: none; stroke: #000; stroke-miterlimit: 10; stroke-width: .6px;"/>
      <line x1="455.38" y1="331.84" x2="457.17" y2="333.64" style="fill: none; stroke: #000; stroke-miterlimit: 10; stroke-width: .6px;"/>
      <line x1="345.2" y1="319.4" x2="403.44" y2="319.4" style="fill: none; stroke: #000; stroke-miterlimit: 10; stroke-width: .6px;"/>
      <path d="M407.06,319.4c-1.7.63-3.81,1.71-5.12,2.85l1.03-2.85-1.03-2.85c1.31,1.14,3.42,2.22,5.12,2.85"/>
      <path d="M366.9,319.4c7.57,0,16.77-5.24,25.01-8.29,7.11-2.63,14.63-4.84,22.21-4.82" style="fill: none; stroke: #000; stroke-miterlimit: 10; stroke-width: .6px;"/>
      <path d="M417.74,306.48c-1.73.56-3.88,1.55-5.24,2.63l1.15-2.8-.91-2.89c1.26,1.19,3.32,2.36,5,3.06"/>
      <path d="M417.28,329.77c-5.07.2-10.21-1.25-14.99-3.1-5.92-2.29-11.64-5.22-17.84-6.61-4.03-.9-7.91-.42-12.32-.67" style="fill: none; stroke: #000; stroke-miterlimit: 10; stroke-width: .6px;"/>
      <path d="M420.87,329.34c-1.76-.45-3.97-1.29-5.4-2.29l1.33,2.72-.72,2.94c1.18-1.27,3.17-2.57,4.79-3.38"/>
      <path d="M352.71,319.4c6.51-.45,12.85,2.19,18.61,5.33,5.76,3.14,11.28,6.87,17.49,8.94,6.37,2.12,13.14,2.39,19.86,2.25" style="fill: none; stroke: #000; stroke-miterlimit: 10; stroke-width: .6px;"/>
      <path d="M412.29,335.8c-1.69.67-3.77,1.8-5.06,2.97l.97-2.87-1.1-2.82c1.34,1.11,3.47,2.14,5.19,2.73"/>
      <path d="M396.49,309.51c8.11-2.4,14.73-8.25,22.36-11.79,1.12-.52,2.25-.99,3.39-1.43" style="fill: none; stroke: #000; stroke-miterlimit: 10; stroke-width: .6px;"/>
      <polygon points="422.48 299.43 426.3 294.83 420.41 293.82 422.48 299.43"/>
      <path d="M358.69,319.4c7.89-.48,15.91,1.45,22.71,5.47,5.8,3.43,10.63,8.26,15.78,12.61,4.22,3.57,8.85,6.91,14.03,8.7" style="fill: none; stroke: #000; stroke-miterlimit: 10; stroke-width: .6px;"/>
      <path d="M414.71,347.13c-1.81.14-4.14.6-5.71,1.34l1.77-2.46-.21-3.02c.95,1.46,2.68,3.07,4.15,4.14"/>
      <path d="M268.86,377.76c0,4.48-3.64,8.12-8.12,8.12s-8.12-3.64-8.12-8.12,3.63-8.12,8.12-8.12,8.12,3.64,8.12,8.12Z" style="fill: none; stroke: #000; stroke-miterlimit: 10; stroke-width: .4px;"/>
      <line x1="260.74" y1="360.91" x2="260.74" y2="373.04" style="fill: none; stroke: #000; stroke-miterlimit: 10; stroke-width: .4px;"/>
      <line x1="522.47" y1="319.37" x2="464.23" y2="319.37" style="fill: none; stroke: #000; stroke-miterlimit: 10; stroke-width: .6px;"/>
      <path d="M460.61,319.37c1.7-.63,3.81-1.71,5.12-2.85l-1.03,2.85,1.03,2.85c-1.31-1.14-3.42-2.22-5.12-2.85"/>
      <path d="M500.77,319.37c-6.29,0-13.94,5.24-20.78,8.29-5.72,2.54-11.76,4.7-17.85,4.82" style="fill: none; stroke: #000; stroke-miterlimit: 10; stroke-width: .6px;"/>
      <path d="M458.52,332.29c1.72-.57,3.87-1.57,5.22-2.67l-1.13,2.81.93,2.88c-1.27-1.19-3.34-2.34-5.02-3.03"/>
      <path d="M450.39,309c5.07-.2,10.21,1.25,14.99,3.1,5.92,2.29,11.64,5.22,17.84,6.61,4.03.9,7.91.42,12.32.67" style="fill: none; stroke: #000; stroke-miterlimit: 10; stroke-width: .6px;"/>
      <path d="M446.8,309.43c1.76.45,3.97,1.29,5.4,2.29l-1.33-2.72.72-2.94c-1.18,1.27-3.17,2.57-4.79,3.38"/>
      <path d="M514.96,319.37c-6.51.45-12.85-2.19-18.61-5.33-5.76-3.14-11.28-6.87-17.49-8.94-6.37-2.12-13.14-2.39-19.86-2.25" style="fill: none; stroke: #000; stroke-miterlimit: 10; stroke-width: .6px;"/>
      <path d="M455.38,302.97c1.69-.67,3.77-1.8,5.06-2.97l-.97,2.87,1.1,2.82c-1.34-1.11-3.47-2.14-5.19-2.73"/>
      <path d="M509.78,319.37c-8.08.15-15.91,1.81-22.71,5.83-5.8,3.43-10.63,8.26-15.78,12.61-4.22,3.57-8.85,6.91-14.03,8.7" style="fill: none; stroke: #000; stroke-miterlimit: 10; stroke-width: .6px;"/>
      <path d="M453.76,347.45c1.46-1.07,3.2-2.69,4.15-4.14l-.21,3.02,1.77,2.46c-1.57-.74-3.9-1.2-5.71-1.34"/>
      <path d="M498.31,319.54c-7.61.58-14.45,2.61-17.54,3.92-8.51,3.61-11.99,2.85-20.69,3.02-8.03.15-16.25-.57-24.01,1.16" style="fill: none; stroke: #000; stroke-miterlimit: 10; stroke-width: .6px;"/>
      <path d="M432.58,328.6c1.48-1.05,3.24-2.63,4.21-4.08l-.26,3.02,1.73,2.49c-1.56-.76-3.88-1.26-5.68-1.43"/>
      <line x1="448.95" y1="301.93" x2="450.74" y2="303.73" style="fill: none; stroke: #000; stroke-miterlimit: 10; stroke-width: .6px;"/>
      <line x1="450.74" y1="301.93" x2="448.95" y2="303.73" style="fill: none; stroke: #000; stroke-miterlimit: 10; stroke-width: .6px;"/>
      <circle cx="275.12" cy="377.76" r="4.06" style="fill: none; stroke: #000; stroke-miterlimit: 10; stroke-width: .4px;"/>
      <line x1="275.12" y1="368.86" x2="275.12" y2="376.25" style="fill: none; stroke: #000; stroke-miterlimit: 10; stroke-width: .4px;"/>
      <path d="M285.14,377.76c0,1.12-.91,2.03-2.03,2.03s-2.03-.91-2.03-2.03.91-2.03,2.03-2.03,2.03.91,2.03,2.03Z" style="fill: none; stroke: #000; stroke-miterlimit: 10; stroke-width: .4px;"/>
      <line x1="283.11" y1="373.23" x2="283.11" y2="376.93" style="fill: none; stroke: #000; stroke-miterlimit: 10; stroke-width: .4px;"/>
      <path d="M289.16,377.76c0,.56-.45,1.02-1.02,1.02s-1.01-.45-1.01-1.02.45-1.02,1.01-1.02,1.02.45,1.02,1.02Z" style="fill: none; stroke: #000; stroke-miterlimit: 10; stroke-width: .4px;"/>
      <line x1="288.14" y1="375.82" x2="288.14" y2="377.67" style="fill: none; stroke: #000; stroke-miterlimit: 10; stroke-width: .4px;"/>
      <path d="M362.63,460.81s-22.28,7.78-45.66,6.39c23.47,1.5,45.98,7.73,45.98,7.73l19.45-7.08-19.77-7.05Z" style="fill: url(#Unnamed_Pattern_12);"/>
      <path d="M362.63,460.81s-22.28,7.78-45.66,6.39c23.47,1.5,45.98,7.73,45.98,7.73l19.45-7.08-19.77-7.05Z" style="fill: none; stroke: #000; stroke-miterlimit: 10; stroke-width: .4px;"/>
      <line x1="522.31" y1="385.07" x2="607.12" y2="385.07" style="fill: none; stroke: #000; stroke-linejoin: bevel; stroke-width: .4px;"/>
      <path d="M609.53,385.07c-1.13.42-2.54,1.14-3.41,1.9l.69-1.9-.69-1.9c.87.76,2.28,1.48,3.41,1.9"/>
      <path d="M524.88,403.92c.85,0,1.63.09,2.32.26l-2.55-8.9-2.59,9.04c.82-.26,1.76-.4,2.82-.4Z" style="fill: none; stroke: #000; stroke-miterlimit: 10; stroke-width: .4px;"/>
      <line x1="539.82" y1="368.44" x2="594.65" y2="368.44" style="fill: none; stroke: #000; stroke-miterlimit: 10; stroke-width: .4px;"/>
      <line x1="549.88" y1="356.22" x2="604.19" y2="356.22" style="fill: none; stroke: #000; stroke-miterlimit: 10; stroke-width: .4px;"/>
      <line x1="557.52" y1="351.97" x2="609.53" y2="351.97" style="fill: none; stroke: #000; stroke-miterlimit: 10; stroke-width: .4px;"/>
      <line x1="563.01" y1="348.15" x2="612.91" y2="348.15" style="fill: none; stroke: #000; stroke-miterlimit: 10; stroke-width: .4px;"/>
      <path d="M587.16,172.84c0,2.3-1.87,4.17-4.17,4.17s-4.17-1.87-4.17-4.17,1.87-4.17,4.17-4.17,4.17,1.87,4.17,4.17"/>
      <path d="M587.16,172.84c0,2.3-1.87,4.17-4.17,4.17s-4.17-1.87-4.17-4.17,1.87-4.17,4.17-4.17,4.17,1.87,4.17,4.17Z" style="fill: none; stroke: #000; stroke-linejoin: bevel; stroke-width: .4px;"/>
      <path d="M584.37,164.8c0,1.15-.93,2.09-2.09,2.09s-2.09-.93-2.09-2.09.93-2.09,2.09-2.09,2.09.93,2.09,2.09"/>
      <circle cx="582.28" cy="164.8" r="2.09" style="fill: none; stroke: #000; stroke-linejoin: bevel; stroke-width: .4px;"/>
      <path d="M582.99,157.81c0,1.15-.93,2.09-2.09,2.09s-2.09-.93-2.09-2.09.93-2.09,2.09-2.09,2.09.93,2.09,2.09"/>
      <circle cx="580.9" cy="157.81" r="2.09" style="fill: none; stroke: #000; stroke-linejoin: bevel; stroke-width: .4px;"/>
      <path d="M586.45,152.15c0,1.15-.93,2.09-2.09,2.09s-2.09-.93-2.09-2.09.93-2.09,2.09-2.09,2.09.93,2.09,2.09"/>
      <circle cx="584.37" cy="152.15" r="2.09" style="fill: none; stroke: #000; stroke-linejoin: bevel; stroke-width: .4px;"/>
      <path d="M676.09,159.85c-27.42,0-42,0-64.82-1.02-22.83-1.02-30.37-1.02-30.37-1.02" style="fill: none; stroke: #000; stroke-miterlimit: 10; stroke-width: .4px;"/>
      <path d="M581.74,164.73c11.33.34,22.65-.6,33.27-1.75,10.62-1.15,22.46-3.13,32.22-3.13" style="fill: none; stroke: #000; stroke-miterlimit: 10; stroke-width: .4px;"/>
      <path d="M666.11,159.85c-8.94.21-17.65-1.02-25.56-2.48-7.91-1.46-15.49-3.2-24.02-4.16-10.31-1.16-21.4-1.13-32.24-1" style="fill: none; stroke: #000; stroke-miterlimit: 10; stroke-width: .4px;"/>
      <path d="M659.21,159.85c-10.74.07-21.15.83-30.2,2.68-7.72,1.58-14.13,3.8-20.98,5.8-6.85,2-14.5,3.85-23.3,4.43" style="fill: none; stroke: #000; stroke-miterlimit: 10; stroke-width: .4px;"/>
      <path d="M585.14,213.22c0,1.15-.93,2.08-2.08,2.08s-2.08-.93-2.08-2.08.93-2.08,2.08-2.08,2.08.93,2.08,2.08Z" style="fill: none; stroke: #000; stroke-miterlimit: 10; stroke-width: .4px;"/>
      <path d="M585.14,207.17c0,1.15-.93,2.08-2.08,2.08s-2.08-.93-2.08-2.08.93-2.08,2.08-2.08,2.08.93,2.08,2.08"/>
      <path d="M585.14,207.17c0,1.15-.93,2.08-2.08,2.08s-2.08-.93-2.08-2.08.93-2.08,2.08-2.08,2.08.93,2.08,2.08Z" style="fill: none; stroke: #000; stroke-miterlimit: 10; stroke-width: .4px;"/>
      <path d="M585.14,219.27c0,1.15-.93,2.08-2.08,2.08s-2.08-.93-2.08-2.08.93-2.08,2.08-2.08,2.08.93,2.08,2.08Z" style="fill: none; stroke: #000; stroke-miterlimit: 10; stroke-width: .4px;"/>
      <path d="M585.14,193.51c0,1.15-.93,2.08-2.08,2.08s-2.08-.93-2.08-2.08.93-2.08,2.08-2.08,2.08.93,2.08,2.08"/>
      <path d="M585.14,193.51c0,1.15-.93,2.08-2.08,2.08s-2.08-.93-2.08-2.08.93-2.08,2.08-2.08,2.08.93,2.08,2.08Z" style="fill: none; stroke: #000; stroke-miterlimit: 10; stroke-width: .4px;"/>
      <path d="M585.14,187.46c0,1.15-.93,2.08-2.08,2.08s-2.08-.93-2.08-2.08.93-2.08,2.08-2.08,2.08.93,2.08,2.08"/>
      <path d="M585.14,187.46c0,1.15-.93,2.08-2.08,2.08s-2.08-.93-2.08-2.08.93-2.08,2.08-2.08,2.08.93,2.08,2.08Z" style="fill: none; stroke: #000; stroke-miterlimit: 10; stroke-width: .4px;"/>
      <path d="M585.14,199.56c0,1.15-.93,2.08-2.08,2.08s-2.08-.93-2.08-2.08.93-2.08,2.08-2.08,2.08.93,2.08,2.08"/>
      <path d="M585.14,199.56c0,1.15-.93,2.08-2.08,2.08s-2.08-.93-2.08-2.08.93-2.08,2.08-2.08,2.08.93,2.08,2.08Z" style="fill: none; stroke: #000; stroke-miterlimit: 10; stroke-width: .4px;"/>
      <line x1="579.31" y1="203.29" x2="587.09" y2="203.29" style="fill: none; stroke: #000; stroke-miterlimit: 10; stroke-width: .4px;"/>
    </g>
    <path d="M576.88,218.92v1.29c-.63-.53-1.28-.79-1.96-.79-.74,0-1.37.27-1.88.8-.51.53-.77,1.18-.77,1.95s.26,1.4.77,1.92c.51.52,1.14.78,1.88.78.38,0,.71-.06.98-.19.15-.06.3-.15.47-.25.16-.11.33-.23.51-.38v1.32c-.62.35-1.28.53-1.97.53-1.03,0-1.92-.36-2.65-1.08-.73-.73-1.09-1.6-1.09-2.63,0-.92.3-1.74.91-2.46.75-.88,1.72-1.33,2.91-1.33.65,0,1.28.18,1.88.53Z"/>
    <path d="M589.6,205.09v-7.23h1.09c.48,0,.87.04,1.16.11.29.07.54.2.74.38.2.18.36.41.48.69.12.28.18.56.18.84,0,.52-.2.96-.59,1.32.38.13.69.36.91.69.22.32.34.7.34,1.13,0,.56-.2,1.04-.6,1.43-.24.24-.51.41-.81.5-.33.09-.74.14-1.23.14h-1.65ZM590.69,200.96h.34c.41,0,.7-.09.89-.27.19-.18.28-.44.28-.79s-.1-.6-.29-.78c-.19-.18-.47-.26-.84-.26h-.38v2.1ZM590.69,204.06h.67c.49,0,.86-.1,1.09-.29.24-.21.37-.47.37-.8s-.12-.57-.35-.79c-.23-.21-.63-.31-1.22-.31h-.55v2.19Z"/>
    <path d="M596.64,203.48c-.16.17-.55.49-1.13.94-.52.41-.89.76-1.11,1.04v-7.89h.44v4.26c.34-.3.74-.44,1.21-.44.61,0,1.11.34,1.11.98,0,.37-.17.74-.52,1.1ZM595.92,201.86c-.33,0-.7.16-1.08.5v2.12c.34-.26.64-.55.93-.84.51-.52.76-.91.76-1.17,0-.4-.2-.6-.6-.6Z"/>
    <g style="clip-path: url(#clippath-3);">
      <path d="M611.69,306.95c0,2.73-2.22,4.95-4.95,4.95s-4.95-2.22-4.95-4.95,2.22-4.95,4.95-4.95,4.95,2.22,4.95,4.95"/>
      <circle cx="606.74" cy="306.95" r="4.95" style="fill: none; stroke: #000; stroke-linejoin: bevel; stroke-width: .4px;"/>
      <path d="M665.81,249.83c-1.22,31.78-26.47,57.11-57.5,57.11" style="fill: none; stroke: #000; stroke-linejoin: bevel; stroke-width: .4px;"/>
      <path d="M665.86,247.42c-.45,1.12-1.2,2.51-1.98,3.37l1.92-.64,1.88.73c-.74-.89-1.42-2.32-1.82-3.46"/>
    </g>
    <path d="M189.47,171.04v-7.23h1.09c.48,0,.87.04,1.16.11.29.07.54.2.74.38.2.18.36.41.48.69.12.28.18.56.18.84,0,.52-.2.96-.59,1.32.38.13.69.36.91.69.22.32.34.7.34,1.13,0,.56-.2,1.04-.6,1.43-.24.24-.51.41-.81.5-.33.09-.74.14-1.23.14h-1.65ZM190.56,166.92h.34c.41,0,.7-.09.89-.27.19-.18.28-.44.28-.79s-.1-.6-.29-.78c-.19-.18-.47-.26-.84-.26h-.38v2.1ZM190.56,170.02h.67c.49,0,.86-.1,1.09-.29.24-.21.37-.47.37-.8s-.12-.57-.35-.79c-.23-.21-.63-.31-1.22-.31h-.55v2.19Z"/>
    <g>
      <path d="M196.67,168.27h2.09v.92h-2.09v-.92Z"/>
      <path d="M205.48,163.56l.8.6-1.73,2.35c.09-.01.17-.02.24-.03.07,0,.12,0,.15,0,.59,0,1.09.22,1.52.67.42.44.64.98.64,1.6,0,.66-.24,1.23-.71,1.7-.47.47-1.04.71-1.7.71s-1.23-.23-1.72-.7c-.48-.47-.73-1.02-.73-1.65,0-.57.24-1.18.71-1.82l2.53-3.43ZM206.04,168.82c0-.38-.13-.71-.4-.97s-.59-.4-.97-.4-.7.13-.97.4c-.27.26-.4.59-.4.96s.13.7.4.96c.26.27.59.4.97.4s.69-.13.96-.4c.27-.27.4-.58.4-.95Z"/>
    </g>
    <line x1="211" y1="217.95" x2="245.54" y2="217.95" style="fill: none; stroke: #000; stroke-miterlimit: 10; stroke-width: 2.4px;"/>
    <g style="clip-path: url(#clippath-4);">
      <path d="M245.51,198.18c-1.48,0-15.14,21.97-34.48,19.07" style="fill: none; stroke: #000; stroke-miterlimit: 10; stroke-width: 1.6px;"/>
      <path d="M217.39,217.43c16.62,1.62,28.36-10.12,29.63-10.12" style="fill: none; stroke: #000; stroke-miterlimit: 10; stroke-width: 1.6px;"/>
    </g>
    <path d="M287.82,245.11l1.03-.37s.05-.02.07-.02c.21,0,.3.41.3.87,0,.5-.11,1.08-.37,1.17l-1.03.37v3.54c0,.12-.12.16-.23.16s-.23-.05-.23-.16v-3.38l-2.02.74v3.29c0,.14-.14.18-.25.18s-.23-.05-.23-.18v-3.1l-1.06.41c-.18,0-.28-.46-.28-.94s.09-.99.28-1.1l1.06-.39v-4.09l-1.06.39c-.28,0-.3-.51-.3-.74v-.09c0-.51.12-1.06.3-1.17l1.06-.44v-3.26c0-.09.12-.16.23-.16s.25.07.25.16v3.1l2.02-.76v-3.08c0-.12.12-.18.23-.18s.23.07.23.18v2.92l1.03-.37s.05-.02.07-.02c.21,0,.3.44.3.9,0,.51-.11,1.08-.37,1.17l-1.03.37v4.09ZM285.46,241.96v4.07l1.79-.74v-4.09l-1.79.76Z"/>
    <path d="M291.2,254.12l-.12-14.25h.71l-.18,7.81c.64-.44,1.49-.8,2.25-.8.92,0,1.68.53,1.68,2.07s-3.19,4.39-4.34,5.17ZM291.52,252.58c.85-.74,2.25-2.34,2.25-3.63,0-.85-.46-1.22-1.03-1.22-.37,0-.8.16-1.15.48l-.07,4.37Z"/>
    <g style="clip-path: url(#clippath-5);">
      <path d="M204.46,217.68c0,3.13-2.54,5.67-5.67,5.67s-5.67-2.54-5.67-5.67,2.54-5.67,5.67-5.67,5.67,2.54,5.67,5.67" style="fill: #fff;"/>
      <path d="M204.46,217.68c0,3.13-2.54,5.67-5.67,5.67s-5.67-2.54-5.67-5.67,2.54-5.67,5.67-5.67,5.67,2.54,5.67,5.67Z" style="fill: none; stroke: #000; stroke-linejoin: bevel; stroke-width: .4px;"/>
      <path d="M201.4,206.75c0,1.57-1.27,2.84-2.84,2.84s-2.84-1.27-2.84-2.84,1.27-2.84,2.84-2.84,2.84,1.27,2.84,2.84" style="fill: #fff;"/>
      <path d="M201.4,206.75c0,1.57-1.27,2.84-2.84,2.84s-2.84-1.27-2.84-2.84,1.27-2.84,2.84-2.84,2.84,1.27,2.84,2.84Z" style="fill: none; stroke: #000; stroke-linejoin: bevel; stroke-width: .4px;"/>
      <path d="M201.4,198.15c0,1.57-1.27,2.84-2.84,2.84s-2.84-1.27-2.84-2.84,1.27-2.84,2.84-2.84,2.84,1.27,2.84,2.84" style="fill: #fff;"/>
      <circle cx="198.56" cy="198.15" r="2.84" style="fill: none; stroke: #000; stroke-linejoin: bevel; stroke-width: .4px;"/>
      <path d="M201.4,189.54c0,1.57-1.27,2.84-2.84,2.84s-2.84-1.27-2.84-2.84,1.27-2.84,2.84-2.84,2.84,1.27,2.84,2.84" style="fill: #fff;"/>
      <path d="M201.4,189.54c0,1.57-1.27,2.84-2.84,2.84s-2.84-1.27-2.84-2.84,1.27-2.84,2.84-2.84,2.84,1.27,2.84,2.84Z" style="fill: none; stroke: #000; stroke-linejoin: bevel; stroke-width: .4px;"/>
      <line x1="198.56" y1="179.99" x2="198.56" y2="217.03" style="fill: none; stroke: #000; stroke-miterlimit: 10; stroke-width: .4px;"/>
      <path d="M201.09,256.04c0,1.15-.93,2.08-2.08,2.08s-2.08-.93-2.08-2.08.93-2.08,2.08-2.08,2.08.93,2.08,2.08Z" style="fill: none; stroke: #000; stroke-miterlimit: 10; stroke-width: .4px;"/>
      <path d="M201.09,249.98c0,1.15-.93,2.08-2.08,2.08s-2.08-.93-2.08-2.08.93-2.08,2.08-2.08,2.08.93,2.08,2.08"/>
      <path d="M201.09,249.98c0,1.15-.93,2.08-2.08,2.08s-2.08-.93-2.08-2.08.93-2.08,2.08-2.08,2.08.93,2.08,2.08Z" style="fill: none; stroke: #000; stroke-miterlimit: 10; stroke-width: .4px;"/>
      <circle cx="199.01" cy="262.09" r="2.08" style="fill: none; stroke: #000; stroke-miterlimit: 10; stroke-width: .4px;"/>
      <path d="M201.09,236.33c0,1.15-.93,2.08-2.08,2.08s-2.08-.93-2.08-2.08.93-2.08,2.08-2.08,2.08.93,2.08,2.08"/>
      <path d="M201.09,236.33c0,1.15-.93,2.08-2.08,2.08s-2.08-.93-2.08-2.08.93-2.08,2.08-2.08,2.08.93,2.08,2.08Z" style="fill: none; stroke: #000; stroke-miterlimit: 10; stroke-width: .4px;"/>
      <path d="M201.09,230.28c0,1.15-.93,2.08-2.08,2.08s-2.08-.93-2.08-2.08.93-2.08,2.08-2.08,2.08.93,2.08,2.08"/>
      <circle cx="199.01" cy="230.28" r="2.08" style="fill: none; stroke: #000; stroke-miterlimit: 10; stroke-width: .4px;"/>
      <path d="M201.09,242.38c0,1.15-.93,2.08-2.08,2.08s-2.08-.93-2.08-2.08.93-2.08,2.08-2.08,2.08.93,2.08,2.08"/>
      <path d="M201.09,242.38c0,1.15-.93,2.08-2.08,2.08s-2.08-.93-2.08-2.08.93-2.08,2.08-2.08,2.08.93,2.08,2.08Z" style="fill: none; stroke: #000; stroke-miterlimit: 10; stroke-width: .4px;"/>
      <line x1="195.26" y1="246.11" x2="203.03" y2="246.11" style="fill: none; stroke: #000; stroke-miterlimit: 10; stroke-width: .4px;"/>
    </g>
    <path d="M191.74,265.88v1.29c-.63-.53-1.28-.79-1.96-.79-.74,0-1.37.27-1.88.8-.51.53-.77,1.18-.77,1.95s.26,1.4.77,1.92c.51.52,1.14.78,1.88.78.38,0,.71-.06.98-.19.15-.06.3-.15.47-.25.16-.11.33-.23.51-.38v1.32c-.62.35-1.28.53-1.97.53-1.03,0-1.92-.36-2.65-1.08-.73-.73-1.09-1.6-1.09-2.63,0-.92.3-1.74.91-2.46.75-.88,1.72-1.33,2.91-1.33.65,0,1.28.18,1.88.53Z"/>
    <path d="M206.92,247.91v-7.23h1.09c.48,0,.87.04,1.16.11.29.07.54.2.74.38.2.18.36.41.48.69.12.28.18.56.18.84,0,.52-.2.96-.59,1.32.38.13.69.36.91.69.22.32.34.7.34,1.13,0,.56-.2,1.04-.6,1.43-.24.24-.51.41-.81.5-.33.09-.74.14-1.23.14h-1.65ZM208.01,243.78h.34c.41,0,.7-.09.89-.27.19-.18.28-.44.28-.79s-.1-.6-.29-.78c-.19-.18-.47-.26-.84-.26h-.38v2.1ZM208.01,246.88h.67c.49,0,.86-.1,1.09-.29.24-.21.37-.47.37-.8s-.12-.57-.35-.79c-.23-.21-.63-.31-1.22-.31h-.55v2.19Z"/>
    <path d="M570.56,134.74v-7.23h1.09c.48,0,.87.04,1.16.11.29.07.54.2.74.38.2.18.36.41.48.69.12.28.18.56.18.84,0,.52-.2.96-.59,1.32.38.13.69.36.91.69.22.32.34.7.34,1.13,0,.56-.2,1.04-.6,1.43-.24.24-.51.41-.81.5-.33.09-.74.14-1.23.14h-1.65ZM571.66,130.62h.34c.41,0,.7-.09.89-.27.19-.18.28-.44.28-.79s-.1-.6-.29-.78c-.19-.18-.47-.26-.84-.26h-.38v2.1ZM571.66,133.72h.67c.49,0,.86-.1,1.09-.29.24-.21.37-.47.37-.8s-.12-.57-.35-.79c-.23-.21-.63-.31-1.22-.31h-.55v2.19Z"/>
    <path d="M577.61,133.13c-.16.17-.55.49-1.13.94-.52.41-.89.76-1.11,1.04v-7.89h.44v4.26c.34-.3.74-.44,1.21-.44.61,0,1.11.34,1.11.98,0,.37-.17.74-.52,1.1ZM576.89,131.51c-.33,0-.7.16-1.08.5v2.12c.34-.26.64-.55.93-.84.51-.52.76-.91.76-1.17,0-.4-.2-.6-.6-.6Z"/>
    <g>
      <path d="M580.52,131.96h2.09v.92h-2.09v-.92Z"/>
      <path d="M590.61,128.53h-2.23l-.36,1.2c.05,0,.1-.01.15-.01.05,0,.09,0,.13,0,.7,0,1.28.24,1.73.71.45.47.68,1.08.68,1.81s-.26,1.39-.77,1.88c-.51.49-1.16.74-1.93.74-.96,0-1.71-.45-2.27-1.35l.82-.7c.23.39.46.66.69.82.23.16.51.23.85.23.44,0,.8-.15,1.1-.46.3-.32.44-.7.44-1.15s-.15-.84-.44-1.13c-.29-.3-.66-.45-1.1-.45-.49,0-.91.21-1.27.64h-.36l1.14-3.8h2.99v1.02Z"/>
      <path d="M595.25,127.26l.8.6-1.73,2.35c.09-.01.17-.02.24-.03.07,0,.12,0,.15,0,.59,0,1.09.22,1.52.67.42.44.64.98.64,1.6,0,.66-.24,1.23-.71,1.7-.47.47-1.04.71-1.7.71s-1.23-.23-1.72-.7c-.48-.47-.73-1.02-.73-1.65,0-.57.24-1.18.71-1.82l2.53-3.43ZM595.81,132.52c0-.38-.13-.71-.4-.97s-.59-.4-.97-.4-.7.13-.97.4c-.27.26-.4.59-.4.96s.13.7.4.96c.26.27.59.4.97.4s.69-.13.96-.4c.27-.27.4-.58.4-.95Z"/>
    </g>
    <g>
      <path d="M261.83,396.37c-.44,1.59-1.33,3.43-2.79,3.43-.4,0-.72-.21-.72-.61,0-.04,0-.1.01-.14l.7-3.25c.11-.53.23-1.05.23-1.43,0-.26-.04-.44-.18-.5-.04-.01-.1-.03-.14-.03-.6,0-1.19,1.35-1.43,2.37l-.78,3.45h-1.73l.82-3.86c.06-.28.14-.78.14-1.19,0-.31-.04-.55-.2-.62-.03-.01-.04-.01-.07-.01-.43,0-1.22,1.46-1.58,2.89l-.64,2.8h-1.72l1.08-5s.01-.07.01-.11c0-.2-.11-.43-.28-.43-.01,0-.04.01-.06.01-.65.27-1.08,1.21-1.41,2.23h-.06c.5-2.11,1.56-3.5,2.71-3.5.71,0,1.06.31,1.06.96.62-.68,1.32-.96,2.03-.96.78,0,1.19.27,1.19.96.52-.64,1.09-.96,1.69-.96.89,0,1.16.78,1.16,1.73,0,.88-.24,1.9-.41,2.53-.08.28-.21.65-.21.89,0,.11.03.2.1.24.01.01.04.01.06.01.3,0,.99-.95,1.35-1.9h.07Z"/>
      <path d="M265.56,403.36l.08.82h-6.09l-.08-.82h1.82l1.82-7.72c.04-.2.11-.55.11-.87,0-.35-.08-.65-.35-.65-.72.01-1.42,1.39-1.7,2.55h-.03c.37-2.41,1.23-3.8,2.75-3.8,1.01,0,1.97.71,1.96,1.25.52-.84,1.19-1.25,2-1.25,1.29,0,2.1,1.36,2.24,2.75.01.17.03.34.03.51,0,2.14-1.22,4.34-3.24,4.34-.75,0-1.45-.58-2.07-1.7l-1.08,4.58h1.83ZM266.08,399.59c.07.06.16.07.24.07.4,0,.84-.64,1.19-1.94.16-.54.44-1.87.44-2.82,0-.57-.1-.99-.4-1.02-.06,0-.1-.01-.16-.01-1.18,0-2,1.53-2,3.55,0,.23,0,.45.03.7.07.68.3,1.18.65,1.49Z"/>
    </g>
    <polyline points="274.92 398.8 299.26 396.41 299.26 396.38 274.94 394.18" style="fill: none; stroke: #000; stroke-miterlimit: 10; stroke-width: .4px;"/>
    <path d="M306.29,278.19l.11,1.11h-8.18l-.11-1.11h2.44l2.44-10.38c.06-.27.15-.74.15-1.16,0-.48-.11-.88-.48-.88-.97.02-1.91,1.87-2.29,3.43h-.04c.5-3.24,1.66-5.11,3.7-5.11,1.35,0,2.65.95,2.63,1.68.71-1.13,1.6-1.68,2.69-1.68,1.74,0,2.82,1.83,3.01,3.7.02.23.04.46.04.69,0,2.88-1.64,5.84-4.35,5.84-1.01,0-1.95-.78-2.78-2.29l-1.45,6.16h2.46ZM307,273.11c.09.08.21.1.32.1.53,0,1.12-.86,1.6-2.61.21-.72.59-2.52.59-3.8,0-.76-.13-1.33-.53-1.37-.08,0-.13-.02-.21-.02-1.58,0-2.69,2.06-2.69,4.77,0,.3,0,.61.04.93.1.92.4,1.58.88,2Z"/>
    <rect x="441.76" y="516.29" width="11.03" height="7" style="fill: url(#Unnamed_Pattern_12-2);"/>
    <rect x="441.76" y="516.29" width="11.03" height="7" style="fill: none; stroke: #000; stroke-miterlimit: 10; stroke-width: .4px;"/>
    <rect x="452.79" y="509.2" width="11.03" height="7" style="fill: url(#Unnamed_Pattern_12-3);"/>
    <rect x="452.79" y="509.2" width="11.03" height="7" style="fill: none; stroke: #000; stroke-miterlimit: 10; stroke-width: .4px;"/>
    <rect x="463.88" y="516.26" width="11.03" height="7" style="fill: url(#Unnamed_Pattern_12-4);"/>
    <rect x="463.88" y="516.26" width="11.03" height="7" style="fill: none; stroke: #000; stroke-miterlimit: 10; stroke-width: .4px;"/>
    <rect x="474.91" y="509.17" width="11.03" height="7" style="fill: url(#Unnamed_Pattern_12-5);"/>
    <rect x="474.91" y="509.17" width="11.03" height="7" style="fill: none; stroke: #000; stroke-miterlimit: 10; stroke-width: .4px;"/>
    <rect x="485.87" y="516.3" width="11.03" height="7" style="fill: url(#Unnamed_Pattern_12-6);"/>
    <rect x="485.87" y="516.3" width="11.03" height="7" style="fill: none; stroke: #000; stroke-miterlimit: 10; stroke-width: .4px;"/>
    <rect x="496.89" y="509.21" width="11.03" height="7" style="fill: url(#Unnamed_Pattern_12-7);"/>
    <rect x="496.89" y="509.21" width="11.03" height="7" style="fill: none; stroke: #000; stroke-miterlimit: 10; stroke-width: .4px;"/>
    <rect x="507.98" y="516.27" width="11.03" height="7" style="fill: url(#Unnamed_Pattern_12-8);"/>
    <rect x="507.98" y="516.27" width="11.03" height="7" style="fill: none; stroke: #000; stroke-miterlimit: 10; stroke-width: .4px;"/>
    <rect x="519.01" y="509.18" width="11.03" height="7" style="fill: url(#Unnamed_Pattern_12-9);"/>
    <rect x="519.01" y="509.18" width="11.03" height="7" style="fill: none; stroke: #000; stroke-miterlimit: 10; stroke-width: .4px;"/>
    <line x1="440.54" y1="503.25" x2="528.34" y2="503.25" style="fill: none; stroke: #000; stroke-miterlimit: 10; stroke-width: .4px;"/>
    <g style="clip-path: url(#clippath-6);">
      <path d="M530.75,503.25c-1.13.42-2.54,1.14-3.41,1.9l.69-1.9-.69-1.9c.87.76,2.28,1.48,3.41,1.9"/>
      <rect x="441.4" y="500.36" width="6.03" height="6.03" transform="translate(-225.77 461.69) rotate(-45)"/>
      <rect x="441.4" y="500.36" width="6.03" height="6.03" transform="translate(-225.77 461.69) rotate(-45)" style="fill: none; stroke: #000; stroke-miterlimit: 10; stroke-width: .4px;"/>
      <path d="M249.6,207.65c12.75.65,27.25,2.65,28.85,9.07,1.36,5.5-7.52,11.22-19.78,22.53-14.41,13.28-25.77,23.75-32.69,37.36-12.68,24.94-9.55,58.66,6.87,81.59,4.24,5.93,8.77,10.29,12.41,13.32" style="fill: none; stroke: #000; stroke-miterlimit: 10; stroke-width: .4px;"/>
      <path d="M247.13,373.02c-1.14-.4-2.69-.74-3.84-.71l1.74-1.03.68-1.9c.19,1.14.82,2.59,1.42,3.64"/>
      <path d="M247.47,196.8s.08-.06.12-.09c0,0,0,0,0,0,20.12-15.36,44.16-18.88,44.16-18.88,29.05-4.26,53.47,8.4,61.56,13.16" style="fill: none; stroke: #000; stroke-miterlimit: 10; stroke-width: .4px;"/>
      <path d="M355.37,192.24c-1.19-.22-2.77-.33-3.91-.13l1.57-1.27.39-1.98c.36,1.1,1.19,2.44,1.95,3.39"/>
      <path d="M247.21,217.62c15.04-.21,19.11,1.69,19.6,3.72,1.4,5.78-26.69,11.26-32.36,29.56-3.79,12.24,4.13,24.74,7.78,30.49,22.87,36.08,80.95,37.77,96.14,37.67" style="fill: none; stroke: #000; stroke-miterlimit: 10; stroke-width: .4px;"/>
      <path d="M340.78,319.02c-1.13.43-2.54,1.15-3.41,1.91l.68-1.9-.69-1.9c.88.76,2.29,1.47,3.42,1.89"/>
      <path d="M247.82,197.72c81.79,10.48,106.09,30.77,111.18,49.11,2.41,8.69.36,16.37,6.82,24.11,9.88,11.85,27.77,9.98,73.92,6.29,33.24-2.66,79.72-6.04,104.85,7.86,11.68,6.46,14.21,14.16,14.68,15.73,2.74,9.09-1.75,17.75-3.14,20.44-13.57,26.2-52.98,16.45-89.64,46.66-1.28,1.05-31.76,26.6-25.16,42.46,4.06,9.78,20.29,11.28,23.07,11.53,26.02,2.41,45.86-20.97,51.53-28.46" style="fill: none; stroke: #000; stroke-miterlimit: 10; stroke-width: .4px;"/>
      <path d="M517.32,391.52c-.33,1.16-.59,2.72-.5,3.88l-1.12-1.68-1.94-.57c1.13-.25,2.54-.96,3.55-1.62"/>
      <path d="M261.41,95.78s-35.08,12.28-71.89,10.1c36.96,2.36,72.4,12.21,72.4,12.21-.09-3.96-.2-8.95-.27-12.21v-.06c-.08-3.64-.16-7.09-.23-10.05" style="fill: url(#Unnamed_Pattern_12);"/>
      <path d="M261.41,95.78s-35.08,12.28-71.89,10.1c36.96,2.36,72.4,12.21,72.4,12.21-.09-3.96-.2-8.95-.27-12.21v-.06c-.08-3.64-.16-7.09-.23-10.05Z" style="fill: none; stroke: #000; stroke-miterlimit: 10; stroke-width: .4px;"/>
    </g>
    <path d="M191.99,125.6c0,.23-.19.55-.43.66-.12.06-.21.03-.32-.1-.37-.43-.72-.62-1.04-.62-.36,0-.75.29-.75.79,0,.46.41.79.91,1.17.83.65,1.19,1.01,1.19,1.62,0,1.13-1.44,2.13-2.56,2.13-.66,0-1.3-.46-1.3-.94,0-.3.33-.68.57-.7.1-.01.15.04.23.14.35.5.76.8,1.22.8.57,0,.91-.41.91-.86,0-.33-.15-.66-.8-1.2-.65-.51-1.22-.9-1.2-1.62,0-.41.17-.87.72-1.34.44-.4,1.08-.68,1.55-.68.61,0,1.09.36,1.09.75Z"/>
    <path d="M256.59,121.72c.66-.07,1.3-.21,1.7-.35.21-.08.3-.11.39-.11.11,0,.14.14.07.46-.39,1.77-.88,3.97-1.27,5.73,1.11-1.53,2.5-2.49,3.36-2.49.47,0,.91.22.48,1.98-.19.86-.46,2.02-.68,2.89-.1.37-.08.53.03.53.12,0,.46-.17.95-.69l.21.33c-.68.93-1.58,1.37-1.98,1.37s-.51-.43-.28-1.41c.25-.95.54-2.18.76-3.11.19-.79.08-.99-.19-.99-.51,0-1.55.66-2.47,2.18-.26.4-.39.72-.5,1.16-.12.55-.3,1.37-.41,1.91-.32.06-.69.17-.99.26l-.1-.1c.59-2.67,1.31-6.04,1.8-8.51.11-.57.03-.58-.39-.62-.15-.01-.46-.04-.57-.04l.08-.37ZM268.84,129.95c-.68.91-1.53,1.41-1.92,1.41s-.55-.32-.3-1.58l.19-.95c-.51.84-1.24,1.53-1.66,1.87-.44.36-.97.66-1.42.66-.48,0-.88-.59-.88-1.71,0-1.3.59-2.74,1.53-3.59.72-.66,1.71-1.09,2.64-1.09.7,0,1.34.21,1.6.23-.25.87-.73,3-.99,4.56-.07.39-.04.54.07.54.17,0,.46-.18.95-.69l.19.35ZM266.34,128.81c.3-.39.66-1.08.8-1.66.14-.53.26-1.02.3-1.35-.19-.1-.65-.22-1.05-.22-1.63,0-2.39,2.1-2.39,3.9,0,.55.15.91.43.91.43,0,1.04-.43,1.91-1.58Z"/>
    <line x1="196.99" y1="128.58" x2="248.87" y2="128.58" style="fill: none; stroke: #000; stroke-linejoin: bevel; stroke-width: .4px;"/>
    <g style="clip-path: url(#clippath-7);">
      <path d="M251.28,128.58c-1.13.42-2.54,1.14-3.41,1.9l.69-1.9-.69-1.9c.87.76,2.28,1.48,3.41,1.9"/>
      <path d="M417.32,168.84s13.65-12.28,27.98-10.1c-14.39-2.36-28.18-12.21-28.18-12.21l.19,22.31Z" style="fill: url(#Unnamed_Pattern_12);"/>
      <path d="M417.32,168.84s13.65-12.28,27.98-10.1c-14.39-2.36-28.18-12.21-28.18-12.21l.19,22.31Z" style="fill: none; stroke: #000; stroke-miterlimit: 10; stroke-width: .4px;"/>
    </g>
    <path d="M417.83,181.15c-.67,1.02-1.26,1.33-1.62,1.33-.33,0-.61-.24-1.09-1.29-.33-.7-.65-1.42-.91-2.05-.56.66-.86,1.02-.95,1.46-.14.64-.21,1.07-.33,1.63-.36.07-.72.19-.99.29l-.1-.08c.55-2.66,1.36-6.66,1.7-8.59.08-.48.06-.58-.95-.63l.08-.35c1.12-.16,1.89-.49,2.07-.49.14,0,.15.14.09.41-.39,1.83-.92,4.4-1.36,6.54.76-.85,2.74-3.26,3.74-3.28.4,0,.64.19.64.45,0,.22-.17.62-.41.83-.15.13-.22.14-.34.06-.14-.1-.39-.3-.67-.3-.3,0-1.08.79-1.53,1.3.24.62.72,1.59,1.09,2.28.31.6.51.85.71.85.17,0,.47-.18.89-.71l.24.32ZM424.68,180.98c-.67.92-1.52,1.43-1.9,1.43s-.56-.31-.32-1.57l.18-.96c-.5.85-1.23,1.55-1.64,1.88-.44.36-.96.67-1.42.68-.48,0-.89-.58-.9-1.7-.01-1.3.56-2.74,1.49-3.61.71-.67,1.7-1.11,2.63-1.12.7,0,1.34.19,1.61.22-.24.87-.7,3.01-.94,4.57-.06.39-.04.54.08.54.17,0,.45-.18.95-.7l.2.34ZM422.16,179.86c.3-.39.65-1.09.78-1.67.13-.53.25-1.03.29-1.36-.19-.09-.65-.21-1.05-.21-1.63.02-2.37,2.13-2.35,3.92,0,.55.16.91.44.91.43,0,1.03-.44,1.89-1.6Z"/>
    <path d="M457.22,496.83c-.68.91-1.53,1.41-1.92,1.41s-.55-.32-.3-1.58l.19-.95c-.51.84-1.24,1.53-1.66,1.87-.44.36-.97.66-1.42.66-.48,0-.88-.59-.88-1.71,0-1.3.59-2.74,1.53-3.59.72-.66,1.71-1.09,2.64-1.09.7,0,1.34.21,1.6.23-.25.87-.73,3-.99,4.56-.07.39-.04.54.07.54.17,0,.46-.18.95-.69l.19.35ZM454.72,495.68c.3-.39.66-1.08.8-1.66.14-.53.26-1.02.3-1.35-.19-.1-.65-.22-1.05-.22-1.63,0-2.39,2.1-2.39,3.9,0,.55.15.91.43.91.43,0,1.04-.43,1.91-1.58Z"/>
    <path d="M526.41,497.25c-.68.94-1.58,1.41-1.96,1.41-.36,0-.52-.33-.3-1.48.11-.53.18-.83.25-1.13-.57.77-1.23,1.49-1.92,2.03-.43.32-.93.58-1.34.58-.44,0-.94-.29-.55-1.99.21-.86.46-1.88.69-2.85.11-.41.1-.54-.01-.54-.15,0-.55.29-.9.64l-.19-.35c.66-.73,1.56-1.3,1.99-1.3.39,0,.4.43.15,1.49-.23.91-.48,1.91-.68,2.75-.21.94-.12,1.2.15,1.2.48,0,1.3-.72,2-1.62.41-.53.8-1.19,1.01-2,.08-.32.22-.88.33-1.48.28-.08.7-.23.99-.36h.15c-.41,1.6-.93,3.7-1.13,4.89-.04.33,0,.47.1.47.12,0,.46-.17.97-.7l.21.33Z"/>
    <g style="clip-path: url(#clippath-8);">
      <path d="M261.64,105.83c27.79.66,49.49,5,64.28,8.9,26.7,7.04,38.43,14.61,60.35,13.67,21.86-.93,36.38-9.58,44.78-13.34,24.3-10.89,66.33-11.74,144.03,33.43" style="fill: none; stroke: #000; stroke-miterlimit: 10; stroke-width: .4px;"/>
      <path d="M577.17,149.7c-1.19-.19-2.77-.26-3.91-.03l1.54-1.31.34-1.99c.38,1.09,1.25,2.41,2.03,3.34"/>
      <path d="M677.29,159.8c19.8.17,36.83,4.87,50,15.41,64.67,51.77,39.95,247.17-67.21,331.85-147.24,116.34-425.26,3.98-434.47-79.37-1.76-15.91,6.24-31.15,17.66-44.57" style="fill: none; stroke: #000; stroke-miterlimit: 10; stroke-width: .4px;"/>
      <path d="M244.85,381.3c-.4,1.14-.76,2.68-.73,3.84l-1.02-1.75-1.9-.69c1.14-.18,2.6-.8,3.65-1.4"/>
      <path d="M290.83,375.2c45.21-2.04,65.36,10.57,75.42,22.31,18.6,21.7,10.14,49.09,33.99,78.6,11.15,13.8,24.38,21.9,33.94,26.58" style="fill: none; stroke: #000; stroke-miterlimit: 10; stroke-width: .4px;"/>
      <path d="M436.36,503.73c-1.2-.12-2.78-.09-3.9.21l1.45-1.41.21-2.01c.45,1.07,1.4,2.33,2.24,3.2"/>
      <path d="M525.37,319.16c32.28-1.21,55.73-14.2,59.26-31.06,1.97-9.4-2.71-17.8-4.52-20.95-9.73-16.93-28.53-22.8-74.93-32.97-48.69-10.67-73.49-14.36-104.1-31.87-23.24-13.29-24.86-20.66-24.43-24.43,1.02-9.01,16.16-16.39,38.07-19.72" style="fill: none; stroke: #000; stroke-miterlimit: 10; stroke-width: .4px;"/>
      <path d="M417.11,157.82c-1.05.6-2.32,1.54-3.06,2.43l.37-1.99-.99-1.76c.98.61,2.49,1.09,3.68,1.32"/>
      <path d="M525.75,319.12c1.67,4.04,5.78,15.51,1,27.04-1.12,2.7-5.04,10.99-22.99,19.87-16.21,8.02-29.17,9.25-45.42,11.71-15.87,2.4.93.55-51.85,10.3-41.76,7.71-54.99,9.36-75.62,17.73-7.98,3.23-23.83,10.21-33.61,25.86-5.75,9.2-5.17,14.62-4.82,16.62,1.94,10.89,14.54,16.33,19.83,18.15" style="fill: none; stroke: #000; stroke-miterlimit: 10; stroke-width: .4px;"/>
      <path d="M314.59,467.09c-1.21.06-2.77.31-3.83.77l1.23-1.6-.08-2.02c.6.99,1.72,2.1,2.67,2.85"/>
      <path d="M677.44,159.85c7.9-.43,30.55-2.69,43-19.52,13.97-18.89,8.27-46.88,1.74-59.62-23.09-45.04-115.17-23.06-343.07-16.27-114.71,3.42-208.86,1.27-258.57,56.8-6.9,7.7-23.39,26.63-19.47,46.93,4.79,24.84,38.68,44.18,86.68,49.37" style="fill: none; stroke: #000; stroke-miterlimit: 10; stroke-width: .4px;"/>
      <path d="M190.15,217.78c-1.18.28-2.66.83-3.61,1.49l.91-1.81-.46-1.97c.78.86,2.09,1.74,3.17,2.29"/>
      <path d="M665.7,247.23c-2-17.02-1.86-40.95,12.68-58.6,16.82-20.42,38.08-14.16,53.54-32.99,18.6-22.64,16.39-66.35-4.13-89.74-18.41-20.99-47.8-20.59-105.82-18.93-94.78,2.7-142.17,4.06-164.56,5.34C292.24,61.77,168.98-18.26,73.93,10.08c-11.47,3.42-36.93,11.4-48.06,33.98-7.33,14.86-10.4,40.02,2.43,54.37,15.83,17.7,43.73,5.39,139.8,6.8,6.18.09,11.46.22,15.42.33" style="fill: none; stroke: #000; stroke-miterlimit: 10; stroke-width: .4px;"/>
      <path d="M185.93,105.62c-1.14.39-2.57,1.08-3.46,1.82l.73-1.88-.64-1.91c.86.78,2.25,1.53,3.37,1.98"/>
      <path d="M445.5,158.82c11.04,1.63,25.15,5.7,32.99,17.08,8.55,12.42,3.42,24.52,5.45,43.85,3.01,28.77,19.49,50.81,28.89,60.59,28.83,30.03,72.22,29.27,85.66,28.36" style="fill: none; stroke: #000; stroke-miterlimit: 10; stroke-width: .4px;"/>
      <path d="M600.88,308.52c-1.1.5-2.46,1.3-3.28,2.12l.56-1.94-.81-1.85c.92.7,2.37,1.33,3.53,1.67"/>
      <path d="M382.39,467.85c11.31-.02,28.22-1.68,46.42-9.91,5-2.26,14.41-6.6,24.43-15.16,14.52-12.4,15.34-20.86,26.97-32.73,6.14-6.27,16.12-14.33,32.3-20.38" style="fill: none; stroke: #000; stroke-miterlimit: 10; stroke-width: .4px;"/>
      <path d="M514.78,388.85c-.91.8-1.96,1.97-2.51,3l-.04-2.02-1.32-1.53c1.09.4,2.66.56,3.87.55"/>
      <path d="M609.53,385.07c10.56,2.57,34.28,9.97,51.33,31.68,21.54,27.42,20.92,63.03,15.62,81.66-19.69,69.23-163.78,110.79-281.5,83.33-113.72-26.52-221.34-121.75-216.46-201.22,1.49-24.34,13.7-49.7,14.59-51.53,23.61-48.24,66.75-70.2,84.73-77.96" style="fill: none; stroke: #000; stroke-miterlimit: 10; stroke-width: .4px;"/>
      <path d="M280.05,250.09c-.87.84-1.86,2.07-2.35,3.12l-.14-2.02-1.4-1.46c1.11.34,2.68.43,3.89.36"/>
      <path d="M261.41,105.76c5.09.48,40.5,4.12,44.66,21.2,1.37,5.6-1.12,10.59-1.51,11.35-14.51,28.18-106.3-14.6-154.43,25.74-9.15,7.67-13.92,17.73-23.46,37.85-7.42,15.64-51.45,112.46-9.08,204.39,8.31,18.02,18.09,38.58,40.12,52.99,16.92,11.07,35.99,14.34,73.43,20.44,21.13,3.44,31.69,5.16,54.5,6.81,31.32,2.27,78.37,7.93,146.77,22.95" style="fill: none; stroke: #000; stroke-linejoin: bevel; stroke-width: .4px;"/>
      <path d="M434.76,509.99c-1.2.18-2.72.59-3.74,1.15l1.07-1.72-.28-2c.69.93,1.92,1.92,2.94,2.57"/>
      <path d="M609.36,384.43c49.53.96,74.44-17.52,84.06-26.12,63.81-57.05,37.43-200.59-35.62-248.39-35.67-23.34-76.07-19.66-77.89-19.47-10.83,1.13-47.4,4.96-62.22,32.3-1.5,2.76-11.21,20.69-3.32,36.09,7.82,15.28,30.52,23.35,55.62,16.8" style="fill: none; stroke: #000; stroke-miterlimit: 10; stroke-width: .4px;"/>
      <path d="M572.32,174.99c-.99.69-2.17,1.74-2.83,2.7l.19-2.01-1.14-1.67c1.04.52,2.58.86,3.78.98"/>
      <path d="M608.48,425.43c0,4.48-3.64,8.12-8.12,8.12s-8.12-3.64-8.12-8.12,3.63-8.12,8.12-8.12,8.12,3.64,8.12,8.12Z" style="fill: none; stroke: #000; stroke-miterlimit: 10; stroke-width: .4px;"/>
      <line x1="600.36" y1="408.57" x2="600.36" y2="420.71" style="fill: none; stroke: #000; stroke-miterlimit: 10; stroke-width: .4px;"/>
    </g>
    <g>
      <path d="M601.45,444.04c-.44,1.59-1.33,3.43-2.79,3.43-.4,0-.72-.21-.72-.61,0-.04,0-.1.01-.14l.7-3.25c.11-.52.23-1.05.23-1.43,0-.26-.04-.44-.18-.5-.04-.01-.1-.03-.14-.03-.6,0-1.19,1.35-1.43,2.37l-.78,3.45h-1.73l.82-3.86c.06-.28.14-.78.14-1.19,0-.31-.04-.55-.2-.62-.03-.01-.04-.01-.07-.01-.43,0-1.22,1.46-1.58,2.89l-.64,2.8h-1.72l1.08-5s.01-.07.01-.11c0-.2-.11-.43-.28-.43-.01,0-.04.01-.06.01-.65.27-1.08,1.21-1.41,2.23h-.06c.5-2.11,1.56-3.5,2.71-3.5.71,0,1.06.31,1.06.96.62-.68,1.32-.96,2.03-.96.78,0,1.19.27,1.19.96.52-.64,1.09-.96,1.69-.96.89,0,1.16.78,1.16,1.73,0,.88-.24,1.9-.41,2.53-.08.28-.21.65-.21.89,0,.11.03.2.1.24.01.01.04.01.06.01.3,0,.99-.95,1.35-1.9h.07Z"/>
      <path d="M605.18,451.04l.08.82h-6.09l-.08-.82h1.82l1.82-7.72c.04-.2.11-.55.11-.87,0-.35-.08-.65-.35-.65-.72.01-1.42,1.39-1.7,2.55h-.03c.37-2.41,1.23-3.8,2.75-3.8,1.01,0,1.97.71,1.96,1.25.52-.84,1.19-1.25,2-1.25,1.29,0,2.1,1.36,2.24,2.75.01.17.03.34.03.51,0,2.14-1.22,4.34-3.24,4.34-.75,0-1.45-.58-2.07-1.7l-1.08,4.58h1.83ZM605.7,447.26c.07.06.16.07.24.07.4,0,.84-.64,1.19-1.94.16-.54.44-1.87.44-2.82,0-.57-.1-.99-.4-1.02-.06,0-.1-.01-.16-.01-1.18,0-2,1.53-2,3.55,0,.23,0,.45.03.7.07.68.3,1.18.65,1.49Z"/>
    </g>
    <g style="clip-path: url(#clippath-9);">
      <path d="M533.23,511.92c15.02.76,21.37-3.3,24.4-7.16,8.5-10.84-.81-30.85,3.58-60.83.4-2.71,1.11-6.9,4.23-10.73,6.34-7.79,17.9-8.3,24.27-7.98" style="fill: none; stroke: #000; stroke-miterlimit: 10; stroke-width: .4px;"/>
      <path d="M592.11,425.4c-1.16.34-2.61.97-3.53,1.67l.81-1.85-.56-1.94c.82.82,2.18,1.63,3.28,2.12"/>
      <path d="M608.59,424.35c13.55,1.1,52.03,2.36,88.13-22.55,8.67-5.98,28.75-20.21,40.99-47.14,0,0,16.98-37.36,4.78-79.93-14.92-52.1-74.25-91.75-148.58-98.18" style="fill: none; stroke: #000; stroke-miterlimit: 10; stroke-width: .4px;"/>
      <path d="M591.51,176.35c1.17-.3,2.65-.87,3.6-1.53l-.88,1.82.48,1.96c-.79-.85-2.11-1.71-3.2-2.25"/>
      <path d="M445.28,158.27c19.13,3.73,38.11-2.96,49.03-17.2,8.52-11.11,13.87-29.1,6.79-42.03-9.79-17.89-39.2-18.89-55.48-19.15-190.03-2.95-285.04-4.42-323.63,53.95-34.2,51.74-33.87,134.87,1.55,175.22,9.49,10.81,22.66,19.81,33.17,27.08,32.5,22.51,63.86,33.83,85.87,39.85" style="fill: none; stroke: #000; stroke-miterlimit: 10; stroke-width: .4px;"/>
      <path d="M244.9,376.63c-1.21.1-2.76.41-3.8.9l1.18-1.64-.15-2.02c.63.97,1.8,2.04,2.77,2.75"/>
      <path d="M382.29,467.94c36.2,2.27,63.92,1.25,82.4-.11,12.33-.91,19.99-1.93,28.34-6.63,17.35-9.78,15.7-23.11,33.17-33.17,10.65-6.13,21.26-6.93,34.95-7.96,11.83-.89,21.94.02,29.46,1.21" style="fill: none; stroke: #000; stroke-miterlimit: 10; stroke-width: .4px;"/>
      <path d="M592.98,421.68c-1.18.25-2.68.75-3.66,1.37l.96-1.77-.4-1.98c.75.88,2.03,1.8,3.09,2.39"/>
      <line x1="776.53" y1="476.99" x2="776.53" y2="536.33" style="fill: none; stroke: #000; stroke-miterlimit: 10; stroke-width: .8px;"/>
      <line x1="779.67" y1="476.99" x2="779.67" y2="536.33" style="fill: none; stroke: #000; stroke-miterlimit: 10; stroke-width: 2.4px;"/>
      <path d="M51.24,67.46h85.16c4.22-.07,10.57-.12,18.28,0,59.91.96,78.02,5.62,90.83,10.93,5.72,2.37,9.81,4.1,14.8,7.6,17.95,12.58,24.22,31.7,28.8,46.36,4.45,14.22,17.18,54.94-2.11,87.79-3.95,6.73-8.81,12.4-12.64,16.86-15.57,18.14-24.97,20.86-35.12,37.22-2.5,4.02-5.92,9.65-8.17,17.86-3.61,13.23-1.7,24.21-.32,31.65,3.47,18.7,12,32.94,18.75,41.94" style="fill: none; stroke: #000; stroke-linejoin: bevel; stroke-width: .5px;"/>
      <path d="M251.32,368.04c-1.27-.8-3.03-1.66-4.44-1.95l2.39-.75,1.36-2.1c-.1,1.43.25,3.36.69,4.8"/>
      <path d="M50.25,63.59h85.16c12.09-.64,25.11-.74,38.95,0,49.52,2.65,74.33,3.19,93.86,17.46,32.82,23.99,36.52,69.82,38,88.11,2.06,25.49-2.6,46.65-6.94,60.49" style="fill: none; stroke: #000; stroke-linejoin: bevel; stroke-width: .5px;"/>
      <path d="M298.37,232.49c-.08-1.5-.4-3.43-.98-4.75l1.99,1.52,2.5-.11c-1.22.75-2.6,2.15-3.52,3.33"/>
      <path d="M50.25,59.91h85.16c8.7-.31,21.56-.55,37.12,0,49.7,1.77,74.55,2.58,95.02,13.45,38.49,20.44,59.05,69.68,60.22,107.11,1.37,43.94-7.06,76.08-7.06,76.08-3.69,14.08-9.55,30.67-1.57,45.49,4.83,8.97,12.98,14.06,19.14,16.95" style="fill: none; stroke: #000; stroke-linejoin: bevel; stroke-width: .5px;"/>
      <path d="M50.25,56.23h85.16c9.6-.35,23.29-.6,39.7,0,35.9,1.31,77.71,2.83,106.04,15.43,52.44,23.32,71.19,90.15,77.07,116.74" style="fill: none; stroke: #000; stroke-linejoin: bevel; stroke-width: .5px;"/>
      <path d="M358.86,191.32c-.83-1.25-2.09-2.75-3.25-3.59l2.49.3,2.1-1.36c-.68,1.27-1.15,3.17-1.34,4.66"/>
      <path d="M50.25,52.56h85.16c11.04-.33,26.89-.56,45.95,0,91.11,2.67,136.66,4.01,161.62,32.15,19.02,21.45,17.58,47.07,46.5,61.82,8.49,4.33,16.57,6.18,22.55,7.01" style="fill: none; stroke: #000; stroke-linejoin: bevel; stroke-width: .5px;"/>
      <path d="M415,153.89c-1.46.33-3.31.98-4.51,1.77l1.16-2.22-.53-2.45c.95,1.08,2.56,2.2,3.88,2.9"/>
      <path d="M611.83,307.09c7.08,3.4,36.97,18.74,47.56,52.25,13.9,43.99-13.09,95.07-42.87,103.16-15.05,4.09-28.66-3.39-36.84,6.03-6.34,7.3-5.29,20.26,0,28.81,5.61,9.08,19.06,9.81,37.26,11.63,4.47.45,9.38.67,10.37.72,8.94.39,13.49.02,23.26,0,7.42-.02,11.87.18,15.89.28,10.69.27,40.55.38,114.45,0" style="fill: none; stroke: #000; stroke-linejoin: bevel; stroke-width: .5px;"/>
    </g>
    <path d="M58.35,70.31c0,.63-.82,1.28-1.56,1.28-.21,0-.41-.04-.59-.18.07.59.99,1.25,1.75,1.25,1.22,0,2.57-.84,2.57-2.12,0-.15-.01-.29-.06-.46l-.74-3.03c-.49.1-.96.15-1.4.15-3.35,0-5.33-2.65-5.33-5.68,0-2.87,2.47-5.52,3.66-6.75-.38-1.54-.87-2.63-.87-4.52v-.16c.03-1.97,1.6-4.53,2.26-4.75.62.1,2.27,2.49,2.29,5.03v.09c0,2.31-1.09,4.31-2.87,6.12l.71,2.69c.24-.09.66-.13,1.06-.13.19,0,.38,0,.54.03,1.56.24,3.03,1.32,3.03,3.56v.07c-.01,1.15-.81,3.31-2.77,4.13l.75,3.03c.06.21.07.4.07.59,0,1.62-1.79,2.46-2.97,2.46-1.28,0-2.88-.88-2.88-2.53,0-.71.75-1.65,1.87-1.66.93.03,1.44.75,1.44,1.49ZM57.2,56.86c-.56.62-3.15,3.08-3.16,5.24,0,1.97,1.15,4.25,3.59,4.5.09.01.24.01.4.01.5,0,1.22-.04,1.56-.15l-1.34-5.38c-1.16.27-1.59,1.03-1.59,2.03.02,1.09.59,1.69,1.41,2.35-.69-.19-1.9-1.15-2.03-2.9-.01-.15-.01-.29-.01-.44,0-1.27.49-2.22,1.75-2.71l-.57-2.56ZM56.33,50.57c0,1.84.34,2.72.63,3.93.96-1.03,2.68-2.84,2.69-4.44,0-1.13-.49-2.93-1.15-3.09-.54.06-2.18,1.66-2.18,3.6ZM59.92,66.38c1.27-.56,2.09-1.72,2.09-3.15,0-.28-.03-.56-.09-.85-.19-.84-1.18-1.43-2.5-1.43-.26,0-.54.03-.82.07l1.32,5.35Z"/>
    <g style="clip-path: url(#clippath-10);">
      <path d="M292.93,372.43c1.57-.03,3.81-.05,6.5,0,4.64.08,52.09,1.3,82.61,20.81,27.74,17.74,18.21,35.71,43.58,60.57,21.53,21.09,50.64,26.03,107.98,35.05,24.43,3.84,60.03,8.25,132.86,10.08,34.6.87,72.91,1.05,114.45,0" style="fill: none; stroke: #000; stroke-linejoin: bevel; stroke-width: .5px;"/>
      <path d="M533.36,513.51c44.37.07,88.73.12,133.1.14,38.15.02,76.3.02,114.45,0" style="fill: none; stroke: #000; stroke-linejoin: bevel; stroke-width: .5px;"/>
      <path d="M382.19,467.88c25.56,3.49,43.85,5.94,56.96,7.68,3.28.43,7.62,1.01,13.12,1.8,0,0,3.93.57,7.7,1.15,18.05,2.77,38.68,7.52,38.68,7.52,25.74,5.93,63.45,9.61,81.6,11.38,11.18,1.09,31.12,2.83,71.52,4.23,32.28,1.12,76.1,1.96,129.15.99" style="fill: none; stroke: #000; stroke-linejoin: bevel; stroke-width: .5px;"/>
      <path d="M199.84,268.48c-.05,18.8,1.24,45.09,7.33,75.81,6.33,31.94,11.51,58.14,29.62,87.29,25.51,41.07,60.33,61.81,74.82,70.14,17.6,10.13,32.75,15.48,50.66,21.82,27,9.56,52.42,18.55,87.29,20.26,26.79,1.32,49.96,2.46,76.38-8.57,28.24-11.79,41.35-29.62,68.93-30.68,3.84-.15,16.09-.84,29.76,0,14.04.86,24.43.92,26.74,1.05,15.06.86,49.69,1.43,129.55.7" style="fill: none; stroke: #000; stroke-linejoin: bevel; stroke-width: .5px;"/>
      <path d="M440.52,261.76c17.48,13.07,47.07,31.67,87.81,41.96,27.26,6.89,51.32,7.98,69.39,7.33" style="fill: none; stroke: #000; stroke-miterlimit: 10; stroke-width: .4px;"/>
      <path d="M600.13,310.95c-1.12.46-2.5,1.22-3.35,2.01l.63-1.92-.75-1.88c.9.73,2.33,1.41,3.47,1.79"/>
      <path d="M440.94,261.76c14.55,3.9,26.89,4.05,36.26,3.09" style="fill: none; stroke: #000; stroke-miterlimit: 10; stroke-width: .4px;"/>
      <path d="M479.6,264.57c-1.08.54-2.41,1.41-3.19,2.26l.48-1.96-.89-1.81c.95.66,2.43,1.23,3.6,1.52"/>
      <path d="M440.44,261.76c-11.55,10.91-33.74,28.96-66.55,38.98-18.14,5.54-61.79,18.87-105.37-4.03-37.01-19.45-52.52-53.74-57.65-67.32" style="fill: none; stroke: #000; stroke-miterlimit: 10; stroke-width: .4px;"/>
      <path d="M210.03,227.12c.8.91,1.97,1.97,2.99,2.51l-2.02.04-1.53,1.32c.4-1.09.57-2.66.56-3.87"/>
    </g>
  </g>
</svg>