<?xml version="1.0" encoding="UTF-8"?>
<svg id="Layer_1" data-name="Layer 1" xmlns="http://www.w3.org/2000/svg" viewBox="0 0 867.33 281.4">
  <g>
    <line x1="73.76" y1="40.59" x2="133.39" y2="40.59" style="fill: none; stroke: #010101; stroke-linejoin: bevel; stroke-width: .62px;"/>
    <line x1="73.76" y1="36.63" x2="133.39" y2="36.63" style="fill: none; stroke: #010101; stroke-linejoin: bevel; stroke-width: .62px;"/>
    <line x1="73.76" y1="32.67" x2="133.39" y2="32.67" style="fill: none; stroke: #010101; stroke-linejoin: bevel; stroke-width: .62px;"/>
    <line x1="73.76" y1="28.71" x2="133.39" y2="28.71" style="fill: none; stroke: #010101; stroke-linejoin: bevel; stroke-width: .62px;"/>
    <line x1="73.76" y1="24.75" x2="133.39" y2="24.75" style="fill: none; stroke: #010101; stroke-linejoin: bevel; stroke-width: .62px;"/>
  </g>
  <path d="M86.25,43.62c0,.68-.88,1.38-1.66,1.38-.22,0-.44-.05-.63-.19.08.63,1.05,1.35,1.86,1.35,1.3,0,2.74-.9,2.74-2.28,0-.16-.02-.32-.06-.49l-.78-3.26c-.52.11-1.02.16-1.49.16-3.57,0-5.67-2.85-5.67-6.11,0-3.09,2.63-5.94,3.9-7.27-.41-1.66-.92-2.83-.92-4.86v-.17c.03-2.12,1.71-4.88,2.41-5.12.66.11,2.41,2.68,2.44,5.42v.09c0,2.49-1.16,4.64-3.05,6.59l.75,2.9c.25-.09.7-.14,1.13-.14.2,0,.41,0,.58.03,1.66.25,3.23,1.43,3.23,3.83v.08c-.02,1.24-.86,3.56-2.94,4.45l.8,3.26c.06.22.08.43.08.63,0,1.74-1.91,2.64-3.16,2.64-1.36,0-3.07-.95-3.07-2.72,0-.76.8-1.77,1.99-1.79.99.03,1.53.81,1.53,1.6ZM85.03,29.14c-.59.67-3.35,3.31-3.37,5.64,0,2.12,1.22,4.58,3.82,4.85.09.02.25.02.42.02.53,0,1.3-.05,1.66-.16l-1.42-5.8c-1.24.29-1.69,1.11-1.69,2.19.02,1.17.63,1.82,1.5,2.53-.74-.21-2.02-1.24-2.16-3.12-.02-.16-.02-.32-.02-.48,0-1.36.52-2.39,1.86-2.91l-.61-2.76ZM84.11,22.36c0,1.98.36,2.93.67,4.23,1.02-1.11,2.85-3.06,2.87-4.78,0-1.22-.52-3.15-1.22-3.33-.58.06-2.32,1.79-2.32,3.88ZM87.93,39.39c1.35-.6,2.22-1.85,2.22-3.39,0-.3-.03-.6-.09-.92-.2-.9-1.25-1.54-2.66-1.54-.28,0-.58.03-.88.08l1.41,5.77Z" style="fill: #010101;"/>
  <g>
    <line x1="73.79" y1="82.04" x2="133.39" y2="82.04" style="fill: none; stroke: #010101; stroke-linejoin: bevel; stroke-width: .62px;"/>
    <line x1="73.79" y1="78.08" x2="133.39" y2="78.08" style="fill: none; stroke: #010101; stroke-linejoin: bevel; stroke-width: .62px;"/>
    <line x1="73.79" y1="74.12" x2="133.39" y2="74.12" style="fill: none; stroke: #010101; stroke-linejoin: bevel; stroke-width: .62px;"/>
    <line x1="73.79" y1="70.16" x2="133.39" y2="70.16" style="fill: none; stroke: #010101; stroke-linejoin: bevel; stroke-width: .62px;"/>
    <line x1="73.79" y1="66.2" x2="133.39" y2="66.2" style="fill: none; stroke: #010101; stroke-linejoin: bevel; stroke-width: .62px;"/>
  </g>
  <path d="M86.49,125.67c0,.68-.78,1.38-1.48,1.38-.2,0-.39-.05-.56-.19.07.63.94,1.35,1.66,1.35,1.16,0,2.44-.9,2.44-2.28,0-.16-.01-.32-.06-.49l-.7-3.26c-.46.11-.91.16-1.33.16-3.18,0-5.05-2.85-5.05-6.11,0-3.09,2.35-5.94,3.48-7.27-.36-1.66-.82-2.83-.82-4.86v-.17c.03-2.12,1.52-4.88,2.15-5.12.59.11,2.15,2.68,2.18,5.42v.09c0,2.49-1.03,4.64-2.72,6.59l.67,2.9c.22-.09.63-.14,1-.14.18,0,.36,0,.52.03,1.48.25,2.88,1.43,2.88,3.83v.08c-.01,1.24-.77,3.56-2.62,4.45l.71,3.26c.06.22.07.43.07.63,0,1.74-1.7,2.64-2.82,2.64-1.21,0-2.74-.95-2.74-2.72,0-.76.71-1.77,1.77-1.79.88.03,1.37.81,1.37,1.6ZM85.4,111.19c-.53.67-2.99,3.31-3,5.64,0,2.12,1.09,4.58,3.41,4.85.08.02.22.02.38.02.47,0,1.16-.05,1.48-.16l-1.27-5.8c-1.1.29-1.51,1.11-1.51,2.19.01,1.17.56,1.82,1.34,2.53-.66-.21-1.8-1.24-1.93-3.12-.01-.16-.01-.32-.01-.48,0-1.36.46-2.39,1.66-2.91l-.54-2.76ZM84.58,104.41c0,1.98.32,2.93.6,4.23.91-1.11,2.54-3.06,2.55-4.78,0-1.22-.46-3.15-1.09-3.33-.52.06-2.07,1.79-2.07,3.88ZM87.98,121.44c1.2-.6,1.98-1.85,1.98-3.39,0-.3-.03-.6-.08-.92-.18-.9-1.12-1.54-2.37-1.54-.25,0-.52.03-.78.08l1.26,5.77Z" style="fill: #010101;"/>
  <g>
    <line x1="73.81" y1="122.46" x2="133.39" y2="122.46" style="fill: none; stroke: #010101; stroke-linejoin: bevel; stroke-width: .62px;"/>
    <line x1="73.81" y1="118.5" x2="133.39" y2="118.5" style="fill: none; stroke: #010101; stroke-linejoin: bevel; stroke-width: .62px;"/>
    <line x1="73.81" y1="114.54" x2="133.39" y2="114.54" style="fill: none; stroke: #010101; stroke-linejoin: bevel; stroke-width: .62px;"/>
    <line x1="73.81" y1="110.58" x2="133.39" y2="110.58" style="fill: none; stroke: #010101; stroke-linejoin: bevel; stroke-width: .62px;"/>
    <line x1="73.81" y1="106.63" x2="133.39" y2="106.63" style="fill: none; stroke: #010101; stroke-linejoin: bevel; stroke-width: .62px;"/>
  </g>
  <path d="M86.57,85.25c0,.68-.88,1.38-1.66,1.38-.22,0-.44-.05-.63-.19.08.63,1.05,1.35,1.86,1.35,1.3,0,2.74-.9,2.74-2.28,0-.16-.02-.32-.06-.49l-.78-3.26c-.52.11-1.02.16-1.49.16-3.57,0-5.66-2.85-5.66-6.11,0-3.09,2.63-5.94,3.89-7.27-.41-1.66-.92-2.83-.92-4.86v-.17c.03-2.12,1.71-4.88,2.41-5.12.66.11,2.41,2.68,2.44,5.42v.09c0,2.49-1.16,4.64-3.05,6.59l.75,2.9c.25-.09.7-.14,1.13-.14.2,0,.41,0,.58.03,1.66.25,3.22,1.43,3.22,3.83v.08c-.02,1.24-.86,3.56-2.94,4.45l.8,3.26c.06.22.08.43.08.63,0,1.74-1.91,2.64-3.16,2.64-1.36,0-3.07-.95-3.07-2.72,0-.76.8-1.77,1.99-1.79.99.03,1.53.81,1.53,1.6ZM85.35,70.77c-.59.67-3.35,3.31-3.36,5.64,0,2.12,1.22,4.58,3.82,4.85.09.02.25.02.42.02.53,0,1.3-.05,1.66-.16l-1.42-5.8c-1.24.29-1.69,1.11-1.69,2.19.02,1.17.62,1.82,1.5,2.53-.73-.21-2.02-1.24-2.16-3.12-.02-.16-.02-.32-.02-.48,0-1.36.52-2.39,1.86-2.91l-.61-2.76ZM84.43,63.99c0,1.98.36,2.93.67,4.23,1.02-1.11,2.85-3.06,2.86-4.78,0-1.22-.52-3.15-1.22-3.33-.58.06-2.31,1.79-2.31,3.88ZM88.24,81.02c1.35-.6,2.22-1.85,2.22-3.39,0-.3-.03-.6-.09-.92-.2-.9-1.25-1.54-2.66-1.54-.28,0-.58.03-.88.08l1.41,5.77Z" style="fill: #010101;"/>
  <g>
    <rect x="3.89" y="25.04" width="54.14" height="17.68" style="fill: none;"/>
    <path d="M20.17,29.12c-.21-.82-.56-1.63-1.73-1.63-.97,0-1.31.71-1.31,1.36,0,.86.55,1.3,1.58,1.83,1.5.77,2.14,1.35,2.14,2.53,0,1.31-1.13,2.31-2.74,2.31-.75,0-1.4-.21-1.91-.41-.1-.35-.25-1.2-.34-1.87l.39-.1c.25.84.8,1.92,2.09,1.92.9,0,1.45-.62,1.45-1.43,0-.96-.51-1.35-1.61-1.94-1.31-.71-2.04-1.31-2.04-2.47s.92-2.16,2.57-2.16c.7,0,1.38.19,1.65.24.05.45.1.95.2,1.76l-.39.08Z" style="fill: #010101;"/>
    <path d="M24.77,29.71c1.56,0,2.72,1.18,2.72,2.79,0,2.02-1.5,2.98-2.72,2.98-1.72,0-2.77-1.38-2.77-2.78,0-2.03,1.58-2.99,2.77-2.99ZM24.62,30.13c-.76,0-1.45.74-1.45,2.18,0,1.58.7,2.73,1.72,2.73.77,0,1.42-.56,1.42-2.27,0-1.46-.6-2.64-1.7-2.64Z" style="fill: #010101;"/>
    <path d="M28.26,30.12c.59-.09,1.23-.3,1.81-.54v1s1.04-.6,1.08-.62c.3-.16.56-.25.72-.25,1.37,0,2.21,1.15,2.21,2.38,0,1.89-1.5,3.09-3.13,3.39-.37-.01-.71-.12-.89-.22v1.68c0,.92.1,1,1.06,1.08v.35h-2.95v-.35c.81-.09.91-.15.91-.98v-5.67c0-.75-.03-.8-.82-.91v-.34ZM30.07,34.39c.29.29.77.49,1.18.49,1.08,0,1.78-.91,1.78-2.31s-.79-2.11-1.67-2.11c-.44,0-.96.29-1.3.54v3.39Z" style="fill: #010101;"/>
    <path d="M37.8,35.33h-2.87v-.35c.79-.08.86-.14.86-.95v-2.59c0-.82-.05-.86-.77-.95v-.31c.61-.1,1.17-.25,1.76-.51v1.37c.44-.65.96-1.33,1.58-1.33.46,0,.72.29.72.6,0,.29-.2.56-.42.69-.12.07-.22.06-.32-.03-.19-.19-.34-.31-.56-.31-.26,0-.72.39-1,1.02v2.34c0,.82.06.88,1.02.96v.35Z" style="fill: #010101;"/>
    <path d="M43.58,35.48c-.19,0-.46-.1-.59-.24-.16-.16-.24-.34-.3-.56-.5.34-1.11.8-1.5.8-.89,0-1.52-.74-1.52-1.53,0-.61.34-1.01,1.02-1.25.76-.26,1.7-.59,1.97-.81v-.25c0-.88-.45-1.4-1.1-1.4-.29,0-.46.14-.59.29-.14.17-.22.45-.34.81-.06.2-.17.29-.36.29-.24,0-.55-.25-.55-.55,0-.17.16-.32.41-.5.36-.26,1.08-.72,1.8-.87.37,0,.76.11,1.05.34.44.37.64.8.64,1.45v2.41c0,.57.21.75.44.75.15,0,.31-.06.45-.14l.12.35-1.06.62ZM42.67,32.33c-.27.14-.87.4-1.16.52-.47.21-.76.45-.76.91,0,.66.5.96.9.96.32,0,.77-.2,1.02-.45v-1.95Z" style="fill: #010101;"/>
    <path d="M48.74,35.33v-.35c.72-.08.8-.16.8-1.01v-2.06c0-.87-.31-1.46-1.13-1.46-.51,0-1,.3-1.38.65v2.92c0,.86.08.88.81.96v.35h-2.69v-.35c.82-.09.9-.14.9-.96v-2.57c0-.81-.09-.85-.76-.96v-.32c.61-.1,1.22-.26,1.75-.5v.99c.25-.17.52-.36.85-.57.35-.22.67-.37,1.04-.37,1,0,1.62.74,1.62,1.94v2.37c0,.85.08.88.8.96v.35h-2.58Z" style="fill: #010101;"/>
    <path d="M54.84,29.71c1.56,0,2.72,1.18,2.72,2.79,0,2.02-1.5,2.98-2.72,2.98-1.72,0-2.77-1.38-2.77-2.78,0-2.03,1.58-2.99,2.77-2.99ZM54.69,30.13c-.76,0-1.45.74-1.45,2.18,0,1.58.7,2.73,1.72,2.73.77,0,1.42-.56,1.42-2.27,0-1.46-.6-2.64-1.7-2.64Z" style="fill: #010101;"/>
  </g>
  <g>
    <rect x="1.02" y="67.89" width="54.14" height="17.68" style="fill: none;"/>
    <path d="M31.37,78.18v-.35c.81-.1.91-.22.74-.7-.16-.49-.41-1.11-.67-1.9h-2.69c-.2.56-.39,1.05-.56,1.56-.27.81-.1.91.92,1.04v.35h-2.88v-.35c.79-.1.99-.19,1.42-1.31l2.58-6.54.4-.07c.79,2.13,1.65,4.49,2.43,6.64.4,1.08.51,1.18,1.4,1.28v.35h-3.08ZM30.12,71.53c-.4,1.07-.82,2.21-1.2,3.19h2.33l-1.13-3.19Z" style="fill: #010101;"/>
    <path d="M34.85,78.18v-.35c.8-.08.9-.14.9-.96v-5.97c0-.76-.06-.83-.86-.94v-.32c.67-.08,1.45-.27,1.84-.42v7.65c0,.82.08.88.89.96v.35h-2.77Z" style="fill: #010101;"/>
    <path d="M40.65,78.16c-.21.11-.41.16-.54.16-.8,0-1.22-.49-1.22-1.48v-3.63h-.86l-.05-.15.34-.36h.57v-1.05c.24-.25.6-.57.84-.82l.19.03c-.02.52-.04,1.25-.04,1.84h1.42c.11.12.08.4-.07.51h-1.35v3.19c0,1.01.4,1.2.72,1.2.3,0,.59-.11.76-.2l.11.32-.82.44Z" style="fill: #010101;"/>
    <path d="M44.61,72.55c1.56,0,2.72,1.18,2.72,2.79,0,2.02-1.5,2.98-2.72,2.98-1.72,0-2.77-1.38-2.77-2.78,0-2.03,1.58-2.99,2.77-2.99ZM44.46,72.98c-.76,0-1.45.74-1.45,2.18,0,1.58.7,2.73,1.72,2.73.77,0,1.42-.56,1.42-2.27,0-1.46-.6-2.64-1.7-2.64Z" style="fill: #010101;"/>
    <path d="M51.27,78.18v-.35c1.02-.11,1.12-.16,1.12-1.22v-4.95c0-1.07-.1-1.12-1.12-1.23v-.35h3.34v.35c-1.04.11-1.13.16-1.13,1.23v4.95c0,1.07.1,1.11,1.13,1.22v.35h-3.34Z" style="fill: #010101;"/>
  </g>
  <g>
    <rect x="1.02" y="107.67" width="54.14" height="17.68" style="fill: none;"/>
    <path d="M26.77,117.95v-.35c.81-.1.91-.22.74-.7-.16-.49-.41-1.11-.67-1.9h-2.69c-.2.56-.39,1.05-.56,1.56-.27.81-.1.91.92,1.04v.35h-2.88v-.35c.79-.1.99-.19,1.42-1.31l2.58-6.54.4-.07c.79,2.13,1.65,4.49,2.43,6.64.4,1.08.51,1.18,1.4,1.28v.35h-3.08ZM25.52,111.31c-.4,1.07-.82,2.21-1.2,3.19h2.33l-1.13-3.19Z" style="fill: #010101;"/>
    <path d="M30.25,117.95v-.35c.8-.08.9-.14.9-.96v-5.97c0-.76-.06-.83-.86-.94v-.32c.67-.08,1.45-.27,1.84-.42v7.65c0,.82.08.88.89.96v.35h-2.77Z" style="fill: #010101;"/>
    <path d="M36.05,117.94c-.21.11-.41.16-.54.16-.8,0-1.22-.49-1.22-1.48v-3.63h-.86l-.05-.15.34-.36h.57v-1.05c.24-.25.6-.57.84-.82l.19.03c-.02.52-.04,1.25-.04,1.84h1.42c.11.12.08.4-.07.51h-1.35v3.19c0,1.01.4,1.2.72,1.2.3,0,.59-.11.76-.2l.11.32-.82.44Z" style="fill: #010101;"/>
    <path d="M40.01,112.33c1.56,0,2.72,1.18,2.72,2.79,0,2.02-1.5,2.98-2.72,2.98-1.72,0-2.77-1.38-2.77-2.78,0-2.03,1.58-2.99,2.77-2.99ZM39.86,112.76c-.76,0-1.45.74-1.45,2.18,0,1.58.7,2.73,1.72,2.73.77,0,1.42-.56,1.42-2.27,0-1.46-.6-2.64-1.7-2.64Z" style="fill: #010101;"/>
    <path d="M46.67,117.95v-.35c1.02-.11,1.12-.16,1.12-1.22v-4.95c0-1.07-.1-1.12-1.12-1.23v-.35h3.34v.35c-1.04.11-1.13.16-1.13,1.23v4.95c0,1.07.1,1.11,1.13,1.22v.35h-3.34Z" style="fill: #010101;"/>
    <path d="M51.27,117.95v-.35c1.02-.11,1.12-.16,1.12-1.22v-4.95c0-1.07-.1-1.12-1.12-1.23v-.35h3.34v.35c-1.04.11-1.13.16-1.13,1.23v4.95c0,1.07.1,1.11,1.13,1.22v.35h-3.34Z" style="fill: #010101;"/>
  </g>
  <g>
    <rect x="1.02" y="147.9" width="54.14" height="17.68" style="fill: none;"/>
    <path d="M24.97,152.04c-.11-.4-.26-.81-.4-1.04-.2-.34-.32-.42-1.01-.42h-1.25v6.07c0,.97.1,1.11,1.28,1.18v.35h-3.63v-.35c1.16-.08,1.26-.2,1.26-1.18v-6.07h-1.13c-.69,0-.89.08-1.1.45-.15.25-.25.55-.41,1.01h-.37c.08-.76.15-1.55.19-2.24h.29c.19.3.32.29.67.29h4.94c.35,0,.45-.05.64-.29h.3c0,.59.05,1.48.11,2.21l-.37.04Z" style="fill: #010101;"/>
    <path d="M29.56,157.13c-.8,1-1.67,1.21-2.07,1.21-1.52,0-2.44-1.25-2.44-2.68,0-.85.3-1.63.81-2.18.52-.59,1.21-.91,1.86-.91,1.08,0,1.91.93,1.91,1.93-.01.25-.05.36-.25.41-.25.05-1.85.16-3.33.21-.04,1.67.99,2.36,1.87,2.36.51,0,.99-.21,1.45-.64l.2.29ZM27.42,153.04c-.57,0-1.13.54-1.31,1.55.7,0,1.4,0,2.13-.04.22,0,.3-.06.3-.25.01-.66-.42-1.26-1.12-1.26Z" style="fill: #010101;"/>
    <path d="M33.95,158.19v-.35c.72-.08.8-.16.8-1.01v-2.06c0-.87-.31-1.46-1.13-1.46-.51,0-1,.3-1.38.65v2.92c0,.86.08.88.81.96v.35h-2.69v-.35c.82-.09.9-.14.9-.96v-2.57c0-.81-.09-.85-.76-.96v-.32c.61-.1,1.22-.26,1.75-.5v.99c.25-.17.52-.36.85-.57.35-.22.67-.37,1.04-.37,1,0,1.62.74,1.62,1.94v2.37c0,.85.08.88.8.96v.35h-2.58Z" style="fill: #010101;"/>
    <path d="M40.05,152.57c1.56,0,2.72,1.18,2.72,2.79,0,2.02-1.5,2.98-2.72,2.98-1.72,0-2.77-1.38-2.77-2.78,0-2.03,1.58-2.99,2.77-2.99ZM39.9,152.99c-.76,0-1.45.74-1.45,2.18,0,1.58.7,2.73,1.72,2.73.77,0,1.42-.56,1.42-2.27,0-1.46-.6-2.64-1.7-2.64Z" style="fill: #010101;"/>
    <path d="M46.45,158.19h-2.87v-.35c.79-.08.86-.14.86-.95v-2.59c0-.82-.05-.86-.77-.95v-.31c.61-.1,1.17-.25,1.76-.51v1.37c.44-.65.96-1.33,1.58-1.33.46,0,.72.29.72.6,0,.29-.2.56-.42.69-.12.07-.22.06-.32-.03-.19-.19-.34-.31-.56-.31-.26,0-.72.39-1,1.02v2.34c0,.82.06.88,1.02.96v.35Z" style="fill: #010101;"/>
    <path d="M51.27,158.19v-.35c1.02-.11,1.12-.16,1.12-1.22v-4.95c0-1.07-.1-1.12-1.12-1.23v-.35h3.34v.35c-1.04.11-1.13.16-1.13,1.23v4.95c0,1.07.1,1.11,1.13,1.22v.35h-3.34Z" style="fill: #010101;"/>
  </g>
  <g>
    <rect x="1.02" y="192.84" width="54.14" height="17.68" style="fill: none;"/>
    <path d="M20.37,196.98c-.11-.4-.26-.81-.4-1.04-.2-.34-.32-.42-1.01-.42h-1.25v6.07c0,.97.1,1.11,1.28,1.18v.35h-3.63v-.35c1.16-.08,1.26-.2,1.26-1.18v-6.07h-1.13c-.69,0-.89.08-1.1.45-.15.25-.25.55-.41,1.01h-.37c.08-.76.15-1.55.19-2.24h.29c.19.3.32.29.67.29h4.94c.35,0,.45-.05.64-.29h.3c0,.59.05,1.48.11,2.21l-.37.04Z" style="fill: #010101;"/>
    <path d="M24.96,202.07c-.8,1-1.67,1.21-2.07,1.21-1.52,0-2.44-1.25-2.44-2.68,0-.85.3-1.63.81-2.18.52-.59,1.21-.91,1.86-.91,1.08,0,1.91.93,1.91,1.93-.01.25-.05.36-.25.41-.25.05-1.85.16-3.33.21-.04,1.67.99,2.36,1.87,2.36.51,0,.99-.21,1.45-.64l.2.29ZM22.81,197.98c-.57,0-1.13.54-1.31,1.55.7,0,1.4,0,2.13-.04.22,0,.3-.06.3-.25.01-.66-.42-1.26-1.12-1.26Z" style="fill: #010101;"/>
    <path d="M29.35,203.13v-.35c.72-.08.8-.16.8-1.01v-2.06c0-.87-.31-1.46-1.13-1.46-.51,0-1,.3-1.38.65v2.92c0,.86.08.88.81.96v.35h-2.69v-.35c.82-.09.9-.14.9-.96v-2.57c0-.81-.09-.85-.76-.96v-.32c.61-.1,1.22-.26,1.75-.5v.99c.25-.17.52-.36.85-.57.35-.22.67-.37,1.04-.37,1,0,1.62.74,1.62,1.94v2.37c0,.85.08.88.8.96v.35h-2.58Z" style="fill: #010101;"/>
    <path d="M35.45,197.51c1.56,0,2.72,1.18,2.72,2.79,0,2.02-1.5,2.98-2.72,2.98-1.72,0-2.77-1.38-2.77-2.78,0-2.03,1.58-2.99,2.77-2.99ZM35.3,197.93c-.76,0-1.45.74-1.45,2.18,0,1.58.7,2.73,1.72,2.73.77,0,1.42-.56,1.42-2.27,0-1.46-.6-2.64-1.7-2.64Z" style="fill: #010101;"/>
    <path d="M41.84,203.13h-2.87v-.35c.79-.08.86-.14.86-.95v-2.59c0-.82-.05-.86-.77-.95v-.31c.61-.1,1.17-.25,1.76-.51v1.37c.44-.65.96-1.33,1.58-1.33.46,0,.72.29.72.6,0,.29-.2.56-.42.69-.12.07-.22.06-.32-.03-.19-.19-.34-.31-.56-.31-.26,0-.72.39-1,1.02v2.34c0,.82.06.88,1.02.96v.35Z" style="fill: #010101;"/>
    <path d="M46.67,203.13v-.35c1.02-.11,1.12-.16,1.12-1.22v-4.95c0-1.07-.1-1.12-1.12-1.23v-.35h3.34v.35c-1.04.11-1.13.16-1.13,1.23v4.95c0,1.07.1,1.11,1.13,1.22v.35h-3.34Z" style="fill: #010101;"/>
    <path d="M51.27,203.13v-.35c1.02-.11,1.12-.16,1.12-1.22v-4.95c0-1.07-.1-1.12-1.12-1.23v-.35h3.34v.35c-1.04.11-1.13.16-1.13,1.23v4.95c0,1.07.1,1.11,1.13,1.22v.35h-3.34Z" style="fill: #010101;"/>
  </g>
  <g>
    <rect x="1.02" y="231.9" width="54.14" height="17.68" style="fill: none;"/>
    <path d="M16.53,237.8c1.2.2,2.17.77,2.17,1.98,0,.85-.47,1.52-1.21,1.92-.65.36-1.28.49-2.16.49h-3.07v-.35c1.06-.1,1.12-.21,1.12-1.2v-5c0-1.03-.11-1.12-1.12-1.21v-.35h3.27c.93,0,1.52.16,1.92.44.44.3.74.76.74,1.4,0,1.17-.96,1.71-1.66,1.88ZM15.09,237.65c1.37,0,1.93-.55,1.93-1.57,0-.87-.54-1.55-1.73-1.55-.35,0-.57.04-.7.12-.1.07-.14.21-.14.61v2.38h.64ZM14.46,240.62c0,.9.21,1.12,1.1,1.12.97,0,1.92-.52,1.92-1.83s-.9-1.82-2.42-1.82h-.6v2.53Z" style="fill: #010101;"/>
    <path d="M23.77,242.34c-.19,0-.46-.1-.59-.24-.16-.16-.24-.34-.3-.56-.5.34-1.11.8-1.5.8-.89,0-1.52-.74-1.52-1.53,0-.61.34-1.01,1.02-1.25.76-.26,1.7-.59,1.97-.81v-.25c0-.88-.45-1.4-1.1-1.4-.29,0-.46.14-.59.29-.14.17-.22.45-.34.81-.06.2-.17.29-.36.29-.24,0-.55-.25-.55-.55,0-.17.16-.32.41-.5.36-.26,1.08-.72,1.8-.87.37,0,.76.11,1.05.34.44.37.64.8.64,1.45v2.41c0,.57.21.75.44.75.15,0,.31-.06.45-.14l.12.35-1.06.62ZM22.86,239.19c-.27.14-.87.4-1.16.52-.47.21-.76.45-.76.91,0,.66.5.96.9.96.32,0,.77-.2,1.02-.45v-1.95Z" style="fill: #010101;"/>
    <path d="M28.22,242.19h-2.87v-.35c.79-.08.86-.14.86-.95v-2.59c0-.82-.05-.86-.77-.95v-.31c.61-.1,1.17-.25,1.76-.51v1.37c.44-.65.96-1.33,1.58-1.33.46,0,.72.29.72.6,0,.29-.2.56-.42.69-.12.07-.22.06-.32-.03-.19-.19-.34-.31-.56-.31-.26,0-.72.39-1,1.02v2.34c0,.82.06.88,1.02.96v.35Z" style="fill: #010101;"/>
    <path d="M30.08,242.19v-.35c.79-.08.87-.14.87-.99v-2.57c0-.77-.04-.82-.79-.95v-.3c.65-.11,1.23-.27,1.77-.5v4.31c0,.85.09.91.9.99v.35h-2.76ZM31.38,235.32c-.35,0-.66-.31-.66-.66,0-.4.31-.69.67-.69s.64.29.64.69c0,.35-.29.66-.65.66Z" style="fill: #010101;"/>
    <path d="M35.85,242.18c-.21.11-.41.16-.54.16-.8,0-1.22-.49-1.22-1.48v-3.63h-.86l-.05-.15.34-.36h.57v-1.05c.24-.25.6-.57.84-.82l.19.03c-.02.52-.04,1.25-.04,1.84h1.42c.11.12.08.4-.07.51h-1.35v3.19c0,1.01.4,1.2.72,1.2.3,0,.59-.11.76-.2l.11.32-.82.44Z" style="fill: #010101;"/>
    <path d="M39.81,236.57c1.56,0,2.72,1.18,2.72,2.79,0,2.02-1.5,2.98-2.72,2.98-1.72,0-2.77-1.38-2.77-2.78,0-2.03,1.58-2.99,2.77-2.99ZM39.66,236.99c-.76,0-1.45.74-1.45,2.18,0,1.58.7,2.73,1.72,2.73.77,0,1.42-.56,1.42-2.27,0-1.46-.6-2.64-1.7-2.64Z" style="fill: #010101;"/>
    <path d="M46.92,242.19v-.35c.72-.08.8-.16.8-1.01v-2.06c0-.87-.31-1.46-1.13-1.46-.51,0-1,.3-1.38.65v2.92c0,.86.08.88.81.96v.35h-2.69v-.35c.82-.09.9-.14.9-.96v-2.57c0-.81-.09-.85-.76-.96v-.32c.61-.1,1.22-.26,1.75-.5v.99c.25-.17.52-.36.85-.57.35-.22.67-.37,1.04-.37,1,0,1.62.74,1.62,1.94v2.37c0,.85.08.88.8.96v.35h-2.58Z" style="fill: #010101;"/>
    <path d="M54.76,241.13c-.8,1-1.67,1.21-2.07,1.21-1.52,0-2.44-1.25-2.44-2.68,0-.85.3-1.63.81-2.18.52-.59,1.21-.91,1.86-.91,1.08,0,1.91.93,1.91,1.93-.01.25-.05.36-.25.41-.25.05-1.85.16-3.33.21-.04,1.67.99,2.36,1.87,2.36.51,0,.99-.21,1.45-.64l.2.29ZM52.62,237.04c-.57,0-1.13.54-1.31,1.55.7,0,1.4,0,2.13-.04.22,0,.3-.06.3-.25.01-.66-.42-1.26-1.12-1.26Z" style="fill: #010101;"/>
  </g>
  <line x1="73.69" y1="24.4" x2="73.69" y2="250.1" style="fill: none; stroke: #010101; stroke-miterlimit: 10; stroke-width: .62px;"/>
  <path d="M68.62,18.02c.43,0,1.38.02,1.95.02,3.88-.02,6.56-4.3,7.16-4.3.08,0,.12.03.12.08,0,.5-.98,4.38-5.61,5.8-1.15.35-1.13,1-1.13,1h-3.13c0-.45-.03-1.28-.03-1.65,0-.78.1-.95.65-.95Z" style="fill: #231f20;"/>
  <path d="M67.99,252.84h3.13s-.03.63,1.13.98c4.63,1.39,5.61,5.17,5.61,5.66,0,.05-.05.07-.12.07-.6,0-3.28-4.17-7.16-4.19-.58,0-1.53.02-1.95.02-.55,0-.65-.17-.65-.93,0-.37.03-1.17.03-1.61Z" style="fill: #231f20;"/>
  <line x1="69.54" y1="20.48" x2="69.54" y2="253.28" style="fill: none; stroke: #010101; stroke-miterlimit: 10; stroke-width: 2.5px;"/>
  <g>
    <line x1="73.68" y1="163.32" x2="133.39" y2="163.32" style="fill: none; stroke: #010101; stroke-linejoin: bevel; stroke-width: .62px;"/>
    <line x1="73.68" y1="159.37" x2="133.39" y2="159.37" style="fill: none; stroke: #010101; stroke-linejoin: bevel; stroke-width: .62px;"/>
    <line x1="73.68" y1="155.41" x2="133.39" y2="155.41" style="fill: none; stroke: #010101; stroke-linejoin: bevel; stroke-width: .62px;"/>
    <line x1="73.68" y1="151.46" x2="133.39" y2="151.46" style="fill: none; stroke: #010101; stroke-linejoin: bevel; stroke-width: .62px;"/>
    <line x1="73.68" y1="147.51" x2="133.39" y2="147.51" style="fill: none; stroke: #010101; stroke-linejoin: bevel; stroke-width: .62px;"/>
  </g>
  <path d="M86.37,166.6c0,.68-.88,1.38-1.66,1.38-.22,0-.44-.05-.62-.19.08.63,1.05,1.34,1.86,1.34,1.3,0,2.73-.9,2.73-2.28,0-.16-.02-.32-.06-.49l-.78-3.26c-.52.11-1.02.16-1.48.16-3.56,0-5.66-2.85-5.66-6.1,0-3.08,2.62-5.93,3.89-7.26-.41-1.66-.92-2.83-.92-4.85v-.17c.03-2.12,1.7-4.87,2.41-5.11.66.11,2.41,2.67,2.44,5.41v.09c0,2.48-1.16,4.63-3.05,6.58l.75,2.89c.25-.09.7-.14,1.12-.14.2,0,.41,0,.58.03,1.66.25,3.22,1.42,3.22,3.83v.08c-.02,1.23-.86,3.56-2.94,4.44l.8,3.26c.06.22.08.43.08.63,0,1.74-1.91,2.64-3.16,2.64-1.36,0-3.06-.95-3.06-2.72,0-.76.8-1.77,1.98-1.79.98.03,1.53.81,1.53,1.6ZM85.15,152.15c-.59.66-3.34,3.3-3.36,5.63,0,2.12,1.22,4.57,3.81,4.84.09.02.25.02.42.02.53,0,1.3-.05,1.66-.16l-1.42-5.79c-1.23.29-1.69,1.11-1.69,2.18.02,1.17.62,1.82,1.5,2.53-.73-.21-2.02-1.23-2.16-3.11-.02-.16-.02-.32-.02-.47,0-1.36.52-2.39,1.86-2.91l-.61-2.75ZM84.23,145.39c0,1.98.36,2.92.67,4.22,1.02-1.11,2.84-3.05,2.86-4.77,0-1.22-.52-3.15-1.22-3.32-.58.06-2.31,1.79-2.31,3.87ZM88.04,162.38c1.34-.6,2.22-1.85,2.22-3.38,0-.3-.03-.6-.09-.92-.2-.9-1.25-1.53-2.66-1.53-.28,0-.58.03-.88.08l1.41,5.75Z" style="fill: #010101;"/>
  <g>
    <line x1="73.68" y1="207.95" x2="133.39" y2="207.95" style="fill: none; stroke: #010101; stroke-linejoin: bevel; stroke-width: .62px;"/>
    <line x1="73.68" y1="204" x2="133.39" y2="204" style="fill: none; stroke: #010101; stroke-linejoin: bevel; stroke-width: .62px;"/>
    <line x1="73.68" y1="200.05" x2="133.39" y2="200.05" style="fill: none; stroke: #010101; stroke-linejoin: bevel; stroke-width: .62px;"/>
    <line x1="73.68" y1="196.1" x2="133.39" y2="196.1" style="fill: none; stroke: #010101; stroke-linejoin: bevel; stroke-width: .62px;"/>
    <line x1="73.68" y1="192.15" x2="133.39" y2="192.15" style="fill: none; stroke: #010101; stroke-linejoin: bevel; stroke-width: .62px;"/>
  </g>
  <path d="M86.37,211.24c0,.68-.88,1.38-1.66,1.38-.22,0-.44-.05-.62-.19.08.63,1.05,1.34,1.86,1.34,1.3,0,2.73-.9,2.73-2.28,0-.16-.02-.32-.06-.49l-.78-3.26c-.52.11-1.02.16-1.48.16-3.56,0-5.66-2.85-5.66-6.1,0-3.08,2.62-5.93,3.89-7.26-.41-1.66-.92-2.83-.92-4.85v-.17c.03-2.12,1.7-4.87,2.41-5.11.66.11,2.41,2.67,2.44,5.41v.09c0,2.48-1.16,4.63-3.05,6.58l.75,2.89c.25-.09.7-.14,1.12-.14.2,0,.41,0,.58.03,1.66.25,3.22,1.42,3.22,3.83v.08c-.02,1.23-.86,3.56-2.94,4.44l.8,3.26c.06.22.08.43.08.63,0,1.74-1.91,2.64-3.16,2.64-1.36,0-3.06-.95-3.06-2.72,0-.76.8-1.77,1.98-1.79.98.03,1.53.81,1.53,1.6ZM85.15,196.79c-.59.66-3.34,3.3-3.36,5.63,0,2.12,1.22,4.57,3.81,4.84.09.02.25.02.42.02.53,0,1.3-.05,1.66-.16l-1.42-5.79c-1.23.28-1.69,1.11-1.69,2.18.02,1.17.62,1.82,1.5,2.53-.73-.21-2.02-1.23-2.16-3.11-.02-.16-.02-.32-.02-.47,0-1.36.52-2.39,1.86-2.91l-.61-2.75ZM84.23,190.03c0,1.98.36,2.92.67,4.22,1.02-1.11,2.84-3.05,2.86-4.77,0-1.22-.52-3.15-1.22-3.32-.58.06-2.31,1.79-2.31,3.87ZM88.04,207.02c1.34-.6,2.22-1.85,2.22-3.38,0-.3-.03-.6-.09-.92-.2-.9-1.25-1.53-2.66-1.53-.28,0-.58.03-.88.08l1.41,5.75Z" style="fill: #010101;"/>
  <path d="M86.17,252.85c0,.68-.88,1.38-1.66,1.38-.22,0-.44-.05-.63-.19.08.63,1.05,1.35,1.86,1.35,1.3,0,2.74-.9,2.74-2.28,0-.16-.02-.32-.06-.49l-.78-3.26c-.52.11-1.02.16-1.49.16-3.57,0-5.66-2.85-5.66-6.11,0-3.09,2.63-5.94,3.89-7.27-.41-1.66-.92-2.83-.92-4.86v-.17c.03-2.12,1.71-4.88,2.41-5.12.66.11,2.41,2.68,2.44,5.42v.09c0,2.49-1.16,4.64-3.05,6.59l.75,2.9c.25-.09.7-.14,1.13-.14.2,0,.41,0,.58.03,1.66.25,3.22,1.43,3.22,3.83v.08c-.02,1.24-.86,3.56-2.94,4.45l.8,3.26c.06.22.08.43.08.63,0,1.74-1.91,2.64-3.16,2.64-1.36,0-3.07-.95-3.07-2.72,0-.76.8-1.77,1.99-1.79.99.03,1.53.81,1.53,1.6ZM84.95,238.37c-.59.67-3.35,3.31-3.36,5.64,0,2.12,1.22,4.58,3.82,4.85.09.02.25.02.42.02.53,0,1.3-.05,1.66-.16l-1.42-5.8c-1.24.29-1.69,1.11-1.69,2.19.02,1.17.63,1.82,1.5,2.53-.73-.21-2.02-1.24-2.16-3.12-.02-.16-.02-.32-.02-.48,0-1.36.52-2.39,1.86-2.91l-.61-2.76ZM84.03,231.59c0,1.98.36,2.93.67,4.23,1.02-1.11,2.85-3.06,2.86-4.78,0-1.22-.52-3.15-1.22-3.33-.58.06-2.31,1.79-2.31,3.88ZM87.85,248.62c1.35-.6,2.22-1.85,2.22-3.39,0-.3-.03-.6-.09-.92-.2-.9-1.25-1.54-2.66-1.54-.28,0-.58.03-.88.08l1.41,5.77Z" style="fill: #010101;"/>
  <g>
    <line x1="73.76" y1="249.64" x2="133.39" y2="249.64" style="fill: none; stroke: #010101; stroke-linejoin: bevel; stroke-width: .62px;"/>
    <line x1="73.76" y1="245.68" x2="133.39" y2="245.68" style="fill: none; stroke: #010101; stroke-linejoin: bevel; stroke-width: .62px;"/>
    <line x1="73.76" y1="241.72" x2="133.39" y2="241.72" style="fill: none; stroke: #010101; stroke-linejoin: bevel; stroke-width: .62px;"/>
    <line x1="73.76" y1="237.76" x2="133.39" y2="237.76" style="fill: none; stroke: #010101; stroke-linejoin: bevel; stroke-width: .62px;"/>
    <line x1="73.76" y1="233.81" x2="133.39" y2="233.81" style="fill: none; stroke: #010101; stroke-linejoin: bevel; stroke-width: .62px;"/>
  </g>
  <g>
    <line x1="204.91" y1="141.58" x2="232.94" y2="141.58" style="fill: none; stroke: #010101; stroke-linejoin: bevel; stroke-width: .62px;"/>
    <line x1="204.91" y1="137.63" x2="232.94" y2="137.63" style="fill: none; stroke: #010101; stroke-linejoin: bevel; stroke-width: .62px;"/>
    <line x1="204.91" y1="133.68" x2="232.94" y2="133.68" style="fill: none; stroke: #010101; stroke-linejoin: bevel; stroke-width: .62px;"/>
    <line x1="204.91" y1="129.73" x2="232.94" y2="129.73" style="fill: none; stroke: #010101; stroke-linejoin: bevel; stroke-width: .62px;"/>
    <line x1="204.91" y1="125.78" x2="232.94" y2="125.78" style="fill: none; stroke: #010101; stroke-linejoin: bevel; stroke-width: .62px;"/>
  </g>
  <g>
    <line x1="133.29" y1="40.59" x2="204.91" y2="141.6" style="fill: none; stroke: #010101; stroke-linejoin: bevel; stroke-width: .62px;"/>
    <line x1="133.29" y1="36.63" x2="204.91" y2="137.64" style="fill: none; stroke: #010101; stroke-linejoin: bevel; stroke-width: .62px;"/>
    <line x1="133.29" y1="32.67" x2="204.91" y2="133.68" style="fill: none; stroke: #010101; stroke-linejoin: bevel; stroke-width: .62px;"/>
    <line x1="133.29" y1="28.71" x2="204.91" y2="129.72" style="fill: none; stroke: #010101; stroke-linejoin: bevel; stroke-width: .62px;"/>
    <line x1="133.29" y1="24.75" x2="204.91" y2="125.76" style="fill: none; stroke: #010101; stroke-linejoin: bevel; stroke-width: .62px;"/>
  </g>
  <g>
    <line x1="133.39" y1="122.46" x2="204.91" y2="141.61" style="fill: none; stroke: #010101; stroke-linejoin: bevel; stroke-width: .62px;"/>
    <line x1="133.31" y1="78.08" x2="204.91" y2="137.65" style="fill: none; stroke: #010101; stroke-linejoin: bevel; stroke-width: .62px;"/>
    <line x1="133.31" y1="74.12" x2="204.91" y2="133.7" style="fill: none; stroke: #010101; stroke-linejoin: bevel; stroke-width: .62px;"/>
    <line x1="133.31" y1="70.16" x2="204.91" y2="129.74" style="fill: none; stroke: #010101; stroke-linejoin: bevel; stroke-width: .62px;"/>
    <line x1="133.31" y1="66.2" x2="204.91" y2="125.78" style="fill: none; stroke: #010101; stroke-linejoin: bevel; stroke-width: .62px;"/>
  </g>
  <g>
    <line x1="133.2" y1="163.32" x2="204.38" y2="141.88" style="fill: none; stroke: #010101; stroke-linejoin: bevel; stroke-width: .62px;"/>
    <line x1="133.2" y1="159.37" x2="204.91" y2="137.64" style="fill: none; stroke: #010101; stroke-linejoin: bevel; stroke-width: .62px;"/>
    <line x1="133.2" y1="155.41" x2="204.91" y2="133.68" style="fill: none; stroke: #010101; stroke-linejoin: bevel; stroke-width: .62px;"/>
    <line x1="133.2" y1="151.46" x2="204.91" y2="129.73" style="fill: none; stroke: #010101; stroke-linejoin: bevel; stroke-width: .62px;"/>
    <line x1="133.2" y1="147.51" x2="204.91" y2="125.78" style="fill: none; stroke: #010101; stroke-linejoin: bevel; stroke-width: .62px;"/>
  </g>
  <g>
    <line x1="133.2" y1="207.95" x2="204.38" y2="141.88" style="fill: none; stroke: #010101; stroke-linejoin: bevel; stroke-width: .62px;"/>
    <line x1="133.2" y1="204" x2="204.91" y2="137.64" style="fill: none; stroke: #010101; stroke-linejoin: bevel; stroke-width: .62px;"/>
    <line x1="133.2" y1="200.05" x2="204.91" y2="133.68" style="fill: none; stroke: #010101; stroke-linejoin: bevel; stroke-width: .62px;"/>
    <line x1="133.2" y1="196.1" x2="204.91" y2="129.73" style="fill: none; stroke: #010101; stroke-linejoin: bevel; stroke-width: .62px;"/>
    <line x1="133.2" y1="192.15" x2="204.91" y2="125.76" style="fill: none; stroke: #010101; stroke-linejoin: bevel; stroke-width: .62px;"/>
  </g>
  <g>
    <line x1="133.28" y1="249.64" x2="204.91" y2="141.6" style="fill: none; stroke: #010101; stroke-linejoin: bevel; stroke-width: .62px;"/>
    <line x1="133.28" y1="245.68" x2="204.91" y2="137.64" style="fill: none; stroke: #010101; stroke-linejoin: bevel; stroke-width: .62px;"/>
    <line x1="133.28" y1="241.72" x2="204.91" y2="133.68" style="fill: none; stroke: #010101; stroke-linejoin: bevel; stroke-width: .62px;"/>
    <line x1="133.28" y1="237.76" x2="204.91" y2="129.72" style="fill: none; stroke: #010101; stroke-linejoin: bevel; stroke-width: .62px;"/>
    <line x1="133.28" y1="233.81" x2="204.91" y2="125.77" style="fill: none; stroke: #010101; stroke-linejoin: bevel; stroke-width: .62px;"/>
  </g>
  <line x1="133.31" y1="82.04" x2="204.91" y2="141.61" style="fill: none; stroke: #010101; stroke-linejoin: bevel; stroke-width: .62px;"/>
  <line x1="133.39" y1="118.5" x2="204.91" y2="137.65" style="fill: none; stroke: #010101; stroke-linejoin: bevel; stroke-width: .62px;"/>
  <line x1="133.39" y1="114.54" x2="204.91" y2="133.7" style="fill: none; stroke: #010101; stroke-linejoin: bevel; stroke-width: .62px;"/>
  <line x1="133.39" y1="110.58" x2="204.91" y2="129.74" style="fill: none; stroke: #010101; stroke-linejoin: bevel; stroke-width: .62px;"/>
  <line x1="133.31" y1="106.59" x2="204.91" y2="125.78" style="fill: none; stroke: #010101; stroke-linejoin: bevel; stroke-width: .62px;"/>
  <g>
    <path d="M330.06,125.62c-1.83.15-1.98.28-2.31,2.07l-1.68,8.69c-.32,1.77-.19,1.88,1.7,2.05l-.15.6h-5.76l.13-.6c1.85-.15,1.96-.3,2.31-2.05l.82-4.31h-7.07l-.82,4.31c-.34,1.79-.17,1.9,1.66,2.05l-.13.6h-5.73l.13-.6c1.75-.13,1.96-.3,2.29-2.05l1.68-8.69c.35-1.79.24-1.9-1.64-2.07l.11-.6h5.76l-.13.6c-1.85.15-1.98.3-2.33,2.07l-.67,3.54h7.07l.67-3.54c.35-1.79.26-1.92-1.64-2.07l.15-.6h5.74l-.15.6Z" style="fill: #010101;"/>
    <path d="M339.01,137.09c-1.06,1.42-2.39,2.2-3,2.2s-.86-.5-.47-2.46l.3-1.49c-.8,1.31-1.94,2.39-2.59,2.91-.69.56-1.51,1.04-2.22,1.04-.75,0-1.38-.93-1.38-2.67,0-2.03.93-4.27,2.39-5.61,1.12-1.04,2.67-1.7,4.12-1.7,1.1,0,2.09.32,2.5.37-.39,1.36-1.14,4.68-1.55,7.12-.11.6-.06.84.11.84.26,0,.71-.28,1.49-1.08l.3.54ZM335.11,135.3c.47-.6,1.04-1.68,1.25-2.59.22-.82.41-1.6.47-2.11-.3-.15-1.01-.34-1.64-.34-2.54,0-3.73,3.28-3.73,6.08,0,.86.24,1.42.67,1.42.67,0,1.62-.67,2.98-2.46Z" style="fill: #010101;"/>
    <path d="M340.05,131.4c.82-1.14,1.94-2.09,2.61-2.09.56,0,.84.67.93,2.42.13,2.11.15,4.2.19,5.52.97-1.19,3.47-4.05,3.47-5.58,0-.37-.19-.8-.35-1.03-.09-.15-.13-.28-.04-.45.13-.37.75-.86,1.25-.86s.8.5.82,1.23c0,.67-.3,1.7-1.29,3.1-1.21,1.73-3.36,4.16-4.64,5.65h-.62c-.09-2.2-.19-5.2-.32-7.05-.09-1.12-.22-1.34-.43-1.34-.15,0-.54.19-1.23,1.01l-.35-.52Z" style="fill: #010101;"/>
    <path d="M352.81,139.29c-1.04,0-2.44-.6-2.44-3.21,0-2,.86-4.4,2.57-5.65.97-.69,1.98-1.12,2.91-1.12,1.23,0,1.92.78,1.92,1.72,0,2.16-3.17,3.17-5.58,3.6-.02.26-.04.69-.04.91,0,1.25.34,2.46,1.68,2.46.97,0,2.13-.6,3.19-1.7l.32.54c-1.75,2.03-3.45,2.46-4.53,2.46ZM352.27,133.92c3.13-.56,3.86-1.55,3.88-2.54,0-.73-.43-1.14-1.12-1.14-.65,0-2.13.47-2.76,3.69Z" style="fill: #010101;"/>
    <path d="M363.77,131.44c.67-.99,1.88-2.13,2.65-2.13s1.04,1.38,1.16,3.26c.15,1.85.24,3.75.32,5.13.97-1.44,3.13-4.51,3.1-6.08,0-.43-.22-.82-.32-1.06-.11-.26-.11-.45.09-.69.22-.28.65-.56.99-.56.5,0,.8.47.8,1.19,0,.6-.21,1.49-.75,2.48-1.75,3.21-5.35,8.26-7.83,10.97l-2.24.58-.19-.5c2.16-1.38,3.88-3.15,4.94-4.57-.02-1.73-.28-4.83-.47-6.79-.13-1.32-.35-1.81-.56-1.81-.24,0-.82.5-1.34,1.14l-.34-.56Z" style="fill: #010101;"/>
    <path d="M382.33,132.67c0,2.24-1.12,4.55-3.02,5.76-.78.47-1.68.86-2.65.86-2.05,0-2.89-1.64-2.89-3.36,0-2.98,1.6-5.11,3.47-6.04.69-.34,1.57-.58,2.22-.58,1.81,0,2.87,1.19,2.87,3.36ZM375.6,135.69c0,1.62.6,2.7,1.79,2.7,2.05,0,3.13-3.3,3.13-5.63,0-1.79-.78-2.54-1.81-2.54-2.16,0-3.1,3.26-3.1,5.48Z" style="fill: #010101;"/>
    <path d="M393.89,137.07c-1.06,1.47-2.46,2.2-3.06,2.2-.56,0-.82-.52-.47-2.31.17-.82.28-1.29.39-1.77-.88,1.21-1.92,2.33-3,3.17-.67.5-1.44.91-2.09.91-.69,0-1.47-.45-.86-3.1.32-1.34.71-2.93,1.08-4.44.17-.65.15-.84-.02-.84-.24,0-.86.45-1.4.99l-.3-.54c1.04-1.14,2.44-2.03,3.1-2.03.6,0,.63.67.24,2.33-.37,1.42-.75,2.98-1.06,4.29-.32,1.47-.19,1.88.24,1.88.75,0,2.03-1.12,3.13-2.52.65-.82,1.25-1.85,1.57-3.13.13-.5.35-1.38.52-2.31.43-.13,1.1-.37,1.55-.56h.24c-.65,2.5-1.45,5.78-1.77,7.63-.06.52,0,.73.15.73.19,0,.71-.26,1.51-1.1l.32.52Z" style="fill: #010101;"/>
    <path d="M403.18,139.29c-1.04,0-2.44-.6-2.44-3.21,0-2,.86-4.4,2.57-5.65.97-.69,1.98-1.12,2.91-1.12,1.23,0,1.92.78,1.92,1.72,0,2.16-3.17,3.17-5.58,3.6-.02.26-.04.69-.04.91,0,1.25.34,2.46,1.68,2.46.97,0,2.13-.6,3.19-1.7l.32.54c-1.75,2.03-3.45,2.46-4.53,2.46ZM402.64,133.92c3.13-.56,3.86-1.55,3.88-2.54,0-.73-.43-1.14-1.12-1.14-.65,0-2.13.47-2.76,3.69Z" style="fill: #010101;"/>
    <path d="M409.47,131.4c.82-1.14,1.94-2.09,2.61-2.09.56,0,.84.67.93,2.42.13,2.11.15,4.2.19,5.52.97-1.19,3.47-4.05,3.47-5.58,0-.37-.19-.8-.35-1.03-.09-.15-.13-.28-.04-.45.13-.37.75-.86,1.25-.86s.8.5.82,1.23c0,.67-.3,1.7-1.29,3.1-1.21,1.73-3.36,4.16-4.64,5.65h-.62c-.09-2.2-.19-5.2-.32-7.05-.09-1.12-.22-1.34-.43-1.34-.15,0-.54.19-1.23,1.01l-.35-.52Z" style="fill: #010101;"/>
    <path d="M422.24,139.29c-1.04,0-2.44-.6-2.44-3.21,0-2,.86-4.4,2.57-5.65.97-.69,1.98-1.12,2.91-1.12,1.23,0,1.92.78,1.92,1.72,0,2.16-3.17,3.17-5.58,3.6-.02.26-.04.69-.04.91,0,1.25.34,2.46,1.68,2.46.97,0,2.13-.6,3.19-1.7l.32.54c-1.75,2.03-3.45,2.46-4.53,2.46ZM421.7,133.92c3.13-.56,3.86-1.55,3.88-2.54,0-.73-.43-1.14-1.12-1.14-.65,0-2.13.47-2.76,3.69Z" style="fill: #010101;"/>
    <path d="M428.56,131.35c1.08-1.27,2.22-2.05,2.85-2.05.73,0,.67,1.14.26,3l-.13.58c1.16-1.98,2.65-3.58,3.51-3.58.52,0,.99.43.99.97,0,.47-.45,1.12-.84,1.38-.19.13-.37.13-.47,0-.24-.26-.45-.62-.71-.62-.5,0-1.55,1.53-2.05,2.42-.75,1.36-1.14,3.34-1.57,5.41-.47.09-1.14.28-1.57.43l-.15-.15c.52-1.98,1.27-5.26,1.57-6.83.24-1.21.17-1.4.02-1.4-.22,0-.75.34-1.4.99l-.3-.54Z" style="fill: #010101;"/>
    <path d="M445.35,137.07c-1.08,1.44-2.5,2.22-3.13,2.22-.54,0-.86-.43-.43-2.5.78-3.69,1.62-7.59,2.31-10.91.17-.86.11-.95-.67-1.01-.24-.02-.62-.07-.8-.07l.13-.56c.93-.11,2.03-.32,2.63-.54.39-.15.52-.17.65-.17.19,0,.19.19.09.69-.97,4.14-2.03,9.06-2.74,12.66-.13.6-.11.8.06.8.19,0,.8-.3,1.57-1.14l.32.54Z" style="fill: #010101;"/>
    <path d="M455.38,132.67c0,2.24-1.12,4.55-3.02,5.76-.78.47-1.68.86-2.65.86-2.05,0-2.89-1.64-2.89-3.36,0-2.98,1.6-5.11,3.47-6.04.69-.34,1.57-.58,2.22-.58,1.81,0,2.87,1.19,2.87,3.36ZM448.65,135.69c0,1.62.6,2.7,1.79,2.7,2.05,0,3.13-3.3,3.13-5.63,0-1.79-.78-2.54-1.81-2.54-2.16,0-3.1,3.26-3.1,5.48Z" style="fill: #010101;"/>
    <path d="M462.97,130.47c0,.37-.3.86-.67,1.04-.19.09-.32.04-.5-.15-.58-.67-1.12-.97-1.62-.97-.56,0-1.16.45-1.16,1.23,0,.71.65,1.23,1.42,1.83,1.29,1.01,1.85,1.57,1.85,2.52,0,1.77-2.24,3.32-3.99,3.32-1.04,0-2.03-.71-2.03-1.47,0-.47.52-1.06.88-1.1.15-.02.24.06.37.21.54.78,1.19,1.25,1.9,1.25.88,0,1.42-.65,1.42-1.34,0-.52-.24-1.04-1.25-1.88-1.01-.8-1.9-1.4-1.88-2.52,0-.65.26-1.36,1.12-2.09.69-.63,1.68-1.06,2.42-1.06.95,0,1.7.56,1.7,1.16Z" style="fill: #010101;"/>
    <path d="M469.78,130.32c-.43.04-1.53.13-2.18.13-.97,4.48-1.27,5.86-1.38,6.51-.11.67.02.86.22.86.43,0,1.14-.56,1.94-1.36l.28.54c-.69,1.06-2.37,2.29-3.3,2.29-.75,0-1.12-.58-.56-3.13l1.25-5.71h-1.72v-.19l.62-.69h1.29l.5-2.31c.34-.19,1.25-.78,1.7-1.19l.19.11c-.26.86-.6,2.26-.84,3.39h2.39l-.41.75Z" style="fill: #010101;"/>
    <path d="M475.15,131.44c.67-.99,1.88-2.13,2.65-2.13s1.04,1.38,1.16,3.26c.15,1.85.24,3.75.32,5.13.97-1.44,3.13-4.51,3.1-6.08,0-.43-.22-.82-.32-1.06-.11-.26-.11-.45.09-.69.22-.28.65-.56.99-.56.5,0,.8.47.8,1.19,0,.6-.21,1.49-.75,2.48-1.75,3.21-5.35,8.26-7.83,10.97l-2.24.58-.19-.5c2.16-1.38,3.88-3.15,4.94-4.57-.02-1.73-.28-4.83-.47-6.79-.13-1.32-.35-1.81-.56-1.81-.24,0-.82.5-1.34,1.14l-.34-.56Z" style="fill: #010101;"/>
    <path d="M493.71,132.67c0,2.24-1.12,4.55-3.02,5.76-.78.47-1.68.86-2.65.86-2.05,0-2.89-1.64-2.89-3.36,0-2.98,1.6-5.11,3.47-6.04.69-.34,1.57-.58,2.22-.58,1.81,0,2.87,1.19,2.87,3.36ZM486.99,135.69c0,1.62.6,2.7,1.79,2.7,2.05,0,3.13-3.3,3.13-5.63,0-1.79-.78-2.54-1.81-2.54-2.16,0-3.1,3.26-3.1,5.48Z" style="fill: #010101;"/>
    <path d="M505.27,137.07c-1.06,1.47-2.46,2.2-3.06,2.2-.56,0-.82-.52-.47-2.31.17-.82.28-1.29.39-1.77-.88,1.21-1.92,2.33-3,3.17-.67.5-1.44.91-2.09.91-.69,0-1.47-.45-.86-3.1.32-1.34.71-2.93,1.08-4.44.17-.65.15-.84-.02-.84-.24,0-.86.45-1.4.99l-.3-.54c1.04-1.14,2.44-2.03,3.1-2.03.6,0,.63.67.24,2.33-.37,1.42-.75,2.98-1.06,4.29-.32,1.47-.19,1.88.24,1.88.75,0,2.03-1.12,3.13-2.52.65-.82,1.25-1.85,1.57-3.13.13-.5.35-1.38.52-2.31.43-.13,1.1-.37,1.55-.56h.24c-.65,2.5-1.45,5.78-1.77,7.63-.06.52,0,.73.15.73.19,0,.71-.26,1.51-1.1l.32.52Z" style="fill: #010101;"/>
    <path d="M506.97,131.35c1.08-1.27,2.22-2.05,2.85-2.05.73,0,.67,1.14.26,3l-.13.58c1.16-1.98,2.65-3.58,3.51-3.58.52,0,.99.43.99.97,0,.47-.45,1.12-.84,1.38-.19.13-.37.13-.47,0-.24-.26-.45-.62-.71-.62-.5,0-1.55,1.53-2.05,2.42-.75,1.36-1.14,3.34-1.57,5.41-.47.09-1.14.28-1.57.43l-.15-.15c.52-1.98,1.27-5.26,1.57-6.83.24-1.21.17-1.4.02-1.4-.22,0-.75.34-1.4.99l-.3-.54Z" style="fill: #010101;"/>
    <path d="M520.9,130.47c0,.37-.3.86-.67,1.04-.19.09-.32.04-.5-.15-.58-.67-1.12-.97-1.62-.97-.56,0-1.16.45-1.16,1.23,0,.71.65,1.23,1.42,1.83,1.29,1.01,1.85,1.57,1.85,2.52,0,1.77-2.24,3.32-3.99,3.32-1.04,0-2.03-.71-2.03-1.47,0-.47.52-1.06.88-1.1.15-.02.24.06.37.21.54.78,1.19,1.25,1.9,1.25.88,0,1.42-.65,1.42-1.34,0-.52-.24-1.04-1.25-1.88-1.01-.8-1.9-1.4-1.88-2.52,0-.65.26-1.36,1.12-2.09.69-.63,1.68-1.06,2.42-1.06.95,0,1.7.56,1.7,1.16Z" style="fill: #010101;"/>
    <path d="M524.7,139.29c-1.04,0-2.44-.6-2.44-3.21,0-2,.86-4.4,2.57-5.65.97-.69,1.98-1.12,2.91-1.12,1.23,0,1.92.78,1.92,1.72,0,2.16-3.17,3.17-5.58,3.6-.02.26-.04.69-.04.91,0,1.25.34,2.46,1.68,2.46.97,0,2.13-.6,3.19-1.7l.32.54c-1.75,2.03-3.45,2.46-4.53,2.46ZM524.16,133.92c3.13-.56,3.86-1.55,3.88-2.54,0-.73-.43-1.14-1.12-1.14-.65,0-2.13.47-2.76,3.69Z" style="fill: #010101;"/>
    <path d="M534.68,137.07c-1.08,1.44-2.5,2.22-3.13,2.22-.54,0-.86-.43-.43-2.5.78-3.69,1.62-7.59,2.31-10.91.17-.86.11-.95-.67-1.01-.24-.02-.62-.07-.8-.07l.13-.56c.93-.11,2.03-.32,2.63-.54.39-.15.52-.17.65-.17.19,0,.19.19.09.69-.97,4.14-2.03,9.06-2.74,12.66-.13.6-.11.8.06.8.19,0,.8-.3,1.57-1.14l.32.54Z" style="fill: #010101;"/>
    <path d="M538.35,129.56c.32-1.62.82-3.19,1.85-4.33.99-1.12,2.26-1.7,3.13-1.7.75,0,1.38.43,1.38.88,0,.32-.37.86-.65,1.08-.17.13-.34.15-.5,0-.5-.54-1.04-.82-1.49-.82-.82,0-1.4.91-2.07,4.89h2.44l-.41.78c-.37.02-1.57.11-2.16.11-.41,2.37-.65,3.75-1.12,6.3-.73,3.82-1.53,5.3-2.72,6.53-.95,1.04-1.98,1.42-2.5,1.42-.8,0-1.38-.41-1.38-.95,0-.37.3-.93.67-1.19.15-.11.32-.11.41,0,.43.37.86.73,1.4.73,1.23,0,1.6-1.51,2.33-5.8.52-2.93.86-4.92,1.21-7.05h-1.83l.02-.26.6-.62h1.38Z" style="fill: #010101;"/>
    <path d="M551.41,137.15c-1.08,1.44-2.44,2.13-3.08,2.13-.56,0-.8-.56-.39-2.29.34-1.42.95-3.73,1.36-5.48.09-.41.06-.6-.06-.6-.22,0-.86.43-1.42.97l-.28-.56c1.01-1.1,2.48-2.03,3.17-2.03.54,0,.56.73.17,2.33-.41,1.55-.93,3.73-1.32,5.26-.15.58-.15.82,0,.82.22,0,.8-.3,1.55-1.1l.3.54ZM552.02,125.86c0,.67-.47,1.25-1.14,1.25-.54,0-.95-.39-.95-.97s.43-1.27,1.21-1.27c.58,0,.88.45.88.99Z" style="fill: #010101;"/>
    <path d="M563.03,137.09c-1.14,1.51-2.46,2.2-3.08,2.2-.58,0-.88-.52-.47-2.29.39-1.53.75-3.06,1.08-4.42.34-1.4.26-1.88-.28-1.88-.71,0-2.37,1.21-3.84,3.45-.39.58-.56,1.14-.73,1.81-.22.84-.5,2-.67,2.89-.54.11-1.12.28-1.53.43l-.15-.15c.6-2.35,1.23-4.98,1.77-7.37.15-.67.06-.86-.11-.86-.24,0-.78.47-1.32.99l-.3-.56c.99-1.25,2.11-2.03,2.83-2.03.62,0,.8.75.34,2.63l-.3,1.27c1.92-2.5,3.86-3.9,5.15-3.9.71,0,1.38.5.69,3.38-.28,1.19-.69,2.85-1.01,4.2-.13.58-.13.84.02.84.19,0,.82-.34,1.6-1.16l.32.52Z" style="fill: #010101;"/>
    <path d="M575.63,130.32c-.43.04-1.53.13-2.18.13-.97,4.48-1.27,5.86-1.38,6.51-.11.67.02.86.22.86.43,0,1.14-.56,1.94-1.36l.28.54c-.69,1.06-2.37,2.29-3.3,2.29-.75,0-1.12-.58-.56-3.13l1.25-5.71h-1.72v-.19l.62-.69h1.29l.5-2.31c.34-.19,1.25-.78,1.7-1.19l.19.11c-.26.86-.6,2.26-.84,3.39h2.39l-.41.75Z" style="fill: #010101;"/>
    <path d="M580.37,137.15c-1.08,1.44-2.44,2.13-3.08,2.13-.56,0-.8-.56-.39-2.29.34-1.42.95-3.73,1.36-5.48.09-.41.06-.6-.06-.6-.22,0-.86.43-1.42.97l-.28-.56c1.01-1.1,2.48-2.03,3.17-2.03.54,0,.56.73.17,2.33-.41,1.55-.93,3.73-1.32,5.26-.15.58-.15.82,0,.82.22,0,.8-.3,1.55-1.1l.3.54ZM580.97,125.86c0,.67-.47,1.25-1.14,1.25-.54,0-.95-.39-.95-.97s.43-1.27,1.21-1.27c.58,0,.88.45.88.99Z" style="fill: #010101;"/>
    <path d="M596.07,129.31c.69,0,1.38.32.71,3.08-.3,1.34-.75,3.17-1.08,4.53-.13.56-.13.8.02.8.19,0,.82-.32,1.62-1.16l.32.54c-1.1,1.47-2.54,2.2-3.17,2.2-.54,0-.84-.52-.39-2.33.37-1.49.8-3.3,1.14-4.74.28-1.19.11-1.51-.26-1.51-.69,0-2.5,1.21-3.97,3.58-.39.6-.58,1.08-.75,1.79-.19.84-.45,1.92-.62,2.8-.56.07-1.12.26-1.55.41l-.15-.15c.54-2.2,1.08-4.27,1.53-6.47.3-1.34.26-1.96-.24-1.96-.71,0-2.44,1.29-3.86,3.58-.37.58-.56,1.14-.73,1.81-.19.84-.45,1.9-.63,2.78-.56.09-1.14.26-1.55.41l-.13-.15c.56-2.2,1.25-5,1.77-7.35.15-.71.09-.88-.09-.88-.26,0-.84.45-1.38.97l-.28-.56c.99-1.19,2.11-2,2.83-2,.6,0,.78.86.39,2.52l-.32,1.47c1.98-2.72,3.99-3.99,5.07-3.99.75,0,1.27.58.67,3.32l-.15.73c1.92-2.69,4.12-4.05,5.24-4.05Z" style="fill: #010101;"/>
    <path d="M601.97,139.29c-1.04,0-2.44-.6-2.44-3.21,0-2,.86-4.4,2.57-5.65.97-.69,1.98-1.12,2.91-1.12,1.23,0,1.92.78,1.92,1.72,0,2.16-3.17,3.17-5.58,3.6-.02.26-.04.69-.04.91,0,1.25.34,2.46,1.68,2.46.97,0,2.13-.6,3.19-1.7l.32.54c-1.75,2.03-3.45,2.46-4.53,2.46ZM601.43,133.92c3.13-.56,3.86-1.55,3.88-2.54,0-.73-.43-1.14-1.12-1.14-.65,0-2.13.47-2.76,3.69Z" style="fill: #010101;"/>
    <path d="M610.77,139.29c-.65,0-1.12-.5-1.12-1.19,0-.84.56-1.45,1.34-1.45.67,0,1.12.52,1.12,1.23,0,.91-.65,1.4-1.34,1.4ZM611.83,134.89c-.8-.41-1.79-1.34-1.79-2.39,0-1.19,1.32-1.98,2.57-2.78,1.77-1.12,2.33-1.64,2.33-2.5,0-.71-.47-1.23-1.25-1.23-1.34,0-2.24,1.06-2.48,1.06-.43,0-.84-.47-.84-.97,0-.22.11-.43.39-.65.6-.47,1.47-.71,2.29-.71,1.57,0,2.91,1.49,2.91,3.19,0,.99-.43,1.79-1.98,2.82-1.83,1.23-2.48,1.64-2.48,2.33,0,.47.34.95.8,1.38l-.45.45Z" style="fill: #010101;"/>
  </g>
  <g>
    <line x1="844.11" y1="40.54" x2="784.48" y2="40.54" style="fill: none; stroke: #010101; stroke-linejoin: bevel; stroke-width: .62px;"/>
    <line x1="844.11" y1="36.58" x2="784.48" y2="36.58" style="fill: none; stroke: #010101; stroke-linejoin: bevel; stroke-width: .62px;"/>
    <line x1="844.11" y1="32.62" x2="784.48" y2="32.62" style="fill: none; stroke: #010101; stroke-linejoin: bevel; stroke-width: .62px;"/>
    <line x1="844.11" y1="28.66" x2="784.48" y2="28.66" style="fill: none; stroke: #010101; stroke-linejoin: bevel; stroke-width: .62px;"/>
    <line x1="844.11" y1="24.7" x2="784.48" y2="24.7" style="fill: none; stroke: #010101; stroke-linejoin: bevel; stroke-width: .62px;"/>
  </g>
  <g>
    <line x1="844.08" y1="81.98" x2="784.48" y2="81.98" style="fill: none; stroke: #010101; stroke-linejoin: bevel; stroke-width: .62px;"/>
    <line x1="844.08" y1="78.02" x2="784.48" y2="78.02" style="fill: none; stroke: #010101; stroke-linejoin: bevel; stroke-width: .62px;"/>
    <line x1="844.08" y1="74.06" x2="784.48" y2="74.06" style="fill: none; stroke: #010101; stroke-linejoin: bevel; stroke-width: .62px;"/>
    <line x1="844.08" y1="70.11" x2="784.48" y2="70.11" style="fill: none; stroke: #010101; stroke-linejoin: bevel; stroke-width: .62px;"/>
    <line x1="844.08" y1="66.15" x2="784.48" y2="66.15" style="fill: none; stroke: #010101; stroke-linejoin: bevel; stroke-width: .62px;"/>
  </g>
  <g>
    <line x1="844.06" y1="122.4" x2="784.48" y2="122.4" style="fill: none; stroke: #010101; stroke-linejoin: bevel; stroke-width: .62px;"/>
    <line x1="844.06" y1="118.45" x2="784.48" y2="118.45" style="fill: none; stroke: #010101; stroke-linejoin: bevel; stroke-width: .62px;"/>
    <line x1="844.06" y1="114.49" x2="784.48" y2="114.49" style="fill: none; stroke: #010101; stroke-linejoin: bevel; stroke-width: .62px;"/>
    <line x1="844.06" y1="110.53" x2="784.48" y2="110.53" style="fill: none; stroke: #010101; stroke-linejoin: bevel; stroke-width: .62px;"/>
    <line x1="844.06" y1="106.57" x2="784.48" y2="106.57" style="fill: none; stroke: #010101; stroke-linejoin: bevel; stroke-width: .62px;"/>
  </g>
  <g>
    <line x1="844.19" y1="163.26" x2="784.48" y2="163.26" style="fill: none; stroke: #010101; stroke-linejoin: bevel; stroke-width: .62px;"/>
    <line x1="844.19" y1="159.31" x2="784.48" y2="159.31" style="fill: none; stroke: #010101; stroke-linejoin: bevel; stroke-width: .62px;"/>
    <line x1="844.19" y1="155.36" x2="784.48" y2="155.36" style="fill: none; stroke: #010101; stroke-linejoin: bevel; stroke-width: .62px;"/>
    <line x1="844.19" y1="151.41" x2="784.48" y2="151.41" style="fill: none; stroke: #010101; stroke-linejoin: bevel; stroke-width: .62px;"/>
    <line x1="844.19" y1="147.46" x2="784.48" y2="147.46" style="fill: none; stroke: #010101; stroke-linejoin: bevel; stroke-width: .62px;"/>
  </g>
  <g>
    <line x1="844.19" y1="207.9" x2="784.48" y2="207.9" style="fill: none; stroke: #010101; stroke-linejoin: bevel; stroke-width: .62px;"/>
    <line x1="844.19" y1="203.95" x2="784.48" y2="203.95" style="fill: none; stroke: #010101; stroke-linejoin: bevel; stroke-width: .62px;"/>
    <line x1="844.19" y1="200" x2="784.48" y2="200" style="fill: none; stroke: #010101; stroke-linejoin: bevel; stroke-width: .62px;"/>
    <line x1="844.19" y1="196.05" x2="784.48" y2="196.05" style="fill: none; stroke: #010101; stroke-linejoin: bevel; stroke-width: .62px;"/>
    <line x1="844.19" y1="192.09" x2="784.48" y2="192.09" style="fill: none; stroke: #010101; stroke-linejoin: bevel; stroke-width: .62px;"/>
  </g>
  <g>
    <line x1="844.11" y1="249.59" x2="784.48" y2="249.59" style="fill: none; stroke: #010101; stroke-linejoin: bevel; stroke-width: .62px;"/>
    <line x1="844.11" y1="245.63" x2="784.48" y2="245.63" style="fill: none; stroke: #010101; stroke-linejoin: bevel; stroke-width: .62px;"/>
    <line x1="844.11" y1="241.67" x2="784.48" y2="241.67" style="fill: none; stroke: #010101; stroke-linejoin: bevel; stroke-width: .62px;"/>
    <line x1="844.11" y1="237.71" x2="784.48" y2="237.71" style="fill: none; stroke: #010101; stroke-linejoin: bevel; stroke-width: .62px;"/>
    <line x1="844.11" y1="233.75" x2="784.48" y2="233.75" style="fill: none; stroke: #010101; stroke-linejoin: bevel; stroke-width: .62px;"/>
  </g>
  <g>
    <line x1="712.96" y1="141.53" x2="684.93" y2="141.53" style="fill: none; stroke: #010101; stroke-linejoin: bevel; stroke-width: .62px;"/>
    <line x1="712.96" y1="137.58" x2="684.93" y2="137.58" style="fill: none; stroke: #010101; stroke-linejoin: bevel; stroke-width: .62px;"/>
    <line x1="712.96" y1="133.63" x2="684.93" y2="133.63" style="fill: none; stroke: #010101; stroke-linejoin: bevel; stroke-width: .62px;"/>
    <line x1="712.96" y1="129.68" x2="684.93" y2="129.68" style="fill: none; stroke: #010101; stroke-linejoin: bevel; stroke-width: .62px;"/>
    <line x1="712.96" y1="125.73" x2="684.93" y2="125.73" style="fill: none; stroke: #010101; stroke-linejoin: bevel; stroke-width: .62px;"/>
  </g>
  <g>
    <line x1="784.58" y1="40.54" x2="712.96" y2="141.55" style="fill: none; stroke: #010101; stroke-linejoin: bevel; stroke-width: .62px;"/>
    <line x1="784.58" y1="36.58" x2="712.96" y2="137.59" style="fill: none; stroke: #010101; stroke-linejoin: bevel; stroke-width: .62px;"/>
    <line x1="784.58" y1="32.62" x2="712.96" y2="133.63" style="fill: none; stroke: #010101; stroke-linejoin: bevel; stroke-width: .62px;"/>
    <line x1="784.58" y1="28.66" x2="712.96" y2="129.67" style="fill: none; stroke: #010101; stroke-linejoin: bevel; stroke-width: .62px;"/>
    <line x1="784.58" y1="24.7" x2="712.96" y2="125.71" style="fill: none; stroke: #010101; stroke-linejoin: bevel; stroke-width: .62px;"/>
  </g>
  <g>
    <line x1="784.48" y1="122.4" x2="712.96" y2="141.56" style="fill: none; stroke: #010101; stroke-linejoin: bevel; stroke-width: .62px;"/>
    <line x1="784.56" y1="78.02" x2="712.96" y2="137.6" style="fill: none; stroke: #010101; stroke-linejoin: bevel; stroke-width: .62px;"/>
    <line x1="784.56" y1="74.06" x2="712.96" y2="133.64" style="fill: none; stroke: #010101; stroke-linejoin: bevel; stroke-width: .62px;"/>
    <line x1="784.56" y1="70.11" x2="712.96" y2="129.68" style="fill: none; stroke: #010101; stroke-linejoin: bevel; stroke-width: .62px;"/>
    <line x1="784.56" y1="66.15" x2="712.96" y2="125.73" style="fill: none; stroke: #010101; stroke-linejoin: bevel; stroke-width: .62px;"/>
  </g>
  <g>
    <line x1="784.67" y1="163.26" x2="713.49" y2="141.82" style="fill: none; stroke: #010101; stroke-linejoin: bevel; stroke-width: .62px;"/>
    <line x1="784.67" y1="159.31" x2="712.96" y2="137.59" style="fill: none; stroke: #010101; stroke-linejoin: bevel; stroke-width: .62px;"/>
    <line x1="784.67" y1="155.36" x2="712.96" y2="133.63" style="fill: none; stroke: #010101; stroke-linejoin: bevel; stroke-width: .62px;"/>
    <line x1="784.67" y1="151.41" x2="712.96" y2="129.68" style="fill: none; stroke: #010101; stroke-linejoin: bevel; stroke-width: .62px;"/>
    <line x1="784.67" y1="147.46" x2="712.96" y2="125.73" style="fill: none; stroke: #010101; stroke-linejoin: bevel; stroke-width: .62px;"/>
  </g>
  <g>
    <line x1="784.67" y1="207.9" x2="713.49" y2="141.82" style="fill: none; stroke: #010101; stroke-linejoin: bevel; stroke-width: .62px;"/>
    <line x1="784.67" y1="203.95" x2="712.96" y2="137.59" style="fill: none; stroke: #010101; stroke-linejoin: bevel; stroke-width: .62px;"/>
    <line x1="784.67" y1="200" x2="712.96" y2="133.63" style="fill: none; stroke: #010101; stroke-linejoin: bevel; stroke-width: .62px;"/>
    <line x1="784.67" y1="196.05" x2="712.96" y2="129.68" style="fill: none; stroke: #010101; stroke-linejoin: bevel; stroke-width: .62px;"/>
    <line x1="784.67" y1="192.09" x2="712.96" y2="125.71" style="fill: none; stroke: #010101; stroke-linejoin: bevel; stroke-width: .62px;"/>
  </g>
  <g>
    <line x1="784.59" y1="249.59" x2="712.96" y2="141.54" style="fill: none; stroke: #010101; stroke-linejoin: bevel; stroke-width: .62px;"/>
    <line x1="784.59" y1="245.63" x2="712.96" y2="137.59" style="fill: none; stroke: #010101; stroke-linejoin: bevel; stroke-width: .62px;"/>
    <line x1="784.59" y1="241.67" x2="712.96" y2="133.63" style="fill: none; stroke: #010101; stroke-linejoin: bevel; stroke-width: .62px;"/>
    <line x1="784.59" y1="237.71" x2="712.96" y2="129.67" style="fill: none; stroke: #010101; stroke-linejoin: bevel; stroke-width: .62px;"/>
    <line x1="784.59" y1="233.75" x2="712.96" y2="125.71" style="fill: none; stroke: #010101; stroke-linejoin: bevel; stroke-width: .62px;"/>
  </g>
  <line x1="784.56" y1="81.98" x2="712.96" y2="141.56" style="fill: none; stroke: #010101; stroke-linejoin: bevel; stroke-width: .62px;"/>
  <line x1="784.48" y1="118.45" x2="712.96" y2="137.6" style="fill: none; stroke: #010101; stroke-linejoin: bevel; stroke-width: .62px;"/>
  <line x1="784.48" y1="114.49" x2="712.96" y2="133.64" style="fill: none; stroke: #010101; stroke-linejoin: bevel; stroke-width: .62px;"/>
  <line x1="784.48" y1="110.53" x2="712.96" y2="129.68" style="fill: none; stroke: #010101; stroke-linejoin: bevel; stroke-width: .62px;"/>
  <line x1="784.56" y1="106.54" x2="712.96" y2="125.73" style="fill: none; stroke: #010101; stroke-linejoin: bevel; stroke-width: .62px;"/>
  <path d="M67.99,252.84h3.13s-.03.63,1.13.98c4.63,1.39,5.61,5.17,5.61,5.66,0,.05-.05.07-.12.07-.6,0-3.28-4.17-7.16-4.19-.58,0-1.53.02-1.95.02-.55,0-.65-.17-.65-.93,0-.37.03-1.17.03-1.61Z" style="fill: #231f20;"/>
  <path d="M67.99,252.84h3.13s-.03.63,1.13.98c4.63,1.39,5.61,5.17,5.61,5.66,0,.05-.05.07-.12.07-.6,0-3.28-4.17-7.16-4.19-.58,0-1.53.02-1.95.02-.55,0-.65-.17-.65-.93,0-.37.03-1.17.03-1.61Z" style="fill: #231f20;"/>
</svg>